<?xml version="1.0" standalone="no"?>
<!DOCTYPE svg PUBLIC "-//W3C//DTD SVG 1.1//EN" "http://www.w3.org/Graphics/SVG/1.1/DTD/svg11.dtd" >
<!--
2011-5-25: Created.
-->
<svg xmlns="http://www.w3.org/2000/svg" xmlns:xlink="http://www.w3.org/1999/xlink" version="1.1">
<metadata>
Created by FontForge 20201107 at Fri Jul 29 21:44:14 2022
 By Ricardo Bánffy
Copyright 2011-2021 The 3270font Project Authors (https://github.com/rbanffy/3270font)
</metadata>
<defs>
<font id="3270SemiCondensed" horiz-adv-x="972" vert-adv-y="2000" >
  <font-face 
    font-family="IBM 3270 Semi-Condensed"
    font-weight="400"
    font-stretch="normal"
    units-per-em="2000"
    panose-1="2 0 5 9 0 0 0 0 0 0"
    ascent="1600"
    descent="-400"
    x-height="950"
    cap-height="1194"
    bbox="-4 -405 1544 1626"
    underline-thickness="120"
    underline-position="-200"
    unicode-range="U+000D-1FBF9"
  />
    <missing-glyph />
    <glyph glyph-name="nobreakspace" vert-adv-y="0" 
 />
    <glyph glyph-name="Euro" unicode="&#x20ac;" vert-adv-y="0" 
d="M97 646h110v122h-110v122h108l4 152l250 276h263l117 -124l-83 -88l-81 90h-166l-192 -208v-98h549l-58 -122h-491v-122h495l-63 -122h-432v-86l189 -218h164l86 96l83 -96l-115 -122h-272l-245 280v146h-110v122z" />
    <glyph glyph-name="cr" vert-adv-y="0" 
 />
    <glyph glyph-name="nl" vert-adv-y="0" 
 />
    <glyph glyph-name="eightones" vert-adv-y="0" 
d="M239 644c0 160 113 288 252 288s252 -128 252 -288c0 -158 -113 -288 -252 -288s-252 130 -252 288z" />
    <glyph glyph-name="hyphen" unicode="-" vert-adv-y="0" 
d="M214 712h537v-112h-537v112z" />
    <glyph glyph-name="greater" unicode="&#x3e;" vert-adv-y="0" 
d="M239 1100c-9 12 -14 28 -14 44s7 30 16 42s24 18 38 20c4 0 6 1 10 1c10 0 18 -3 28 -9l437 -490v-112l-435 -492c-10 -5 -21 -12 -33 -12h-3c-13 2 -24 8 -33 18c-11 10 -16 26 -18 42c0 4 -1 7 -1 11c0 12 3 22 8 33l411 456z" />
    <glyph glyph-name="less" unicode="&#x3c;" vert-adv-y="0" 
d="M740 198c9 -12 14 -28 14 -44s-7 -30 -16 -42s-24 -18 -38 -20c-4 0 -6 -1 -10 -1c-10 0 -18 3 -28 9l-437 490v112l436 492c10 5 20 12 32 12h4c13 -2 23 -8 32 -18c11 -10 16 -26 18 -42c0 -4 1 -7 1 -11c0 -12 -3 -22 -8 -33l-411 -456z" />
    <glyph glyph-name="bracketleft" unicode="[" vert-adv-y="0" 
d="M322 1318h321v-122h-216v-1098h216v-124h-321v1344z" />
    <glyph glyph-name="bracketright" unicode="]" vert-adv-y="0" 
d="M322 1318h321v-1344h-321v124h214v1098h-214v122z" />
    <glyph glyph-name="parenright" unicode=")" vert-adv-y="0" 
d="M646 354l-225 -238c-11 -10 -23 -18 -36 -18c-14 0 -27 8 -36 20c-11 12 -16 26 -16 42s5 28 16 40l209 226v440l-211 232c-11 10 -16 26 -16 42s5 28 16 38c11 12 23 18 36 18s27 -6 36 -18l225 -250c11 -12 17 -22 17 -38v-488c0 -16 -4 -36 -15 -48z" />
    <glyph glyph-name="parenleft" unicode="(" vert-adv-y="0" 
d="M346 940l225 238c11 10 23 18 36 18c14 0 27 -8 36 -20c11 -12 16 -26 16 -42s-5 -28 -16 -40l-209 -226v-440l210 -232c11 -10 17 -26 17 -42s-6 -28 -17 -38c-11 -12 -23 -18 -36 -18s-27 6 -36 18l-225 250c-11 12 -16 22 -16 38v488c0 16 4 36 15 48z" />
    <glyph glyph-name="braceright" unicode="}" vert-adv-y="0" 
d="M367 1346l17 -3l13 -7l8 -8l113 -122l10 -15l5 -15l2 -12v-344l75 -86h65v-120h-65l-75 -88v-342l-2 -13l-5 -16l-10 -15l-113 -122l-8 -7l-13 -8l-17 -3h-162v120h141l81 88v342l2 18l6 15l6 9l70 82l-70 80l-6 9l-6 15l-2 18v342l-81 88h-141v120h162z" />
    <glyph glyph-name="braceleft" unicode="{" vert-adv-y="0" 
d="M644 1346v-120h-140l-81 -88v-342c0 -20 -9 -36 -14 -42l-71 -80l71 -82c5 -6 14 -22 14 -42v-342l81 -88h140v-120h-162c-18 0 -32 12 -37 18l-114 122c-13 14 -16 34 -16 44v342l-76 88h-64v120h64l76 86v344c0 10 3 28 16 42l114 122c5 8 19 18 37 18h162z" />
    <glyph glyph-name="space" unicode=" " vert-adv-y="0" 
 />
    <glyph glyph-name="equal" unicode="=" vert-adv-y="0" 
d="M108 934h749v-112h-749v112zM108 600h749v-112h-749v112z" />
    <glyph glyph-name="afii57929" unicode="&#x2bc;" vert-adv-y="0" 
 />
    <glyph glyph-name="quotedbl" unicode="&#x22;" vert-adv-y="0" 
d="M207 1318h112v-366h-112v366zM536 1318h110v-366h-110v366z" />
    <glyph glyph-name="slash" unicode="/" vert-adv-y="0" 
d="M125 236l-13 27v30l13 27l657 730l24 16h28l25 -16l13 -27v-30l-13 -27l-657 -730l-25 -16h-28z" />
    <glyph glyph-name="backslash" unicode="\" vert-adv-y="0" 
d="M126 1051l24 15h27l25 -15l657 -730l14 -27v-31l-14 -27l-25 -15h-27l-24 15l-657 730l-14 27v31z" />
    <glyph glyph-name="bar" unicode="|" vert-adv-y="0" 
d="M427 1440h109v-1676h-109v1676z" />
    <glyph glyph-name="brokenbar" unicode="&#xa6;" vert-adv-y="0" 
d="M427 708v732h109v-732h-109zM536 468v-704h-109v704h109z" />
    <glyph glyph-name="question" unicode="?" vert-adv-y="0" 
d="M322 954h-108v184c0 16 7 32 16 42l114 124c11 12 27 14 38 14h307c14 0 29 -6 38 -16l114 -126c11 -12 16 -28 16 -42v-122c0 -16 -9 -34 -18 -44l-303 -320v-184h-108v210c0 14 6 32 17 44l306 320v72l-83 90h-265l-81 -88v-158zM428 222h108v-122h-108v122z" />
    <glyph glyph-name="exclam" unicode="!" vert-adv-y="0" 
d="M427 220h111v-122h-111v122zM427 1318h109v-856h-109v856z" />
    <glyph glyph-name="dollar" unicode="$" vert-adv-y="0" 
d="M875 1076v-120h-331v-246h162c14 0 30 -8 39 -18l112 -124c11 -12 14 -28 14 -42v-128c0 -16 -5 -32 -14 -42l-108 -120c-11 -12 -27 -18 -40 -18h-165v-240h-108v240h-321v120h321v252h-164c-13 0 -27 6 -38 18l-108 120c-9 10 -16 26 -16 42v126c0 14 5 30 16 42
l108 120c9 10 24 18 38 18h164v240h108v-240h331zM436 956h-141l-77 -86v-76l77 -84h141v246zM544 338h144l75 84v78l-79 90h-140v-252z" />
    <glyph glyph-name="cent" unicode="&#xa2;" vert-adv-y="0" 
d="M104 581c-4 5 -7 11 -7 17v313c0 14 4 27 9 34l96 117c5 6 12 10 19 10h206v246h109v-244h220v-122h-220v-366h220v-122h-220v-244h-109v244h-202c-4 0 -9 2 -13 7zM427 952h-166l-50 -60v-242l54 -64h162v366z" />
    <glyph glyph-name="sterling" unicode="&#xa3;" vert-adv-y="0" 
d="M279 224h-63v-12h50zM439 706v-426l74 -56h180l95 96l74 -88l-111 -116c-10 -10 -23 -16 -38 -16h-220c-14 0 -28 5 -38 16l-46 50c-9 10 -20 15 -28 15c-3 0 -6 -1 -8 -3l-62 -66c-6 -7 -20 -12 -37 -12h-112c-30 0 -54 25 -54 56v122c0 33 24 60 54 60h108l61 -18v386
h-223v122h223v306c0 17 6 32 15 42l108 122c12 13 25 20 39 20h115c14 0 26 -7 38 -20l108 -120l-77 -84l-92 102h-70l-76 -86v-282h220v-122h-220z" />
    <glyph glyph-name="yen" unicode="&#xa5;" vert-adv-y="0" 
d="M481 1012l291 292l76 -92l-313 -310l2 -72h329v-122h-329v-244h329v-122h-329v-244h-110v244h-330v122h330v244h-330v122h330l-2 66l-313 316l73 94z" />
    <glyph glyph-name="paragraph" unicode="&#xb6;" vert-adv-y="0" 
d="M216 1208v-372h261l74 84v200l-74 88h-261zM216 96h-101v1222h382c11 0 23 -6 34 -18l108 -120c11 -11 16 -24 16 -38v-246c0 -15 -6 -29 -16 -40l-108 -116c-9 -10 -19 -16 -23 -16h-292v-628zM551 584h110v-122h109v-118h-109v-368h-110v368h-110v118h110v122z" />
    <glyph glyph-name="currency" unicode="&#xa4;" vert-adv-y="0" 
d="M385 374l-227 -256l-61 66l209 240c-58 52 -94 132 -94 220c0 90 36 170 94 222l-212 244l61 66l228 -260c27 12 58 16 89 16s61 -4 88 -16l227 258l63 -66l-211 -242c56 -52 92 -134 92 -222c0 -86 -33 -164 -87 -216l209 -244l-63 -66l-227 258
c-29 -12 -59 -20 -91 -20c-31 0 -60 8 -87 18zM299 644c0 -106 78 -192 173 -192s172 86 172 192s-77 194 -172 194s-173 -88 -173 -194z" />
    <glyph glyph-name="zero" unicode="0" vert-adv-y="0" 
d="M482 888c29 0 54 -28 54 -60v-246c0 -32 -25 -60 -54 -60c-31 0 -54 28 -54 60v246c0 32 23 60 54 60zM214 990v-564l187 -208h164l186 204v568l-191 210h-155zM124 1056l223 246c9 12 25 18 38 18h196c14 0 29 -8 38 -18l222 -246c11 -10 16 -28 16 -42v-616
c0 -16 -7 -34 -16 -42l-216 -240c-11 -12 -27 -18 -38 -18h-205c-14 0 -31 8 -38 18l-220 244c-11 12 -16 28 -16 42v612c0 16 7 34 16 42z" />
    <glyph glyph-name="one" unicode="1" vert-adv-y="0" 
d="M448 1296c11 12 23 20 36 20c7 0 18 0 25 -4c22 -10 27 -30 27 -56v-1156h-108v1008l-172 -196l-76 78z" />
    <glyph glyph-name="two" unicode="2" vert-adv-y="0" 
d="M214 952h-106v64c0 16 7 32 16 42l218 244c11 12 25 18 38 18h313c14 0 29 -8 38 -18l110 -122c11 -12 16 -28 16 -42v-252c0 -16 -7 -32 -16 -42l-553 -628h569v-120h-700c-13 0 -27 6 -38 18s-16 28 -16 42s5 30 16 42l632 712v204l-78 86h-272l-187 -208v-40z" />
    <glyph glyph-name="three" unicode="3" vert-adv-y="0" 
d="M214 1200v120h643v-186c0 -16 -7 -32 -16 -42l-240 -266c7 -2 14 -8 18 -12l220 -244c11 -12 16 -28 16 -42v-134c0 -16 -7 -32 -16 -42l-211 -234c-11 -12 -25 -18 -38 -18h-325c-14 0 -29 8 -38 18l-119 132l76 84l102 -114h286l179 198v84l-188 210h-88
c-13 0 -27 6 -38 18s-16 26 -16 42s5 30 16 42l314 344v42h-537z" />
    <glyph glyph-name="four" unicode="4" vert-adv-y="0" 
d="M751 600h106v-112h-106v-438h-108v438h-481c-29 0 -54 28 -54 60v224c0 12 5 30 16 42l432 488c7 10 24 18 38 18h157v-720zM643 600v600h-26l-406 -458v-142h432z" />
    <glyph glyph-name="five" unicode="5" vert-adv-y="0" 
d="M857 1320v-120h-643v-246h373c13 0 27 -6 38 -18l216 -240c9 -8 16 -26 16 -42v-252c0 -14 -5 -30 -16 -42l-218 -242c-7 -10 -24 -18 -38 -18h-472v120h452l186 208v202l-184 204h-459v486h749z" />
    <glyph glyph-name="six" unicode="6" vert-adv-y="0" 
d="M108 372v2v636c0 14 5 30 16 42l258 286l77 -84l-241 -268v-330l135 150c9 10 24 18 38 18h198c13 0 26 -6 37 -18l215 -242c9 -10 16 -26 16 -42v-144c0 -14 -5 -30 -16 -42l-224 -248c-9 -10 -23 -18 -37 -18h-197c-13 0 -26 6 -37 18l-222 244c-2 2 -16 40 -16 40z
M218 492v-92l187 -210h153l191 214v100l-184 206h-153z" />
    <glyph glyph-name="seven" unicode="7" vert-adv-y="0" 
d="M428 98h-106v568c0 16 7 34 16 42l411 456v36h-641v120h749v-180c0 -14 -5 -32 -16 -42l-413 -458v-542z" />
    <glyph glyph-name="eight" unicode="8" vert-adv-y="0" 
d="M230 1166l105 132c11 14 25 20 39 20h215c16 0 28 -6 37 -16l105 -120c11 -12 16 -26 16 -40v-250l-18 -40l-65 -68l180 -214c7 -10 13 -24 13 -40v-142c0 -14 -5 -26 -16 -38l-218 -238c-9 -10 -20 -14 -34 -14h-216c-16 0 -31 6 -38 14l-211 238l-16 40v142
c0 10 7 24 18 38l176 210l-70 68c-11 10 -18 26 -18 44v238c0 10 5 24 16 36zM216 508v-94l178 -206h173l185 208v92l-185 218h-166zM322 1108v-192l78 -78h169l72 78v204l-74 84h-169z" />
    <glyph glyph-name="nine" unicode="9" vert-adv-y="0" 
d="M751 868l-236 -262c-7 -10 -24 -18 -38 -18h-212c-13 0 -27 6 -38 18l-103 114c-9 8 -16 26 -16 42v254c0 14 5 32 16 42l220 244c7 10 24 18 38 18h311c13 0 29 -6 38 -18l110 -124c9 -10 16 -26 16 -42v-856c0 -14 -5 -30 -16 -42l-144 -160l-76 84l130 140v566z
M751 1032v82l-80 86h-268l-187 -208v-206l70 -78h169z" />
    <glyph glyph-name="germandbls" unicode="&#xdf;" vert-adv-y="0" 
d="M99 1030v5l-1 6l1 5l2 5l2 4l1 5l3 4l3 4l3 4l218 228l6 6l1 1l2 2l2 1l4 3l3 3l4 2h7h7h121h5l4 1l5 -1l4 -3l5 -4l4 -3l3 -3l4 -3l4 -4l102 -120l6 -6l1 -2l1 -2l1 -2l2 -4l1 -4l1 -4v-3l1 -2l1 -3v-8v-124v-8l-1 -2l-1 -2v-2l-1 -3l-1 -2v-3v-2l-1 -2l-1 -2l-1 -2
l-1 -2l-1 -2l-2 -1l-2 -2l-2 -1l-72 -86l292 -324l3 -4l3 -4l3 -4l2 -4l1 -4v-4l1 -3l1 -2l1 -3v-8v-246l-1 -5l-2 -6l-1 -5l-1 -4l-1 -4l-2 -4l-2 -4l-3 -4l-4 -4l-103 -112l-3 -4l-4 -3l-3 -3l-4 -2l-5 -2l-4 -2l-4 -2l-5 -3l-4 -1h-226h-8h-5l-4 3l-5 2l-4 3l-3 3l-4 3
l-3 4l-110 120l72 80l93 -100h186l74 80v198l-314 346l-3 4l-3 4l-3 4l-1 5l-1 4l-1 5l-1 5l-1 4v5v14l1 5l2 5l2 4l3 4l3 4l3 4l94 110v78l-74 86h-79l-187 -196v-908h-101v932z" />
    <glyph glyph-name="section" unicode="&#xa7;" vert-adv-y="0" 
d="M598 252l45 48v202l-389 416l-45 -44v-202zM643 146v-106v-16c-2 -4 -7 -8 -9 -12s-4 -8 -8 -12l-100 -122c-4 -4 -7 -8 -11 -10c-5 -2 -9 -8 -13 -10c-2 -1 -3 -1 -5 -1c-4 0 -6 1 -9 1h-279v120h255l72 84v96l-421 448c-4 4 -7 8 -9 12l-7 14c-1 2 -1 4 -1 6
c0 4 1 7 1 10v252c0 6 3 10 5 16c2 4 4 10 6 14c4 4 7 6 11 10l88 84v106c0 4 -1 7 -1 11c0 1 0 3 1 5c0 4 3 8 5 12s5 8 7 12l103 122c2 4 6 8 11 10c4 2 7 4 12 6c4 2 10 10 15 10h281v-122h-258l-74 -88v-92l422 -448c4 -4 7 -8 9 -12c4 -6 5 -10 5 -14c2 -6 2 -12 2 -16
v-252c0 -6 -4 -12 -6 -16c-2 -6 -3 -10 -5 -14s-5 -8 -9 -12z" />
    <glyph glyph-name="numbersign" unicode="#" vert-adv-y="0" 
d="M533 952h-214v-246h214v246zM211 1196h108v-122h214v122h106v-124h108v-120h-108v-246h108v-120h-108v-120h-106v120h-214v-122h-108v122h-107v122h107v244h-107v122h107v122z" />
    <glyph glyph-name="at" unicode="@" vert-adv-y="0" 
d="M536 704v120h-28l-78 -86v-34h106zM644 704h35l70 80v328l-72 80h-385l-76 -84v-810l67 -76h574v-120h-596c-13 0 -29 6 -40 18l-99 110c-9 10 -14 26 -14 42v860c0 14 3 30 14 42l108 120c9 10 26 18 40 18h428c13 0 29 -6 40 -18l104 -116c9 -10 15 -26 15 -42v-378
c0 -14 -4 -30 -15 -42l-102 -114c-9 -10 -24 -18 -38 -18h-326c-29 0 -54 28 -54 60v118c0 14 4 30 15 42l109 122c9 10 26 14 40 14h104c29 0 54 -24 54 -56v-180z" />
    <glyph glyph-name="percent" unicode="%" vert-adv-y="0" 
d="M125 236l-13 27v30l13 27l657 730l24 16h28l25 -16l13 -27v-30l-13 -27l-657 -730l-25 -16h-28zM648 162c0 -40 27 -72 63 -72c34 0 63 32 63 72s-29 68 -63 68c-36 0 -63 -28 -63 -68zM545 160c0 102 74 186 164 186s164 -84 164 -186s-74 -186 -164 -186
s-164 84 -164 186zM211 1128c0 -40 27 -72 63 -72c34 0 63 32 63 72s-29 68 -63 68c-36 0 -63 -28 -63 -68zM108 1126c0 102 74 186 164 186s164 -84 164 -186s-74 -186 -164 -186s-164 84 -164 186z" />
    <glyph glyph-name="underscore" unicode="_" vert-adv-y="0" 
d="M97 98h769v-124h-769v124z" />
    <glyph glyph-name="ampersand" unicode="&#x26;" vert-adv-y="0" 
d="M335 484l-4 3l-3 4l-2 3l-2 4l-3 4l-2 4l-1 5v4l1 5v76h-65l-49 -78v-214l74 -84h182l56 62zM117 736l-3 3l-3 4l-3 3v4v6v6v6v246v8v6v8v2l-1 2l1 2l2 2l3 2l2 2l6 6l99 118l3 4l4 3l3 3l4 2l5 2l4 2l5 1l4 -1h5h121h4l5 -1l4 -1l4 -2l4 -2l4 -2l2 -1l2 -2l2 -1l1 -1
l2 -2l2 -1l101 -110l1 -2l1 -2l1 -2l2 -2l1 -2l1 -2l2 -5l2 -4l1 -5l2 -5v-4l1 -5v-248l1 -3l2 -2l2 -3l-1 -3l-1 -2v-3l-2 -5v-4l-1 -5l-2 -2l-1 -2l-1 -2l-6 -6l-100 -114v-68l170 -186l189 208l74 -80l-191 -210l186 -204l-72 -78l-186 202l-72 -80l-3 -4l-4 -3l-3 -3
l-4 -2l-5 -2l-4 -2l-5 -1l-4 1h-5h-224h-4l-4 -1l-4 1l-4 3l-3 2l-4 3l-2 1l-2 2l-1 1l-2 1l-2 2l-2 1l-108 118l-3 4l-2 4l-2 4l-2 5l-3 4l-2 5l-1 5l2 6l1 5v254v6v6l1 2l3 2l1 2v4v3v4v3l58 88zM427 796v200l-71 80h-77l-70 -84v-206l41 -66h112z" />
    <glyph glyph-name="minus" unicode="&#x2212;" vert-adv-y="0" 
d="M214 712h537v-112h-537v112z" />
    <glyph glyph-name="period" unicode="." vert-adv-y="0" 
d="M322 322h214v-222h-214v222z" />
    <glyph glyph-name="comma" unicode="," vert-adv-y="0" 
d="M642 378v-214l-32 -84l-243 -272l-151 168l212 238v164h214z" />
    <glyph glyph-name="colon" unicode=":" vert-adv-y="0" 
d="M322 322h214v-222h-214v222zM322 822h214v-222h-214v222z" />
    <glyph glyph-name="plus" unicode="+" vert-adv-y="0" 
d="M428 1044h108v-332h321v-126h-321v-320h-108v320h-320v126h320v332z" />
    <glyph glyph-name="logicalnot" unicode="&#xac;" vert-adv-y="0" 
d="M108 820h749v-364h-108v244h-641v120z" />
    <glyph glyph-name="macron" unicode="&#xaf;" vert-adv-y="0" 
d="M187 1318h589v-122h-589v122z" />
    <glyph glyph-name="degree" unicode="&#xb0;" vert-adv-y="0" 
d="M428 1318c119 0 213 -110 213 -242s-94 -242 -213 -242s-212 110 -212 242s93 242 212 242zM319 1076c0 -72 50 -128 109 -128s110 56 110 128s-51 130 -110 130s-109 -58 -109 -130z" />
    <glyph glyph-name="periodcentered" unicode="&#xb7;" vert-adv-y="0" 
d="M319 708h217v-246h-217v246z" />
    <glyph glyph-name="asciicircum" unicode="^" vert-adv-y="0" 
d="M239 992l-38 42l247 274c3.48576 3.8668 7.13023 7.66432 11.5054 10.4858c4.37514 2.82148 9.36014 4.65413 14.4946 5.51419c9.29422 1.55686 18.9071 0.474893 28 -2c4.26755 -1.16153 8.43862 -2.78257 12.1689 -5.15868
c3.73032 -2.37611 6.86971 -5.55627 9.83106 -8.84132l247 -274l-38 -42l-39 -42l-208 231l-208 -231z" />
    <glyph glyph-name="asciitilde" unicode="~" vert-adv-y="0" 
d="M164 1136l-38 42l108 120c3.32714 3.69682 6.78825 7.35471 11 10c4.31066 2.70741 9.14492 4.47027 14 6c2.10164 0.662181 4.23413 1.24319 6.4103 1.58918c2.17616 0.345994 4.38621 0.410816 6.5897 0.410816h117c4.73919 0 9.5049 -0.498661 14 -2
c4.96334 -1.65773 9.67159 -4.05932 14 -7c3.72017 -2.52744 6.98456 -5.66312 10 -9l197 -218h72l87 96l38 -42l38 -42l-103 -114c-3.01424 -3.33615 -6.3235 -6.41179 -10 -9c-4.03723 -2.84216 -8.33406 -5.38565 -13 -7c-4.793 -1.65831 -9.92823 -2 -15 -2h-117
c-4.40978 0 -8.83001 0.565658 -13 2c-4.51937 1.55452 -8.86818 3.59806 -13 6c-4.52411 2.62999 -8.49143 6.11742 -12 10l-197 218h-72l-92 -102z" />
    <glyph glyph-name="dieresis" unicode="&#xa8;" vert-adv-y="0" 
d="M205 1318h114v-122h-114v122zM536 1318h112v-122h-112v122z" />
    <glyph glyph-name="grave" unicode="`" vert-adv-y="0" 
d="M346 1302c11 12 25 16 39 16c13 0 27 -4 38 -16l225 -248c11 -12 14 -28 14 -42c0 -16 -3 -32 -14 -44s-26 -16 -40 -16c-13 0 -26 4 -37 16l-225 250c-11 12 -15 28 -15 42c0 16 4 32 15 42z" />
    <glyph glyph-name="acute" unicode="&#xb4;" vert-adv-y="0" 
d="M338 972c-11 12 -16 28 -16 42c0 18 7 34 16 44l216 242c11 12 25 18 38 18c16 0 31 -8 40 -18s16 -26 16 -44c0 -14 -5 -30 -16 -42l-216 -242c-9 -10 -24 -18 -40 -18c-13 0 -27 6 -38 18z" />
    <glyph glyph-name="cedilla" unicode="&#xb8;" vert-adv-y="0" 
d="M431 350h108v-323c0 -16 -7 -33 -16 -42l-101 -112c-10 -12 -26 -18 -38 -18h-164v120h142l69 77v298z" />
    <glyph glyph-name="agrave" unicode="&#xe0;" vert-adv-y="0" 
d="M648 216v252h-362l-77 -88v-74l75 -90h364zM756 216h110v-116h-605c-18 0 -33 12 -38 18l-104 124c-13 14 -16 34 -16 42v120c0 20 11 36 16 42l106 122c13 14 29 16 38 16h385v166l-74 84h-367v118h389c18 0 33 -12 38 -18l106 -120c13 -14 16 -30 16 -40v-558z
M225 1416c11 12 26 16 40 16c13 0 26 -4 37 -16l225 -248c11 -12 15 -28 15 -42c0 -16 -4 -32 -15 -44s-25 -16 -39 -16c-13 0 -27 4 -38 16l-225 250c-11 12 -14 28 -14 42c0 16 3 32 14 42z" />
    <glyph glyph-name="egrave" unicode="&#xe8;" vert-adv-y="0" 
d="M209 462v-158l77 -90h474v-112h-495c-16 0 -31 10 -36 16l-112 120c-13 14 -14 32 -14 42v484c0 20 13 34 18 40l109 126c13 14 31 22 40 22h326c18 0 33 -16 38 -22l106 -124c13 -14 16 -30 16 -40v-304h-547zM211 586h441v156l-78 88h-284l-79 -90v-154zM223 1416
c11 12 26 16 40 16c13 0 27 -4 38 -16l225 -248c11 -12 14 -28 14 -42c0 -16 -3 -32 -14 -44s-26 -16 -40 -16c-13 0 -27 4 -38 16l-225 250c-11 12 -14 28 -14 42c0 16 3 32 14 42z" />
    <glyph glyph-name="igrave" unicode="&#xec;" vert-adv-y="0" 
d="M427 952h110v-854h-110v854zM232 1420c11 12 26 16 40 16c13 0 27 -4 38 -16l225 -248c11 -12 14 -28 14 -42c0 -16 -3 -32 -14 -44s-26 -16 -40 -16c-13 0 -27 4 -38 16l-225 250c-11 12 -14 28 -14 42c0 16 3 32 14 42z" />
    <glyph glyph-name="ograve" unicode="&#xf2;" vert-adv-y="0" 
d="M211 748v-444l77 -84h292l72 84v444l-71 88h-293zM121 814l109 126c13 14 29 14 36 14h339c18 0 32 -12 39 -20l101 -126c11 -12 15 -28 15 -38v-490c0 -20 -12 -36 -17 -42l-104 -118c-10 -13 -22 -14 -31 -14h-7h-335c-16 0 -29 8 -36 14l-111 116
c-14 14 -16 32 -16 44v494c0 20 13 34 18 40zM171 1416c11 12 26 16 40 16c13 0 26 -4 37 -16l225 -248c11 -12 15 -28 15 -42c0 -16 -4 -32 -15 -44s-25 -16 -39 -16c-13 0 -27 4 -38 16l-225 250c-11 12 -14 28 -14 42c0 16 3 32 14 42z" />
    <glyph glyph-name="ugrave" unicode="&#xf9;" vert-adv-y="0" 
d="M671 168l-43 -48c-5 -6 -20 -18 -38 -18h-327c-9 0 -23 2 -36 16l-106 116c-5 6 -17 22 -17 42v676h107v-652l73 -82h285l75 88v646h108v-670c0 -6 -3 -14 -7 -24l33 -40h88v-116h-110c-18 0 -33 8 -38 16zM221 1416c11 12 26 16 40 16c13 0 27 -4 38 -16l225 -248
c11 -12 14 -28 14 -42c0 -16 -3 -32 -14 -44s-26 -16 -40 -16c-13 0 -27 4 -38 16l-225 250c-11 12 -14 28 -14 42c0 16 3 32 14 42z" />
    <glyph glyph-name="atilde" unicode="&#xe3;" vert-adv-y="0" 
d="M648 216v252h-362l-77 -88v-74l75 -90h364zM756 216h110v-116h-605c-18 0 -33 12 -38 18l-104 124c-13 14 -16 34 -16 42v120c0 20 11 36 16 42l106 122c13 14 29 16 38 16h385v166l-74 84h-367v118h389c18 0 33 -12 38 -18l106 -120c13 -14 16 -30 16 -40v-558z
M167 1254l-38 42l108 120c3.50322 3.89247 7.41192 7.47545 12 10c4.45245 2.44992 9.19968 4.33166 14 6c1.9271 0.669759 3.89013 1.25317 5.90129 1.59601c2.01116 0.342832 4.05853 0.403994 6.09871 0.403994h117c5.07449 0 10.2335 -0.259046 15 -2
c4.63103 -1.69147 8.81249 -4.39764 13 -7c2.02137 -1.2562 4.03077 -2.54187 5.89085 -4.02648c1.86008 -1.48461 3.51797 -3.20374 5.10915 -4.97352l196 -218h72l87 96l38 -42l39 -42l-103 -114c-3.01515 -3.33716 -6.27968 -6.47275 -10 -9
c-4.32857 -2.94044 -9.0367 -5.34219 -14 -7c-4.49508 -1.50142 -9.26081 -2 -14 -2h-117c-2.20348 0 -4.41351 0.0650176 -6.58962 0.411232c-2.17611 0.346215 -4.30855 0.927252 -6.41038 1.58877c-4.85574 1.52826 -9.69223 3.28765 -14 6
c-4.20839 2.64978 -7.66569 6.31025 -11 10l-197 218h-72l-92 -102z" />
    <glyph glyph-name="otilde" unicode="&#xf5;" vert-adv-y="0" 
d="M211 748v-444l77 -84h292l72 84v444l-71 88h-293zM121 814l109 126c13 14 29 14 36 14h339c18 0 32 -12 39 -20l101 -126c11 -12 15 -28 15 -38v-490c0 -20 -12 -36 -17 -42l-104 -118c-10 -13 -22 -14 -31 -14h-7h-335c-16 0 -29 8 -36 14l-111 116
c-14 14 -16 32 -16 44v494c0 20 13 34 18 40zM99 1254l-38 42l108 120c11 12 25 18 38 18h117c14 0 31 -8 38 -18l196 -218h74l86 96l38 -42l38 -42l-103 -114c-7 -10 -24 -18 -38 -18h-117c-13 0 -26 6 -37 18l-197 218h-73l-92 -102z" />
    <glyph glyph-name="ydiaeresis" vert-adv-y="0" 
d="M396 156l-290 326c-11 12 -16 26 -16 42v428h108v-404l275 -306l164 182v528h108v-552c0 -16 -5 -30 -16 -42l-553 -614l-75 84zM180 1196h113v-122h-113v122zM511 1196h112v-122h-112v122z" />
    <glyph glyph-name="Yacute" unicode="&#xdd;" vert-adv-y="0" 
d="M536 742v-642h-109v642l-303 348c-11 12 -16 26 -16 42v62h108v-38l268 -304l265 304v38h108v-58c0 -16 -4 -32 -15 -44zM434 1238c-11 12 -16 28 -16 42c0 18 7 34 16 44l216 242c11 12 25 18 38 18c16 0 30 -8 39 -18s16 -26 16 -44c0 -14 -5 -30 -16 -42l-216 -242
c-9 -10 -23 -18 -39 -18c-13 0 -27 6 -38 18z" />
    <glyph glyph-name="yacute" unicode="&#xfd;" vert-adv-y="0" 
d="M409 156l-290 326c-11 12 -16 26 -16 42v428h108v-404l275 -306l164 182v528h108v-552c0 -16 -5 -30 -16 -42l-553 -614l-76 84zM376 1092c-11 12 -16 28 -16 42c0 18 7 34 16 44l216 242c11 12 25 18 38 18c16 0 31 -8 40 -18s16 -26 16 -44c0 -14 -5 -30 -16 -42
l-216 -242c-9 -10 -24 -18 -40 -18c-13 0 -27 6 -38 18z" />
    <glyph glyph-name="eacute" unicode="&#xe9;" vert-adv-y="0" 
d="M209 462v-158l77 -90h474v-112h-495c-16 0 -31 10 -36 16l-112 120c-13 14 -14 32 -14 42v484c0 20 13 34 18 40l109 126c13 14 31 22 40 22h326c18 0 33 -16 38 -22l106 -124c13 -14 16 -30 16 -40v-304h-547zM211 586h441v156l-78 88h-284l-79 -90v-154zM448 1092
c-11 12 -16 28 -16 42c0 18 7 34 16 44l216 242c11 12 25 18 38 18c16 0 31 -8 40 -18s16 -26 16 -44c0 -14 -5 -30 -16 -42l-216 -242c-9 -10 -24 -18 -40 -18c-13 0 -27 6 -38 18z" />
    <glyph glyph-name="onequarter" unicode="&#xbc;" vert-adv-y="0" 
d="M373 828h-110v360l-15 -16l-75 84l108 118c5 6 16 18 38 18c20 0 54 -18 54 -60v-504zM763 1120c11 12 26 18 40 18s28 -6 39 -18s17 -28 17 -44s-6 -32 -15 -44l-648 -732c-11 -12 -24 -18 -38 -18s-28 6 -39 18s-16 28 -16 44s5 32 14 44zM920 346v-120h-54v-126h-108
v126h-164c-40 0 -52 40 -52 62v56v58c0 18 11 34 16 40l164 184c11 14 29 20 36 20h57c36 0 53 -36 53 -58v-242h52zM758 346v152l-108 -124v-28h108z" />
    <glyph glyph-name="onehalf" unicode="&#xbd;" vert-adv-y="0" 
d="M922 222v-120h-330v118c0 20 10 36 15 42l205 224v20l-20 22h-72l-36 -42l-79 80l52 62c7 10 22 18 40 18h120c9 0 25 -4 38 -18l49 -58c7 -8 14 -24 14 -42v-66c0 -10 -1 -28 -14 -42l-180 -198h198zM763 1120c11 12 26 18 40 18s28 -6 39 -18s17 -28 17 -44
s-6 -32 -15 -44l-648 -732c-11 -12 -24 -18 -38 -18s-28 6 -39 18s-16 28 -16 44s5 32 14 44zM373 828h-110v360l-15 -16l-75 84l108 118c5 6 16 18 38 18c20 0 54 -18 54 -60v-504z" />
    <glyph glyph-name="threequarters" unicode="&#xbe;" vert-adv-y="0" 
d="M130 1202v110h318v-92l-83 -102l67 -76c7 -10 13 -24 13 -36v-104c0 -14 -4 -26 -11 -36l-58 -76c-9 -12 -24 -20 -38 -20h-144c-13 0 -23 6 -32 14l-61 60l65 82l46 -46h103l31 40l-2 62l-27 34h-99v88l83 98h-171zM763 1120c11 12 26 18 40 18s28 -6 39 -18
s17 -28 17 -44s-6 -32 -15 -44l-648 -732c-11 -12 -24 -18 -38 -18s-28 6 -39 18s-16 28 -16 44s5 32 14 44zM920 346v-120h-54v-126h-108v126h-164c-40 0 -52 40 -52 62v56v58c0 18 11 34 16 40l164 184c11 14 29 20 36 20h57c36 0 53 -36 53 -58v-242h52zM758 346v152
l-108 -124v-28h108z" />
    <glyph glyph-name="udieresis" unicode="&#xfc;" vert-adv-y="0" 
d="M671 168l-43 -48c-5 -6 -20 -18 -38 -18h-327c-9 0 -23 2 -36 16l-106 116c-5 6 -17 22 -17 42v676h107v-652l73 -82h285l75 88v646h108v-670c0 -6 -3 -14 -7 -24l33 -40h88v-116h-110c-18 0 -33 8 -38 16zM245 1196h113v-122h-113v122zM576 1196h112v-122h-112v122z" />
    <glyph glyph-name="ccedilla" unicode="&#xe7;" vert-adv-y="0" 
d="M760 950v-118h-366l-185 -208v-198l191 -208h360v-116h-135v-321c0 -16 -8 -33 -17 -42l-100 -112c-10 -12 -26 -18 -38 -18h-164v120h141l70 77v296h-139c-7 0 -25 2 -38 16l-221 242c-5 6 -16 22 -16 42v246c0 10 3 28 16 42l216 242c5 6 18 18 36 18h389z" />
    <glyph glyph-name="adieresis" unicode="&#xe4;" vert-adv-y="0" 
d="M648 216v252h-362l-77 -88v-74l75 -90h364zM756 216h110v-116h-605c-18 0 -33 12 -38 18l-104 124c-13 14 -16 34 -16 42v120c0 20 11 36 16 42l106 122c13 14 29 16 38 16h385v166l-74 84h-367v118h389c18 0 33 -12 38 -18l106 -120c13 -14 16 -30 16 -40v-558z
M189 1320h113v-122h-113v122zM520 1320h112v-122h-112v122z" />
    <glyph glyph-name="edieresis" unicode="&#xeb;" vert-adv-y="0" 
d="M209 462v-158l77 -90h474v-112h-495c-16 0 -31 10 -36 16l-112 120c-13 14 -14 32 -14 42v484c0 20 13 34 18 40l109 126c13 14 31 22 40 22h326c18 0 33 -16 38 -22l106 -124c13 -14 16 -30 16 -40v-304h-547zM211 586h441v156l-78 88h-284l-79 -90v-154zM189 1316h113
v-122h-113v122zM520 1316h112v-122h-112v122z" />
    <glyph glyph-name="idieresis" unicode="&#xef;" vert-adv-y="0" 
d="M427 952h109v-854h-109v854zM585 1314h112v-122h-112v122zM254 1314h113v-122h-113v122z" />
    <glyph glyph-name="odieresis" unicode="&#xf6;" vert-adv-y="0" 
d="M211 748v-444l77 -84h292l72 84v444l-71 88h-293zM121 814l109 126c13 14 29 14 36 14h339c18 0 32 -12 39 -20l101 -126c11 -12 15 -28 15 -38v-490c0 -20 -12 -36 -17 -42l-104 -118c-10 -13 -22 -14 -31 -14h-7h-335c-16 0 -29 8 -36 14l-111 116
c-14 14 -16 32 -16 44v494c0 20 13 34 18 40zM187 1316h114v-122h-114v122zM518 1316h112v-122h-112v122z" />
    <glyph glyph-name="uni03BC" unicode="&#x3bc;" vert-adv-y="0" 
d="M101 952h102v-652l78 -82h290l75 88v646h108v-670c0 -6 -3 -14 -7 -24l32 -40h89v-116h-110c-18 0 -33 8 -38 16l-47 50l-43 -48c-5 -6 -20 -18 -38 -18h-333c-9 0 -23 2 -36 16l-16 18v-404h-106v1220z" />
    <glyph glyph-name="acircumflex" unicode="&#xe2;" vert-adv-y="0" 
d="M648 216v252h-362l-77 -88v-74l75 -90h364zM756 216h110v-116h-605c-18 0 -33 12 -38 18l-104 124c-13 14 -16 34 -16 42v120c0 20 11 36 16 42l106 122c13 14 29 16 38 16h385v166l-74 84h-367v118h389c18 0 33 -12 38 -18l106 -120c13 -14 16 -30 16 -40v-558z
M218 1092l-38 42l247 274c11 12 23 16 36 16c16 0 30 -6 39 -16l247 -274l-38 -42l-38 -42l-209 232l-208 -232z" />
    <glyph glyph-name="ecircumflex" unicode="&#xea;" vert-adv-y="0" 
d="M209 462v-158l77 -90h474v-112h-495c-16 0 -31 10 -36 16l-112 120c-13 14 -14 32 -14 42v484c0 20 13 34 18 40l109 126c13 14 31 22 40 22h326c18 0 33 -16 38 -22l106 -124c13 -14 16 -30 16 -40v-304h-547zM211 586h441v156l-78 88h-284l-79 -90v-154zM198 1092
l-38 42l247 274c11 12 23 16 36 16c16 0 30 -6 39 -16l247 -274l-38 -42l-38 -42l-208 232l-209 -232z" />
    <glyph glyph-name="icircumflex" unicode="&#xee;" vert-adv-y="0" 
d="M427 952h109v-854h-109v854zM239 1024l-37 42l246 274c11 12 23 16 36 16c16 0 31 -6 40 -16l246 -274l-37 -42l-38 -42l-209 232l-209 -232z" />
    <glyph glyph-name="ocircumflex" unicode="&#xf4;" vert-adv-y="0" 
d="M211 748v-444l77 -84h292l72 84v444l-71 88h-293zM121 814l109 126c13 14 29 14 36 14h339c18 0 32 -12 39 -20l101 -126c11 -12 15 -28 15 -38v-490c0 -20 -12 -36 -17 -42l-104 -118c-10 -13 -22 -14 -31 -14h-7h-335c-16 0 -29 8 -36 14l-111 116
c-14 14 -16 32 -16 44v494c0 20 13 34 18 40zM176 1092l-37 42l246 274c11 12 23 16 36 16c16 0 31 -6 40 -16l246 -274l-37 -42l-38 -42l-209 232l-209 -232z" />
    <glyph glyph-name="ucircumflex" unicode="&#xfb;" vert-adv-y="0" 
d="M671 168l-43 -48c-5 -6 -20 -18 -38 -18h-327c-9 0 -23 2 -36 16l-106 116c-5 6 -17 22 -17 42v676h107v-652l73 -82h285l75 88v646h108v-670c0 -6 -3 -14 -7 -24l33 -40h88v-116h-110c-18 0 -33 8 -38 16zM225 1092l-38 42l247 274c11 12 23 16 36 16c16 0 30 -6 39 -16
l247 -274l-38 -42l-38 -42l-208 232l-209 -232z" />
    <glyph glyph-name="aacute" unicode="&#xe1;" vert-adv-y="0" 
d="M648 216v252h-362l-77 -88v-74l75 -90h364zM756 216h110v-116h-605c-18 0 -33 12 -38 18l-104 124c-13 14 -16 34 -16 42v120c0 20 11 36 16 42l106 122c13 14 29 16 38 16h385v166l-74 84h-367v118h389c18 0 33 -12 38 -18l106 -120c13 -14 16 -30 16 -40v-558z
M427 1092c-11 12 -17 28 -17 42c0 18 8 34 17 44l216 242c11 12 24 18 37 18c16 0 31 -8 40 -18s16 -26 16 -44c0 -14 -5 -30 -16 -42l-216 -242c-9 -10 -24 -18 -40 -18c-13 0 -26 6 -37 18z" />
    <glyph glyph-name="multiply" unicode="&#xd7;" vert-adv-y="0" 
d="M171 906l77 86l233 -260l234 260l77 -86l-234 -260l234 -260l-77 -84l-234 258l-233 -258l-77 84l234 260z" />
    <glyph glyph-name="iacute" unicode="&#xed;" vert-adv-y="0" 
d="M423 952h113v-854h-113v854zM439 1090c-11 12 -16 28 -16 42c0 18 7 34 16 44l216 242c11 12 25 18 38 18c16 0 31 -8 40 -18s16 -26 16 -44c0 -14 -5 -30 -16 -42l-216 -242c-9 -10 -24 -18 -40 -18c-13 0 -27 6 -38 18z" />
    <glyph glyph-name="oacute" unicode="&#xf3;" vert-adv-y="0" 
d="M211 748v-444l77 -84h292l72 84v444l-71 88h-293zM121 814l109 126c13 14 29 14 36 14h339c18 0 32 -12 39 -20l101 -126c11 -12 15 -28 15 -38v-490c0 -20 -12 -36 -17 -42l-104 -118c-10 -13 -22 -14 -31 -14h-7h-335c-16 0 -29 8 -36 14l-111 116
c-14 14 -16 32 -16 44v494c0 20 13 34 18 40zM380 1092c-11 12 -16 28 -16 42c0 18 7 34 16 44l216 242c11 12 25 18 38 18c16 0 30 -8 39 -18s16 -26 16 -44c0 -14 -5 -30 -16 -42l-216 -242c-9 -10 -23 -18 -39 -18c-13 0 -27 6 -38 18z" />
    <glyph glyph-name="uacute" unicode="&#xfa;" vert-adv-y="0" 
d="M671 168l-43 -48c-5 -6 -20 -18 -38 -18h-327c-9 0 -23 2 -36 16l-106 116c-5 6 -17 22 -17 42v676h107v-652l73 -82h285l75 88v646h108v-670c0 -6 -3 -14 -7 -24l33 -40h88v-116h-110c-18 0 -33 8 -38 16zM428 1092c-11 12 -16 28 -16 42c0 18 7 34 16 44l216 242
c11 12 25 18 38 18c16 0 31 -8 40 -18s16 -26 16 -44c0 -14 -5 -30 -16 -42l-216 -242c-9 -10 -24 -18 -40 -18c-13 0 -27 6 -38 18z" />
    <glyph glyph-name="ntilde" unicode="&#xf1;" vert-adv-y="0" 
d="M297 884l43 48c5 6 20 18 38 18h223c9 0 23 -2 36 -16l106 -116c5 -6 17 -22 17 -42v-674h-103v650l-77 78h-180l-76 -84v-646h-108v670c0 6 3 14 7 24l-32 40h-88v118h113c18 0 29 -10 34 -18zM153 1254l-38 42l108 120c11 12 25 18 38 18h117c14 0 31 -8 38 -18
l196 -218h74l86 96l38 -42l38 -42l-103 -114c-7 -10 -24 -18 -38 -18h-117c-13 0 -26 6 -37 18l-197 218h-73l-92 -102z" />
    <glyph glyph-name="Agrave" unicode="&#xc0;" vert-adv-y="0" 
d="M214 488v-390h-106v676c0 18 11 34 16 40l319 362c11 14 25 18 36 18c18 0 32 -8 41 -18l322 -364c13 -14 15 -32 15 -42v-672h-108v390h-535zM216 600h533v146l-268 300l-265 -298v-148zM119 1566c11 12 25 16 39 16c13 0 27 -4 38 -16l225 -248c11 -12 15 -28 15 -42
c0 -16 -4 -32 -15 -44s-25 -16 -39 -16c-13 0 -27 4 -38 16l-225 250c-11 12 -15 28 -15 42c0 16 4 32 15 42z" />
    <glyph glyph-name="Egrave" unicode="&#xc8;" vert-adv-y="0" 
d="M108 1196h749v-122h-643v-362h429v-122h-429v-372h643v-120h-749v1098zM238 1570c11 12 25 16 39 16c13 0 27 -4 38 -16l225 -248c11 -12 14 -28 14 -42c0 -16 -3 -32 -14 -44s-26 -16 -40 -16c-13 0 -26 4 -37 16l-225 250c-11 12 -15 28 -15 42c0 16 4 32 15 42z" />
    <glyph glyph-name="Igrave" unicode="&#xcc;" vert-adv-y="0" 
d="M322 1194h321v-120h-107v-856h107v-122h-321v122h106v856h-106v120zM225 1570c11 12 26 16 40 16c13 0 26 -4 37 -16l225 -248c11 -12 15 -28 15 -42c0 -16 -4 -32 -15 -44s-25 -16 -39 -16c-13 0 -27 4 -38 16l-225 250c-11 12 -14 28 -14 42c0 16 3 32 14 42z" />
    <glyph glyph-name="Ograve" unicode="&#xd2;" vert-adv-y="0" 
d="M220 988v-688l70 -80h381l78 86v680l-78 90h-379zM126 1052l103 124c13 16 28 18 39 18h427c18 0 34 -10 39 -18l108 -124c13 -14 15 -32 15 -42v-730c0 -20 -9 -36 -16 -42l-110 -120c-13 -14 -29 -18 -38 -18h-425c-18 0 -33 10 -38 16l-106 114c-13 14 -16 34 -16 44
v738c0 18 11 32 18 40zM223 1568c11 12 26 16 40 16c13 0 27 -4 38 -16l225 -248c11 -12 14 -28 14 -42c0 -16 -3 -32 -14 -44s-26 -16 -40 -16c-13 0 -27 4 -38 16l-225 250c-11 12 -14 28 -14 42c0 16 3 32 14 42z" />
    <glyph glyph-name="Ugrave" unicode="&#xd9;" vert-adv-y="0" 
d="M108 1194h104v-890l78 -84h385l74 86v888h108v-912c0 -8 -2 -26 -15 -40l-104 -122c-7 -8 -22 -20 -40 -20h-432c-9 0 -24 4 -37 18l-107 118c-5 6 -14 22 -14 42v916zM212 1566c11 12 26 16 40 16c13 0 27 -4 38 -16l225 -248c11 -12 14 -28 14 -42
c0 -16 -3 -32 -14 -44s-26 -16 -40 -16c-13 0 -27 4 -38 16l-225 250c-11 12 -14 28 -14 42c0 16 3 32 14 42z" />
    <glyph glyph-name="Atilde" unicode="&#xc3;" vert-adv-y="0" 
d="M214 488v-390h-106v676c0 18 11 34 16 40l319 362c11 14 25 18 36 18c18 0 32 -8 41 -18l322 -364c13 -14 15 -32 15 -42v-672h-108v390h-535zM216 600h533v146l-268 300l-265 -298v-148zM148 1414l-38 42l108 120c11 12 25 18 38 18h117c14 0 30 -8 37 -18l197 -218h73
l87 96l38 -42l37 -42l-102 -114c-7 -10 -24 -18 -38 -18h-117c-13 0 -27 6 -38 18l-196 218h-74l-92 -102z" />
    <glyph glyph-name="Otilde" unicode="&#xd5;" vert-adv-y="0" 
d="M220 988v-688l70 -80h381l78 86v680l-78 90h-379zM126 1052l103 124c13 16 28 18 39 18h427c18 0 34 -10 39 -18l108 -124c13 -14 15 -32 15 -42v-730c0 -20 -9 -36 -16 -42l-110 -120c-13 -14 -29 -18 -38 -18h-425c-18 0 -33 10 -38 16l-106 114c-13 14 -16 34 -16 44
v738c0 18 11 32 18 40zM156 1414l-38 42l108 120c11 12 25 18 38 18h117c14 0 30 -8 37 -18l197 -218h73l87 96l38 -42l37 -42l-102 -114c-7 -10 -24 -18 -38 -18h-117c-13 0 -27 6 -38 18l-196 218h-74l-91 -102z" />
    <glyph glyph-name="uni00B9" unicode="&#xb9;" vert-adv-y="0" 
d="M358 1038l-75 84l163 180c11 12 25 16 38 16c16 0 31 -6 38 -16c16 -16 16 -34 16 -42v-734h-110v590z" />
    <glyph glyph-name="uni00B2" unicode="&#xb2;" vert-adv-y="0" 
d="M713 648v-122h-430v70v52c-0.00150416 4.68282 0.301476 9.36957 1 14c0.726599 4.81654 1.90777 9.60119 4 14c1.75465 3.68906 4.28275 6.94967 7 10l310 348v84l-76 84h-72l-79 -88v-36h-97v58c0 2.03758 0.0903254 4.08205 0.470965 6.08376
c0.38064 2.00171 0.984619 3.95274 1.52903 5.91624c1.27578 4.60125 1.73376 9.39612 3 14c0.620521 2.25613 1.51616 4.44115 2.72709 6.44336c1.21093 2.00221 2.73003 3.79747 4.27291 5.55664l107 122c3.11336 3.54981 6.27869 7.0938 10 10
c3.30743 2.58298 7.02689 4.64896 11 6c4.80075 1.63247 9.92928 2 15 2h113c1.87734 0 3.76253 -0.0596909 5.60871 -0.400319c1.84618 -0.340628 3.64062 -0.921768 5.39129 -1.59968c4.17686 -1.6174 8.24631 -3.55623 12 -6c4.16679 -2.71271 7.67736 -6.30122 11 -10
l106 -118c2.99865 -3.33812 6.35771 -6.37326 9 -10c3.00708 -4.12743 4.63092 -9.08026 6 -14c0.634536 -2.28018 1.21237 -4.58075 1.5686 -6.92062c0.356231 -2.33987 0.4314 -4.71256 0.4314 -7.07938v-128c0 -4.08374 -0.545349 -8.18413 -2 -12
c-1.80889 -4.74511 -4.15163 -9.27013 -6 -14c-0.849332 -2.17338 -1.69646 -4.35716 -2.83431 -6.39438c-1.13785 -2.03722 -2.61477 -3.86217 -4.16569 -5.60562l-290 -326h312z" />
    <glyph glyph-name="uni00B3" unicode="&#xb3;" vert-adv-y="0" 
d="M263 1196v122h387c36 0 52 -34 52 -56v-4s2 0 0 -2v-60c0 -18 -11 -32 -16 -40l-130 -148c11 -4 18 -10 20 -12l110 -122c11 -12 14 -28 14 -39v-5v-122c0 -20 -11 -36 -16 -42l-106 -120c-10 -13 -24 -17 -34 -17c-3 0 -4 1 -6 1h-165c-16 0 -29 8 -36 16l-56 56l72 88
l41 -42h123l75 84v74l-77 86h-83h-4c-6 0 -23 1 -36 14c-9 10 -16 26 -16 46c0 12 4 26 15 40l181 204h-309z" />
    <glyph glyph-name="ordfeminine" unicode="&#xaa;" vert-adv-y="0" 
d="M648 458v254h-362l-75 -88v-74l78 -92h359zM756 458h110v-116h-603c-18 0 -33 18 -38 24l-106 120c-13 14 -15 34 -15 42v120c0 20 10 34 15 40l108 124c13 14 29 16 38 16h383v162l-74 84h-365v120h389c18 0 31 -14 36 -20l108 -120c13 -14 14 -30 14 -40v-556zM97 218
h769v-120h-769v120z" />
    <glyph glyph-name="masculine" vert-adv-y="0" 
d="M205 990v-444l78 -84h289l72 84v444l-70 88h-291zM115 1056l110 122c13 14 29 16 36 16h337c18 0 32 -10 39 -18l101 -126c11 -12 14 -28 14 -38v-490c0 -20 -11 -36 -16 -42l-104 -118c-10 -13 -23 -14 -32 -14h-6h-333c-16 0 -29 8 -36 14l-112 116
c-14 14 -16 32 -16 44v494c0 20 13 34 18 40zM97 218h663v-120h-663v120z" />
    <glyph glyph-name="guillemotleft" unicode="&#xab;" vert-adv-y="0" 
d="M445 1122l77 -84l-344 -388l344 -384l-77 -84l-380 426c-9 10 -16 26 -16 44c0 12 5 28 16 40zM774 1120l77 -84l-343 -388l343 -384l-77 -84l-380 426c-9 10 -14 26 -14 42c0 14 3 28 14 42z" />
    <glyph glyph-name="guillemotright" unicode="&#xbb;" vert-adv-y="0" 
d="M515 1122l380 -430c11 -14 14 -28 14 -42c0 -16 -5 -32 -14 -42l-380 -426l-78 84l342 384l-342 388zM184 1120l381 -430c11 -12 15 -26 15 -40c0 -18 -8 -34 -15 -44l-381 -426l-76 84l342 384l-342 388z" />
    <glyph glyph-name="exclamdown" unicode="&#xa1;" vert-adv-y="0" 
d="M427 1318h109v-122h-109v122zM427 952h109v-854h-109v854z" />
    <glyph glyph-name="questiondown" unicode="&#xbf;" vert-adv-y="0" 
d="M652 1202h-117v122h117v-122zM864 472v-214c0 -2 -2 -4 -2 -6c-4 -9 -6 -17 -12 -24l-85 -108c-7 -8 -17 -21 -31 -21l-10 1h-362c-4 0 -5 -1 -8 -1c-11 0 -24 10 -30 17l-99 102c-7 8 -19 20 -19 36c0 4 1 8 1 12v156c0 16 14 35 22 44l306 314v180h109v-218
c0 -2 -1 -6 -1 -8c-5 -12 -9 -19 -17 -28l-304 -314v-102l63 -66h312l57 64v184h110z" />
    <glyph glyph-name="Adieresis" unicode="&#xc4;" vert-adv-y="0" 
d="M214 488v-390h-106v676c0 18 11 34 16 40l319 362c11 14 25 18 36 18c18 0 32 -8 41 -18l322 -364c13 -14 15 -32 15 -42v-672h-108v390h-535zM216 600h533v146l-268 300l-265 -298v-148zM245 1438h113v-122h-113v122zM576 1438h112v-122h-112v122z" />
    <glyph glyph-name="Edieresis" unicode="&#xcb;" vert-adv-y="0" 
d="M108 1196h749v-122h-643v-362h429v-122h-429v-372h643v-120h-749v1098zM247 1438h113v-122h-113v122zM578 1438h111v-122h-111v122z" />
    <glyph glyph-name="Idieresis" unicode="&#xcf;" vert-adv-y="0" 
d="M322 1194h321v-120h-107v-856h107v-122h-321v122h106v856h-106v120zM252 1432h113v-122h-113v122zM583 1432h112v-122h-112v122z" />
    <glyph glyph-name="Odieresis" unicode="&#xd6;" vert-adv-y="0" 
d="M220 988v-688l70 -80h381l78 86v680l-78 90h-379zM126 1052l103 124c13 16 28 18 39 18h427c18 0 34 -10 39 -18l108 -124c13 -14 15 -32 15 -42v-730c0 -20 -9 -36 -16 -42l-110 -120c-13 -14 -29 -18 -38 -18h-425c-18 0 -33 10 -38 16l-106 114c-13 14 -16 34 -16 44
v738c0 18 11 32 18 40zM274 1438h113v-122h-113v122zM605 1438h111v-122h-111v122z" />
    <glyph glyph-name="Udieresis" unicode="&#xdc;" vert-adv-y="0" 
d="M108 1194h104v-890l78 -84h385l74 86v888h108v-912c0 -8 -2 -26 -15 -40l-104 -122c-7 -8 -22 -20 -40 -20h-432c-9 0 -24 4 -37 18l-107 118c-5 6 -14 22 -14 42v916zM241 1444h114v-122h-114v122zM572 1444h112v-122h-112v122z" />
    <glyph glyph-name="Acircumflex" unicode="&#xc2;" vert-adv-y="0" 
d="M214 488v-390h-106v676c0 18 11 34 16 40l319 362c11 14 25 18 36 18c18 0 32 -8 41 -18l322 -364c13 -14 15 -32 15 -42v-672h-108v390h-535zM216 600h533v146l-268 300l-265 -298v-148zM225 1268l-38 42l247 274c11 12 23 16 36 16c16 0 30 -6 39 -16l247 -274l-38 -42
l-38 -42l-208 232l-209 -232z" />
    <glyph glyph-name="Ecircumflex" unicode="&#xca;" vert-adv-y="0" 
d="M108 1196h749v-122h-643v-362h429v-122h-429v-372h643v-120h-749v1098zM230 1270l-37 42l246 274c11 12 23 16 36 16c16 0 31 -6 40 -16l246 -274l-37 -42l-38 -42l-209 232l-209 -232z" />
    <glyph glyph-name="Icircumflex" unicode="&#xce;" vert-adv-y="0" 
d="M322 1194h321v-120h-107v-856h107v-122h-321v122h106v856h-106v120zM241 1268l-38 42l247 274c11 12 23 16 36 16c16 0 31 -6 40 -16l246 -274l-38 -42l-37 -42l-209 232l-209 -232z" />
    <glyph glyph-name="Ocircumflex" unicode="&#xd4;" vert-adv-y="0" 
d="M220 988v-688l70 -80h381l78 86v680l-78 90h-379zM126 1052l103 124c13 16 28 18 39 18h427c18 0 34 -10 39 -18l108 -124c13 -14 15 -32 15 -42v-730c0 -20 -9 -36 -16 -42l-110 -120c-13 -14 -29 -18 -38 -18h-425c-18 0 -33 10 -38 16l-106 114c-13 14 -16 34 -16 44
v738c0 18 11 32 18 40zM241 1268l-38 42l247 274c11 12 23 16 36 16c16 0 31 -6 40 -16l246 -274l-38 -42l-37 -42l-209 232l-209 -232z" />
    <glyph glyph-name="Ucircumflex" unicode="&#xdb;" vert-adv-y="0" 
d="M108 1194h104v-890l78 -84h385l74 86v888h108v-912c0 -8 -2 -26 -15 -40l-104 -122c-7 -8 -22 -20 -40 -20h-432c-9 0 -24 4 -37 18l-107 118c-5 6 -14 22 -14 42v916zM221 1268l-37 42l246 274c11 12 23 16 36 16c16 0 31 -6 40 -16l246 -274l-37 -42l-38 -42l-209 232
l-209 -232z" />
    <glyph glyph-name="Aacute" unicode="&#xc1;" vert-adv-y="0" 
d="M214 488v-390h-106v676c0 18 11 34 16 40l319 362c11 14 25 18 36 18c18 0 32 -8 41 -18l322 -364c13 -14 15 -32 15 -42v-672h-108v390h-535zM216 600h533v146l-268 300l-265 -298v-148zM545 1242c-11 12 -16 28 -16 42c0 18 7 34 16 44l216 242c11 12 25 18 38 18
c16 0 31 -8 40 -18s16 -26 16 -44c0 -14 -5 -30 -16 -42l-216 -242c-9 -10 -24 -18 -40 -18c-13 0 -27 6 -38 18z" />
    <glyph glyph-name="Eacute" unicode="&#xc9;" vert-adv-y="0" 
d="M108 1196h749v-122h-643v-362h429v-122h-429v-372h643v-120h-749v1098zM423 1242c-11 12 -16 28 -16 42c0 18 7 34 16 44l216 242c11 12 25 18 38 18c16 0 30 -8 39 -18s17 -26 17 -44c0 -14 -6 -30 -17 -42l-216 -242c-9 -10 -23 -18 -39 -18c-13 0 -27 6 -38 18z" />
    <glyph glyph-name="Iacute" unicode="&#xcd;" vert-adv-y="0" 
d="M322 1194h321v-120h-107v-856h107v-122h-321v122h106v856h-106v120zM445 1240c-11 12 -17 28 -17 42c0 18 8 34 17 44l216 242c11 12 24 18 37 18c16 0 31 -8 40 -18s16 -26 16 -44c0 -14 -5 -30 -16 -42l-216 -242c-9 -10 -24 -18 -40 -18c-13 0 -26 6 -37 18z" />
    <glyph glyph-name="Oacute" unicode="&#xd3;" vert-adv-y="0" 
d="M220 988v-688l70 -80h381l78 86v680l-78 90h-379zM126 1052l103 124c13 16 28 18 39 18h427c18 0 34 -10 39 -18l108 -124c13 -14 15 -32 15 -42v-730c0 -20 -9 -36 -16 -42l-110 -120c-13 -14 -29 -18 -38 -18h-425c-18 0 -33 10 -38 16l-106 114c-13 14 -16 34 -16 44
v738c0 18 11 32 18 40zM461 1240c-11 12 -16 28 -16 42c0 18 7 34 16 44l216 242c11 12 25 18 38 18c16 0 30 -8 39 -18s16 -26 16 -44c0 -14 -5 -30 -16 -42l-216 -242c-9 -10 -23 -18 -39 -18c-13 0 -27 6 -38 18z" />
    <glyph glyph-name="Uacute" unicode="&#xda;" vert-adv-y="0" 
d="M108 1194h104v-890l78 -84h385l74 86v888h108v-912c0 -8 -2 -26 -15 -40l-104 -122c-7 -8 -22 -20 -40 -20h-432c-9 0 -24 4 -37 18l-107 118c-5 6 -14 22 -14 42v916zM436 1238c-11 12 -17 28 -17 42c0 18 8 34 17 44l216 242c11 12 24 18 37 18c16 0 31 -8 40 -18
s16 -26 16 -44c0 -14 -5 -30 -16 -42l-216 -242c-9 -10 -24 -18 -40 -18c-13 0 -26 6 -37 18z" />
    <glyph glyph-name="Ntilde" unicode="&#xd1;" vert-adv-y="0" 
d="M108 100v1094h106l537 -610v610h106v-1094h-106v300l-537 616v-916h-106zM151 1412l-38 42l108 120c11 12 25 18 38 18h117c14 0 31 -8 38 -18l196 -218h74l86 96l38 -42l38 -42l-103 -114c-7 -10 -23 -18 -37 -18h-117c-13 0 -27 6 -38 18l-196 218h-74l-92 -102z" />
    <glyph glyph-name="a" unicode="a" vert-adv-y="0" 
d="M648 216v252h-362l-77 -88v-74l75 -90h364zM756 216h110v-116h-605c-18 0 -33 12 -38 18l-104 124c-13 14 -16 34 -16 42v120c0 20 11 36 16 42l106 122c13 14 29 16 38 16h385v166l-74 84h-367v118h389c18 0 33 -12 38 -18l106 -120c13 -14 16 -30 16 -40v-558z" />
    <glyph glyph-name="b" unicode="b" vert-adv-y="0" 
d="M103 104v1214h108v-368h280c18 0 33 -12 38 -18l214 -242c13 -14 17 -32 17 -42v-246c0 -20 -12 -36 -17 -42l-221 -242c-13 -14 -31 -14 -38 -14h-381zM211 218h252l190 208v198l-183 208h-259v-614z" />
    <glyph glyph-name="c" unicode="c" vert-adv-y="0" 
d="M760 950v-118h-366l-185 -208v-198l191 -208h360v-116h-382c-7 0 -25 2 -38 16l-221 242c-5 6 -16 22 -16 42v246c0 10 3 28 16 42l216 242c5 6 18 18 36 18h389z" />
    <glyph glyph-name="d" unicode="d" vert-adv-y="0" 
d="M760 102h-382c-7 0 -25 2 -38 16l-221 242c-5 6 -16 22 -16 42v246c0 10 3 28 16 42l216 242c5 6 18 18 36 18h281v368h108v-1216zM652 218v614h-258l-185 -208v-198l191 -208h252z" />
    <glyph glyph-name="e" unicode="e" vert-adv-y="0" 
d="M209 462v-158l77 -90h474v-112h-495c-16 0 -31 10 -36 16l-112 120c-13 14 -14 32 -14 42v484c0 20 13 34 18 40l109 126c13 14 31 22 40 22h326c18 0 33 -16 38 -22l106 -124c13 -14 16 -30 16 -40v-304h-547zM211 586h441v156l-78 88h-284l-79 -90v-154z" />
    <glyph glyph-name="f" unicode="f" vert-adv-y="0" 
d="M506 1198l-72 -82v-164h218v-122h-220v-732h-106v732h-223v122h223v188c0 16 3 30 14 42l103 118c11 12 23 18 39 18h278v-120h-254z" />
    <glyph glyph-name="g" unicode="g" vert-adv-y="0" 
d="M702 380l-124 -138c-7 -10 -24 -18 -38 -18h-171c-13 0 -27 6 -38 18l-212 236c-9 8 -16 26 -16 42v134c0 14 5 30 16 42l218 244c7 10 23 16 37 16h272c13 0 27 -4 38 -16l110 -124c9 -8 16 -26 16 -42v-742c0 -14 -5 -30 -16 -42l-101 -112c-7 -10 -24 -18 -38 -18
h-290c-13 0 -26 6 -37 18l-105 116l76 84l88 -98h247l68 76v324zM702 548v202l-77 86h-229l-185 -206v-86l180 -200h127z" />
    <glyph glyph-name="h" unicode="h" vert-adv-y="0" 
d="M103 96v1236h108v-536l129 144c11 10 24 10 38 10h214c14 0 27 -6 38 -16l113 -120c11 -12 17 -26 17 -44v-674h-108v648l-81 88h-171l-189 -202v-534h-108z" />
    <glyph glyph-name="i" unicode="i" vert-adv-y="0" 
d="M427 1318h109v-122h-109v122zM427 952h109v-854h-109v854z" />
    <glyph glyph-name="j" unicode="j" vert-adv-y="0" 
d="M758 34c0 -16 -7 -30 -18 -42l-108 -122c-11 -12 -22 -16 -38 -16h-223c-14 0 -27 6 -38 18l-108 122l76 84l93 -106h178l76 86v894h110v-918zM648 1318h112v-122h-112v122z" />
    <glyph glyph-name="k" unicode="k" vert-adv-y="0" 
d="M455 524l299 -342l-77 -84l-319 368h-144v-368h-111v1220h111v-732h146l324 366l76 -84z" />
    <glyph glyph-name="l" unicode="l" vert-adv-y="0" 
d="M535 246l23 -28h88v-120h-110c-14 0 -26 6 -37 18l-56 62c-11 12 -16 26 -16 42v1098h108v-1072z" />
    <glyph glyph-name="m" unicode="m" vert-adv-y="0" 
d="M538 746v-648h-110v648l-73 84h-65l-79 -86v-646h-108v852h109v-34l17 18c11 12 23 18 37 18h112c16 0 29 -6 40 -18l64 -78l69 76c11 12 24 18 38 18h115c14 0 27 -6 38 -18l106 -118c11 -12 16 -26 16 -42v-674h-108v650l-74 82h-70z" />
    <glyph glyph-name="n" unicode="n" vert-adv-y="0" 
d="M297 884l43 48c5 6 20 18 38 18h223c9 0 23 -2 36 -16l106 -116c5 -6 17 -22 17 -42v-674h-103v650l-77 78h-180l-76 -84v-646h-108v670c0 6 3 14 7 24l-32 40h-88v118h113c18 0 29 -10 34 -18z" />
    <glyph glyph-name="o" unicode="o" vert-adv-y="0" 
d="M211 748v-444l77 -84h292l72 84v444l-71 88h-293zM121 814l109 126c13 14 29 14 36 14h339c18 0 32 -12 39 -20l101 -126c11 -12 15 -28 15 -38v-490c0 -20 -12 -36 -17 -42l-104 -118c-10 -13 -22 -14 -31 -14h-7h-335c-16 0 -29 8 -36 14l-111 116
c-14 14 -16 32 -16 44v494c0 20 13 34 18 40z" />
    <glyph glyph-name="p" unicode="p" vert-adv-y="0" 
d="M103 956h396c11 0 16 0 23 -8l221 -236c5 -6 17 -22 17 -42v-268c0 -10 -4 -28 -17 -42l-216 -242c-5 -6 -18 -18 -36 -18h-280v-368h-108v1224zM211 830v-612h257l185 208v220l-174 184h-268z" />
    <glyph glyph-name="q" unicode="q" vert-adv-y="0" 
d="M756 948v-1078h110v-124h-220v362h-275c-18 0 -31 12 -36 18l-216 242c-13 14 -16 32 -16 42v238c0 20 11 36 16 42l221 242c13 14 31 16 38 16h378zM646 832h-246l-191 -208v-190l185 -208h252v606z" />
    <glyph glyph-name="r" unicode="r" vert-adv-y="0" 
d="M299 626v-526h-106v668c0 18 -6 30 -17 44c-13 12 -23 18 -41 18h-32v122h88c31 0 108 -58 108 -122v-38l124 140c11 12 24 20 38 20h131c16 0 29 -6 38 -18l113 -122c11 -12 17 -26 17 -44v-60h-108v36l-81 86h-87z" />
    <glyph glyph-name="s" unicode="s" vert-adv-y="0" 
d="M646 744l-79 88h-277l-52 -60l502 -442c13 -12 20 -26 20 -44s-6 -34 -17 -46l-113 -124c-11 -12 -24 -18 -38 -18h-324c-14 0 -27 6 -38 18l-111 120c-11 12 -16 26 -16 44v56h108v-30l79 -88h281l54 60l-501 440c-13 10 -18 26 -20 44v7c0 15 6 29 15 39l108 126
c11 12 23 18 39 18h323c14 0 26 -6 37 -18l112 -122c11 -12 16 -26 16 -42v-64h-108v38z" />
    <glyph glyph-name="t" unicode="t" vert-adv-y="0" 
d="M535 246l23 -28h88v-120h-110c-14 0 -26 6 -37 18l-56 62c-11 12 -16 26 -16 42v610h-222v122h222v366h108v-366h221v-122h-221v-584z" />
    <glyph glyph-name="u" unicode="u" vert-adv-y="0" 
d="M671 168l-43 -48c-5 -6 -20 -18 -38 -18h-327c-9 0 -23 2 -36 16l-106 116c-5 6 -17 22 -17 42v676h107v-652l73 -82h285l75 88v646h108v-670c0 -6 -3 -14 -7 -24l33 -40h88v-116h-110c-18 0 -33 8 -38 16z" />
    <glyph glyph-name="v" unicode="v" vert-adv-y="0" 
d="M211 782l271 -508l276 514v162h108v-178c0 -12 -2 -20 -7 -30l-330 -616c-11 -20 -27 -30 -47 -30s-35 10 -46 30l-326 610c-5 10 -7 18 -7 30v184h108v-168z" />
    <glyph glyph-name="w" unicode="w" vert-adv-y="0" 
d="M540 422l157 -178l61 64v644h108v-670c0 -18 -5 -32 -16 -44l-116 -122c-11 -10 -24 -16 -37 -16s-27 6 -38 18l-175 198l-180 -204c-11 -12 -24 -20 -38 -20s-26 8 -37 20l-110 124c-11 12 -16 26 -16 42v674h108v-650l55 -62l164 182v164h110v-164z" />
    <glyph glyph-name="x" unicode="x" vert-adv-y="0" 
d="M482 440l-277 -306v-38h-108v64c0 16 4 30 15 42l293 322l-293 324c-11 12 -15 28 -15 44v60h108v-40l277 -302l278 302v40h108v-60c0 -16 -6 -32 -17 -44l-293 -322l293 -324c11 -12 17 -26 17 -42v-64h-108v38z" />
    <glyph glyph-name="y" unicode="y" vert-adv-y="0" 
d="M409 156l-290 326c-11 12 -16 26 -16 42v428h108v-404l275 -306l164 182v528h108v-552c0 -16 -5 -30 -16 -42l-553 -614l-76 84z" />
    <glyph glyph-name="z" unicode="z" vert-adv-y="0" 
d="M103 952h763l-542 -734h542v-120h-763l543 732h-543v122z" />
    <glyph glyph-name="ae" unicode="&#xe6;" vert-adv-y="0" 
d="M428 588h-32l-191 -208v-78l79 -84h67l77 88v282zM428 708v36l-79 86h-252v120h274c18 0 33 -10 38 -16l72 -78l72 78c5 6 19 16 37 16h116c7 0 24 -2 37 -16l110 -120c7 -8 16 -24 16 -44v-308h-333v-158l78 -86h250v-120h-274c-9 0 -24 4 -37 18l-71 80l-70 -80
c-13 -16 -29 -18 -38 -18h-111c-18 0 -33 10 -38 16l-112 120c-13 14 -16 34 -16 44v128c0 20 11 36 16 42l224 242c13 14 28 18 37 18h54zM536 588h225v158l-79 84h-70l-76 -80v-162z" />
    <glyph glyph-name="oslash" unicode="&#xf8;" vert-adv-y="0" 
d="M626 770l-54 62h-178l-79 -86v-326zM646 622l-306 -340l51 -62h181l74 84v318zM756 742v-462c0 -16 -7 -30 -18 -42l-106 -120c-11 -12 -22 -14 -38 -14h-225c-14 0 -27 6 -38 18l-68 74l-74 -82l-76 84l94 104v468c0 16 5 30 16 42l110 122c11 12 24 20 38 20h225
c16 0 28 -2 39 -14l69 -86l74 86l75 -88z" />
    <glyph glyph-name="aring" unicode="&#xe5;" vert-adv-y="0" 
d="M648 216v252h-362l-77 -88v-74l75 -90h364zM756 216h110v-116h-605c-18 0 -33 12 -38 18l-104 124c-13 14 -16 34 -16 42v120c0 20 11 36 16 42l106 122c13 14 29 16 38 16h385v166l-74 84h-367v118h389c18 0 33 -12 38 -18l106 -120c13 -14 16 -30 16 -40v-558z
M466 1558c119 0 213 -110 213 -242s-94 -242 -213 -242s-212 110 -212 242s93 242 212 242zM356 1316c0 -72 51 -128 110 -128s110 56 110 128s-51 130 -110 130s-110 -58 -110 -130z" />
    <glyph glyph-name="uni0247" unicode="&#x247;" vert-adv-y="0" 
d="M153 100c-32 0 -57 34 -57 69c0 20 7 31 16 41l48 56c-1 2 -1 4 -1 5c0 4 1 6 1 9v472c0 20 13 34 18 40l110 126c13 14 31 22 40 22h266c18 0 33 -16 38 -22l52 -62l74 84c10 11 18 20 39 20c31 0 56 -27 56 -61c0 -19 -7 -35 -16 -45l-83 -94v-298h-263l-181 -208
l34 -40h414v-112h-436c-16 0 -31 10 -36 16l-50 54l-43 -50c-10 -11 -19 -22 -40 -22zM266 384l69 78h-69v-78zM445 586l165 188l-38 44h-225l-79 -90v-142h177zM601 586h49v56z" />
    <glyph glyph-name="fm" vert-adv-y="0" 
d="M97 1318h769v-244h-769v244zM427 952h219v-244h-219v244zM427 462h219c-41 -304 -171 -442 -439 -488z" />
    <glyph glyph-name="dup" vert-adv-y="0" 
d="M427 466h109v-368h-109v368zM427 954h109v-368h-109v368zM776 814l77 -84l-178 -200l182 -208l-78 -84l-257 292zM189 814l254 -284l-258 -292l-75 84l182 208l-179 200zM97 1318h769v-244h-769v244z" />
    <glyph glyph-name="A" unicode="A" vert-adv-y="0" 
d="M214 488v-390h-106v676c0 18 11 34 16 40l319 362c11 14 25 18 36 18c18 0 32 -8 41 -18l322 -364c13 -14 15 -32 15 -42v-672h-108v390h-535zM216 600h533v146l-268 300l-265 -298v-148z" />
    <glyph glyph-name="B" unicode="B" vert-adv-y="0" 
d="M214 218v858h-106v118h479c18 0 32 -10 39 -16l216 -250c11 -12 15 -26 15 -40c0 -20 -7 -36 -16 -46l-182 -194l182 -198c11 -12 16 -28 16 -40c0 -18 -7 -34 -16 -44l-220 -250c-13 -14 -29 -18 -38 -18h-475v120h106zM562 586h-240v-368h238l167 188zM560 708l167 180
l-164 188h-241v-368h238z" />
    <glyph glyph-name="C" unicode="C" vert-adv-y="0" 
d="M857 1058l-76 -84l-95 102h-175l-295 -328v-202l297 -328h171l94 110l79 -84l-110 -128c-7 -8 -22 -18 -40 -18h-216c-9 0 -24 6 -37 20l-330 360c-5 6 -16 22 -16 42v252c0 10 1 28 14 42l330 364c5 6 20 16 38 16h217c9 0 25 0 38 -14z" />
    <glyph glyph-name="D" unicode="D" vert-adv-y="0" 
d="M322 220h241l186 206v440l-186 210h-241v-856zM214 1076h-106v118h479c18 0 33 -12 38 -18l216 -244c13 -14 16 -32 16 -42v-488c0 -20 -11 -38 -16 -44l-218 -240c-13 -14 -29 -20 -38 -20h-477v120h106v858z" />
    <glyph glyph-name="E" unicode="E" vert-adv-y="0" 
d="M108 1196h749v-122h-643v-362h429v-122h-429v-372h643v-120h-749v1098z" />
    <glyph glyph-name="F" unicode="F" vert-adv-y="0" 
d="M108 1194h749v-120h-643v-362h537v-112h-537v-502h-106v1096z" />
    <glyph glyph-name="G" unicode="G" vert-adv-y="0" 
d="M428 600h429v-112h-106v-386h-373c-9 0 -25 2 -38 16l-216 238c-5 6 -16 22 -16 42v496c0 10 1 32 14 46l216 238c5 8 20 16 38 16h216c9 0 27 -2 40 -16l135 -152l-78 -84l-118 134h-171l-184 -206v-446l184 -202h244v266h-216v112z" />
    <glyph glyph-name="H" unicode="H" vert-adv-y="0" 
d="M108 1194h106v-482h537v482h106v-1094h-106v500h-537v-500h-106v1094z" />
    <glyph glyph-name="I" unicode="I" vert-adv-y="0" 
d="M322 1194h321v-120h-107v-856h107v-122h-321v122h106v856h-106v120z" />
    <glyph glyph-name="J" unicode="J" vert-adv-y="0" 
d="M108 464h106v-162l79 -82h168l75 86v768h-108v120h323v-120h-108v-792c0 -8 -2 -28 -15 -42l-106 -122c-7 -8 -22 -18 -40 -18h-212c-7 0 -25 2 -38 16l-108 116c-5 6 -16 22 -16 42v190z" />
    <glyph glyph-name="K" unicode="K" vert-adv-y="0" 
d="M221 376v-278h-113v1096h113v-646l528 608v38h106v-62c0 -16 -5 -30 -16 -42l-387 -444l389 -444c11 -12 16 -26 16 -42v-62h-108v38l-373 426z" />
    <glyph glyph-name="L" unicode="L" vert-adv-y="0" 
d="M108 1194h106v-976h643v-120h-749v1096z" />
    <glyph glyph-name="M" unicode="M" vert-adv-y="0" 
d="M536 740v-152h-109v152l-211 248v-888h-108v1032c0 26 12 46 34 56c7 4 13 6 20 6c13 0 27 -8 38 -20l279 -322l286 326c11 12 25 16 38 16c4 0 9 2 13 2c2 0 4 -1 7 -2c22 -10 34 -32 34 -58v-1036h-108v892z" />
    <glyph glyph-name="N" unicode="N" vert-adv-y="0" 
d="M108 100v1094h106l537 -610v610h106v-1094h-106v300l-537 616v-916h-106z" />
    <glyph glyph-name="O" unicode="O" vert-adv-y="0" 
d="M220 988v-688l70 -80h381l78 86v680l-78 90h-379zM126 1052l103 124c13 16 28 18 39 18h427c18 0 34 -10 39 -18l108 -124c13 -14 15 -32 15 -42v-730c0 -20 -9 -36 -16 -42l-110 -120c-13 -14 -29 -18 -38 -18h-425c-18 0 -33 10 -38 16l-106 114c-13 14 -16 34 -16 44
v738c0 18 11 32 18 40z" />
    <glyph glyph-name="P" unicode="P" vert-adv-y="0" 
d="M214 586h349l188 210v78l-186 200h-351v-488zM214 462v-366h-106v1098h479c14 0 27 -4 38 -16l216 -238c11 -12 16 -24 16 -40v-128c0 -16 -4 -30 -15 -42l-217 -246c-11 -12 -24 -22 -38 -22h-373z" />
    <glyph glyph-name="Q" unicode="Q" vert-adv-y="0" 
d="M668 166l182 -218l-80 -80l-194 236h-196c-14 0 -27 6 -38 18l-218 238c-11 12 -16 26 -16 42v494c0 16 5 32 16 44l216 238c11 12 24 16 38 16h212c14 0 27 -4 38 -16l213 -244c11 -12 16 -26 16 -42v-492c0 -18 -5 -30 -16 -42zM590 248l159 178v442l-182 208h-166
l-185 -204v-444l185 -204h76l-45 80c-5 10 -7 18 -7 30v130h108v-114z" />
    <glyph glyph-name="R" unicode="R" vert-adv-y="0" 
d="M500 588l341 -382c11 -12 16 -26 16 -42v-64h-106v28l-405 460h-132v-488h-106v1094h585c14 0 27 -6 38 -18l110 -120c11 -12 16 -26 16 -42v-246c0 -16 -5 -30 -16 -42l-107 -120c-11 -12 -23 -18 -37 -18h-197zM214 708h459l76 84v196l-78 86h-457v-366z" />
    <glyph glyph-name="S" unicode="S" vert-adv-y="0" 
d="M745 996l-68 80h-378l-78 -86v-64l609 -476c16 -12 23 -30 23 -50v-118c0 -16 -5 -28 -14 -40l-103 -124c-11 -12 -23 -22 -39 -22h-425c-14 0 -27 6 -38 18l-110 122c-11 12 -16 26 -16 42v62h108v-38l77 -84h380l72 88v62l-608 476c-16 12 -24 30 -24 50v120
c0 16 6 30 17 42l109 122c11 12 24 16 38 16h421c14 0 27 -4 38 -16l105 -116c11 -12 16 -26 16 -42v-64h-112v40z" />
    <glyph glyph-name="T" unicode="T" vert-adv-y="0" 
d="M108 1194h749v-120h-321v-976h-108v976h-320v120z" />
    <glyph glyph-name="U" unicode="U" vert-adv-y="0" 
d="M108 1194h104v-890l78 -84h385l74 86v888h108v-912c0 -8 -2 -26 -15 -40l-104 -122c-7 -8 -22 -20 -40 -20h-432c-9 0 -24 4 -37 18l-107 118c-5 6 -14 22 -14 42v916z" />
    <glyph glyph-name="V" unicode="V" vert-adv-y="0" 
d="M216 1026l261 -716l272 714v170h108v-182c0 -8 -2 -16 -4 -24l-326 -856c-9 -22 -27 -36 -50 -36s-41 14 -50 36l-319 858c-1 3 -2 5 -2 7c0 5 2 10 2 15v182h108v-168z" />
    <glyph glyph-name="W" unicode="W" vert-adv-y="0" 
d="M479 314l-171 -200c-11 -12 -25 -18 -38 -18c-14 0 -27 6 -38 18l-108 120c-11 12 -16 26 -16 42v918h106v-894l56 -58l157 184v278h108v-282l158 -180l56 60v892h108v-918c0 -18 -5 -32 -16 -44l-110 -118c-11 -10 -24 -18 -38 -18c-13 0 -27 8 -38 20z" />
    <glyph glyph-name="X" unicode="X" vert-adv-y="0" 
d="M479 562l-261 -306v-154h-108v178c0 16 5 30 16 42l277 324l-277 330c-11 12 -16 26 -16 42v178h108v-154l263 -310l268 308v154h108v-178c0 -16 -5 -30 -16 -42l-285 -326l285 -328c11 -12 16 -26 16 -42v-178h-108v154z" />
    <glyph glyph-name="Y" unicode="Y" vert-adv-y="0" 
d="M536 742v-642h-109v642l-303 348c-11 12 -16 26 -16 42v62h108v-38l268 -304l265 304v38h108v-58c0 -16 -4 -32 -15 -44z" />
    <glyph glyph-name="Z" unicode="Z" vert-adv-y="0" 
d="M855 1012c0 -16 -5 -30 -16 -42l-623 -712v-38h641v-122h-749v184c0 16 5 30 16 42l623 712v38h-639v120h747v-182z" />
    <glyph glyph-name="AE" unicode="&#xc6;" vert-adv-y="0" 
d="M536 1074l-329 -326v-162h329v488zM95 98v414v244c0 56 26 84 62 120l262 264c29 28 47 44 72 54h375v-120h-220v-366h220v-122h-220v-368h220v-120h-330v364h-329v-364h-112z" />
    <glyph glyph-name="Oslash" unicode="&#xd8;" vert-adv-y="0" 
d="M758 864l-533 -584l56 -60h399l78 86v558zM734 1012l-54 64h-397l-72 -88v-554zM117 1052l103 124c13 16 28 18 39 18h445c18 0 34 -10 39 -18l108 -124c13 -14 15 -32 15 -42v-730c0 -20 -9 -36 -16 -42l-110 -120c-13 -14 -29 -18 -38 -18h-443c-18 0 -33 10 -38 16
l-106 114c-13 14 -16 34 -16 44v738c0 18 11 32 18 40z" />
    <glyph glyph-name="Aring" unicode="&#xc5;" vert-adv-y="0" 
d="M473 1598c119 0 213 -110 213 -242s-94 -242 -213 -242s-212 110 -212 242s93 242 212 242zM364 1356c0 -72 50 -128 109 -128s110 56 110 128s-51 130 -110 130s-109 -58 -109 -130zM209 296v-198h-106v508c0 18 11 34 16 40l324 362c11 14 25 18 36 18
c18 0 32 -8 41 -18l330 -364c13 -14 14 -32 14 -42v-504h-108l2 198h-549zM211 418h545v160l-275 304l-270 -302v-162z" />
    <glyph glyph-name="Ccedilla" unicode="&#xc7;" vert-adv-y="0" 
d="M857 1058l-76 -84l-95 102h-175l-295 -328v-202l297 -328h171l94 110l79 -84l-110 -128c-7 -8 -22 -18 -40 -18h-69v-309c0 -15 -7 -32 -16 -41l-101 -108c-10 -12 -26 -17 -38 -17h-163v116h141l69 74v285h-39c-9 0 -24 6 -37 20l-330 360c-5 6 -16 22 -16 42v252
c0 10 1 28 14 42l330 364c5 6 20 16 38 16h217c9 0 25 0 38 -14z" />
    <glyph glyph-name="semicolon" unicode=";" vert-adv-y="0" 
d="M643 378v-214l-33 -84l-243 -272l-151 168l212 238v164h215zM428 822h215v-222h-215v222z" />
    <glyph glyph-name="asterisk" unicode="*" vert-adv-y="0" 
d="M427 708h109v-368h-109v368zM427 1196h109v-368h-109v368zM776 1056l77 -84l-178 -200l182 -208l-78 -84l-257 292zM189 1056l254 -284l-258 -292l-75 84l182 208l-179 200z" />
    <glyph glyph-name="c0" vert-adv-y="0" 
 />
    <glyph glyph-name="c1" vert-adv-y="0" 
 />
    <glyph glyph-name="c2" vert-adv-y="0" 
 />
    <glyph glyph-name="c3" vert-adv-y="0" 
 />
    <glyph glyph-name="c4" vert-adv-y="0" 
 />
    <glyph glyph-name="c5" vert-adv-y="0" 
 />
    <glyph glyph-name="c6" vert-adv-y="0" 
 />
    <glyph glyph-name="c7" vert-adv-y="0" 
 />
    <glyph glyph-name="c8" vert-adv-y="0" 
 />
    <glyph glyph-name="c9" vert-adv-y="0" 
 />
    <glyph glyph-name="ca" vert-adv-y="0" 
 />
    <glyph glyph-name="cb" vert-adv-y="0" 
 />
    <glyph glyph-name="cc" vert-adv-y="0" 
 />
    <glyph glyph-name="cd" vert-adv-y="0" 
 />
    <glyph glyph-name="ce" vert-adv-y="0" 
 />
    <glyph glyph-name="cf" vert-adv-y="0" 
 />
    <glyph glyph-name="copyright" unicode="&#xa9;" vert-adv-y="0" 
d="M646 950v-120h-144l-75 -86v-196l75 -86h144v-120h-165c-9 0 -27 4 -40 18l-108 122c-5 6 -14 22 -14 42v244c0 10 1 28 14 42l108 122c5 8 20 18 38 18h167zM121 996l162 182c13 14 27 16 36 16h329c18 0 35 -8 40 -16l162 -184c13 -14 14 -32 14 -42v-610
c0 -20 -9 -38 -14 -44l-162 -180c-13 -14 -31 -18 -40 -18h-329c-18 0 -33 12 -38 18l-160 180c-13 14 -17 34 -17 44v612c0 20 12 36 17 42zM212 928v-564l130 -144h284l130 144v564l-130 148h-282z" />
    <glyph glyph-name="registered" unicode="&#xae;" vert-adv-y="0" 
d="M121 996l162 182c13 14 25 16 34 16h331c18 0 33 -8 40 -16l162 -184c13 -14 14 -32 14 -42v-612c0 -20 -9 -36 -14 -42l-162 -180c-14 -14 -31 -18 -40 -18h-331c-18 0 -31 10 -36 18l-160 180c-13 14 -17 32 -17 42v614c0 20 12 34 17 42zM212 928v-564l130 -144h284
l130 144v564l-130 148h-282zM317 950h219c18 0 33 -10 38 -16l58 -60c13 -14 16 -32 16 -44v-122c0 -20 -9 -36 -16 -44l-49 -52l56 -118c2 -6 5 -16 5 -28v-124h-108v110l-64 134h-47v-246h-108v610zM425 830v-124h90l21 28v70l-21 26h-90z" />
    <glyph glyph-name="boxA" vert-adv-y="0" 
d="M0 462h965v-488h-965v488zM110 342v-244h745v244h-745zM108 586h-108l4 552c0 20 11 36 16 42l219 240c11 12 24 16 35 16c18 0 32 -8 41 -18l218 -242c13 -14 14 -32 14 -42v-548h-108v244h-329zM110 950h329v160l-164 182l-163 -180z" />
    <glyph glyph-name="insert" vert-adv-y="0" 
d="M0 36v368l481 548l484 -554l-2 -362l-482 546z" />
    <glyph glyph-name="boxB" vert-adv-y="0" 
d="M0 462h963v-488h-963v488zM110 342v-244h743v244h-743zM416 1318v120l385 -2c18 0 33 -10 38 -16l110 -122c13 -14 16 -32 16 -42v-120c0 -20 -9 -38 -16 -44l-72 -76l70 -84c13 -14 14 -32 14 -40v-124c0 -20 -9 -36 -14 -42l-108 -120c-13 -14 -29 -18 -38 -18h-385
v120h106v610h-106zM634 708h144l75 84v76l-72 84h-147v-244zM634 1318v-246h140l83 88v72l-78 86h-145z" />
    <glyph glyph-name="box6" vert-adv-y="0" 
d="M319 464h32l92 104c5 6 20 18 38 18h111c9 0 23 -4 36 -18l112 -120c7 -6 18 -24 18 -44v-124c0 -8 -3 -26 -16 -40l-107 -124c-7 -8 -21 -20 -39 -20h-223c-9 0 -25 4 -38 18l-110 122c-5 6 -14 22 -14 42v490c0 10 1 28 14 42l108 124l79 -82l-93 -108v-280zM319 344
v-42l77 -86h176l78 90v74l-81 86h-65l-94 -104c-13 -14 -28 -18 -37 -18h-54zM110 1074v-1100h745v1100h-745zM0 1196h965v-1342h-965v1342z" />
    <glyph glyph-name="plusminus" unicode="&#xb1;" vert-adv-y="0" 
d="M427 1318h109v-366h330v-122h-330v-368h-109v368h-330v122h330v366zM97 342h769v-124h-769v124z" />
    <glyph glyph-name="Eth" unicode="&#xd0;" vert-adv-y="0" 
d="M207 1076h-110v118h497c18 0 33 -10 38 -18l216 -244c13 -14 16 -32 16 -42v-488c0 -20 -9 -36 -16 -44l-218 -240c-13 -14 -29 -20 -38 -20h-495v120h110v378h-108v108h108v372zM317 220h254l185 206v440l-185 210h-254v-372h221v-108h-221v-376z" />
    <glyph glyph-name="rightarrow" vert-adv-y="0" 
d="M549 952l326 -306l-326 -304v244h-549v122h549v244z" />
    <glyph glyph-name="Thorn" unicode="&#xde;" vert-adv-y="0" 
d="M99 1194h104v-180h389c18 0 33 -12 38 -18l220 -242c13 -14 14 -34 14 -44v-124c0 -20 -9 -36 -14 -42l-220 -244c-13 -14 -29 -18 -38 -18h-389v-182h-104v1094zM203 894v-492h366l187 210v74l-185 208h-368z" />
    <glyph glyph-name="upshift" vert-adv-y="0" 
d="M313 -22v652h-281l447 644l444 -644h-277v-652h-333zM421 98h117v652h168l-227 328l-227 -328h169v-652z" />
    <glyph glyph-name="human" vert-adv-y="0" 
d="M187 114l-68 94l308 282v218h-330v122h330v132c-67 26 -108 98 -108 174c0 106 77 188 163 188c97 0 164 -92 164 -188c0 -84 -48 -150 -111 -174l1 -132h330v-122h-330v-218l312 -288l-69 -92l-298 276zM427 1136c0 -36 24 -64 55 -64c27 0 56 24 56 64
c0 36 -25 68 -56 68c-27 0 -55 -28 -55 -68z" />
    <glyph glyph-name="underB" vert-adv-y="0" 
d="M211 1318v120h385c18 0 34 -12 39 -18l110 -120c13 -14 15 -34 15 -44v-120c0 -20 -10 -38 -17 -44l-70 -76l70 -84c13 -14 15 -32 15 -40v-124c0 -20 -11 -36 -16 -42l-107 -120c-13 -14 -30 -18 -39 -18h-385v120h108v610h-108zM428 708h146l76 86v74l-72 86h-150v-246
zM428 1318v-246h143l81 88v72l-78 86h-146zM0 462h965v-120h-965v120z" />
    <glyph glyph-name="downshift" vert-adv-y="0" 
d="M317 1316h335v-652h277l-447 -644l-446 644h281v652zM425 1196v-652h-169l226 -328l227 328h-165v652h-119z" />
    <glyph glyph-name="boxquestion" vert-adv-y="0" 
d="M324 830h-108v184c0 20 9 36 16 42l112 122c13 14 29 18 38 18h223c18 0 31 -12 38 -20l108 -124c13 -14 16 -30 16 -40v-240c0 -20 -11 -36 -16 -42l-206 -228v-158h-108v182c0 10 4 28 17 42l205 230v188l-78 90h-178l-79 -88v-158zM436 218h109v-120h-109v120z
M110 1318v-1344h745v1344h-745zM0 1440h965v-1586h-965v1586z" />
    <glyph glyph-name="boxsolid" vert-adv-y="0" 
d="M0 1440h965v-1586h-965v1586z" />
    <glyph glyph-name="e0" vert-adv-y="0" 
 />
    <glyph glyph-name="e1" vert-adv-y="0" 
 />
    <glyph glyph-name="e2" vert-adv-y="0" 
 />
    <glyph glyph-name="e3" vert-adv-y="0" 
 />
    <glyph glyph-name="e4" vert-adv-y="0" 
 />
    <glyph glyph-name="e5" vert-adv-y="0" 
 />
    <glyph glyph-name="e6" vert-adv-y="0" 
 />
    <glyph glyph-name="e7" vert-adv-y="0" 
 />
    <glyph glyph-name="e8" vert-adv-y="0" 
 />
    <glyph glyph-name="e9" vert-adv-y="0" 
 />
    <glyph glyph-name="ea" vert-adv-y="0" 
 />
    <glyph glyph-name="eb" vert-adv-y="0" 
 />
    <glyph glyph-name="ec" vert-adv-y="0" 
 />
    <glyph glyph-name="ed" vert-adv-y="0" 
 />
    <glyph glyph-name="ee" vert-adv-y="0" 
 />
    <glyph glyph-name="badcommhi" vert-adv-y="0" 
d="M0 1378l605 -668h358v-122l-259 -2l259 -280l2 -366l-578 646h-387v124h268l-268 304v364z" />
    <glyph glyph-name="commhi" vert-adv-y="0" 
d="M0 704h965v-118h-965v118z" />
    <glyph glyph-name="commjag" vert-adv-y="0" 
d="M0 590v120h734l-435 -492h666v-120h-925l435 492h-475z" />
    <glyph glyph-name="commlo" vert-adv-y="0" 
d="M0 220h965v-124h-965v124z" />
    <glyph glyph-name="clockleft" vert-adv-y="0" 
d="M761 1254c0 36 28 66 60 66s59 -30 59 -66s-27 -66 -59 -66s-60 30 -60 66zM437 1134c0 36 28 66 60 66s59 -30 59 -66s-27 -66 -59 -66s-60 30 -60 66zM216 894c0 36 27 66 59 66s60 -30 60 -66s-28 -66 -60 -66s-59 30 -59 66zM104 524c0 38 28 68 62 68
c32 0 57 -30 57 -68c0 -36 -25 -64 -57 -64c-34 0 -62 28 -62 64zM216 160c0 36 27 64 59 64s60 -28 60 -64c0 -38 -28 -68 -60 -68s-59 30 -59 68zM436 -84c0 36 25 66 57 66c34 0 61 -30 61 -66s-27 -66 -61 -66c-32 0 -57 30 -57 66zM763 -208c0 38 27 68 61 68
c32 0 58 -30 58 -68c0 -36 -26 -64 -58 -64c-34 0 -61 28 -61 64zM965 770v-170l-87 -100v-492h-108v516c0 10 2 28 15 44z" />
    <glyph glyph-name="clockright" vert-adv-y="0" 
d="M216 1254c0 36 27 66 59 66s60 -30 60 -66s-28 -66 -60 -66s-59 30 -59 66zM437 1016c0 36 28 68 60 68s59 -32 59 -68s-27 -64 -59 -64s-60 28 -60 64zM544 648c0 36 25 66 57 66s61 -30 61 -66s-29 -66 -61 -66s-57 30 -57 66zM436 282c0 36 25 66 57 66s61 -30 61 -66
s-29 -66 -61 -66s-57 30 -57 66zM220 40c0 36 25 64 57 64s61 -28 61 -64s-29 -68 -61 -68s-57 32 -57 68zM248 1074l76 -84l-324 -368v172z" />
    <glyph glyph-name="lock" vert-adv-y="0" 
d="M972 1494v-548l-209 -234l209 -233v-551l-455 510l-517 -580v548l270 306l-270 302v546l517 -574z" />
    <glyph glyph-name="eth" unicode="&#xf0;" vert-adv-y="0" 
 />
    <glyph glyph-name="leftarrow" vert-adv-y="0" 
d="M414 952v-244h549v-122h-549v-244l-326 304z" />
    <glyph glyph-name="thorn" unicode="&#xfe;" vert-adv-y="0" 
d="M108 1318h112v-370h277c18 0 34 -12 39 -18l216 -242c13 -14 17 -32 17 -42v-244c0 -20 -12 -36 -17 -42l-219 -246c-13 -14 -29 -18 -38 -18h-275v-364h-112v1586zM220 828v-612h253l188 210v196l-186 206h-255z" />
    <glyph glyph-name="keyleft" vert-adv-y="0" 
d="M425 776c0 -110 79 -204 183 -204c99 0 184 88 184 204c0 110 -80 204 -184 204c-99 0 -183 -88 -183 -204zM317 776c0 184 134 324 291 324c148 0 265 -120 288 -270h69v-122h-72c-29 -150 -148 -256 -285 -256c-166 0 -291 150 -291 324z" />
    <glyph glyph-name="keyright" vert-adv-y="0" 
d="M0 830h965v-488h-220v368h-110v-246h-329v244h-306v122z" />
    <glyph glyph-name="box4" vert-adv-y="0" 
d="M650 462h108v-120h-108v-244h-108v244h-277c-20 0 -54 18 -54 60v120c0 10 3 28 16 44l329 368c2 0 17 16 40 16c20 0 54 -16 54 -60v-428zM542 462v284l-223 -248v-36h223zM106 1076v-1102h753v1102h-753zM0 1192h965v-1340h-965v1340z" />
    <glyph glyph-name="underA" vert-adv-y="0" 
d="M0 460h965v-116h-965v116zM328 592l-108 2l3 552c0 20 11 34 16 42l220 238c11 12 23 16 36 16c16 0 31 -6 40 -16l217 -242c13 -16 15 -34 15 -44v-548h-108v244h-330zM329 956h330v160l-164 182l-164 -178z" />
    <glyph glyph-name="magcard" vert-adv-y="0" 
d="M108 464v-116h756v116h-756zM108 948v-360h749v360h-749zM0 1076h965v-860h-965v860z" />
    <glyph glyph-name="boxhuman" vert-adv-y="0" 
d="M428 1016c0 -36 25 -64 56 -64c27 0 56 24 56 64c0 36 -25 68 -56 68c-27 0 -56 -28 -56 -68zM0 1440h965v-1580h-965v1580zM860 54v534h-322v-218zM860 710v610h-748v-610h316v132c-67 26 -108 98 -108 174c0 106 78 188 164 188c97 0 164 -92 164 -188
c0 -84 -49 -150 -112 -174l2 -132h322zM176 -32h609l-303 298zM112 588v-524l316 306v218h-316z" />
    <glyph glyph-name="apl_space" vert-adv-y="0" 
 />
    <glyph glyph-name="apl_bracketright" vert-adv-y="0" 
d="M331 1318h328v-1344h-328v124h218v1098h-218v122z" />
    <glyph glyph-name="apl_bracketleft" vert-adv-y="0" 
d="M331 1318h328v-122h-220v-1098h220v-124h-328v1344z" />
    <glyph glyph-name="apl_stile" vert-adv-y="0" 
d="M439 1600h110v-2000h-110v2000z" />
    <glyph glyph-name="apl_2vertical" vert-adv-y="0" 
d="M713 1602h111v-2000h-111v2000zM166 1602h108v-2000h-108v2000z" />
    <glyph glyph-name="apl_2horizontal" vert-adv-y="0" 
d="M0 -86h965v-122h-965v122zM0 1378h965v-120h-965v120z" />
    <glyph glyph-name="apl_leftvbar" vert-adv-y="0" 
d="M166 1602h108v-2000h-108v2000z" />
    <glyph glyph-name="apl_rightvbar" vert-adv-y="0" 
d="M713 1602h111v-2000h-111v2000z" />
    <glyph glyph-name="apl_midvbar" vert-adv-y="0" 
d="M439 1602h110v-1624h-110v1624z" />
    <glyph glyph-name="apl_leftsolid" vert-adv-y="0" 
d="M0 1600h486v-2000h-486v2000z" />
    <glyph glyph-name="apl_rightsolid" vert-adv-y="0" 
d="M486 1600h486v-2000h-486v2000z" />
    <glyph glyph-name="apl_topsolid" vert-adv-y="0" 
d="M0 1600h972v-1000h-972v1000z" />
    <glyph glyph-name="apl_bottomsolid" vert-adv-y="0" 
d="M0 600h972v-1000h-972v1000z" />
    <glyph glyph-name="apl_solid" vert-adv-y="0" 
d="M0 1600h972v-2000h-972v2000z" />
    <glyph glyph-name="apl_midhbar" vert-adv-y="0" 
d="M0 708h963v-122h-963v122z" />
    <glyph glyph-name="apl_lowerleft" vert-adv-y="0" 
d="M436 1560h108v-768l77 -84h342v-120h-365c-13 0 -27 6 -38 18l-108 120c-9 10 -16 26 -16 42v792z" />
    <glyph glyph-name="apl_upperleft" vert-adv-y="0" 
d="M436 -264v792c0 16 7 32 16 42l108 120c11 12 25 18 38 18h365v-120h-342l-77 -84v-768h-108z" />
    <glyph glyph-name="apl_leftjoin" vert-adv-y="0" 
d="M439 1602h110v-894h414v-122h-414v-984h-110v2000z" />
    <glyph glyph-name="apl_bottomjoin" vert-adv-y="0" 
d="M439 1602h110v-894h412v-122h-961v122h439v894z" />
    <glyph glyph-name="apl_intersect" vert-adv-y="0" 
d="M439 1602h110v-894h414v-122h-414v-982h-110v982h-439v122h439v894z" />
    <glyph glyph-name="apl_lowerright" vert-adv-y="0" 
d="M544 1560v-792c0 -16 -8 -32 -17 -42l-108 -120c-11 -12 -24 -18 -37 -18h-366v120h342l78 84v768h108z" />
    <glyph glyph-name="apl_upperright" vert-adv-y="0" 
d="M545 -268h-108v768l-77 84h-342v120h365c13 0 27 -6 38 -18l108 -120c9 -10 16 -26 16 -42v-792z" />
    <glyph glyph-name="apl_rightjoin" vert-adv-y="0" 
d="M439 1602h110v-2000h-110v984h-439v122h439v894z" />
    <glyph glyph-name="apl_topjoin" vert-adv-y="0" 
d="M0 708h963v-122h-414v-982h-110v982h-439v122z" />
    <glyph glyph-name="dec_solid" vert-adv-y="0" 
d="M274 1602h439v-2000h-439v2000z" />
    <glyph glyph-name="dec_filled_circle" vert-adv-y="0" 
d="M292 646c0 134 93 240 205 240c113 0 205 -106 205 -240c0 -132 -92 -240 -205 -240c-112 0 -205 108 -205 240z" />
    <glyph glyph-name="dec_halftone_block" vert-adv-y="0" 
 />
    <glyph glyph-name="dec_ht" vert-adv-y="0" 
d="M166 1378h108v-244h111v244h108v-608h-108v244h-111v-244h-108v608zM439 646h331v-122h-111v-486h-110v486l-110 2v120z" />
    <glyph glyph-name="dec_ff" vert-adv-y="0" 
d="M439 652h328v-120h-220v-124h166v-122h-166v-242h-108v608zM166 1378h327v-120h-219v-124h165v-122h-165v-242h-108v608z" />
    <glyph glyph-name="dec_cr" vert-adv-y="0" 
d="M493 1196h-108v38l-21 22h-76l-14 -16v-324l18 -24h75l16 20v40h108v-62c0 -10 -3 -26 -14 -40l-47 -58c-7 -8 -19 -20 -39 -20h-123c-11 0 -26 4 -39 20l-49 60c-7 8 -14 22 -14 40v372c0 10 3 28 16 42l47 52c5 6 19 18 37 18h119c7 0 23 -2 36 -16l54 -56
c7 -8 18 -24 18 -46v-62zM441 36v608h221c18 0 31 -10 38 -18l52 -60c13 -14 15 -34 15 -42v-62c0 -20 -10 -36 -15 -42l-81 -92l90 -202c5 -10 6 -20 6 -26v-64h-108v50l-87 198h-23v-248h-108zM549 402h36l74 84v16l-20 24l-90 -2v-122z" />
    <glyph glyph-name="dec_lf" vert-adv-y="0" 
d="M439 652h328v-120h-220v-124h166v-122h-166v-242h-108v608zM166 1378h108v-488h219v-120h-327v608z" />
    <glyph glyph-name="dec_degree" vert-adv-y="0" 
d="M317 1074c0 -74 54 -134 119 -134c67 0 122 60 122 134s-55 134 -122 134c-65 0 -119 -60 -119 -134zM227 1074c0 130 94 234 209 234c117 0 212 -104 212 -234c0 -128 -95 -234 -212 -234c-115 0 -209 106 -209 234z" />
    <glyph glyph-name="dec_plusminus" vert-adv-y="0" 
d="M439 1318h110v-366h329v-122h-329v-368h-110v368h-329v122h329v366zM110 342h768v-124h-768v124z" />
    <glyph glyph-name="dec_nl" vert-adv-y="0" 
d="M166 1378h108l165 -304v304h110v-608l-106 2l-169 302v-304h-108v608zM439 646h110v-488h221v-120h-331v608z" />
    <glyph glyph-name="dec_vt" vert-adv-y="0" 
d="M164 1380h108v-346l84 -110l83 110v346h108v-368c0 -10 -1 -24 -12 -38l-139 -182c-11 -15 -26 -23 -40 -23s-28 7 -41 23l-139 182c-5 6 -12 20 -12 38v368zM439 646h331v-122h-111v-486h-110v486l-110 2v120z" />
    <glyph glyph-name="dec_lowerright" vert-adv-y="0" 
d="M551 1560v-792c0 -16 -7 -32 -16 -42l-108 -120c-11 -12 -25 -18 -38 -18h-366v120h342l78 84v768h108z" />
    <glyph glyph-name="dec_upperright" vert-adv-y="0" 
d="M545 -268h-108v768l-77 84h-342v120h365c13 0 27 -6 38 -18l108 -120c9 -10 16 -26 16 -42v-792z" />
    <glyph glyph-name="dec_upperleft" vert-adv-y="0" 
d="M436 -264v792c0 16 7 32 16 42l108 120c11 12 25 18 38 18h365v-120h-342l-77 -84v-768h-108z" />
    <glyph glyph-name="dec_lowerleft" vert-adv-y="0" 
d="M436 1560h108v-768l77 -84h342v-120h-365c-13 0 -27 6 -38 18l-108 120c-9 10 -16 26 -16 42v792z" />
    <glyph glyph-name="dec_intersect" vert-adv-y="0" 
d="M439 1600h110v-892h416v-122h-416v-986h-110v986h-439v122h439v892z" />
    <glyph glyph-name="dec_hbar1" vert-adv-y="0" 
d="M0 1440h965v-122h-965v122z" />
    <glyph glyph-name="dec_hbar2" vert-adv-y="0" 
d="M0 1074h965v-122h-965v122z" />
    <glyph glyph-name="dec_hbar3" vert-adv-y="0" 
d="M0 708h965v-122h-965v122z" />
    <glyph glyph-name="dec_hbar4" vert-adv-y="0" 
d="M0 342h965v-124h-965v124z" />
    <glyph glyph-name="dec_hbar5" vert-adv-y="0" 
d="M0 -26h965v-120h-965v120z" />
    <glyph glyph-name="dec_leftjoin" vert-adv-y="0" 
d="M439 1600h110v-892h416v-122h-416v-986h-110v2000z" />
    <glyph glyph-name="dec_rightjoin" vert-adv-y="0" 
d="M439 1600h110v-2000h-110v986h-439v122h439v892z" />
    <glyph glyph-name="dec_bottomjoin" vert-adv-y="0" 
d="M439 1598h110v-890h416v-122h-965v122h439v890z" />
    <glyph glyph-name="dec_topjoin" vert-adv-y="0" 
d="M0 708h965v-122h-416v-984h-110v984h-439v122z" />
    <glyph glyph-name="dec_vbar" vert-adv-y="0" 
d="M439 1600h110v-2000h-110v2000z" />
    <glyph glyph-name="dec_notgreater" vert-adv-y="0" 
d="M752 198c9 -12 15 -28 15 -44s-7 -30 -16 -42s-24 -18 -38 -20c-4 0 -6 -1 -10 -1c-10 0 -18 3 -28 9l-437 490v112l435 498c8 4 17 7 27 7c3 0 5 -1 9 -1c13 -2 24 -8 33 -18c11 -10 16 -26 18 -42v-11c0 -12 -3 -22 -8 -33l-410 -456zM166 -26h658v-120h-658v120z" />
    <glyph glyph-name="dec_notless" vert-adv-y="0" 
d="M248 1098c-9 12 -12 28 -12 44s7 30 16 42s22 20 36 22c3 0 4 1 7 1c12 0 22 -4 33 -11l437 -490v-110l-436 -500c-7 -4 -14 -5 -22 -5c-4 0 -10 0 -14 1c-13 2 -23 6 -32 16c-11 10 -18 26 -20 42c0 3 -1 5 -1 8c0 13 4 24 10 36l409 456zM166 -26h658v-120h-658v120z
" />
    <glyph glyph-name="dec_pi" vert-adv-y="0" 
d="M110 1074h768v-122h-109l1 -854h-111v854l-330 2v-670c0 -6 -1 -16 -5 -26l-61 -160l-97 52l55 148v656h-109z" />
    <glyph glyph-name="dec_notequal" vert-adv-y="0" 
d="M193 224l-76 84l137 154h-144v124h255l110 122h-367v122h477l211 234l75 -84l-133 -150h139v-122h-249l-110 -122h360v-124h-471z" />
    <glyph glyph-name="dec_sterling" vert-adv-y="0" 
d="M279 224h-63v-12h50zM439 706v-426l74 -56h180l95 96l74 -88l-111 -116c-10 -10 -23 -16 -38 -16h-220c-14 0 -28 5 -38 16l-46 50c-9 10 -20 15 -28 15c-3 0 -6 -1 -8 -3l-62 -66c-6 -7 -20 -12 -37 -12h-112c-30 0 -54 25 -54 56v122c0 33 24 60 54 60h108l61 -18v386
h-223v122h223v306c0 17 6 32 15 42l108 122c12 13 25 20 39 20h115c14 0 26 -7 38 -20l108 -120l-77 -84l-92 102h-70l-76 -86v-282h220v-122h-220z" />
    <glyph glyph-name="dec_periodcentered" vert-adv-y="0" 
d="M331 708h218v-246h-218v246z" />
    <glyph glyph-name="quotesingle" unicode="'" vert-adv-y="0" 
d="M439 1318h110v-366h-110v366z" />
    <glyph glyph-name="uni00AD" unicode="&#xad;" vert-adv-y="0" 
d="M220 708h550v-122h-550v122z" />
    <glyph glyph-name="uni00B5" unicode="&#xb5;" vert-adv-y="0" 
d="M101 952h102v-652l78 -82h290l75 88v646h108v-670c0 -6 -3 -14 -7 -24l32 -40h89v-116h-110c-18 0 -33 8 -38 16l-47 50l-43 -48c-5 -6 -20 -18 -38 -18h-333c-9 0 -23 2 -36 16l-16 18v-404h-106v1220z" />
    <glyph glyph-name="divide" unicode="&#xf7;" vert-adv-y="0" 
d="M373 1134h219v-244h-219v244zM97 708h769v-122h-769v122zM373 402h219v-244h-219v244z" />
    <glyph glyph-name="ydieresis" unicode="&#xff;" vert-adv-y="0" 
d="M396 156l-290 326c-11 12 -16 26 -16 42v428h108v-404l275 -306l164 182v528h108v-552c0 -16 -5 -30 -16 -42l-553 -614l-75 84zM180 1196h113v-122h-113v122zM511 1196h112v-122h-112v122z" />
    <glyph glyph-name="uni1E54" unicode="&#x1e54;" vert-adv-y="0" 
d="M202 586h349l187 210v78l-185 200h-351v-488zM202 462v-366h-107v1098h479c14 0 27 -4 38 -16l216 -238c11 -12 16 -24 16 -40v-128c0 -16 -3 -30 -14 -42l-218 -246c-11 -12 -24 -22 -38 -22h-372zM283 1242c-11 12 -17 28 -17 42c0 18 8 34 17 44l216 242
c11 12 24 18 37 18c16 0 31 -8 40 -18s16 -26 16 -44c0 -14 -5 -30 -16 -42l-216 -242c-9 -10 -24 -18 -40 -18c-13 0 -26 6 -37 18z" />
    <glyph glyph-name="uni1E55" unicode="&#x1e55;" vert-adv-y="0" 
d="M90 956h396c11 0 16 0 23 -8l222 -236c5 -6 16 -22 16 -42v-268c0 -10 -3 -28 -16 -42l-216 -242c-5 -6 -18 -18 -36 -18h-281v-368h-108v1224zM198 830v-612h257l186 208v220l-175 184h-268zM416 1092c-11 12 -16 28 -16 42c0 18 7 34 16 44l216 242c11 12 25 18 38 18
c16 0 30 -8 39 -18s16 -26 16 -44c0 -14 -5 -30 -16 -42l-216 -242c-9 -10 -23 -18 -39 -18c-13 0 -27 6 -38 18z" />
    <glyph glyph-name="uni1E57" unicode="&#x1e57;" vert-adv-y="0" 
d="M90 956h396c11 0 16 0 23 -8l222 -236c5 -6 16 -22 16 -42v-268c0 -10 -3 -28 -16 -42l-216 -242c-5 -6 -18 -18 -36 -18h-281v-368h-108v1224zM198 830v-612h257l186 208v220l-175 184h-268zM239 1238c0 62 45 112 101 112s101 -50 101 -112s-45 -112 -101 -112
s-101 50 -101 112z" />
    <glyph glyph-name="ordmasculine" unicode="&#xba;" vert-adv-y="0" 
d="M205 990v-444l78 -84h289l72 84v444l-70 88h-291zM115 1056l110 122c13 14 29 16 36 16h337c18 0 32 -10 39 -18l101 -126c11 -12 14 -28 14 -38v-490c0 -20 -11 -36 -16 -42l-104 -118c-10 -13 -23 -14 -32 -14h-6h-333c-16 0 -29 8 -36 14l-112 116
c-14 14 -16 32 -16 44v494c0 20 13 34 18 40zM97 218h663v-120h-663v120z" />
    <glyph glyph-name="Amacron" unicode="&#x100;" vert-adv-y="0" 
d="M202 488v-390h-107v676c0 18 12 34 17 40l318 362c11 14 25 18 36 18c18 0 33 -8 42 -18l322 -364c13 -14 14 -32 14 -42v-672h-108v390h-534zM203 600h533v146l-268 300l-265 -298v-148zM158 1438h589v-122h-589v122z" />
    <glyph glyph-name="amacron" unicode="&#x101;" vert-adv-y="0" 
d="M635 216v252h-361l-78 -88v-74l76 -90h363zM743 216h110v-116h-605c-18 0 -32 12 -37 18l-105 124c-13 14 -16 34 -16 42v120c0 20 11 36 16 42l106 122c13 14 29 16 38 16h385v166l-73 84h-368v118h389c18 0 33 -12 38 -18l106 -120c13 -14 16 -30 16 -40v-558z
M182 1196h588v-122h-588v122z" />
    <glyph glyph-name="Abreve" unicode="&#x102;" vert-adv-y="0" 
d="M335 1420c11 12 25 18 36 18c16 0 30 -8 39 -18l74 -82l76 82c11 12 25 18 36 18c31 0 56 -30 56 -62c0 -14 -4 -28 -17 -42l-113 -124c-9 -10 -24 -16 -40 -16c-13 0 -25 4 -36 16l-111 124c-9 10 -16 26 -16 44c0 14 5 30 16 42zM209 464v-366h-106v552
c0 20 11 36 16 42l324 362c11 12 25 18 36 18c16 0 30 -8 39 -18l330 -364c13 -14 16 -32 16 -42v-550h-108v366h-547zM211 586h545v38l-275 304l-270 -304v-38z" />
    <glyph glyph-name="abreve" unicode="&#x103;" vert-adv-y="0" 
d="M648 216v252h-362l-77 -88v-74l75 -90h364zM756 216h110v-116h-605c-18 0 -33 12 -38 18l-104 124c-13 14 -16 34 -16 42v120c0 20 11 36 16 42l106 122c13 14 29 16 38 16h385v166l-74 84h-367v118h389c18 0 33 -12 38 -18l106 -120c13 -14 16 -30 16 -40v-558z
M331 1300c11 12 25 18 36 18c16 0 31 -8 40 -18l74 -82l75 82c11 12 25 18 36 18c16 0 31 -8 40 -18s16 -26 16 -44c0 -12 -5 -28 -16 -40l-114 -124c-9 -10 -23 -18 -39 -18c-13 0 -25 6 -36 18l-112 124c-9 10 -16 26 -16 44c0 12 5 28 16 40z" />
    <glyph glyph-name="Nacute" unicode="&#x143;" vert-adv-y="0" 
d="M95 100v1094h107l536 -610v610h106v-1094h-106v300l-536 616v-916h-107zM414 1244c-11 12 -16 28 -16 42c0 18 7 34 16 44l216 242c11 12 25 18 38 18c16 0 30 -8 39 -18s17 -26 17 -44c0 -14 -6 -30 -17 -42l-216 -242c-9 -10 -23 -18 -39 -18c-13 0 -27 6 -38 18z" />
    <glyph glyph-name="nacute" unicode="&#x144;" vert-adv-y="0" 
d="M284 884l44 48c5 6 19 18 37 18h224c9 0 23 -2 36 -16l106 -116c5 -6 16 -22 16 -42v-674h-103v650l-77 78h-180l-76 -84v-646h-108v670c0 6 4 14 8 24l-33 40h-88v118h113c18 0 30 -10 35 -18zM421 1092c-11 12 -16 28 -16 42c0 18 7 34 16 44l216 242
c11 12 25 18 38 18c16 0 31 -8 40 -18s16 -26 16 -44c0 -14 -5 -30 -16 -42l-216 -242c-9 -10 -24 -18 -40 -18c-13 0 -27 6 -38 18z" />
    <glyph glyph-name="Dcaron" unicode="&#x10e;" vert-adv-y="0" 
d="M310 220h241l185 206v440l-185 210h-241v-856zM202 1076h-107v118h479c18 0 33 -12 38 -18l216 -244c13 -14 16 -32 16 -42v-488c0 -20 -11 -38 -16 -44l-218 -240c-13 -14 -29 -20 -38 -20h-477v120h107v858zM731 1548l38 -42l-247 -274c-11 -12 -23 -16 -36 -16
c-16 0 -31 6 -40 16l-246 274l38 42l37 42l209 -232l209 232z" />
    <glyph glyph-name="dcaron" unicode="&#x10f;" vert-adv-y="0" 
d="M747 102h-382c-7 0 -24 2 -37 16l-222 242c-5 6 -16 22 -16 42v246c0 10 3 28 16 42l216 242c5 6 18 18 36 18h281v368h108v-1216zM639 218v614h-257l-186 -208v-198l191 -208h252z" />
    <glyph glyph-name="dcroat" unicode="&#x111;" vert-adv-y="0" 
d="M648 218v614h-257l-186 -208v-198l191 -208h252zM756 102h-382c-7 0 -24 2 -37 16l-222 242c-5 6 -16 22 -16 42v246c0 10 3 28 16 42l216 242c5 6 18 18 36 18h281v110h-261v122h261v136h108v-136h85v-122h-85v-958z" />
    <glyph glyph-name="Dcroat" unicode="&#x110;" vert-adv-y="0" 
d="M207 1076h-110v118h497c18 0 33 -10 38 -18l216 -244c13 -14 16 -32 16 -42v-488c0 -20 -9 -36 -16 -44l-218 -240c-13 -14 -29 -20 -38 -20h-495v120h110v376h-108v122h108v360zM317 220h254l185 206v440l-185 210h-254v-360h110v-122h-110v-374z" />
    <glyph glyph-name="Emacron" unicode="&#x112;" vert-adv-y="0" 
d="M95 1196h749v-122h-642v-362h428v-122h-428v-372h642v-120h-749v1098zM162 1438h589v-122h-589v122z" />
    <glyph glyph-name="emacron" unicode="&#x113;" vert-adv-y="0" 
d="M196 462v-158l78 -90h473v-112h-495c-16 0 -31 10 -36 16l-112 120c-13 14 -14 32 -14 42v484c0 20 13 34 18 40l110 126c13 14 30 22 39 22h326c18 0 33 -16 38 -22l106 -124c13 -14 16 -30 16 -40v-304h-547zM198 586h441v156l-77 88h-285l-79 -90v-154zM137 1196h588
v-122h-588v122z" />
    <glyph glyph-name="Ebreve" unicode="&#x114;" vert-adv-y="0" 
d="M203 1498h108c2 -16 4 -30 8 -46s9 -30 16 -44s16 -22 25 -32c11 -12 21 -24 34 -32s26 -12 40 -16c13 -4 26 -10 39 -10c14 0 29 6 42 10s25 10 38 18s23 20 32 30s18 20 25 34s12 32 16 48c4 14 6 26 6 40h108c0 -26 -2 -52 -9 -76s-16 -48 -27 -70s-26 -44 -42 -62
s-34 -34 -54 -46s-41 -22 -64 -30c-22 -6 -44 -12 -67 -12s-47 2 -70 8s-45 18 -65 30s-40 28 -58 46c-16 18 -32 38 -43 60c-13 22 -22 46 -27 72c-5 24 -11 54 -11 80zM97 1074h769v-122h-659v-366h439v-124h-439v-244h659v-120h-769v976z" />
    <glyph glyph-name="ebreve" unicode="&#x115;" vert-adv-y="0" 
d="M203 1374h108c2 -16 4 -30 8 -46s9 -30 16 -44s16 -24 25 -34c11 -12 21 -22 34 -30s26 -12 40 -16c13 -4 26 -6 39 -6c14 0 29 2 42 6s25 10 38 18s23 18 32 28s18 22 25 36s12 32 16 48c4 14 6 26 6 40h108c0 -26 -2 -52 -9 -76s-16 -48 -27 -70s-26 -44 -42 -62
s-34 -34 -54 -46s-41 -22 -64 -30c-22 -6 -44 -12 -67 -12s-47 2 -70 8s-45 18 -65 30s-40 28 -58 46c-16 18 -32 38 -43 60c-13 22 -22 46 -27 72c-5 24 -11 54 -11 80zM209 462v-158l77 -90h474v-112h-495c-16 0 -31 10 -36 16l-112 120c-13 14 -14 32 -14 42v484
c0 20 13 34 18 40l109 126c13 14 31 22 40 22h326c18 0 33 -16 38 -22l106 -124c13 -14 16 -30 16 -40v-304h-547zM211 586h441v156l-78 88h-284l-79 -90v-154z" />
    <glyph glyph-name="Edotaccent" unicode="&#x116;" vert-adv-y="0" 
d="M95 1196h749v-122h-642v-362h428v-122h-428v-372h642v-120h-749v1098zM380 1372c0 62 45 112 101 112s100 -50 100 -112s-44 -112 -100 -112s-101 50 -101 112z" />
    <glyph glyph-name="edotaccent" unicode="&#x117;" vert-adv-y="0" 
d="M196 462v-158l78 -90h473v-112h-495c-16 0 -31 10 -36 16l-112 120c-13 14 -14 32 -14 42v484c0 20 13 34 18 40l110 126c13 14 30 22 39 22h326c18 0 33 -16 38 -22l106 -124c13 -14 16 -30 16 -40v-304h-547zM198 586h441v156l-77 88h-285l-79 -90v-154zM335 1238
c0 62 45 112 101 112s100 -50 100 -112s-44 -112 -100 -112s-101 50 -101 112z" />
    <glyph glyph-name="Eogonek" unicode="&#x118;" vert-adv-y="0" 
d="M108 1196h749v-122h-643v-362h429v-122h-429v-372h643v-120h-72v-36l39 -46h40v-116h-63c-18 0 -25 6 -36 18l-68 82l-9 12c-2 2 -6 10 -6 18v68h-574v1098z" />
    <glyph glyph-name="eogonek" unicode="&#x119;" vert-adv-y="0" 
d="M583 12c-2 2 -5 10 -5 18v72h-313c-16 0 -31 10 -36 16l-112 120c-13 14 -14 32 -14 42v484c0 20 13 34 18 40l109 126c13 14 31 22 40 22h326c18 0 33 -16 38 -22l106 -124c13 -14 16 -30 16 -40v-304h-547v-158l77 -90h474v-112h-80v-40l40 -46h40v-116h-63
c-18 0 -25 6 -36 18l-69 82zM211 586h441v156l-78 88h-284l-79 -90v-154z" />
    <glyph glyph-name="Ecaron" unicode="&#x11a;" vert-adv-y="0" 
d="M95 1196h749v-122h-642v-362h428v-122h-428v-372h642v-120h-749v1098zM731 1548l38 -42l-247 -274c-11 -12 -23 -16 -36 -16c-16 0 -31 6 -40 16l-246 274l38 42l37 42l209 -232l209 232z" />
    <glyph glyph-name="ecaron" unicode="&#x11b;" vert-adv-y="0" 
d="M196 462v-158l78 -90h473v-112h-495c-16 0 -31 10 -36 16l-112 120c-13 14 -14 32 -14 42v484c0 20 13 34 18 40l110 126c13 14 30 22 39 22h326c18 0 33 -16 38 -22l106 -124c13 -14 16 -30 16 -40v-304h-547zM198 586h441v156l-77 88h-285l-79 -90v-154zM689 1370
l38 -42l-246 -274c-11 -12 -23 -16 -36 -16c-16 0 -31 6 -40 16l-247 274l38 42l38 42l209 -232l209 232z" />
    <glyph glyph-name="gcircumflex" unicode="&#x11d;" vert-adv-y="0" 
d="M689 380l-124 -138c-7 -10 -24 -18 -38 -18h-171c-13 0 -26 6 -37 18l-213 236c-9 8 -16 26 -16 42v134c0 14 5 30 16 42l218 244c7 10 24 16 38 16h272c13 0 26 -4 37 -16l110 -124c9 -8 16 -26 16 -42v-742c0 -14 -5 -30 -16 -42l-101 -112c-7 -10 -23 -18 -37 -18
h-290c-13 0 -27 6 -38 18l-104 116l75 84l88 -98h247l68 76v324zM689 548v202l-77 86h-229l-185 -206v-86l180 -200h128zM216 1092l-38 42l247 274c11 12 23 16 36 16c16 0 30 -6 39 -16l247 -274l-38 -42l-38 -42l-208 232l-209 -232z" />
    <glyph glyph-name="Gcircumflex" unicode="&#x11c;" vert-adv-y="0" 
d="M416 600h428v-112h-106v-386h-373c-9 0 -24 2 -37 16l-216 238c-5 6 -17 22 -17 42v496c0 10 2 32 15 46l216 238c5 8 20 16 38 16h216c9 0 26 -2 39 -16l135 -152l-77 -84l-119 134h-171l-184 -206v-446l184 -202h245v266h-216v112zM214 1270l-38 42l247 274
c11 12 23 16 36 16c16 0 31 -6 40 -16l246 -274l-38 -42l-37 -42l-209 232l-209 -232z" />
    <glyph glyph-name="Gbreve" unicode="&#x11e;" vert-adv-y="0" 
d="M335 1420c11 12 25 18 36 18c16 0 30 -8 39 -18l74 -82l76 82c11 12 23 18 36 18c16 0 30 -8 39 -20c9 -10 17 -26 17 -44c0 -12 -6 -28 -17 -40l-113 -124c-9 -10 -24 -16 -40 -16c-13 0 -25 4 -36 16l-111 124c-9 10 -16 26 -16 44c0 14 5 30 16 42zM427 586h441v-122
h-114v-304c0 -22 -18 -58 -56 -58h-327c-9 0 -25 2 -38 16l-216 238c-5 6 -16 22 -16 42v416c0 10 1 28 14 42l216 242c5 8 20 18 38 18h225c9 0 27 -4 40 -18l108 -122l-78 -84l-92 104h-180l-183 -206v-366l183 -202h254v242h-219v122z" />
    <glyph glyph-name="gbreve" unicode="&#x11f;" vert-adv-y="0" 
d="M335 1420c11 12 25 18 36 18c16 0 30 -8 39 -18l74 -82l76 82c11 12 23 18 36 18c16 0 30 -8 39 -20c9 -10 17 -26 17 -44c0 -12 -6 -28 -17 -40l-113 -124c-9 -10 -24 -16 -40 -16c-13 0 -25 4 -36 16l-111 124c-9 10 -16 26 -16 44c0 14 5 30 16 42zM760 462v288
l-81 84h-285l-187 -208v-82l187 -202h173l92 102c11 12 24 18 38 18h63zM760 342h-40l-92 -102c-9 -12 -22 -22 -38 -22h-217c-14 0 -27 6 -38 18l-220 240c-11 12 -16 26 -16 42v134c0 18 5 32 16 42l220 238c11 12 24 22 38 22h327c14 0 27 -4 38 -14l113 -120
c11 -12 17 -26 17 -44v-740c0 -16 -8 -30 -17 -42l-104 -120c-11 -12 -24 -18 -40 -18h-334c-14 0 -27 6 -38 18l-110 120l76 84l93 -102h290l76 84v282z" />
    <glyph glyph-name="Gdotaccent" unicode="&#x120;" vert-adv-y="0" 
d="M416 600h428v-112h-106v-386h-373c-9 0 -24 2 -37 16l-216 238c-5 6 -17 22 -17 42v496c0 10 2 32 15 46l216 238c5 8 20 16 38 16h216c9 0 26 -2 39 -16l135 -152l-77 -84l-119 134h-171l-184 -206v-446l184 -202h245v266h-216v112zM380 1372c0 62 45 112 101 112
s100 -50 100 -112s-44 -112 -100 -112s-101 50 -101 112z" />
    <glyph glyph-name="gdotaccent" unicode="&#x121;" vert-adv-y="0" 
d="M689 380l-124 -138c-7 -10 -24 -18 -38 -18h-171c-13 0 -26 6 -37 18l-213 236c-9 8 -16 26 -16 42v134c0 14 5 30 16 42l218 244c7 10 24 16 38 16h272c13 0 26 -4 37 -16l110 -124c9 -8 16 -26 16 -42v-742c0 -14 -5 -30 -16 -42l-101 -112c-7 -10 -23 -18 -37 -18
h-290c-13 0 -27 6 -38 18l-104 116l75 84l88 -98h247l68 76v324zM689 548v202l-77 86h-229l-185 -206v-86l180 -200h128zM380 1238c0 62 45 112 101 112s100 -50 100 -112s-44 -112 -100 -112s-101 50 -101 112z" />
    <glyph glyph-name="Gcommaaccent" unicode="&#x122;" vert-adv-y="0" 
d="M851 1590v-304c0 -16 -5 -28 -14 -40l-106 -120c-11 -12 -22 -18 -36 -18h-13.8289l72.8289 -82l-77 -84l-119 134h-171l-184 -206v-446l184 -202h245v266h-216v112h428v-112h-106v-386h-373c-9 0 -24 2 -37 16l-216 238c-5 6 -17 22 -17 42v496c0 10 2 32 15 46l216 238
c5 8 20 16 38 16h163v28h146l74 86v282h104z" />
    <glyph glyph-name="gcommaaccent" unicode="&#x123;" vert-adv-y="0" 
d="M702 548v202l-77 86h-229l-185 -206v-86l180 -200h127zM702 380l-124 -138c-7 -10 -24 -18 -38 -18h-171c-13 0 -27 6 -38 18l-212 236c-9 8 -16 26 -16 42v134c0 14 5 30 16 42l218 244c7 10 23 16 37 16h272c13 0 27 -4 38 -16l110 -124c9 -8 16 -26 16 -42v-742
c0 -14 -5 -30 -16 -42l-101 -112c-7 -10 -24 -18 -38 -18h-290c-13 0 -26 6 -37 18l-105 116l76 84l88 -98h247l68 76v324zM851 1590v-304c0 -16 -5 -28 -14 -40l-106 -120c-11 -12 -22 -18 -36 -18h-168v114h146l74 86v282h104z" />
    <glyph glyph-name="uni007F" vert-adv-y="0" 
 />
    <glyph glyph-name="uni0080" vert-adv-y="0" 
 />
    <glyph glyph-name="uni0081" vert-adv-y="0" 
 />
    <glyph glyph-name="uni0082" vert-adv-y="0" 
 />
    <glyph glyph-name="uni0083" vert-adv-y="0" 
 />
    <glyph glyph-name="uni0084" vert-adv-y="0" 
 />
    <glyph glyph-name="uni0085" unicode="&#x85;" vert-adv-y="0" 
 />
    <glyph glyph-name="uni0086" vert-adv-y="0" 
 />
    <glyph glyph-name="uni0087" vert-adv-y="0" 
 />
    <glyph glyph-name="uni0088" vert-adv-y="0" 
 />
    <glyph glyph-name="uni0089" vert-adv-y="0" 
 />
    <glyph glyph-name="uni008A" vert-adv-y="0" 
 />
    <glyph glyph-name="uni008B" vert-adv-y="0" 
 />
    <glyph glyph-name="uni008C" vert-adv-y="0" 
 />
    <glyph glyph-name="uni008D" vert-adv-y="0" 
 />
    <glyph glyph-name="uni008E" vert-adv-y="0" 
 />
    <glyph glyph-name="uni008F" vert-adv-y="0" 
 />
    <glyph glyph-name="uni0090" vert-adv-y="0" 
 />
    <glyph glyph-name="uni0091" vert-adv-y="0" 
 />
    <glyph glyph-name="uni0092" vert-adv-y="0" 
 />
    <glyph glyph-name="uni0093" vert-adv-y="0" 
 />
    <glyph glyph-name="uni0094" vert-adv-y="0" 
 />
    <glyph glyph-name="uni0095" vert-adv-y="0" 
 />
    <glyph glyph-name="uni0096" vert-adv-y="0" 
 />
    <glyph glyph-name="uni0097" vert-adv-y="0" 
 />
    <glyph glyph-name="uni0098" vert-adv-y="0" 
 />
    <glyph glyph-name="uni0099" vert-adv-y="0" 
 />
    <glyph glyph-name="uni009A" vert-adv-y="0" 
 />
    <glyph glyph-name="uni009B" vert-adv-y="0" 
 />
    <glyph glyph-name="uni009C" vert-adv-y="0" 
 />
    <glyph glyph-name="uni009D" vert-adv-y="0" 
 />
    <glyph glyph-name="uni009E" vert-adv-y="0" 
 />
    <glyph glyph-name="uni009F" vert-adv-y="0" 
 />
    <glyph glyph-name="uni00A0" unicode="&#xa0;" vert-adv-y="0" 
 />
    <glyph glyph-name="Aogonek" unicode="&#x104;" vert-adv-y="0" 
d="M216 600h533v146l-268 300l-265 -298v-148zM214 488v-390h-106v676c0 18 11 34 16 40l319 362c11 14 25 18 36 18c18 0 32 -8 41 -18l322 -364c13 -14 15 -32 15 -42v-610h7v-100l40 -46h39v-116h-63c-18 0 -25 6 -36 18l-68 82l-9 12c-2 2 -6 10 -6 18v70h-12v390h-535z
" />
    <glyph glyph-name="aogonek" unicode="&#x105;" vert-adv-y="0" 
d="M756 216h110v-116h-110v-38l40 -46h39v-116h-63c-18 0 -25 6 -36 18l-68 82l-9 12c-2 2 -6 10 -6 18v70h-392c-18 0 -33 12 -38 18l-104 124c-13 14 -16 34 -16 42v120c0 20 11 36 16 42l106 122c13 14 29 16 38 16h385v166l-74 84h-367v118h389c18 0 33 -12 38 -18
l106 -120c13 -14 16 -30 16 -40v-558zM648 216v252h-362l-77 -88v-74l75 -90h364z" />
    <glyph glyph-name="Cacute" unicode="&#x106;" vert-adv-y="0" 
d="M844 1058l-75 -84l-96 102h-174l-296 -328v-202l297 -328h171l94 110l79 -84l-110 -128c-7 -8 -21 -18 -39 -18h-216c-9 0 -25 6 -38 20l-329 360c-5 6 -17 22 -17 42v252c0 10 2 28 15 42l329 364c5 6 20 16 38 16h218c9 0 25 0 38 -14zM571 1242c-11 12 -17 28 -17 42
c0 18 8 34 17 44l216 242c11 12 24 18 37 18c16 0 31 -8 40 -18s16 -26 16 -44c0 -14 -5 -30 -16 -42l-216 -242c-9 -10 -24 -18 -40 -18c-13 0 -26 6 -37 18z" />
    <glyph glyph-name="cacute" unicode="&#x107;" vert-adv-y="0" 
d="M747 950v-118h-365l-186 -208v-198l191 -208h360v-116h-382c-7 0 -24 2 -37 16l-222 242c-5 6 -16 22 -16 42v246c0 10 3 28 16 42l216 242c5 6 18 18 36 18h389zM499 1092c-11 12 -17 28 -17 42c0 18 8 34 17 44l216 242c11 12 24 18 37 18c16 0 31 -8 40 -18
s16 -26 16 -44c0 -14 -5 -30 -16 -42l-216 -242c-9 -10 -24 -18 -40 -18c-13 0 -26 6 -37 18z" />
    <glyph glyph-name="Ccircumflex" unicode="&#x108;" vert-adv-y="0" 
d="M844 1058l-75 -84l-96 102h-174l-296 -328v-202l297 -328h171l94 110l79 -84l-110 -128c-7 -8 -21 -18 -39 -18h-216c-9 0 -25 6 -38 20l-329 360c-5 6 -17 22 -17 42v252c0 10 2 28 15 42l329 364c5 6 20 16 38 16h218c9 0 25 0 38 -14zM331 1270l-38 42l247 274
c11 12 23 16 36 16c16 0 31 -6 40 -16l246 -274l-38 -42l-37 -42l-209 232l-209 -232z" />
    <glyph glyph-name="ccircumflex" unicode="&#x109;" vert-adv-y="0" 
d="M747 950v-118h-365l-186 -208v-198l191 -208h360v-116h-382c-7 0 -24 2 -37 16l-222 242c-5 6 -16 22 -16 42v246c0 10 3 28 16 42l216 242c5 6 18 18 36 18h389zM295 1092l-38 42l247 274c11 12 23 16 36 16c16 0 31 -6 40 -16l246 -274l-38 -42l-37 -42l-209 232
l-209 -232z" />
    <glyph glyph-name="Cdotaccent" unicode="&#x10a;" vert-adv-y="0" 
d="M844 1058l-75 -84l-96 102h-174l-296 -328v-202l297 -328h171l94 110l79 -84l-110 -128c-7 -8 -21 -18 -39 -18h-216c-9 0 -25 6 -38 20l-329 360c-5 6 -17 22 -17 42v252c0 10 2 28 15 42l329 364c5 6 20 16 38 16h218c9 0 25 0 38 -14zM482 1372c0 62 45 112 101 112
s101 -50 101 -112s-45 -112 -101 -112s-101 50 -101 112z" />
    <glyph glyph-name="cdotaccent" unicode="&#x10b;" vert-adv-y="0" 
d="M747 950v-118h-365l-186 -208v-198l191 -208h360v-116h-382c-7 0 -24 2 -37 16l-222 242c-5 6 -16 22 -16 42v246c0 10 3 28 16 42l216 242c5 6 18 18 36 18h389zM335 1238c0 62 45 112 101 112s100 -50 100 -112s-44 -112 -100 -112s-101 50 -101 112z" />
    <glyph glyph-name="Ccaron" unicode="&#x10c;" vert-adv-y="0" 
d="M844 1058l-75 -84l-96 102h-174l-296 -328v-202l297 -328h171l94 110l79 -84l-110 -128c-7 -8 -21 -18 -39 -18h-216c-9 0 -25 6 -38 20l-329 360c-5 6 -17 22 -17 42v252c0 10 2 28 15 42l329 364c5 6 20 16 38 16h218c9 0 25 0 38 -14zM835 1548l38 -42l-247 -274
c-11 -12 -23 -16 -36 -16c-16 0 -30 6 -39 16l-247 274l38 42l38 42l209 -232l208 232z" />
    <glyph glyph-name="ccaron" unicode="&#x10d;" vert-adv-y="0" 
d="M747 950v-118h-365l-186 -208v-198l191 -208h360v-116h-382c-7 0 -24 2 -37 16l-222 242c-5 6 -16 22 -16 42v246c0 10 3 28 16 42l216 242c5 6 18 18 36 18h389zM814 1386l37 -42l-246 -274c-11 -12 -23 -16 -36 -16c-16 0 -31 6 -40 16l-246 274l37 42l38 42l209 -232
l209 232z" />
    <glyph glyph-name="uni1E56" unicode="&#x1e56;" vert-adv-y="0" 
d="M202 586h349l187 210v78l-185 200h-351v-488zM202 462v-366h-107v1098h479c14 0 27 -4 38 -16l216 -238c11 -12 16 -24 16 -40v-128c0 -16 -3 -30 -14 -42l-218 -246c-11 -12 -24 -22 -38 -22h-372zM295 1372c0 62 45 112 101 112s101 -50 101 -112s-45 -112 -101 -112
s-101 50 -101 112z" />
    <glyph glyph-name="uniFF00" unicode="&#xff00;" vert-adv-y="0" 
 />
    <glyph glyph-name="uniFF01" unicode="&#xff01;" vert-adv-y="0" 
d="M427 220h111v-122h-111v122zM427 1318h109v-856h-109v856z" />
    <glyph glyph-name="uniFF02" unicode="&#xff02;" vert-adv-y="0" 
d="M207 1318h112v-366h-112v366zM536 1318h110v-366h-110v366z" />
    <glyph glyph-name="uniFF03" unicode="&#xff03;" vert-adv-y="0" 
d="M533 952h-214v-246h214v246zM211 1196h108v-122h214v122h106v-124h108v-120h-108v-246h108v-120h-108v-120h-106v120h-214v-122h-108v122h-107v122h107v244h-107v122h107v122z" />
    <glyph glyph-name="uniFF04" unicode="&#xff04;" vert-adv-y="0" 
d="M875 1076v-120h-331v-246h162c14 0 30 -8 39 -18l112 -124c11 -12 14 -28 14 -42v-128c0 -16 -5 -32 -14 -42l-108 -120c-11 -12 -27 -18 -40 -18h-165v-240h-108v240h-321v120h321v252h-164c-13 0 -27 6 -38 18l-108 120c-9 10 -16 26 -16 42v126c0 14 5 30 16 42
l108 120c9 10 24 18 38 18h164v240h108v-240h331zM436 956h-141l-77 -86v-76l77 -84h141v246zM544 338h144l75 84v78l-79 90h-140v-252z" />
    <glyph glyph-name="uniFF05" unicode="&#xff05;" vert-adv-y="0" 
d="M125 236l-13 27v30l13 27l657 730l24 16h28l25 -16l13 -27v-30l-13 -27l-657 -730l-25 -16h-28zM648 162c0 -40 27 -72 63 -72c34 0 63 32 63 72s-29 68 -63 68c-36 0 -63 -28 -63 -68zM545 160c0 102 74 186 164 186s164 -84 164 -186s-74 -186 -164 -186
s-164 84 -164 186zM211 1128c0 -40 27 -72 63 -72c34 0 63 32 63 72s-29 68 -63 68c-36 0 -63 -28 -63 -68zM108 1126c0 102 74 186 164 186s164 -84 164 -186s-74 -186 -164 -186s-164 84 -164 186z" />
    <glyph glyph-name="uniFF06" unicode="&#xff06;" vert-adv-y="0" 
d="M335 484c-4 4 -7 6 -9 10s-5 8 -7 12c-1 1 -1 3 -1 5c0 3 1 6 1 9v76h-65l-49 -78v-214l74 -84h182l56 62zM117 736c-2 4 -7 6 -9 10v4v6v6v6v246v8v6v8s-2 4 0 6s5 4 7 6l6 6l99 118c4 4 6 8 10 10s9 4 13 6c2 1 4 1 5 1c4 0 5 -1 9 -1h121c4 0 9 0 13 -2l12 -6
c2 -2 4 -2 6 -4s3 -2 5 -4l101 -110c2 -2 1 -4 3 -6s4 -4 4 -6c2 -4 3 -10 5 -14s2 -10 2 -14v-248c0 -2 6 -6 6 -8s-2 -6 -2 -8c-2 -4 -2 -10 -4 -14c-2 -2 -1 -4 -3 -6l-6 -6l-101 -114v-68l171 -186l189 208l74 -80l-191 -210l186 -204l-72 -78l-186 202l-72 -80
c-4 -4 -6 -8 -10 -10s-9 -4 -13 -6c-2 -1 -4 -1 -5 -1c-4 0 -5 1 -9 1h-224c-3 0 -5 -1 -8 -1c-2 0 -3 0 -4 1c-4 2 -7 6 -11 8c-2 2 -3 2 -5 4s-4 2 -6 4l-108 118c-4 4 -5 8 -7 12l-7 14c0 1 -1 2 -1 3c0 5 3 8 3 13v254v6v6s5 4 5 6v4c2 4 -2 6 0 10l58 88zM427 796v200
l-71 80h-77l-70 -84v-206l41 -66h112z" />
    <glyph glyph-name="uniFF07" unicode="&#xff07;" vert-adv-y="0" 
d="M439 1318h110v-366h-110v366z" />
    <glyph glyph-name="uniFF08" unicode="&#xff08;" vert-adv-y="0" 
d="M346 940l225 238c11 10 23 18 36 18c14 0 27 -8 36 -20c11 -12 16 -26 16 -42s-5 -28 -16 -40l-209 -226v-440l210 -232c11 -10 17 -26 17 -42s-6 -28 -17 -38c-11 -12 -23 -18 -36 -18s-27 6 -36 18l-225 250c-11 12 -16 22 -16 38v488c0 16 4 36 15 48z" />
    <glyph glyph-name="uniFF09" unicode="&#xff09;" vert-adv-y="0" 
d="M646 354l-225 -238c-11 -10 -23 -18 -36 -18c-14 0 -27 8 -36 20c-11 12 -16 26 -16 42s5 28 16 40l209 226v440l-211 232c-11 10 -16 26 -16 42s5 28 16 38c11 12 23 18 36 18s27 -6 36 -18l225 -250c11 -12 17 -22 17 -38v-488c0 -16 -4 -36 -15 -48z" />
    <glyph glyph-name="uniFF0A" unicode="&#xff0a;" vert-adv-y="0" 
d="M427 708h109v-368h-109v368zM427 1196h109v-368h-109v368zM776 1056l77 -84l-178 -200l182 -208l-78 -84l-257 292zM189 1056l254 -284l-258 -292l-75 84l182 208l-179 200z" />
    <glyph glyph-name="uniFF0B" unicode="&#xff0b;" vert-adv-y="0" 
d="M428 1044h108v-332h321v-126h-321v-320h-108v320h-320v126h320v332z" />
    <glyph glyph-name="uniFF0C" unicode="&#xff0c;" vert-adv-y="0" 
d="M643 378v-214l-33 -84l-243 -272l-151 168l212 238v164h215z" />
    <glyph glyph-name="uniFF0D" unicode="&#xff0d;" vert-adv-y="0" 
d="M214 712h537v-112h-537v112z" />
    <glyph glyph-name="uniFF0E" unicode="&#xff0e;" vert-adv-y="0" 
d="M322 322h214v-222h-214v222z" />
    <glyph glyph-name="uniFF0F" unicode="&#xff0f;" vert-adv-y="0" 
d="M125 236l-13 27v30l13 27l657 730l24 16h28l25 -16l13 -27v-30l-13 -27l-657 -730l-25 -16h-28z" />
    <glyph glyph-name="uniFF10" unicode="&#xff10;" vert-adv-y="0" 
d="M482 888c29 0 54 -28 54 -60v-246c0 -32 -25 -60 -54 -60c-31 0 -54 28 -54 60v246c0 32 23 60 54 60zM214 990v-564l187 -208h164l186 204v568l-191 210h-155zM124 1056l223 246c9 12 25 18 38 18h196c14 0 29 -8 38 -18l222 -246c11 -10 16 -28 16 -42v-616
c0 -16 -7 -34 -16 -42l-216 -240c-11 -12 -27 -18 -38 -18h-205c-14 0 -31 8 -38 18l-220 244c-11 12 -16 28 -16 42v612c0 16 7 34 16 42z" />
    <glyph glyph-name="uniFF11" unicode="&#xff11;" vert-adv-y="0" 
d="M448 1296c11 12 23 20 36 20c7 0 18 0 25 -4c22 -10 27 -30 27 -56v-1156h-108v1008l-172 -196l-76 78z" />
    <glyph glyph-name="uniFF12" unicode="&#xff12;" vert-adv-y="0" 
d="M214 952h-106v64c0 16 7 32 16 42l218 244c11 12 25 18 38 18h313c14 0 29 -8 38 -18l110 -122c11 -12 16 -28 16 -42v-252c0 -16 -7 -32 -16 -42l-553 -628h569v-120h-700c-13 0 -27 6 -38 18s-16 28 -16 42s5 30 16 42l632 712v204l-78 86h-272l-187 -208v-40z" />
    <glyph glyph-name="uniFF13" unicode="&#xff13;" vert-adv-y="0" 
d="M214 1200v120h643v-186c0 -16 -7 -32 -16 -42l-240 -266c7 -2 14 -8 18 -12l220 -244c11 -12 16 -28 16 -42v-134c0 -16 -7 -32 -16 -42l-211 -234c-11 -12 -25 -18 -38 -18h-325c-14 0 -29 8 -38 18l-119 132l76 84l102 -114h286l179 198v84l-188 210h-88
c-13 0 -27 6 -38 18s-16 26 -16 42s5 30 16 42l314 344v42h-537z" />
    <glyph glyph-name="uniFF14" unicode="&#xff14;" vert-adv-y="0" 
d="M751 600h106v-112h-106v-438h-108v438h-481c-29 0 -54 28 -54 60v224c0 12 5 30 16 42l432 488c7 10 24 18 38 18h157v-720zM643 600v600h-26l-406 -458v-142h432z" />
    <glyph glyph-name="uniFF15" unicode="&#xff15;" vert-adv-y="0" 
d="M857 1320v-120h-643v-246h373c13 0 27 -6 38 -18l216 -240c9 -8 16 -26 16 -42v-252c0 -14 -5 -30 -16 -42l-218 -242c-7 -10 -24 -18 -38 -18h-472v120h452l186 208v202l-184 204h-459v486h749z" />
    <glyph glyph-name="uniFF16" unicode="&#xff16;" vert-adv-y="0" 
d="M108 372v2v636c0 14 5 30 16 42l258 286l77 -84l-241 -268v-330l135 150c9 10 24 18 38 18h198c13 0 26 -6 37 -18l215 -242c9 -10 16 -26 16 -42v-144c0 -14 -5 -30 -16 -42l-224 -248c-9 -10 -23 -18 -37 -18h-197c-13 0 -26 6 -37 18l-222 244c-2 2 -16 40 -16 40z
M218 492v-92l187 -210h153l191 214v100l-184 206h-153z" />
    <glyph glyph-name="uniFF17" unicode="&#xff17;" vert-adv-y="0" 
d="M428 98h-106v568c0 16 7 34 16 42l411 456v36h-641v120h749v-180c0 -14 -5 -32 -16 -42l-413 -458v-542z" />
    <glyph glyph-name="uniFF18" unicode="&#xff18;" vert-adv-y="0" 
d="M230 1166l105 132c11 14 25 20 39 20h215c16 0 28 -6 37 -16l105 -120c11 -12 16 -26 16 -40v-250l-18 -40l-65 -68l180 -214c7 -10 13 -24 13 -40v-142c0 -14 -5 -26 -16 -38l-218 -238c-9 -10 -20 -14 -34 -14h-216c-16 0 -31 6 -38 14l-211 238l-16 40v142
c0 10 7 24 18 38l176 210l-70 68c-11 10 -18 26 -18 44v238c0 10 5 24 16 36zM216 508v-94l178 -206h173l185 208v92l-185 218h-166zM322 1108v-192l78 -78h169l72 78v204l-74 84h-169z" />
    <glyph glyph-name="uniFF19" unicode="&#xff19;" vert-adv-y="0" 
d="M751 868l-236 -262c-7 -10 -24 -18 -38 -18h-212c-13 0 -27 6 -38 18l-103 114c-9 8 -16 26 -16 42v254c0 14 5 32 16 42l220 244c7 10 24 18 38 18h311c13 0 29 -6 38 -18l110 -124c9 -10 16 -26 16 -42v-856c0 -14 -5 -30 -16 -42l-144 -160l-76 84l130 140v566z
M751 1032v82l-80 86h-268l-187 -208v-206l70 -78h169z" />
    <glyph glyph-name="uniFF1A" unicode="&#xff1a;" vert-adv-y="0" 
d="M322 322h214v-222h-214v222zM322 822h214v-222h-214v222z" />
    <glyph glyph-name="uniFF1B" unicode="&#xff1b;" vert-adv-y="0" 
d="M643 378v-214l-33 -84l-243 -272l-151 168l212 238v164h215zM428 822h215v-222h-215v222z" />
    <glyph glyph-name="uniFF1C" unicode="&#xff1c;" vert-adv-y="0" 
d="M740 198c9 -12 14 -28 14 -44s-7 -30 -16 -42s-24 -18 -38 -20c-4 0 -6 -1 -10 -1c-10 0 -18 3 -28 9l-437 490v112l436 492c10 5 20 12 32 12h4c13 -2 23 -8 32 -18c11 -10 16 -26 18 -42c0 -4 1 -7 1 -11c0 -12 -3 -22 -8 -33l-411 -456z" />
    <glyph glyph-name="uniFF1D" unicode="&#xff1d;" vert-adv-y="0" 
d="M108 934h749v-112h-749v112zM108 600h749v-112h-749v112z" />
    <glyph glyph-name="uniFF1E" unicode="&#xff1e;" vert-adv-y="0" 
d="M239 1100c-9 12 -14 28 -14 44s7 30 16 42s24 18 38 20c4 0 6 1 10 1c10 0 18 -3 28 -9l437 -490v-112l-435 -492c-10 -5 -21 -12 -33 -12h-3c-13 2 -24 8 -33 18c-11 10 -16 26 -18 42c0 4 -1 7 -1 11c0 12 3 22 8 33l411 456z" />
    <glyph glyph-name="uniFF1F" unicode="&#xff1f;" vert-adv-y="0" 
d="M322 954h-108v184c0 16 7 32 16 42l114 124c11 12 27 14 38 14h307c14 0 29 -6 38 -16l114 -126c11 -12 16 -28 16 -42v-122c0 -16 -9 -34 -18 -44l-303 -320v-184h-108v210c0 14 6 32 17 44l306 320v72l-83 90h-265l-81 -88v-158zM428 222h108v-122h-108v122z" />
    <glyph glyph-name="uniFF20" unicode="&#xff20;" vert-adv-y="0" 
d="M536 704v120h-28l-78 -86v-34h106zM644 704h35l70 80v328l-72 80h-385l-76 -84v-810l67 -76h574v-120h-596c-13 0 -29 6 -40 18l-99 110c-9 10 -14 26 -14 42v860c0 14 3 30 14 42l108 120c9 10 26 18 40 18h428c13 0 29 -6 40 -18l104 -116c9 -10 15 -26 15 -42v-378
c0 -14 -4 -30 -15 -42l-102 -114c-9 -10 -24 -18 -38 -18h-326c-29 0 -54 28 -54 60v118c0 14 4 30 15 42l109 122c9 10 26 14 40 14h104c29 0 54 -24 54 -56v-180z" />
    <glyph glyph-name="uniFF22" unicode="&#xff22;" vert-adv-y="0" 
d="M214 218v858h-106v118h479c18 0 32 -10 39 -16l216 -250c11 -12 15 -26 15 -40c0 -20 -7 -36 -16 -46l-182 -194l182 -198c11 -12 16 -28 16 -40c0 -18 -7 -34 -16 -44l-220 -250c-13 -14 -29 -18 -38 -18h-475v120h106zM562 586h-240v-368h238l167 188zM560 708l167 180
l-164 188h-241v-368h238z" />
    <glyph glyph-name="uniFF23" unicode="&#xff23;" vert-adv-y="0" 
d="M857 1058l-76 -84l-95 102h-175l-295 -328v-202l297 -328h171l94 110l79 -84l-110 -128c-7 -8 -22 -18 -40 -18h-216c-9 0 -24 6 -37 20l-330 360c-5 6 -16 22 -16 42v252c0 10 1 28 14 42l330 364c5 6 20 16 38 16h217c9 0 25 0 38 -14z" />
    <glyph glyph-name="uniFF24" unicode="&#xff24;" vert-adv-y="0" 
d="M322 220h241l186 206v440l-186 210h-241v-856zM214 1076h-106v118h479c18 0 33 -12 38 -18l216 -244c13 -14 16 -32 16 -42v-488c0 -20 -11 -38 -16 -44l-218 -240c-13 -14 -29 -20 -38 -20h-477v120h106v858z" />
    <glyph glyph-name="uniFF25" unicode="&#xff25;" vert-adv-y="0" 
d="M108 1196h749v-122h-643v-362h429v-122h-429v-372h643v-120h-749v1098z" />
    <glyph glyph-name="uniFF26" unicode="&#xff26;" vert-adv-y="0" 
d="M108 1194h749v-120h-643v-362h537v-112h-537v-502h-106v1096z" />
    <glyph glyph-name="uniFF27" unicode="&#xff27;" vert-adv-y="0" 
d="M428 600h429v-112h-106v-386h-373c-9 0 -25 2 -38 16l-216 238c-5 6 -16 22 -16 42v496c0 10 1 32 14 46l216 238c5 8 20 16 38 16h216c9 0 27 -2 40 -16l135 -152l-78 -84l-118 134h-171l-184 -206v-446l184 -202h244v266h-216v112z" />
    <glyph glyph-name="uniFF28" unicode="&#xff28;" vert-adv-y="0" 
d="M108 1194h106v-482h537v482h106v-1094h-106v500h-537v-500h-106v1094z" />
    <glyph glyph-name="uniFF29" unicode="&#xff29;" vert-adv-y="0" 
d="M322 1194h321v-120h-107v-856h107v-122h-321v122h106v856h-106v120z" />
    <glyph glyph-name="uniFF2A" unicode="&#xff2a;" vert-adv-y="0" 
d="M108 464h106v-162l79 -82h168l75 86v768h-108v120h323v-120h-108v-792c0 -8 -2 -28 -15 -42l-106 -122c-7 -8 -22 -18 -40 -18h-212c-7 0 -25 2 -38 16l-108 116c-5 6 -16 22 -16 42v190z" />
    <glyph glyph-name="uniFF2B" unicode="&#xff2b;" vert-adv-y="0" 
d="M221 376v-278h-113v1096h113v-646l528 608v38h106v-62c0 -16 -5 -30 -16 -42l-387 -444l389 -444c11 -12 16 -26 16 -42v-62h-108v38l-373 426z" />
    <glyph glyph-name="uniFF2C" unicode="&#xff2c;" vert-adv-y="0" 
d="M108 1194h106v-976h643v-120h-749v1096z" />
    <glyph glyph-name="uniFF2D" unicode="&#xff2d;" vert-adv-y="0" 
d="M536 740v-152h-109v152l-211 248v-888h-108v1032c0 26 12 46 34 56c7 4 13 6 20 6c13 0 27 -8 38 -20l279 -322l286 326c11 12 25 16 38 16c4 0 9 2 13 2c2 0 4 -1 7 -2c22 -10 34 -32 34 -58v-1036h-108v892z" />
    <glyph glyph-name="uniFF2E" unicode="&#xff2e;" vert-adv-y="0" 
d="M108 100v1094h106l537 -610v610h106v-1094h-106v300l-537 616v-916h-106z" />
    <glyph glyph-name="uniFF2F" unicode="&#xff2f;" vert-adv-y="0" 
d="M220 988v-688l70 -80h381l78 86v680l-78 90h-379zM126 1052l103 124c13 16 28 18 39 18h427c18 0 34 -10 39 -18l108 -124c13 -14 15 -32 15 -42v-730c0 -20 -9 -36 -16 -42l-110 -120c-13 -14 -29 -18 -38 -18h-425c-18 0 -33 10 -38 16l-106 114c-13 14 -16 34 -16 44
v738c0 18 11 32 18 40z" />
    <glyph glyph-name="uniFF30" unicode="&#xff30;" vert-adv-y="0" 
d="M214 586h349l188 210v78l-186 200h-351v-488zM214 462v-366h-106v1098h479c14 0 27 -4 38 -16l216 -238c11 -12 16 -24 16 -40v-128c0 -16 -4 -30 -15 -42l-217 -246c-11 -12 -24 -22 -38 -22h-373z" />
    <glyph glyph-name="uniFF31" unicode="&#xff31;" vert-adv-y="0" 
d="M668 166l182 -218l-80 -80l-194 236h-196c-14 0 -27 6 -38 18l-218 238c-11 12 -16 26 -16 42v494c0 16 5 32 16 44l216 238c11 12 24 16 38 16h212c14 0 27 -4 38 -16l213 -244c11 -12 16 -26 16 -42v-492c0 -18 -5 -30 -16 -42zM590 248l159 178v442l-182 208h-166
l-185 -204v-444l185 -204h76l-45 80c-5 10 -7 18 -7 30v130h108v-114z" />
    <glyph glyph-name="uniFF32" unicode="&#xff32;" vert-adv-y="0" 
d="M500 588l341 -382c11 -12 16 -26 16 -42v-64h-106v28l-405 460h-132v-488h-106v1094h585c14 0 27 -6 38 -18l110 -120c11 -12 16 -26 16 -42v-246c0 -16 -5 -30 -16 -42l-107 -120c-11 -12 -23 -18 -37 -18h-197zM214 708h459l76 84v196l-78 86h-457v-366z" />
    <glyph glyph-name="uniFF33" unicode="&#xff33;" vert-adv-y="0" 
d="M745 996l-68 80h-378l-78 -86v-64l609 -476c16 -12 23 -30 23 -50v-118c0 -16 -5 -28 -14 -40l-103 -124c-11 -12 -23 -22 -39 -22h-425c-14 0 -27 6 -38 18l-110 122c-11 12 -16 26 -16 42v62h108v-38l77 -84h380l72 88v62l-608 476c-16 12 -24 30 -24 50v120
c0 16 6 30 17 42l109 122c11 12 24 16 38 16h421c14 0 27 -4 38 -16l105 -116c11 -12 16 -26 16 -42v-64h-112v40z" />
    <glyph glyph-name="uniFF34" unicode="&#xff34;" vert-adv-y="0" 
d="M108 1194h749v-120h-321v-976h-108v976h-320v120z" />
    <glyph glyph-name="uniFF35" unicode="&#xff35;" vert-adv-y="0" 
d="M108 1194h104v-890l78 -84h385l74 86v888h108v-912c0 -8 -2 -26 -15 -40l-104 -122c-7 -8 -22 -20 -40 -20h-432c-9 0 -24 4 -37 18l-107 118c-5 6 -14 22 -14 42v916z" />
    <glyph glyph-name="uniFF36" unicode="&#xff36;" vert-adv-y="0" 
d="M216 1026l261 -716l272 714v170h108v-182c0 -8 -2 -16 -4 -24l-326 -856c-9 -22 -27 -36 -50 -36s-41 14 -50 36l-319 858c-1 3 -2 5 -2 7c0 5 2 10 2 15v182h108v-168z" />
    <glyph glyph-name="uniFF37" unicode="&#xff37;" vert-adv-y="0" 
d="M479 314l-171 -200c-11 -12 -25 -18 -38 -18c-14 0 -27 6 -38 18l-108 120c-11 12 -16 26 -16 42v918h106v-894l56 -58l157 184v278h108v-282l158 -180l56 60v892h108v-918c0 -18 -5 -32 -16 -44l-110 -118c-11 -10 -24 -18 -38 -18c-13 0 -27 8 -38 20z" />
    <glyph glyph-name="uniFF38" unicode="&#xff38;" vert-adv-y="0" 
d="M479 562l-261 -306v-154h-108v178c0 16 5 30 16 42l277 324l-277 330c-11 12 -16 26 -16 42v178h108v-154l263 -310l268 308v154h108v-178c0 -16 -5 -30 -16 -42l-285 -326l285 -328c11 -12 16 -26 16 -42v-178h-108v154z" />
    <glyph glyph-name="uniFF39" unicode="&#xff39;" vert-adv-y="0" 
d="M536 742v-642h-109v642l-303 348c-11 12 -16 26 -16 42v62h108v-38l268 -304l265 304v38h108v-58c0 -16 -4 -32 -15 -44z" />
    <glyph glyph-name="uniFF3A" unicode="&#xff3a;" vert-adv-y="0" 
d="M855 1012c0 -16 -5 -30 -16 -42l-623 -712v-38h641v-122h-749v184c0 16 5 30 16 42l623 712v38h-639v120h747v-182z" />
    <glyph glyph-name="uniFF3B" unicode="&#xff3b;" vert-adv-y="0" 
d="M322 1318h321v-122h-216v-1098h216v-124h-321v1344z" />
    <glyph glyph-name="uniFF3C" unicode="&#xff3c;" vert-adv-y="0" 
d="M126 1051l24 15h27l25 -15l657 -730l14 -27v-31l-14 -27l-25 -15h-27l-24 15l-657 730l-14 27v31z" />
    <glyph glyph-name="uniFF3D" unicode="&#xff3d;" vert-adv-y="0" 
d="M322 1318h321v-1344h-321v124h214v1098h-214v122z" />
    <glyph glyph-name="uniFF3E" unicode="&#xff3e;" vert-adv-y="0" 
d="M239 992l-37 42l246 274c11 12 23 16 36 16c16 0 31 -6 40 -16l246 -274l-37 -42l-38 -42l-209 232l-209 -232z" />
    <glyph glyph-name="uniFF3F" unicode="&#xff3f;" vert-adv-y="0" 
d="M97 98h769v-124h-769v124z" />
    <glyph glyph-name="uniFF40" unicode="&#xff40;" vert-adv-y="0" 
d="M346 1302c11 12 25 16 39 16c13 0 27 -4 38 -16l225 -248c11 -12 14 -28 14 -42c0 -16 -3 -32 -14 -44s-26 -16 -40 -16c-13 0 -26 4 -37 16l-225 250c-11 12 -15 28 -15 42c0 16 4 32 15 42z" />
    <glyph glyph-name="uniFF41" unicode="&#xff41;" vert-adv-y="0" 
d="M648 216v252h-362l-77 -88v-74l75 -90h364zM756 216h110v-116h-605c-18 0 -33 12 -38 18l-104 124c-13 14 -16 34 -16 42v120c0 20 11 36 16 42l106 122c13 14 29 16 38 16h385v166l-74 84h-367v118h389c18 0 33 -12 38 -18l106 -120c13 -14 16 -30 16 -40v-558z" />
    <glyph glyph-name="uniFF42" unicode="&#xff42;" vert-adv-y="0" 
d="M103 104v1214h108v-368h280c18 0 33 -12 38 -18l214 -242c13 -14 17 -32 17 -42v-246c0 -20 -12 -36 -17 -42l-221 -242c-13 -14 -31 -14 -38 -14h-381zM211 218h252l190 208v198l-183 208h-259v-614z" />
    <glyph glyph-name="uniFF43" unicode="&#xff43;" vert-adv-y="0" 
d="M760 950v-118h-366l-185 -208v-198l191 -208h360v-116h-382c-7 0 -25 2 -38 16l-221 242c-5 6 -16 22 -16 42v246c0 10 3 28 16 42l216 242c5 6 18 18 36 18h389z" />
    <glyph glyph-name="uniFF44" unicode="&#xff44;" vert-adv-y="0" 
d="M760 102h-382c-7 0 -25 2 -38 16l-221 242c-5 6 -16 22 -16 42v246c0 10 3 28 16 42l216 242c5 6 18 18 36 18h281v368h108v-1216zM652 218v614h-258l-185 -208v-198l191 -208h252z" />
    <glyph glyph-name="uniFF45" unicode="&#xff45;" vert-adv-y="0" 
d="M209 462v-158l77 -90h474v-112h-495c-16 0 -31 10 -36 16l-112 120c-13 14 -14 32 -14 42v484c0 20 13 34 18 40l109 126c13 14 31 22 40 22h326c18 0 33 -16 38 -22l106 -124c13 -14 16 -30 16 -40v-304h-547zM211 586h441v156l-78 88h-284l-79 -90v-154z" />
    <glyph glyph-name="uniFF46" unicode="&#xff46;" vert-adv-y="0" 
d="M506 1198l-72 -82v-164h218v-122h-220v-732h-106v732h-223v122h223v188c0 16 3 30 14 42l103 118c11 12 23 18 39 18h278v-120h-254z" />
    <glyph glyph-name="uniFF47" unicode="&#xff47;" vert-adv-y="0" 
d="M702 380l-124 -138c-7 -10 -24 -18 -38 -18h-171c-13 0 -27 6 -38 18l-212 236c-9 8 -16 26 -16 42v134c0 14 5 30 16 42l218 244c7 10 23 16 37 16h272c13 0 27 -4 38 -16l110 -124c9 -8 16 -26 16 -42v-742c0 -14 -5 -30 -16 -42l-101 -112c-7 -10 -24 -18 -38 -18
h-290c-13 0 -26 6 -37 18l-105 116l76 84l88 -98h247l68 76v324zM702 548v202l-77 86h-229l-185 -206v-86l180 -200h127z" />
    <glyph glyph-name="uniFF48" unicode="&#xff48;" vert-adv-y="0" 
d="M103 96v1236h108v-536l129 144c11 10 24 10 38 10h214c14 0 27 -6 38 -16l113 -120c11 -12 17 -26 17 -44v-674h-108v648l-81 88h-171l-189 -202v-534h-108z" />
    <glyph glyph-name="uniFF49" unicode="&#xff49;" vert-adv-y="0" 
d="M427 1318h109v-122h-109v122zM427 952h109v-854h-109v854z" />
    <glyph glyph-name="uniFF4A" unicode="&#xff4a;" vert-adv-y="0" 
d="M758 34c0 -16 -7 -30 -18 -42l-108 -122c-11 -12 -22 -16 -38 -16h-223c-14 0 -27 6 -38 18l-108 122l76 84l93 -106h178l76 86v894h110v-918zM648 1318h112v-122h-112v122z" />
    <glyph glyph-name="uniFF4B" unicode="&#xff4b;" vert-adv-y="0" 
d="M455 524l299 -342l-77 -84l-319 368h-144v-368h-111v1220h111v-732h146l324 366l76 -84z" />
    <glyph glyph-name="uniFF4C" unicode="&#xff4c;" vert-adv-y="0" 
d="M535 246l23 -28h88v-120h-110c-14 0 -26 6 -37 18l-56 62c-11 12 -16 26 -16 42v1098h108v-1072z" />
    <glyph glyph-name="uniFF4D" unicode="&#xff4d;" vert-adv-y="0" 
d="M538 746v-648h-110v648l-73 84h-65l-79 -86v-646h-108v852h109v-34l17 18c11 12 23 18 37 18h112c16 0 29 -6 40 -18l64 -78l69 76c11 12 24 18 38 18h115c14 0 27 -6 38 -18l106 -118c11 -12 16 -26 16 -42v-674h-108v650l-74 82h-70z" />
    <glyph glyph-name="uniFF4E" unicode="&#xff4e;" vert-adv-y="0" 
d="M297 884l43 48c5 6 20 18 38 18h223c9 0 23 -2 36 -16l106 -116c5 -6 17 -22 17 -42v-674h-103v650l-77 78h-180l-76 -84v-646h-108v670c0 6 3 14 7 24l-32 40h-88v118h113c18 0 29 -10 34 -18z" />
    <glyph glyph-name="uniFF4F" unicode="&#xff4f;" vert-adv-y="0" 
d="M211 748v-444l77 -84h292l72 84v444l-71 88h-293zM121 814l109 126c13 14 29 14 36 14h339c18 0 32 -12 39 -20l101 -126c11 -12 15 -28 15 -38v-490c0 -20 -12 -36 -17 -42l-104 -118c-10 -13 -22 -14 -31 -14h-7h-335c-16 0 -29 8 -36 14l-111 116
c-14 14 -16 32 -16 44v494c0 20 13 34 18 40z" />
    <glyph glyph-name="uniFF50" unicode="&#xff50;" vert-adv-y="0" 
d="M103 956h396c11 0 16 0 23 -8l221 -236c5 -6 17 -22 17 -42v-268c0 -10 -4 -28 -17 -42l-216 -242c-5 -6 -18 -18 -36 -18h-280v-368h-108v1224zM211 830v-612h257l185 208v220l-174 184h-268z" />
    <glyph glyph-name="uniFF51" unicode="&#xff51;" vert-adv-y="0" 
d="M756 948v-1078h110v-124h-220v362h-275c-18 0 -31 12 -36 18l-216 242c-13 14 -16 32 -16 42v238c0 20 11 36 16 42l221 242c13 14 31 16 38 16h378zM646 832h-246l-191 -208v-190l185 -208h252v606z" />
    <glyph glyph-name="uniFF52" unicode="&#xff52;" vert-adv-y="0" 
d="M299 626v-526h-106v668c0 18 -6 30 -17 44c-13 12 -23 18 -41 18h-32v122h88c31 0 108 -58 108 -122v-38l124 140c11 12 24 20 38 20h131c16 0 29 -6 38 -18l113 -122c11 -12 17 -26 17 -44v-60h-108v36l-81 86h-87z" />
    <glyph glyph-name="uniFF53" unicode="&#xff53;" vert-adv-y="0" 
d="M646 744l-79 88h-277l-52 -60l502 -442c13 -12 20 -26 20 -44s-6 -34 -17 -46l-113 -124c-11 -12 -24 -18 -38 -18h-324c-14 0 -27 6 -38 18l-111 120c-11 12 -16 26 -16 44v56h108v-30l79 -88h281l54 60l-501 440c-13 10 -18 26 -20 44v7c0 15 6 29 15 39l108 126
c11 12 23 18 39 18h323c14 0 26 -6 37 -18l112 -122c11 -12 16 -26 16 -42v-64h-108v38z" />
    <glyph glyph-name="uniFF54" unicode="&#xff54;" vert-adv-y="0" 
d="M535 246l23 -28h88v-120h-110c-14 0 -26 6 -37 18l-56 62c-11 12 -16 26 -16 42v610h-222v122h222v366h108v-366h221v-122h-221v-584z" />
    <glyph glyph-name="uniFF55" unicode="&#xff55;" vert-adv-y="0" 
d="M671 168l-43 -48c-5 -6 -20 -18 -38 -18h-327c-9 0 -23 2 -36 16l-106 116c-5 6 -17 22 -17 42v676h107v-652l73 -82h285l75 88v646h108v-670c0 -6 -3 -14 -7 -24l33 -40h88v-116h-110c-18 0 -33 8 -38 16z" />
    <glyph glyph-name="uniFF56" unicode="&#xff56;" vert-adv-y="0" 
d="M211 782l271 -508l276 514v162h108v-178c0 -12 -2 -20 -7 -30l-330 -616c-11 -20 -27 -30 -47 -30s-35 10 -46 30l-326 610c-5 10 -7 18 -7 30v184h108v-168z" />
    <glyph glyph-name="uniFF57" unicode="&#xff57;" vert-adv-y="0" 
d="M540 422l157 -178l61 64v644h108v-670c0 -18 -5 -32 -16 -44l-116 -122c-11 -10 -24 -16 -37 -16s-27 6 -38 18l-175 198l-180 -204c-11 -12 -24 -20 -38 -20s-26 8 -37 20l-110 124c-11 12 -16 26 -16 42v674h108v-650l55 -62l164 182v164h110v-164z" />
    <glyph glyph-name="uniFF58" unicode="&#xff58;" vert-adv-y="0" 
d="M482 440l-277 -306v-38h-108v64c0 16 4 30 15 42l293 322l-293 324c-11 12 -15 28 -15 44v60h108v-40l277 -302l278 302v40h108v-60c0 -16 -6 -32 -17 -44l-293 -322l293 -324c11 -12 17 -26 17 -42v-64h-108v38z" />
    <glyph glyph-name="uniFF59" unicode="&#xff59;" vert-adv-y="0" 
d="M409 156l-290 326c-11 12 -16 26 -16 42v428h108v-404l275 -306l164 182v528h108v-552c0 -16 -5 -30 -16 -42l-553 -614l-76 84z" />
    <glyph glyph-name="uniFF5A" unicode="&#xff5a;" vert-adv-y="0" 
d="M103 952h763l-542 -734h542v-120h-763l543 732h-543v122z" />
    <glyph glyph-name="uniFF5B" unicode="&#xff5b;" vert-adv-y="0" 
d="M644 1346v-120h-140l-81 -88v-342c0 -20 -9 -36 -14 -42l-71 -80l71 -82c5 -6 14 -22 14 -42v-342l81 -88h140v-120h-162c-18 0 -32 12 -37 18l-114 122c-13 14 -16 34 -16 44v342l-76 88h-64v120h64l76 86v344c0 10 3 28 16 42l114 122c5 8 19 18 37 18h162z" />
    <glyph glyph-name="uniFF5C" unicode="&#xff5c;" vert-adv-y="0" 
d="M427 1440h109v-1676h-109v1676z" />
    <glyph glyph-name="uniFF5D" unicode="&#xff5d;" vert-adv-y="0" 
d="M376 1322c4 0 7 -2 9 -2s5 -2 7 -2s6 -2 8 -2s5 -2 7 -4s1 -2 3 -4l4 -4l113 -122c2 -2 4 -6 6 -8s3 -4 5 -8s2 -10 4 -14c0 -2 2 -4 2 -6v-8v-342l75 -88h65v-120h-65l-75 -86v-344v-6s-2 -4 -2 -6s-2 -6 -2 -8s0 -6 -2 -8s-3 -6 -5 -8l-6 -6l-113 -122l-4 -4
s-1 -2 -3 -4s-5 -4 -7 -4s-6 -2 -8 -2s-5 -2 -7 -2s-5 -2 -9 -2h-162v120h141l81 88v342v10s-1 6 1 8s2 4 4 6s2 6 4 8c0 2 1 4 1 6s2 2 4 4l70 80l-70 82c-2 2 -4 2 -4 4s-1 4 -1 6c-2 2 -2 6 -4 8s-2 4 -4 6s-1 4 -1 8v10v342l-81 88h-141v120h162z" />
    <glyph glyph-name="uniFF5E" unicode="&#xff5e;" vert-adv-y="0" 
d="M164 1136l-38 42l108 120c11 12 25 18 38 18h117c14 0 31 -8 38 -18l196 -218h74l86 96l38 -42l38 -42l-103 -114c-7 -10 -24 -18 -38 -18h-117c-13 0 -27 6 -38 18l-196 218h-74l-91 -102z" />
    <glyph glyph-name="uni2E28" unicode="&#x2e28;" vert-adv-y="0" 
d="M194 940l225 238c11 10 23 18 36 18c14 0 27 -8 36 -20c11 -12 17 -26 17 -42s-6 -28 -17 -40l-208 -226v-440l210 -232c11 -10 16 -26 16 -42s-5 -28 -16 -38c-11 -12 -23 -18 -36 -18s-27 6 -36 18l-225 250c-11 12 -16 22 -16 38v488c0 16 3 36 14 48zM470 940
l225 238c11 10 23 18 36 18c14 0 27 -8 36 -20c11 -12 16 -26 16 -42s-5 -28 -16 -40l-209 -226v-440l211 -232c11 -10 16 -26 16 -42s-5 -28 -16 -38c-11 -12 -23 -18 -36 -18s-27 6 -36 18l-225 250c-11 12 -17 22 -17 38v488c0 16 4 36 15 48z" />
    <glyph glyph-name="uni2E29" unicode="&#x2e29;" vert-adv-y="0" 
d="M509 354l-225 -238c-11 -10 -23 -18 -36 -18c-14 0 -27 8 -36 20c-11 12 -16 26 -16 42s5 28 16 40l209 226v440l-210 232c-11 10 -17 26 -17 42s6 28 17 38c11 12 23 18 36 18s27 -6 36 -18l225 -250c11 -12 16 -22 16 -38v-488c0 -16 -4 -36 -15 -48zM787 354
l-225 -238c-11 -10 -23 -18 -36 -18c-14 0 -27 8 -36 20c-11 12 -17 26 -17 42s6 28 17 40l208 226v440l-210 232c-11 10 -16 26 -16 42s5 28 16 38c11 12 23 18 36 18s27 -6 36 -18l225 -250c11 -12 16 -22 16 -38v-488c0 -16 -3 -36 -14 -48z" />
    <glyph glyph-name="uniFF61" unicode="&#xff61;" vert-adv-y="0" 
d="M360 296v-152h137v152h-137zM319 388h217c22 0 40 -22 40 -46v-244c0 -24 -18 -46 -40 -46h-217c-22 0 -42 22 -42 46v244c0 24 20 46 42 46z" />
    <glyph glyph-name="uniFF62" unicode="&#xff62;" vert-adv-y="0" 
d="M493 1298h-403v-576h-90v678h493v-102z" />
    <glyph glyph-name="uniFF63" unicode="&#xff63;" vert-adv-y="0" 
d="M468 -290h403v576h90v-678h-493v102z" />
    <glyph glyph-name="uniFF64" unicode="&#xff64;" vert-adv-y="0" 
 />
    <glyph glyph-name="uniFF65" unicode="&#xff65;" vert-adv-y="0" 
d="M378 878h214v-222h-214v222z" />
    <glyph glyph-name="uniFFE0" unicode="&#xffe0;" vert-adv-y="0" 
d="M104 581c-4 5 -7 11 -7 17v313c0 14 4 27 9 34l96 117c5 6 12 10 19 10h206v246h109v-244h220v-122h-220v-366h220v-122h-220v-244h-109v244h-202c-4 0 -9 2 -13 7zM427 952h-166l-50 -60v-242l54 -64h162v366z" />
    <glyph glyph-name="uniFFE1" unicode="&#xffe1;" vert-adv-y="0" 
d="M279 224h-63v-12h50zM439 706v-426l74 -56h180l95 96l74 -88l-111 -116c-10 -10 -23 -16 -38 -16h-220c-14 0 -28 5 -38 16l-46 50c-9 10 -20 15 -28 15c-3 0 -6 -1 -8 -3l-62 -66c-6 -7 -20 -12 -37 -12h-112c-30 0 -54 25 -54 56v122c0 33 24 60 54 60h108l61 -18v386
h-223v122h223v306c0 17 6 32 15 42l108 122c12 13 25 20 39 20h115c14 0 26 -7 38 -20l108 -120l-77 -84l-92 102h-70l-76 -86v-282h220v-122h-220z" />
    <glyph glyph-name="uniFFE2" unicode="&#xffe2;" vert-adv-y="0" 
d="M868 612h-112v210h-657v120h769v-330z" />
    <glyph glyph-name="uniFFE3" unicode="&#xffe3;" vert-adv-y="0" 
d="M34 1318h907v-122h-907v122z" />
    <glyph glyph-name="uniFFE4" unicode="&#xffe4;" vert-adv-y="0" 
d="M427 708v732h109v-732h-109zM536 468v-704h-109v704h109z" />
    <glyph glyph-name="uniFFE5" unicode="&#xffe5;" vert-adv-y="0" 
d="M427 704v38l-303 348c-11 12 -16 26 -16 42v62h108v-38l268 -304l265 304v38h108v-58c0 -16 -4 -32 -15 -44l-306 -350v-38h321v-112h-321v-222h321v-112h-321v-158h-109v158h-319v112h319v222h-319v112h319z" />
    <glyph glyph-name="uniFFE6" unicode="&#xffe6;" vert-adv-y="0" 
d="M479 314l-108 -200c-9 -14 -25 -18 -38 -18c-14 0 -27 6 -38 18l-108 120c-11 12 -16 26 -16 42v212h-63v112h63v222h-63v112h63v260h108v-260h407v262h108v-262h63v-112h-63v-222h63v-112h-63v-212c0 -18 -5 -32 -16 -44l-110 -118c-11 -10 -24 -16 -38 -16
c-13 0 -29 4 -38 18zM279 488v-188l54 -58l94 184v62h-148zM535 488v-66l95 -180l56 60v186h-151zM279 600h148v104h108v-104h151v222h-407v-222z" />
    <glyph glyph-name="uniFFE7" unicode="&#xffe7;" vert-adv-y="0" 
 />
    <glyph glyph-name="uniFFE8" unicode="&#xffe8;" vert-adv-y="0" 
 />
    <glyph glyph-name="uniFFE9" unicode="&#xffe9;" vert-adv-y="0" 
d="M464 952v-244h369v-122h-369v-244l-325 304z" />
    <glyph glyph-name="uniFFEA" unicode="&#xffea;" vert-adv-y="0" 
d="M760 672h-220v-412h-108v412h-220l274 360z" />
    <glyph glyph-name="uniFFEB" unicode="&#xffeb;" vert-adv-y="0" 
d="M508 952l325 -306l-325 -304v244h-369v122h369v244z" />
    <glyph glyph-name="uniFFEC" unicode="&#xffec;" vert-adv-y="0" 
d="M212 624h220v408h108v-408h220l-274 -364z" />
    <glyph glyph-name="uniFFED" unicode="&#xffed;" vert-adv-y="0" 
d="M292 1020h378v-432h-378v432z" />
    <glyph glyph-name="uniFFEE" unicode="&#xffee;" vert-adv-y="0" 
d="M295 804c0 -126 88 -226 198 -226c108 0 198 100 198 226s-90 226 -198 226c-110 0 -198 -100 -198 -226zM205 804c0 180 128 326 288 326c158 0 288 -146 288 -326s-130 -326 -288 -326c-160 0 -288 146 -288 326z" />
    <glyph glyph-name="uniFFFC" unicode="&#xfffc;" vert-adv-y="0" 
d="M716 382h90v-284c0 -14 -5 -30 -14 -38l-52 -52c-9 -8 -20 -12 -31 -12h-97c-11 0 -22 6 -31 14l-52 52c-9 10 -14 24 -14 36v96h90v-74l23 -24h65l23 24v262zM223 1382h177c25 0 43 -22 43 -50v-288c0 -28 -18 -50 -43 -50h-177c-25 0 -47 22 -47 50v288
c0 28 22 50 47 50zM266 1282v-188h87v188h-87zM342 776v100h144c11 0 22 -4 29 -12l75 -72c11 -10 15 -22 15 -36c0 -16 -7 -32 -18 -40l-33 -34l36 -38c11 -10 15 -24 15 -38c0 -12 -6 -26 -15 -34l-68 -76c-9 -10 -23 -14 -32 -14h-148v100h11v194h-11zM443 582h29l21 24
l-25 28h-25v-52zM443 776v-42h25l22 20l-22 22h-25z" />
    <glyph glyph-name="uniFFFD" unicode="&#xfffd;" vert-adv-y="0" 
d="M378 736c9 0 18 10 18 20v70l29 32h128l30 -32v-20l-158 -162c-11 -10 -15 -24 -15 -36v-92c0 -10 9 -20 18 -20h54c9 0 18 10 18 20v70l159 164c7 8 14 20 14 36v60c0 12 -3 24 -12 34l-56 62c-9 10 -22 14 -33 14h-165c-7 0 -20 0 -31 -12l-57 -62
c-7 -8 -13 -20 -13 -34v-92c0 -10 9 -20 18 -20h54zM425 416c-9 0 -18 -10 -18 -20v-60c0 -10 9 -20 18 -20h61c9 0 18 10 18 20v60c0 10 -9 20 -18 20h-61zM59 688l386 428c11 12 23 18 37 18s27 -6 38 -18l385 -428c11 -12 17 -28 17 -42s-6 -30 -17 -42l-385 -428
c-11 -12 -24 -18 -38 -18s-26 6 -37 18l-386 428c-11 12 -16 28 -16 42s5 30 16 42z" />
    <glyph glyph-name="uniFFFE" vert-adv-y="0" 
 />
    <glyph glyph-name="uni2B60" unicode="&#x2b60;" vert-adv-y="0" 
d="M234 1502h108v-728h-108v728zM342 122h-108v388c0 20 11 38 22 48l288 250v296h-83l137 360l136 -360h-82v-326c0 -14 -8 -36 -22 -48l-288 -250v-358z" />
    <glyph glyph-name="uni2B61" unicode="&#x2b61;" vert-adv-y="0" 
d="M439 646h108l166 -304v304h110v-608h-110l-166 304v-304h-108v608zM166 1382h109v-488h222v-120h-331v608z" />
    <glyph glyph-name="uni2B62" unicode="&#x2b62;" vert-adv-y="0" 
d="M367 1116h313v-90h-313v-436h101v184h162v86h-162v80h212v-236c-5 -6 -14 -10 -25 -14s-18 -6 -25 -6h-83v-94c0 -24 -5 -46 -21 -64s-36 -26 -58 -26h-101c-22 0 -41 8 -57 26s-26 40 -26 64v436c0 24 10 46 26 64s35 26 57 26z" />
    <glyph glyph-name="uni2B63" unicode="&#x2b63;" vert-adv-y="0" 
d="M284 1116h314c22 0 41 -8 57 -26s25 -40 25 -64v-86c0 -24 -9 -44 -25 -62s-35 -26 -57 -26h-47v-262c0 -24 -9 -46 -25 -64s-36 -26 -58 -26h-101c-22 0 -41 8 -57 26s-26 40 -26 64v114v236h83v-350h101v350h130v86h-314v90z" />
    <glyph glyph-name="uni2B64" unicode="&#x2b64;" vert-adv-y="0" 
d="M482 1186c93 0 128 -74 141 -160c2 -12 3 -20 3 -28v-132h108v-138c0 -29 -12 -81 -19 -108c-29 -108 -105 -192 -233 -192c-161 0 -230 126 -252 278c-1 4 0 8 0 11v19v130h108v132v15c0 21 7 37 11 53c20 65 55 120 133 120zM482 1106c-41 0 -51 -26 -63 -58
c-4 -10 -5 -26 -5 -50s-4 -42 -4 -58v-74h144v132c0 22 -5 40 -9 50s-4 22 -9 32c-10 18 -29 26 -54 26zM536 686c0 46 -14 100 -54 100s-54 -54 -54 -100c0 -39 8 -64 26 -84c9 -10 17 -16 28 -16c23 0 44 30 49 52c4 14 5 30 5 48z" />
    <glyph glyph-name="uni2B80" unicode="&#x2b80;" vert-adv-y="0" 
d="M20 1600l855 -1002l-846 -998h-29v2000h20z" />
    <glyph glyph-name="uni2B81" unicode="&#x2b81;" vert-adv-y="0" 
d="M14 1578c7 8 15 14 29 14c11 0 22 -4 29 -16l742 -944c7 -8 10 -18 10 -34s-3 -26 -10 -34l-742 -946c-7 -12 -18 -14 -29 -14c-14 0 -22 4 -29 12c-7 12 -14 24 -14 36c0 16 4 26 11 34l714 912l-714 912c-7 8 -11 22 -11 38c0 12 7 18 14 30z" />
    <glyph glyph-name="uni2B82" unicode="&#x2b82;" vert-adv-y="0" 
d="M952 1600h20v-2000h-29l-846 998z" />
    <glyph glyph-name="uni2B83" unicode="&#x2b83;" vert-adv-y="0" 
d="M943 1578c7 -8 15 -18 15 -30c0 -16 -4 -30 -11 -38l-715 -912l715 -912c7 -8 11 -18 11 -34s-8 -24 -15 -36c-7 -8 -16 -12 -30 -12c-11 0 -19 2 -26 14l-743 946c-7 8 -11 18 -11 34s4 22 11 34l743 944c7 12 15 16 26 16c14 0 23 -6 30 -14z" />
    <glyph glyph-name="uni21E0" unicode="&#x21e0;" vert-adv-y="0" 
d="M414 952v-244h38v-122h-38v-244l-326 304zM504 708h112v-122h-112v122zM889 708h74v-122h-74v122zM698 708h112v-122h-112v122z" />
    <glyph glyph-name="uni21E1" unicode="&#x21e1;" vert-adv-y="0" 
d="M164 770l275 362l274 -362h-220v-42h-110v42h-219zM383 670h110v-124h-110v124zM383 242h110v-82h-110v82zM383 454h110v-124h-110v124z" />
    <glyph glyph-name="uni21E2" unicode="&#x21e2;" vert-adv-y="0" 
d="M549 952l326 -306l-326 -304v244h-38v122h38v244zM459 708v-122h-112v122h112zM74 708v-122h-74v122h74zM265 708v-122h-112v122h112z" />
    <glyph glyph-name="uni21E3" unicode="&#x21e3;" vert-adv-y="0" 
d="M713 522l-276 -362l-273 362h219v42h110v-42h220zM493 622h-110v124h110v-124zM493 1050h-110v82h110v-82zM493 838h-110v124h110v-124z" />
    <glyph glyph-name="uni25B4" unicode="&#x25b4;" vert-adv-y="0" 
d="M209 604l281 473l266 -473h-547z" />
    <glyph glyph-name="uni25BE" unicode="&#x25be;" vert-adv-y="0" 
d="M490 655l-281 473h547z" />
    <glyph glyph-name="SF110000" unicode="&#x2502;" vert-adv-y="0" 
d="M549 1600v-2000h-110v2000h110z" />
    <glyph glyph-name="SF100000" unicode="&#x2500;" vert-adv-y="0" 
d="M972 710v-122h-972v122h972z" />
    <glyph glyph-name="SF050000" unicode="&#x253c;" vert-adv-y="0" 
d="M439 1600h110v-890h423v-122h-423v-988h-110v988h-439v122h439v890z" />
    <glyph glyph-name="uniE0B0" unicode="&#xe0b0;" vert-adv-y="0" 
d="M16 1592l825 -994l-825 -994h-16v1988h16z" />
    <glyph glyph-name="uniE0B1" unicode="&#xe0b1;" vert-adv-y="0" 
d="M14 1578c7 8 15 14 29 14c11 0 22 -4 29 -16l742 -944c7 -8 10 -18 10 -34s-3 -26 -10 -34l-742 -946c-7 -12 -18 -14 -29 -14c-14 0 -22 4 -29 12c-7 12 -14 24 -14 36c0 16 4 26 11 34l714 912l-714 912c-7 8 -11 22 -11 38c0 12 7 18 14 30z" />
    <glyph glyph-name="uniE0A2" unicode="&#xe0a2;" vert-adv-y="0" 
d="M482 1376c131 0 198 -111 211 -240c2 -18 5 -30 5 -42v-198h162v-208c0 -44 -18 -122 -28 -162c-20 -66 -65 -149 -108 -194c-56 -54 -139 -94 -242 -94c-127 0 -204 51 -264 124c-20 24 -38 48 -49 74c-19 49 -41 98 -50 156c-7 24 -7 46 -9 64s-6 32 -6 44v196h162v198
c0 6 6 20 6 42c0 20 6 40 11 58c13 43 38 92 63 124c25 35 79 58 136 58zM482 1256c-36 0 -62 -11 -75 -42c-17 -43 -27 -53 -27 -120c0 -36 -6 -64 -6 -88v-110h216v198c0 32 -7 60 -14 74c-12 52 -36 88 -94 88zM482 776c-36 0 -66 -43 -72 -78c-7 -22 -9 -46 -9 -72
c0 -56 10 -99 38 -126c14 -16 27 -24 43 -24c33 0 67 43 72 78c7 20 9 44 9 72c0 53 -9 101 -37 128c-14 16 -28 22 -44 22z" />
    <glyph glyph-name="uniE0A0" unicode="&#xe0a0;" vert-adv-y="0" 
d="M234 1502h108v-728h-108v728zM342 122h-108v388c0 20 11 38 22 48l288 250v296h-83l137 360l136 -360h-82v-326c0 -14 -8 -36 -22 -48l-288 -250v-358z" />
    <glyph glyph-name="uniE0A1" unicode="&#xe0a1;" vert-adv-y="0" 
d="M439 646h108l166 -304v304h110v-608h-110l-166 304v-304h-108v608zM166 1382h109v-488h222v-120h-331v608z" />
    <glyph glyph-name="block" unicode="&#x2588;" vert-adv-y="0" 
d="M0 1600h972v-2000h-972v2000z" />
    <glyph glyph-name="NameMe.702" vert-adv-y="0" 
d="M218 1336v-1100h529v1100h-529zM108 1458h749v-1342h-749v1342z" />
    <glyph glyph-name="uniFF21" unicode="&#xff21;" vert-adv-y="0" 
d="M214 488v-390h-106v676c0 18 11 34 16 40l319 362c11 14 25 18 36 18c18 0 32 -8 41 -18l322 -364c13 -14 15 -32 15 -42v-672h-108v390h-535zM216 600h533v146l-268 300l-265 -298v-148z" />
    <glyph glyph-name="SF080000" unicode="&#x251c;" vert-adv-y="0" 
d="M439 1600h110v-890h423v-122h-423v-988h-110v2000z" />
    <glyph glyph-name="SF090000" unicode="&#x2524;" vert-adv-y="0" 
d="M439 1600h110v-2000h-110v988h-439v122h439v890z" />
    <glyph glyph-name="SF010000" unicode="&#x250c;" vert-adv-y="0" 
d="M439 -398v1108h533v-122h-421v-986h-112z" />
    <glyph glyph-name="SF030000" unicode="&#x2510;" vert-adv-y="0" 
d="M551 -398h-112v986h-439v122h551v-1108z" />
    <glyph glyph-name="SF020000" unicode="&#x2514;" vert-adv-y="0" 
d="M439 1600h112v-890h421v-122h-533v1012z" />
    <glyph glyph-name="SF040000" unicode="&#x2518;" vert-adv-y="0" 
d="M551 1600v-1012h-551v122h439v890h112z" />
    <glyph glyph-name="uni21E7" unicode="&#x21e7;" vert-adv-y="0" 
d="M313 -22v652h-281l447 644l444 -644h-277v-652h-333zM421 98h117v652h168l-227 328l-227 -328h169v-652z" />
    <glyph glyph-name="uni21E9" unicode="&#x21e9;" vert-adv-y="0" 
d="M317 1316h335v-652h277l-447 -644l-446 644h281v652zM425 1196v-652h-169l226 -328l227 328h-165v652h-119z" />
    <glyph glyph-name="arrowleft" unicode="&#x2190;" vert-adv-y="0" 
d="M414 952v-244h549v-122h-549v-244l-326 304z" />
    <glyph glyph-name="arrowright" unicode="&#x2192;" vert-adv-y="0" 
d="M562 952l325 -306l-325 -304v244h-549v122h549v244z" />
    <glyph glyph-name="filledbox" unicode="&#x25a0;" vert-adv-y="0" 
d="M133 1012h699v-776h-699v776z" />
    <glyph glyph-name="lfblock" unicode="&#x258c;" vert-adv-y="0" 
d="M2 1600h486v-2000h-486v2000z" />
    <glyph glyph-name="rtblock" unicode="&#x2590;" vert-adv-y="0" 
d="M486 1600h486v-2000h-486v2000z" />
    <glyph glyph-name="upblock" unicode="&#x2580;" vert-adv-y="0" 
d="M0 1600h972v-1000h-972v1000z" />
    <glyph glyph-name="dnblock" unicode="&#x2584;" vert-adv-y="0" 
d="M0 600h972v-1000h-972v1000z" />
    <glyph glyph-name="NameMe.721" vert-adv-y="0" 
d="M67 810h273v312l580 -496l-580 -494v308h-273v370zM175 690v-130h273v-186l295 252l-295 252v-188h-273z" />
    <glyph glyph-name="uni21E8" unicode="&#x21e8;" vert-adv-y="0" 
d="M67 810h273v312l580 -496l-580 -494v308h-273v370zM175 690v-130h273v-186l295 252l-295 252v-188h-273z" />
    <glyph glyph-name="NameMe.1114234" vert-adv-y="0" 
d="M920 444h-274v-312l-579 496l579 494v-308h274v-370zM812 564v130h-274v186l-295 -252l295 -252v188h274z" />
    <glyph glyph-name="uni21E6" unicode="&#x21e6;" vert-adv-y="0" 
d="M920 444h-274v-312l-579 496l579 494v-308h274v-370zM812 564v130h-274v186l-295 -252l295 -252v188h274z" />
    <glyph glyph-name="Hcircumflex" unicode="&#x124;" vert-adv-y="0" 
d="M108 1194h106v-482h537v482h106v-1094h-106v500h-537v-500h-106v1094zM239 1250l-37 42l246 274c11 12 23 16 36 16c16 0 31 -6 40 -16l246 -274l-37 -42l-38 -42l-209 232l-209 -232z" />
    <glyph glyph-name="hcircumflex" unicode="&#x125;" vert-adv-y="0" 
d="M103 96v1236h95.1387l220.861 246c11 12 23 16 36 16c16 0 31 -6 40 -16l247 -274l-38 -42l-38 -42l-209 232l-209 -232l-37 42v-466l129 144c11 10 24 10 38 10h214c14 0 27 -6 38 -16l113 -120c11 -12 17 -26 17 -44v-674h-108v648l-81 88h-171l-189 -202v-534h-108z
" />
    <glyph glyph-name="Hbar" unicode="&#x126;" vert-adv-y="0" 
d="M97 1194h110v-254h551v254h108v-254h43v-118h-43v-724h-108v488h-551v-488h-110v724h-47v118h47v254zM758 822h-551v-114h551v114z" />
    <glyph glyph-name="hbar" unicode="&#x127;" vert-adv-y="0" 
d="M94 1076h-44v118h44v138h108v-138h250v-118h-250v-280l129 144c11 10 24 10 38 10h218c14 0 27 -6 38 -16l113 -120c11 -12 16 -26 16 -44v-674h-108v648l-81 88h-174l-189 -202v-534h-108v980z" />
    <glyph glyph-name="Itilde" unicode="&#x128;" vert-adv-y="0" 
d="M322 1194h321v-120h-107v-856h107v-122h-321v122h106v856h-106v120zM164 1412l-38 42l108 120c11 12 25 18 38 18h117c14 0 31 -8 38 -18l196 -218h74l86 96l38 -42l38 -42l-103 -114c-7 -10 -24 -18 -38 -18h-117c-13 0 -27 6 -38 18l-196 218h-74l-91 -102z" />
    <glyph glyph-name="itilde" unicode="&#x129;" vert-adv-y="0" 
d="M427 952h109v-854h-109v854zM164 1242l-38 42l108 120c11 12 25 18 38 18h117c14 0 31 -8 38 -18l196 -218h74l86 96l38 -42l38 -42l-103 -114c-7 -10 -24 -18 -38 -18h-117c-13 0 -27 6 -38 18l-196 218h-74l-91 -102z" />
    <glyph glyph-name="imacron" unicode="&#x12b;" vert-adv-y="0" 
d="M427 952h109v-854h-109v854zM187 1318h589v-122h-589v122z" />
    <glyph glyph-name="ibreve" unicode="&#x12d;" vert-adv-y="0" 
d="M427 952h109v-854h-109v854zM203 1318h108c2 -16 4 -30 8 -46s9 -30 16 -44s16 -24 25 -34c11 -12 21 -22 34 -30s26 -12 40 -16c13 -4 26 -6 39 -6c14 0 29 2 42 6s25 10 38 18s23 18 32 28s18 22 25 36s12 32 16 48c4 14 6 26 6 40h108c0 -26 -2 -52 -9 -76
s-16 -48 -27 -70s-26 -44 -42 -62s-34 -34 -54 -46s-41 -22 -64 -30c-22 -6 -44 -12 -67 -12s-47 2 -70 8s-45 18 -65 30s-40 28 -58 46c-16 18 -32 38 -43 60c-13 22 -22 46 -27 72c-5 24 -11 54 -11 80z" />
    <glyph glyph-name="iogonek" unicode="&#x12f;" vert-adv-y="0" 
d="M427 1318h109v-122h-109v122zM427 952h109v-854h-109v854zM434 -240c-2 2 -6 10 -6 18v132h103v-100l40 -46h39v-116h-63c-18 0 -25 6 -36 18l-68 82z" />
    <glyph glyph-name="dotlessi" unicode="&#x131;" vert-adv-y="0" 
d="M427 952h109v-854h-109v854z" />
    <glyph glyph-name="Idotaccent" unicode="&#x130;" vert-adv-y="0" 
d="M317 1194h329v-120h-110v-856h110v-122h-329v122h110v856h-110v120zM427 1440h109v-122h-109v122z" />
    <glyph glyph-name="Imacron" unicode="&#x12a;" vert-adv-y="0" 
d="M322 1194h321v-120h-107v-856h107v-122h-321v122h106v856h-106v120zM187 1440h589v-122h-589v122z" />
    <glyph glyph-name="Ibreve" unicode="&#x12c;" vert-adv-y="0" 
d="M322 1194h321v-120h-107v-856h107v-122h-321v122h106v856h-106v120zM203 1538h108c2 -16 4 -30 8 -46s9 -30 16 -44s16 -24 25 -34c11 -12 21 -22 34 -30s26 -12 40 -16c13 -4 26 -6 39 -6c14 0 29 2 42 6s25 10 38 18s23 18 32 28s18 22 25 36s12 32 16 48
c4 14 6 26 6 40h108c0 -26 -2 -52 -9 -76s-16 -48 -27 -70s-26 -44 -42 -62s-34 -34 -54 -46s-41 -22 -64 -30c-22 -6 -44 -12 -67 -12s-47 2 -70 8s-45 18 -65 30s-40 28 -58 46c-16 18 -32 38 -43 60c-13 22 -22 46 -27 72c-5 24 -11 54 -11 80z" />
    <glyph glyph-name="Iogonek" unicode="&#x12e;" vert-adv-y="0" 
d="M322 1194h321v-120h-107v-856h107v-122h-321v122h106v856h-106v120zM490 -240c-2 2 -6 10 -6 18v132h103v-100l39 -46h40v-116h-63c-18 0 -25 6 -36 18l-68 82z" />
    <glyph glyph-name="ogonek" unicode="&#x2db;" vert-adv-y="0" 
d="M214 12c-2 2 -5 10 -5 18v132h102v-100l40 -46h40v-116h-63c-18 0 -25 6 -36 18l-69 82z" />
    <glyph glyph-name="breve" unicode="&#x2d8;" vert-adv-y="0" 
d="M203 1314l108 4c0.750432 -15.5192 3.08081 -30.965 7 -46c3.9751 -15.2495 9.60736 -30.0825 17 -44c6.87011 -12.9338 15.2275 -25.0923 25 -36c9.83883 -10.9817 21.2303 -20.6288 34 -28c12.4726 -7.19965 26.0889 -12.2745 40 -16
c12.7355 -3.41068 25.8189 -5.7077 39 -6c14.2005 -0.314902 28.4261 1.81666 42 6c13.44 4.14207 26.2773 10.2302 38 18c11.8466 7.85195 22.5354 17.3974 32 28c9.75425 10.9271 18.2357 23.008 25 36c7.22611 13.8789 12.434 28.7644 16 44
c3.3782 14.4335 5.34763 29.1908 6 44h108c0.0302939 -1.67028 0.0453993 -3.34077 0.0453993 -5.01121c0 -23.916 -3.09633 -47.8228 -9.0454 -70.9888c-6.23364 -24.2741 -15.481 -47.7424 -27 -70c-11.5031 -22.2268 -25.3642 -43.3023 -42 -62
c-15.7672 -17.7214 -34.0243 -33.2085 -54 -46c-19.8985 -12.7421 -41.4732 -22.8686 -64 -30c-21.6922 -6.86726 -44.2692 -10.9886 -67 -12c-3.46572 -0.154209 -6.9359 -0.232229 -10.4063 -0.232229c-20.1299 0 -40.2682 2.62497 -59.5937 8.23223
c-22.9899 6.67046 -44.672 17.3587 -65 30c-21.0061 13.063 -40.7842 28.2373 -58 46c-17.1854 17.7313 -31.5722 38.1107 -43 60c-11.8896 22.7739 -20.7429 47.0829 -27 72c-6.24498 24.869 -9.89976 50.3825 -11 76z" />
    <glyph glyph-name="Jcircumflex" unicode="&#x134;" vert-adv-y="0" 
d="M108 464h106v-162l79 -82h168l75 86v768h-108v120h323v-120h-108v-792c0 -8 -2 -28 -15 -42l-106 -122c-7 -8 -22 -18 -40 -18h-212c-7 0 -25 2 -38 16l-108 116c-5 6 -16 22 -16 42v190zM137 1268l-38 42l247 274c11 12 23 16 36 16c16 0 30 -6 39 -16l247 -274l-38 -42
l-38 -42l-209 232l-208 -232z" />
    <glyph glyph-name="jcircumflex" unicode="&#x135;" vert-adv-y="0" 
d="M756 34c0 -16 -7 -30 -18 -42l-108 -122c-11 -12 -22 -16 -38 -16h-223c-14 0 -27 6 -38 18l-110 122l78 84l93 -106h179l75 86v894h110v-918zM238 1084l-38 42l246 274c11 12 23 16 36 16c16 0 31 -6 40 -16l247 -274l-38 -42l-38 -42l-209 232l-209 -232z" />
    <glyph glyph-name="IJ" unicode="&#x132;" vert-adv-y="0" 
d="M356 464h105v-162l79 -82h83l75 86v768h-63v120h227v-120h-56v-792c0 -8 -1 -28 -14 -42l-106 -122c-7 -8 -22 -22 -40 -22h-128c-7 0 -24 6 -37 20l-108 116c-5 6 -17 22 -17 42v190zM104 1194h252v-120h-72v-856h72v-122h-252v122h71v856h-71v120z" />
    <glyph glyph-name="ij" unicode="&#x133;" vert-adv-y="0" 
d="M427 1318h109v-122h-109v122zM427 952h109v-854h-109v854zM758 34c0 -16 -7 -30 -18 -42l-108 -122c-11 -12 -22 -16 -38 -16h-223c-14 0 -27 6 -38 18l-108 122l76 84l93 -106h178l76 86v894h110v-918zM648 1318h112v-122h-112v122z" />
    <glyph glyph-name="ellipsis" unicode="&#x2026;" vert-adv-y="0" 
d="M319 342h127v-244h-127v244zM54 342h128v-244h-128v244zM581 342h128v-244h-128v244z" />
    <glyph glyph-name="uni27F3" unicode="&#x27f3;" vert-adv-y="0" 
d="M792 948v240c0 32 25 60 54 60s54 -28 54 -60v-424c0 -32 -25 -60 -54 -60h-378c-29 0 -54 28 -54 60s25 60 54 60h187h20h58c-43 110 -141 186 -254 186c-153 0 -277 -136 -277 -306s124 -310 277 -310c117 0 217 82 257 196h114c-45 -182 -193 -316 -371 -316
c-212 0 -385 194 -385 430s173 426 385 426c130 0 243 -72 313 -182z" />
    <glyph glyph-name="etilde" unicode="&#x1ebd;" vert-adv-y="0" 
d="M164 1136l-38 42l108 120c11 12 25 18 38 18h117c14 0 31 -8 38 -18l196 -218h74l86 96l38 -42l38 -42l-103 -114c-7 -10 -24 -18 -38 -18h-117c-13 0 -27 6 -38 18l-196 218h-74l-91 -102zM209 462v-158l77 -90h474v-112h-495c-16 0 -31 10 -36 16l-112 120
c-13 14 -14 32 -14 42v484c0 20 13 34 18 40l109 126c13 14 31 22 40 22h326c18 0 33 -16 38 -22l106 -124c13 -14 16 -30 16 -40v-304h-547zM211 586h441v156l-78 88h-284l-79 -90v-154z" />
    <glyph glyph-name="utilde" unicode="&#x169;" vert-adv-y="0" 
d="M164 1136l-38 42l108 120c11 12 25 18 38 18h117c14 0 31 -8 38 -18l196 -218h74l86 96l38 -42l38 -42l-103 -114c-7 -10 -24 -18 -38 -18h-117c-13 0 -27 6 -38 18l-196 218h-74l-91 -102zM671 168l-43 -48c-5 -6 -20 -18 -38 -18h-327c-9 0 -23 2 -36 16l-106 116
c-5 6 -17 22 -17 42v676h107v-652l73 -82h285l75 88v646h108v-670c0 -6 -3 -14 -7 -24l33 -40h88v-116h-110c-18 0 -33 8 -38 16z" />
    <glyph glyph-name="Etilde" unicode="&#x1ebc;" vert-adv-y="0" 
d="M164 1136l-38 42l108 120c11 12 25 18 38 18h117c14 0 31 -8 38 -18l196 -218h74l86 96l38 -42l38 -42l-103 -114c-7 -10 -24 -18 -38 -18h-117c-13 0 -27 6 -38 18l-196 218h-74l-91 -102zM97 940h769v-122h-659v-208h439v-122h-439v-270h659v-120h-769v842z" />
    <glyph glyph-name="Utilde" unicode="&#x168;" vert-adv-y="0" 
d="M164 1136l-38 42l108 120c11 12 25 18 38 18h117c14 0 31 -8 38 -18l196 -218h74l86 96l38 -42l38 -42l-103 -114c-7 -10 -24 -18 -38 -18h-117c-13 0 -27 6 -38 18l-196 218h-74l-91 -102zM101 940h106v-636l76 -84h399l74 86v634h108v-658c0 -8 -1 -26 -14 -40
l-105 -122c-7 -8 -21 -20 -39 -20h-447c-9 0 -25 4 -38 18l-106 118c-5 6 -14 22 -14 42v662z" />
    <glyph glyph-name="macute" unicode="&#x1e3f;" vert-adv-y="0" 
d="M338 972c-11 12 -16 28 -16 42c0 18 7 34 16 44l216 242c11 12 25 18 38 18c16 0 31 -8 40 -18s16 -26 16 -44c0 -14 -5 -30 -16 -42l-216 -242c-9 -10 -24 -18 -40 -18c-13 0 -27 6 -38 18zM538 746v-648h-110v648l-73 84h-65l-79 -86v-646h-108v852h109v-34l17 18
c11 12 23 18 37 18h112c16 0 29 -6 40 -18l64 -78l69 76c11 12 24 18 38 18h115c14 0 27 -6 38 -18l106 -118c11 -12 16 -26 16 -42v-674h-108v650l-74 82h-70z" />
    <glyph glyph-name="NameMe.755" vert-adv-y="0" 
d="M97 940h769v-122h-659v-208h439v-122h-439v-270h659v-120h-769v842z" />
    <glyph glyph-name="NameMe.756" vert-adv-y="0" 
d="M101 940h106v-636l76 -84h399l74 86v634h108v-658c0 -8 -1 -26 -14 -40l-105 -122c-7 -8 -21 -20 -39 -20h-447c-9 0 -25 4 -38 18l-106 118c-5 6 -14 22 -14 42v662z" />
    <glyph glyph-name="gacute" unicode="&#x1f5;" vert-adv-y="0" 
d="M342 1026c-11 12 -16 28 -16 42c0 18 7 34 16 44l216 242c11 12 25 18 38 18c16 0 30 -8 39 -18s17 -26 17 -44c0 -14 -6 -30 -17 -42l-216 -242c-9 -10 -23 -18 -39 -18c-13 0 -27 6 -38 18zM702 374l-124 -138c-7 -10 -24 -18 -38 -18h-171c-13 0 -27 6 -38 18
l-212 236c-9 8 -16 26 -16 42v134c0 14 5 30 16 42l218 244c7 10 23 16 37 16h272c13 0 27 -4 38 -16l110 -124c9 -8 16 -26 16 -42v-742c0 -14 -5 -30 -16 -42l-101 -112c-7 -10 -24 -18 -38 -18h-290c-13 0 -26 6 -37 18l-105 116l76 84l88 -98h247l68 76v324zM702 542
v202l-77 86h-229l-185 -206v-86l180 -200h127z" />
    <glyph glyph-name="kacute" unicode="&#x1e31;" vert-adv-y="0" 
d="M448 972c-11 12 -16 28 -16 42c0 18 7 34 16 44l216 242c11 12 25 18 38 18c16 0 31 -8 40 -18s16 -26 16 -44c0 -14 -5 -30 -16 -42l-216 -242c-9 -10 -24 -18 -40 -18c-13 0 -27 6 -38 18zM455 524l299 -342l-77 -84l-319 368h-144v-368h-111v1220h111v-732h146
l324 366l76 -84z" />
    <glyph glyph-name="lacute" unicode="&#x13a;" vert-adv-y="0" 
d="M445 1016c-11 12 -17 28 -17 42c0 18 8 34 17 44l216 242c11 12 24 18 37 18c16 0 31 -8 40 -18s16 -26 16 -44c0 -14 -5 -30 -16 -42l-216 -242c-9 -10 -24 -18 -40 -18c-13 0 -26 6 -37 18zM535 246l23 -28h88v-120h-110c-14 0 -26 6 -37 18l-56 62
c-11 12 -16 26 -16 42v722h108v-696z" />
    <glyph glyph-name="zacute" unicode="&#x17a;" vert-adv-y="0" 
d="M338 1016c-11 12 -16 28 -16 42c0 18 7 34 16 44l216 242c11 12 25 18 38 18c16 0 31 -8 40 -18s16 -26 16 -44c0 -14 -5 -30 -16 -42l-216 -242c-9 -10 -24 -18 -40 -18c-13 0 -27 6 -38 18zM103 952h763l-542 -734h542v-120h-763l543 732h-543v122z" />
    <glyph glyph-name="smalll" vert-adv-y="0" 
d="M535 246l23 -28h88v-120h-110c-14 0 -26 6 -37 18l-56 62c-11 12 -16 26 -16 42v722h108v-696z" />
    <glyph glyph-name="sacute" unicode="&#x15b;" vert-adv-y="0" 
d="M338 1018c-11 12 -16 28 -16 42c0 18 7 34 16 44l216 242c11 12 25 18 38 18c16 0 31 -8 40 -18s16 -26 16 -44c0 -14 -5 -30 -16 -42l-216 -242c-9 -10 -24 -18 -40 -18c-13 0 -27 6 -38 18zM646 744l-79 88h-277l-52 -60l502 -442c13 -12 20 -26 20 -44s-6 -34 -17 -46
l-113 -124c-11 -12 -24 -18 -38 -18h-324c-14 0 -27 6 -38 18l-111 120c-11 12 -16 26 -16 44v56h108v-30l79 -88h281l54 60l-501 440c-13 10 -18 26 -20 44v7c0 15 6 29 15 39l108 126c11 12 23 18 39 18h323c14 0 26 -6 37 -18l112 -122c11 -12 16 -26 16 -42v-64h-108v38
z" />
    <glyph glyph-name="wacute" unicode="&#x1e83;" vert-adv-y="0" 
d="M338 972c-11 12 -16 28 -16 42c0 18 7 34 16 44l216 242c11 12 25 18 38 18c16 0 31 -8 40 -18s16 -26 16 -44c0 -14 -5 -30 -16 -42l-216 -242c-9 -10 -24 -18 -40 -18c-13 0 -27 6 -38 18zM540 422l157 -178l61 64v644h108v-670c0 -18 -5 -32 -16 -44l-116 -122
c-11 -10 -24 -16 -37 -16s-27 6 -38 18l-175 198l-180 -204c-11 -12 -24 -20 -38 -20s-26 8 -37 20l-110 124c-11 12 -16 26 -16 42v674h108v-650l55 -62l164 182v164h110v-164z" />
    <glyph glyph-name="NameMe.2214" vert-adv-y="0" 
d="M338 972c-11 12 -16 28 -16 42c0 18 7 34 16 44l216 242c11 12 25 18 38 18c16 0 31 -8 40 -18s16 -26 16 -44c0 -14 -5 -30 -16 -42l-216 -242c-9 -10 -24 -18 -40 -18c-13 0 -27 6 -38 18zM299 626v-526h-106v668c0 18 -6 30 -17 44c-13 12 -23 18 -41 18h-32v122h88
c31 0 108 -58 108 -122v-38l124 140c11 12 24 20 38 20h131c16 0 29 -6 38 -18l113 -122c11 -12 17 -26 17 -44v-60h-108v36l-81 86h-87z" />
    <glyph glyph-name="uni27EB" unicode="&#x27eb;" vert-adv-y="0" 
d="M515 1122l380 -430c11 -14 14 -28 14 -42c0 -16 -5 -32 -14 -42l-380 -426l-78 84l342 384l-342 388zM184 1120l381 -430c11 -12 15 -26 15 -40c0 -18 -8 -34 -15 -44l-381 -426l-76 84l342 384l-342 388z" />
    <glyph glyph-name="uni27EA" unicode="&#x27ea;" vert-adv-y="0" 
d="M445 1122l77 -84l-344 -388l344 -384l-77 -84l-380 426c-9 10 -16 26 -16 44c0 12 5 28 16 40zM774 1120l77 -84l-343 -388l343 -384l-77 -84l-380 426c-9 10 -14 26 -14 42c0 14 3 28 14 42z" />
    <glyph glyph-name="SF060000" unicode="&#x252c;" vert-adv-y="0" 
d="M972 710v-122h-423v-988h-110v988h-439v122h972z" />
    <glyph glyph-name="SF070000" unicode="&#x2534;" vert-adv-y="0" 
d="M0 588v122h439v890h110v-890h421v-122h-970z" />
    <glyph glyph-name="SF390000" unicode="&#x2554;" vert-adv-y="0" 
d="M970 830v-122h-527v-1108h-110v1230h637zM970 584v-122h-309v-862h-110v984h419z" />
    <glyph glyph-name="SF250000" unicode="&#x2557;" vert-adv-y="0" 
d="M661 830v-1230h-110v1108h-551v122h661zM443 584v-984h-110v862h-333v122h443z" />
    <glyph glyph-name="SF260000" unicode="&#x255d;" vert-adv-y="0" 
d="M661 1600v-1138h-661v122h551v1016h110zM443 1600v-892h-443v122h333v770h110z" />
    <glyph glyph-name="SF380000" unicode="&#x255a;" vert-adv-y="0" 
d="M970 830v-122h-419v892h110v-770h309zM970 584v-122h-637v1138h110v-1016h527z" />
    <glyph glyph-name="SF430000" unicode="&#x2550;" vert-adv-y="0" 
d="M972 584v-122h-972v122h972zM972 830v-120h-972v120h972z" />
    <glyph glyph-name="SF240000" unicode="&#x2551;" vert-adv-y="0" 
d="M443 1600v-2000h-110v2000h110zM661 1600v-2000h-110v2000h110z" />
    <glyph glyph-name="SF370000" unicode="&#x255f;" vert-adv-y="0" 
d="M443 1600v-2000h-110v2000h110zM970 708v-122h-309v-986h-110v2000h110v-892h309z" />
    <glyph glyph-name="SF200000" unicode="&#x2562;" vert-adv-y="0" 
d="M443 1600v-2000h-110v986h-333v122h333v892h110zM661 1600v-2000h-110v2000h110z" />
    <glyph glyph-name="SF440000" unicode="&#x256c;" vert-adv-y="0" 
d="M443 1600v-892h-443v122h333v770h110zM970 830v-122h-419v892h110v-770h309zM970 584v-122h-309v-862h-110v984h419zM443 584v-984h-110v862h-333v122h443z" />
    <glyph glyph-name="SF530000" unicode="&#x256b;" vert-adv-y="0" 
d="M970 708v-122h-309v-986h-110v986h-108v-986h-110v986h-333v122h333v892h110v-892h108v892h110v-892h309z" />
    <glyph glyph-name="SF540000" unicode="&#x256a;" vert-adv-y="0" 
d="M970 830v-122h-421v-124h421v-122h-421v-862h-110v862h-439v122h439v124h-439v122h439v770h110v-770h421z" />
    <glyph glyph-name="SF230000" unicode="&#x2563;" vert-adv-y="0" 
d="M443 584v-984h-110v862h-333v122h443zM443 1600v-892h-443v122h333v770h110zM661 1600v-2000h-110v2000h110z" />
    <glyph glyph-name="SF420000" unicode="&#x2560;" vert-adv-y="0" 
d="M970 584v-122h-309v-862h-110v984h419zM970 830v-122h-419v892h110v-770h309zM443 1600v-2000h-110v2000h110z" />
    <glyph glyph-name="SF410000" unicode="&#x2566;" vert-adv-y="0" 
d="M970 584v-122h-309v-862h-110v984h419zM443 584v-984h-110v862h-333v122h443zM970 830v-122h-970v122h970z" />
    <glyph glyph-name="SF400000" unicode="&#x2569;" vert-adv-y="0" 
d="M443 1600v-892h-443v122h333v770h110zM970 830v-122h-419v892h110v-770h309zM970 584v-122h-970v122h970z" />
    <glyph glyph-name="trademark" unicode="&#x2122;" vert-adv-y="0" 
d="M495 1378h90l72 -124l76 124h90v-608h-90v436l-76 -120l-72 120v-436h-90v608zM90 1378h315v-102h-113v-506h-90v506h-112v102z" />
    <glyph glyph-name="H18533" unicode="&#x25cf;" vert-adv-y="0" 
d="M83 630c0 252 183 456 410 456s411 -204 411 -456s-184 -456 -411 -456s-410 204 -410 456z" />
    <glyph glyph-name="uni2583" unicode="&#x2583;" vert-adv-y="0" 
d="M0 350h972v-750h-972v750z" />
    <glyph glyph-name="uni2581" unicode="&#x2581;" vert-adv-y="0" 
d="M0 -150h972v-250h-972v250z" />
    <glyph glyph-name="uni2582" unicode="&#x2582;" vert-adv-y="0" 
d="M0 100h972v-500h-972v500z" />
    <glyph glyph-name="uni2585" unicode="&#x2585;" vert-adv-y="0" 
d="M0 850h972v-1250h-972v1250z" />
    <glyph glyph-name="uni2586" unicode="&#x2586;" vert-adv-y="0" 
d="M0 1100h972v-1500h-972v1500z" />
    <glyph glyph-name="uni2587" unicode="&#x2587;" vert-adv-y="0" 
d="M0 1350h972v-1750h-972v1750z" />
    <glyph glyph-name="uni2589" unicode="&#x2589;" vert-adv-y="0" 
d="M0 1600h850v-2000h-850v2000z" />
    <glyph glyph-name="uni23CE" unicode="&#x23ce;" vert-adv-y="0" 
d="M572 1150h256v-650h-418v-220l-336 368l336 368v-222h162v356zM738 1050h-76v-356h-342v82l-118 -128l118 -128v80h418v450z" />
    <glyph glyph-name="uni2318" unicode="&#x2318;" vert-adv-y="0" 
d="M263 602v226h-177c-20 0 -41 16 -41 44v248v10c5 30 32 56 59 56h218c20 0 42 -18 42 -46v-200h194v180v10c5 30 32 56 59 56h220c20 0 41 -18 41 -46v-248c0 -2 -1 -6 -1 -10c-5 -30 -31 -54 -58 -54h-160v-226h178c20 0 41 -18 41 -46v-244c0 -2 -1 -6 -1 -10
c-5 -30 -31 -54 -58 -54h-220c-20 0 -41 16 -41 44v200h-194v-180c0 -2 -2 -6 -2 -10c-5 -30 -31 -54 -58 -54h-216c-20 0 -43 16 -43 44v244v10c5 30 34 56 61 56h157zM364 828v-226h194v226h-194zM659 940h119v136h-119v-136zM659 492v-134h119v134h-119zM263 492h-115
v-134h115v134zM263 940v136h-117v-136h117z" />
    <glyph glyph-name="ltshade" unicode="&#x2591;" vert-adv-y="0" 
d="M864 -320h54v-80h-54v80zM432 -320h54v-80h-54v80zM216 -320h54v-80h-54v80zM648 -320h54v-80h-54v80zM0 -320h54v-80h-54v80zM864 -160h54v-80h-54v80zM432 -160h54v-80h-54v80zM540 -240h54v-80h-54v80zM648 -160h54v-80h-54v80zM756 -240h54v-80h-54v80zM0 -160h54
v-80h-54v80zM108 -240h54v-80h-54v80zM216 -160h54v-80h-54v80zM324 -240h54v-80h-54v80zM864 0h54v-80h-54v80zM432 0h54v-80h-54v80zM540 -80h54v-80h-54v80zM648 0h54v-80h-54v80zM756 -80h54v-80h-54v80zM0 0h54v-80h-54v80zM108 -80h54v-80h-54v80zM216 0h54v-80h-54
v80zM324 -80h54v-80h-54v80zM864 160h54v-80h-54v80zM432 160h54v-80h-54v80zM540 80h54v-80h-54v80zM648 160h54v-80h-54v80zM756 80h54v-80h-54v80zM0 160h54v-80h-54v80zM108 80h54v-80h-54v80zM216 160h54v-80h-54v80zM324 80h54v-80h-54v80zM864 320h54v-80h-54v80z
M432 320h54v-80h-54v80zM540 240h54v-80h-54v80zM648 320h54v-80h-54v80zM756 240h54v-80h-54v80zM0 320h54v-80h-54v80zM108 240h54v-80h-54v80zM216 320h54v-80h-54v80zM324 240h54v-80h-54v80zM864 480h54v-80h-54v80zM432 480h54v-80h-54v80zM540 400h54v-80h-54v80z
M648 480h54v-80h-54v80zM756 400h54v-80h-54v80zM0 480h54v-80h-54v80zM108 400h54v-80h-54v80zM216 480h54v-80h-54v80zM324 400h54v-80h-54v80zM864 640h54v-80h-54v80zM432 640h54v-80h-54v80zM540 560h54v-80h-54v80zM648 640h54v-80h-54v80zM756 560h54v-80h-54v80z
M0 640h54v-80h-54v80zM108 560h54v-80h-54v80zM216 640h54v-80h-54v80zM324 560h54v-80h-54v80zM864 800h54v-80h-54v80zM432 800h54v-80h-54v80zM540 720h54v-80h-54v80zM648 800h54v-80h-54v80zM756 720h54v-80h-54v80zM0 800h54v-80h-54v80zM108 720h54v-80h-54v80z
M216 800h54v-80h-54v80zM324 720h54v-80h-54v80zM864 960h54v-80h-54v80zM432 960h54v-80h-54v80zM540 880h54v-80h-54v80zM648 960h54v-80h-54v80zM756 880h54v-80h-54v80zM0 960h54v-80h-54v80zM108 880h54v-80h-54v80zM216 960h54v-80h-54v80zM324 880h54v-80h-54v80z
M864 1120h54v-80h-54v80zM432 1120h54v-80h-54v80zM540 1040h54v-80h-54v80zM648 1120h54v-80h-54v80zM756 1040h54v-80h-54v80zM0 1120h54v-80h-54v80zM108 1040h54v-80h-54v80zM216 1120h54v-80h-54v80zM324 1040h54v-80h-54v80zM864 1280h54v-80h-54v80zM432 1280h54v-80
h-54v80zM540 1200h54v-80h-54v80zM648 1280h54v-80h-54v80zM756 1200h54v-80h-54v80zM0 1280h54v-80h-54v80zM108 1200h54v-80h-54v80zM216 1280h54v-80h-54v80zM324 1200h54v-80h-54v80zM864 1440h54v-80h-54v80zM432 1440h54v-80h-54v80zM540 1360h54v-80h-54v80z
M648 1440h54v-80h-54v80zM756 1360h54v-80h-54v80zM0 1440h54v-80h-54v80zM108 1360h54v-80h-54v80zM216 1440h54v-80h-54v80zM324 1360h54v-80h-54v80zM864 1600h54v-80h-54v80zM432 1600h54v-80h-54v80zM540 1520h54v-80h-54v80zM648 1600h54v-80h-54v80zM756 1520h54v-80
h-54v80zM0 1600h54v-80h-54v80zM108 1520h54v-80h-54v80zM216 1600h54v-80h-54v80zM324 1520h54v-80h-54v80z" />
    <glyph glyph-name="shade" unicode="&#x2592;" vert-adv-y="0" 
d="M811 1279v-79h53v79h-53zM703 1279v-79h53v79h-53zM595 1279v-79h53v79h-53zM487 1279v-79h53v79h-53zM865 1359v-79h53v79h-53zM757 1359v-79h53v79h-53zM649 1359v-79h53v79h-53zM541 1359v-79h53v79h-53zM865 1440h53v79h-53v-79zM864 1439h-53v-79h53v79zM757 1440
h53v79h-53v-79zM756 1439h-53v-79h53v79zM649 1440h53v79h-53v-79zM648 1439h-53v-79h53v79zM541 1440h53v79h-53v-79zM540 1439h-53v-79h53v79zM865 -160h53v79h-53v-79zM864 -161h-53v-79h53v79zM757 -160h53v79h-53v-79zM756 -161h-53v-79h53v79zM649 -160h53v79h-53v-79
zM648 -161h-53v-79h53v79zM541 -160h53v79h-53v-79zM540 -161h-53v-79h53v79zM433 -160h53v79h-53v-79zM432 -161h-53v-79h53v79zM325 -160h53v79h-53v-79zM324 -161h-53v-79h53v79zM217 -160h53v79h-53v-79zM216 -161h-53v-79h53v79zM109 -160h53v79h-53v-79zM108 -161h-53
v-79h53v79zM811 -1v-79h53v79h-53zM703 -1v-79h53v79h-53zM595 -1v-79h53v79h-53zM487 -1v-79h53v79h-53zM379 -1v-79h53v79h-53zM271 -1v-79h53v79h-53zM163 -1v-79h53v79h-53zM55 -1v-79h53v79h-53zM865 79v-79h53v79h-53zM757 79v-79h53v79h-53zM649 79v-79h53v79h-53z
M541 79v-79h53v79h-53zM433 79v-79h53v79h-53zM325 79v-79h53v79h-53zM217 79v-79h53v79h-53zM109 79v-79h53v79h-53zM865 160h53v79h-53v-79zM864 159h-53v-79h53v79zM757 160h53v79h-53v-79zM756 159h-53v-79h53v79zM649 160h53v79h-53v-79zM648 159h-53v-79h53v79z
M541 160h53v79h-53v-79zM540 159h-53v-79h53v79zM433 160h53v79h-53v-79zM432 159h-53v-79h53v79zM325 160h53v79h-53v-79zM324 159h-53v-79h53v79zM217 160h53v79h-53v-79zM216 159h-53v-79h53v79zM109 160h53v79h-53v-79zM108 159h-53v-79h53v79zM811 319v-79h53v79h-53z
M703 319v-79h53v79h-53zM595 319v-79h53v79h-53zM487 319v-79h53v79h-53zM379 319v-79h53v79h-53zM271 319v-79h53v79h-53zM163 319v-79h53v79h-53zM55 319v-79h53v79h-53zM865 399v-79h53v79h-53zM757 399v-79h53v79h-53zM649 399v-79h53v79h-53zM541 399v-79h53v79h-53z
M433 399v-79h53v79h-53zM325 399v-79h53v79h-53zM217 399v-79h53v79h-53zM109 399v-79h53v79h-53zM865 480h53v79h-53v-79zM864 479h-53v-79h53v79zM757 480h53v79h-53v-79zM756 479h-53v-79h53v79zM649 480h53v79h-53v-79zM648 479h-53v-79h53v79zM541 480h53v79h-53v-79z
M540 479h-53v-79h53v79zM433 480h53v79h-53v-79zM432 479h-53v-79h53v79zM325 480h53v79h-53v-79zM324 479h-53v-79h53v79zM217 480h53v79h-53v-79zM216 479h-53v-79h53v79zM109 480h53v79h-53v-79zM108 479h-53v-79h53v79zM811 639v-79h53v79h-53zM703 639v-79h53v79h-53z
M595 639v-79h53v79h-53zM487 639v-79h53v79h-53zM379 639v-79h53v79h-53zM271 639v-79h53v79h-53zM163 639v-79h53v79h-53zM55 639v-79h53v79h-53zM865 719v-79h53v79h-53zM757 719v-79h53v79h-53zM649 719v-79h53v79h-53zM541 719v-79h53v79h-53zM433 719v-79h53v79h-53z
M325 719v-79h53v79h-53zM217 719v-79h53v79h-53zM109 719v-79h53v79h-53zM865 800h53v79h-53v-79zM864 799h-53v-79h53v79zM757 800h53v79h-53v-79zM756 799h-53v-79h53v79zM649 800h53v79h-53v-79zM648 799h-53v-79h53v79zM541 800h53v79h-53v-79zM540 799h-53v-79h53v79z
M433 800h53v79h-53v-79zM432 799h-53v-79h53v79zM325 800h53v79h-53v-79zM324 799h-53v-79h53v79zM217 800h53v79h-53v-79zM216 799h-53v-79h53v79zM109 800h53v79h-53v-79zM108 799h-53v-79h53v79zM811 959v-79h53v79h-53zM703 959v-79h53v79h-53zM595 959v-79h53v79h-53z
M487 959v-79h53v79h-53zM379 959v-79h53v79h-53zM271 959v-79h53v79h-53zM163 959v-79h53v79h-53zM55 959v-79h53v79h-53zM865 1039v-79h53v79h-53zM757 1039v-79h53v79h-53zM649 1039v-79h53v79h-53zM541 1039v-79h53v79h-53zM433 1039v-79h53v79h-53zM325 1039v-79h53v79
h-53zM217 1039v-79h53v79h-53zM109 1039v-79h53v79h-53zM865 1120h53v79h-53v-79zM864 1119h-53v-79h53v79zM757 1120h53v79h-53v-79zM756 1119h-53v-79h53v79zM649 1120h53v79h-53v-79zM648 1119h-53v-79h53v79zM541 1120h53v79h-53v-79zM540 1119h-53v-79h53v79zM432 1119
h-53v-79h53v79zM324 1119h-53v-79h53v79zM216 1119h-53v-79h53v79zM108 1119h-53v-79h53v79zM162 -320v79h-53v-79h53zM270 -320v79h-53v-79h53zM378 -320v79h-53v-79h53zM486 -320v79h-53v-79h53zM594 -320v79h-53v-79h53zM702 -320v79h-53v-79h53zM810 -320v79h-53v-79h53
zM918 -320v79h-53v-79h53zM379 1279v-79h53v79h-53zM271 1279v-79h53v79h-53zM163 1279v-79h53v79h-53zM55 1279v-79h53v79h-53zM433 1359v-79h53v79h-53zM325 1359v-79h53v79h-53zM217 1359v-79h53v79h-53zM109 1359v-79h53v79h-53zM433 1440h53v79h-53v-79zM432 1439h-53
v-79h53v79zM325 1440h53v79h-53v-79zM324 1439h-53v-79h53v79zM217 1440h53v79h-53v-79zM216 1439h-53v-79h53v79zM109 1440h53v79h-53v-79zM108 1439h-53v-79h53v79zM0 1600h55v-80h53v80h55v-80h53v80h55v-80h53v80h55v-80h53v80h55v-80h53v80h55v-80h53v80h55v-80h53v80
h55v-80h53v80h55v-80h53v-81h-53v-79h53v-81h-53v-79h53v-81h-53v-79h53v-81h-53v-79h53v-81h-53v-79h53v-81h-53v-79h53v-81h-53v-79h53v-81h-53v-79h53v-81h-53v-79h53v-81h-53v-79h53v-81h-53v-79h53v-81h-53v-79h-55v79h-53v-79h-55v79h-53v-79h-55v79h-53v-79h-55v79
h-53v-79h-55v79h-53v-79h-55v79h-53v-79h-55v79h-53v-79h-55v79h-53v-79h-55v80h54v79h-54v81h54v79h-54v81h54v79h-54v81h54v79h-54v81h54v79h-54v81h54v79h-54v81h54v79h-54v81h54v79h-54v81h54v79h-54v81h54v79h-54v81h54v79h-54v81h54v79h-54v81zM433 1120h53v79h-53
v-79zM325 1120h53v79h-53v-79zM217 1120h53v79h-53v-79zM109 1120h53v79h-53v-79z" />
    <glyph glyph-name="dkshade" unicode="&#x2593;" vert-adv-y="0" 
d="M0 -320v80h54v80h-54v80h54v80h-54v80h54v80h-54v80h54v80h-54v80h54v80h-54v80h54v80h-54v80h54v80h-54v80h54v80h-54v80h54v80h-54v80h54v80h-54v80h54v80h-54v80h54v80h162v-80h54v80h162v-80h54v80h162v-80h54v80h162v-80h54v80h54v-2000h-54v80h-54v-80h-162v80h-54
v-80h-162v80h-54v-80h-162v80h-54v-80h-162v80h-54zM864 -160v-80h54v80h-54zM432 -160v-80h54v80h-54zM540 -240v-80h54v80h-54zM648 -160v-80h54v80h-54zM756 -240v-80h54v80h-54zM108 -240v-80h54v80h-54zM216 -160v-80h54v80h-54zM324 -240v-80h54v80h-54zM864 0v-80h54
v80h-54zM432 0v-80h54v80h-54zM540 -80v-80h54v80h-54zM648 0v-80h54v80h-54zM756 -80v-80h54v80h-54zM108 -80v-80h54v80h-54zM216 0v-80h54v80h-54zM324 -80v-80h54v80h-54zM864 160v-80h54v80h-54zM432 160v-80h54v80h-54zM540 80v-80h54v80h-54zM648 160v-80h54v80h-54z
M756 80v-80h54v80h-54zM108 80v-80h54v80h-54zM216 160v-80h54v80h-54zM324 80v-80h54v80h-54zM864 320v-80h54v80h-54zM432 320v-80h54v80h-54zM540 240v-80h54v80h-54zM648 320v-80h54v80h-54zM756 240v-80h54v80h-54zM108 240v-80h54v80h-54zM216 320v-80h54v80h-54z
M324 240v-80h54v80h-54zM864 480v-80h54v80h-54zM432 480v-80h54v80h-54zM540 400v-80h54v80h-54zM648 480v-80h54v80h-54zM756 400v-80h54v80h-54zM108 400v-80h54v80h-54zM216 480v-80h54v80h-54zM324 400v-80h54v80h-54zM864 640v-80h54v80h-54zM432 640v-80h54v80h-54z
M540 560v-80h54v80h-54zM648 640v-80h54v80h-54zM756 560v-80h54v80h-54zM108 560v-80h54v80h-54zM216 640v-80h54v80h-54zM324 560v-80h54v80h-54zM864 800v-80h54v80h-54zM432 800v-80h54v80h-54zM540 720v-80h54v80h-54zM648 800v-80h54v80h-54zM756 720v-80h54v80h-54z
M108 720v-80h54v80h-54zM216 800v-80h54v80h-54zM324 720v-80h54v80h-54zM864 960v-80h54v80h-54zM432 960v-80h54v80h-54zM540 880v-80h54v80h-54zM648 960v-80h54v80h-54zM756 880v-80h54v80h-54zM108 880v-80h54v80h-54zM216 960v-80h54v80h-54zM324 880v-80h54v80h-54z
M864 1120v-80h54v80h-54zM432 1120v-80h54v80h-54zM540 1040v-80h54v80h-54zM648 1120v-80h54v80h-54zM756 1040v-80h54v80h-54zM108 1040v-80h54v80h-54zM216 1120v-80h54v80h-54zM324 1040v-80h54v80h-54zM864 1280v-80h54v80h-54zM432 1280v-80h54v80h-54zM540 1200v-80
h54v80h-54zM648 1280v-80h54v80h-54zM756 1200v-80h54v80h-54zM108 1200v-80h54v80h-54zM216 1280v-80h54v80h-54zM324 1200v-80h54v80h-54zM864 1440v-80h54v80h-54zM432 1440v-80h54v80h-54zM540 1360v-80h54v80h-54zM648 1440v-80h54v80h-54zM756 1360v-80h54v80h-54z
M108 1360v-80h54v80h-54zM216 1440v-80h54v80h-54zM324 1360v-80h54v80h-54zM540 1520v-80h54v80h-54zM756 1520v-80h54v80h-54zM108 1520v-80h54v80h-54zM324 1520v-80h54v80h-54z" />
    <glyph glyph-name="uni2594" unicode="&#x2594;" vert-adv-y="0" 
d="M0 1600h972v-250h-972v250z" />
    <glyph glyph-name="uni2595" unicode="&#x2595;" vert-adv-y="0" 
d="M850 1600h122v-2000h-122v2000z" />
    <glyph glyph-name="uni2596" unicode="&#x2596;" vert-adv-y="0" 
d="M487 -400h-487v1001h487v-1001z" />
    <glyph glyph-name="uni2597" unicode="&#x2597;" vert-adv-y="0" 
d="M485 -396v997h485v-997h-485z" />
    <glyph glyph-name="uni2598" unicode="&#x2598;" vert-adv-y="0" 
d="M487 599h-487v1001h487v-1001z" />
    <glyph glyph-name="uni2599" unicode="&#x2599;" vert-adv-y="0" 
d="M0 1600h486v-1000h486v-1000h-972v4v1996z" />
    <glyph glyph-name="uni259A" unicode="&#x259a;" vert-adv-y="0" 
d="M487 601h483v-997h-485v995h-485v1001h487v-999z" />
    <glyph glyph-name="uni259B" unicode="&#x259b;" vert-adv-y="0" 
d="M0 1600h972v-1000h-486v-1000h-486v1998v2z" />
    <glyph glyph-name="uni259C" unicode="&#x259c;" vert-adv-y="0" 
d="M0 1600h972v-2000h-486v1000h-486v1000z" />
    <glyph glyph-name="uni259D" unicode="&#x259d;" vert-adv-y="0" 
d="M485 1600h487v-1001h-487v1001z" />
    <glyph glyph-name="uni259E" unicode="&#x259e;" vert-adv-y="0" 
d="M485 1600h487v-1001h-485v-999h-487v1001h485v999z" />
    <glyph glyph-name="uni259F" unicode="&#x259f;" vert-adv-y="0" 
d="M486 1600h486v-2000h-972v1000h486v1000z" />
    <glyph glyph-name="NameMe.806" unicode="&#x258d;" vert-adv-y="0" 
d="M0 1600h364v-2000h-364v2000z" />
    <glyph glyph-name="NameMe.807" unicode="&#x258e;" vert-adv-y="0" 
d="M0 1600h243v-2000h-243v2000z" />
    <glyph glyph-name="uni258A" unicode="&#x258a;" vert-adv-y="0" 
d="M0 1600h729v-2000h-729v2000z" />
    <glyph glyph-name="NameMe.809" unicode="&#x238b;" vert-adv-y="0" 
d="M594 946l45 110c155 -66 265 -232 265 -426c0 -252 -184 -456 -411 -456c-173 0 -320 118 -381 286l99 50c43 -126 152 -216 282 -216c61.5304 0 118.853 20.3628 166.714 55.3865l-315.714 350.614l-191 -172v470l425 -40l-155 -172l316.428 -351.586
c35.5946 55.0384 56.5723 122.536 56.5723 195.586c0 146 -85 270 -202 316z" />
    <glyph glyph-name="uni2196" unicode="&#x2196;" vert-adv-y="0" 
d="M578 958l-155 -172l387 -430l-77 -88l-389 432l-191 -172v470z" />
    <glyph glyph-name="uni2197" unicode="&#x2197;" vert-adv-y="0" 
d="M385 998h425v-470l-193 172l-387 -432l-77 88l387 430z" />
    <glyph glyph-name="uni2198" unicode="&#x2198;" vert-adv-y="0" 
d="M385 268l155 212l-387 432l77 86l387 -430l157 172v-472h-389z" />
    <glyph glyph-name="uni2199" unicode="&#x2199;" vert-adv-y="0" 
d="M578 308h-389v432l155 -172l389 430l77 -86l-387 -432z" />
    <glyph glyph-name="NameMe.814" vert-adv-y="0" 
d="M191 630c0 -186 135 -336 302 -336s303 150 303 336s-136 336 -303 336s-302 -150 -302 -336zM83 630c0 252 183 456 410 456s411 -204 411 -456s-184 -456 -411 -456s-410 204 -410 456z" />
    <glyph glyph-name="uni2319" unicode="&#x2319;" vert-adv-y="0" 
d="M857 699h-749v364h108v-242h641v-122z" />
    <glyph glyph-name="uni231A" unicode="&#x231a;" vert-adv-y="0" 
d="M447 1069c0 21 15 38 34 38s34 -17 34 -38s-15 -38 -34 -38s-34 17 -34 38zM261 1000c0 21 15 38 34 38s34 -17 34 -38s-15 -38 -34 -38s-34 17 -34 38zM133 862c0 21 15 38 34 38s35 -17 35 -38s-16 -38 -35 -38s-34 17 -34 38zM69 649c0 22 15 39 35 39
c19 0 33 -17 33 -39c0 -21 -14 -37 -33 -37c-20 0 -35 16 -35 37zM133 440c0 21 15 37 34 37s35 -16 35 -37c0 -22 -16 -39 -35 -39s-34 17 -34 39zM259 300c0 21 15 38 34 38c20 0 35 -17 35 -38s-15 -38 -35 -38c-19 0 -34 17 -34 38zM448 228c0 22 15 40 35 40
c19 0 33 -18 33 -40c0 -21 -14 -36 -33 -36c-20 0 -35 15 -35 36zM640 1000c0 21 16 38 35 38s34 -17 34 -38s-15 -38 -34 -38s-35 17 -35 38zM768 863c0 21 15 39 34 39s34 -18 34 -39s-15 -37 -34 -37s-34 16 -34 37zM829 652c0 21 14 38 33 38s35 -17 35 -38
s-16 -38 -35 -38s-33 17 -33 38zM767 441c0 21 14 38 33 38s35 -17 35 -38s-16 -38 -35 -38s-33 17 -33 38zM642 302c0 21 15 37 34 37s35 -16 35 -37s-16 -39 -35 -39s-34 18 -34 39zM659 894l43 -48l-185 -210v-288h-62v301c0 8 3 18 9 24z" />
    <glyph glyph-name="NameMe.818" unicode="&#x231c;" vert-adv-y="0" 
d="M493 1298h-403v-576h-90v678h493v-102z" />
    <glyph glyph-name="NameMe.819" unicode="&#x231d;" vert-adv-y="0" 
d="M468 1298v102h493v-678h-90v576h-403z" />
    <glyph glyph-name="NameMe.820" unicode="&#x231e;" vert-adv-y="0" 
d="M493 -290v-102h-493v678h90v-576h403z" />
    <glyph glyph-name="NameMe.821" unicode="&#x231f;" vert-adv-y="0" 
d="M468 -290h403v576h90v-678h-493v102z" />
    <glyph glyph-name="NameMe.822" vert-adv-y="0" 
d="M54 1538h857v-1872h-857v1872z" />
    <glyph glyph-name="SF500000" unicode="&#x2558;" vert-adv-y="0" 
d="M970 584v-122h-531v1138h108v-770h423v-122h-423v-124h423z" />
    <glyph glyph-name="SF210000" unicode="&#x2556;" vert-adv-y="0" 
d="M0 706h661v-1106h-110v984h-108v-984h-110v984h-333v122z" />
    <glyph glyph-name="SF270000" unicode="&#x255c;" vert-adv-y="0" 
d="M0 708h333v892h110v-892h108v892h110v-1014h-661v122z" />
    <glyph glyph-name="SF220000" unicode="&#x2555;" vert-adv-y="0" 
d="M0 830h529v-1230h-110v862h-419v122h419v124h-419v122z" />
    <glyph glyph-name="SF520000" unicode="&#x2553;" vert-adv-y="0" 
d="M970 706v-122h-309v-984h-110v984h-108v-984h-110v1106h637z" />
    <glyph glyph-name="SF510000" unicode="&#x2552;" vert-adv-y="0" 
d="M970 830v-122h-425v-124h425v-122h-425v-862h-109v1230h534z" />
    <glyph glyph-name="SF490000" unicode="&#x2559;" vert-adv-y="0" 
d="M970 708v-122h-637v1014h110v-892h108v892h110v-892h309z" />
    <glyph glyph-name="SF280000" unicode="&#x255b;" vert-adv-y="0" 
d="M0 584h418v124h-418v122h418v770h108v-1138h-526v122z" />
    <glyph glyph-name="SF460000" unicode="&#x2568;" vert-adv-y="0" 
d="M970 708v-122h-970v122h333v892h110v-892h108v892h110v-892h309z" />
    <glyph glyph-name="SF480000" unicode="&#x2565;" vert-adv-y="0" 
d="M970 708v-122h-309v-986h-110v986h-108v-986h-110v986h-333v122h970z" />
    <glyph glyph-name="SF470000" unicode="&#x2564;" vert-adv-y="0" 
d="M970 830v-122h-970v122h970zM970 584v-122h-421v-862h-110v862h-439v122h970z" />
    <glyph glyph-name="SF450000" unicode="&#x2567;" vert-adv-y="0" 
d="M970 830v-122h-970v122h439v770h110v-770h421zM970 584v-122h-970v122h970z" />
    <glyph glyph-name="SF190000" unicode="&#x2561;" vert-adv-y="0" 
d="M549 1600v-2000h-110v862h-439v122h439v124h-439v122h439v770h110z" />
    <glyph glyph-name="SF360000" unicode="&#x255e;" vert-adv-y="0" 
d="M970 830v-122h-421v-124h421v-122h-421v-862h-110v2000h110v-770h421z" />
    <glyph glyph-name="uni258F" unicode="&#x258f;" vert-adv-y="0" 
d="M0 1602h122v-1998h-122v1998z" />
    <glyph glyph-name="NameMe.837" unicode="&#xf100;" vert-adv-y="0" 
d="M787 700l7 -26l-34 -70zM635 724c-1 -3 -1 -4 -1 -4c-2 0 -3 10 -6 12c2 5 5 10 6 10c2 0 1 -2 1 -9v-9zM608 644v1c0 5 -10 1 -10 8c0 4 4 11 14 25c-3 -9 -5 -15 -5 -18s1 -4 2 -4c4 0 16 16 16 30c2 -3 1 -6 1 -10c0 -10 -5 -22 -18 -32zM533 622c13 0 23 0 34 4
c-4 -4 -9 -10 -14 -14c-14 3 -26 7 -26 9c0 1 2 1 6 1zM486 1130l22 -2l-6 -4zM396 612v-18c-5 10 -9 22 -13 34c4 -8 8 -10 13 -16zM380 602c13 -26 18 -34 25 -52c-13 10 -16 24 -25 38v14zM151 918c2 2 4 4 6 4c1 0 1 0 1 -2c0 -3 -1 -9 -5 -18c-4 -4 -7 -6 -9 -6
c-1 0 -2 1 -2 2c0 4 5 13 9 20zM128 814v3c0 6 -2 10 -2 15c0 4 2 9 7 16c-2 -8 -1 -18 -5 -34zM390 992l-77 -40l3 -1l19 9l29 13l-20 -13c-106 -80 -171 -140 -171 -322c0 -104 39 -94 70 -180c-4 2 -7 2 -14 12v-2c0 -10 21 -56 34 -74c-1 1 -4 1 -6 1c-4 0 -9 -1 -10 -1
c13 -26 35 -42 48 -58v8c7 -14 39 -64 61 -76v-12c25 -16 6 -12 40 -26v14c25 -40 71 -60 121 -64c-225 10 -395 240 -395 484c0 32 4 62 9 94c14 74 83 208 150 286l-2 -22c36 36 101 72 137 88c0 0 -7 -8 -2 -8c9 0 30 8 43 10c-7 -4 -11 -8 -18 -12h2c14 0 83 -10 88 -10
v12c38 -16 85 -28 141 -70c1 -1 0 -1 1 -1s2 2 2 5c0 6 -3 16 -7 20c50 -30 139 -158 139 -240l-2 -14c-5 18 -22 80 -33 94l11 -72l-14 8l12 -98l-1 -34l-8 24l-5 -56c0 11 -2 22 -5 22c-1 0 -2 0 -2 -2c-25 -110 -75 -134 -97 -148s-92 -28 -128 -28c-5 0 -9 2 -13 2
c31 -14 20 -16 63 -18c-11 -4 -23 -6 -36 -6c-61 0 -118 44 -149 94c7 -2 55 -48 93 -52c-45 36 -93 110 -93 186c0 80 61 134 129 134c34 0 65 -14 81 -44c-18 24 -41 34 -64 34c-63 0 -137 -48 -137 -120v-10c9 -90 58 -170 146 -170c14 0 29 0 45 4c31 6 28 18 48 34
c-1 -2 -2 -9 -2 -13c0 -1 -1 -2 0 -2c0 0 1 0 2 1c68 78 81 110 81 238c0 112 -104 216 -243 216l-47 -4l20 10l-86 -34l-3 -1l1 -1l18 2h3z" />
    <glyph glyph-name="uni21A0" unicode="&#x21a0;" vert-adv-y="0" 
d="M286 952l245 -230v230l326 -306l-326 -304v228l-245 -228v244h-178v122h178v244z" />
    <glyph glyph-name="uni2934" unicode="&#x2934;" vert-adv-y="0" 
d="M382 672h-220l274 360l273 -360h-219v-358c0 -12 -6 -24 -13 -32l-95 -104c-11 -12 -26 -18 -40 -18h-180v100h153l67 72v340z" />
    <glyph glyph-name="heart" unicode="&#x2665;" vert-adv-y="0" 
d="M482 840c31 38 27 62 110 84c14 2 29 4 43 4c40 0 79 -8 101 -20c32 -16 72 -58 83 -100c5 -22 13 -52 13 -76c0 -6 -2 -12 -2 -18c-5 -52 -27 -94 -43 -126c-47 -92 -63 -136 -130 -212c-49 -56 -95 -96 -133 -136l-40 -42l-43 42c-38 40 -84 80 -133 136
c-67 76 -83 120 -130 212c-16 32 -38 74 -43 126c0 6 -2 12 -2 18c0 24 8 54 13 76c11 42 51 84 83 100c22 12 60 20 100 20c14 0 30 -2 44 -4c83 -22 78 -46 109 -84z" />
    <glyph glyph-name="uni2935" unicode="&#x2935;" vert-adv-y="0" 
d="M490 520h219l-273 -360l-274 360h220v340l-67 72h-153v100h180c14 0 29 -6 40 -18l95 -104c7 -8 13 -20 13 -32v-358z" />
    <glyph glyph-name="uni2936" unicode="&#x2936;" vert-adv-y="0" 
d="M673 584h-192v-242l-326 304l326 306v-248h174l65 72v170h90v-198c0 -16 -3 -34 -14 -46l-94 -104c-7 -8 -18 -14 -29 -14z" />
    <glyph glyph-name="uni2937" unicode="&#x2937;" vert-adv-y="0" 
d="M292 584c-11 0 -22 6 -29 14l-94 104c-11 12 -14 30 -14 46v198h90v-170l65 -72h174v248l326 -306l-326 -304v242h-192z" />
    <glyph glyph-name="NameMe.859" unicode="&#x21a1;" vert-adv-y="0" 
d="M209 866h219v198h110v-198h220l-205 -272h205l-274 -362l-275 362h207z" />
    <glyph glyph-name="NameMe.863" unicode="&#x219f;" vert-adv-y="0" 
d="M210 431l207 272h-207l275 362l274 -362h-205l205 -272h-220v-198h-110v198h-219z" />
    <glyph glyph-name="NameMe.864" unicode="&#x219e;" vert-adv-y="0" 
d="M286 952l245 -230v230l326 -306l-326 -304v228l-245 -228v244h-178v122h178v244z" />
    <glyph glyph-name="short_A" vert-adv-y="0" 
d="M209 296v-198h-106v508c0 18 11 34 16 40l324 362c11 14 25 18 36 18c18 0 32 -8 41 -18l330 -364c13 -14 14 -32 14 -42v-504h-108l2 198h-549zM211 418h545v160l-275 304l-270 -302v-162z" />
    <glyph glyph-name="caron" unicode="&#x2c7;" vert-adv-y="0" 
d="M731 1548l38 -42l-247 -274c-11 -12 -23 -16 -36 -16c-16 0 -31 6 -40 16l-246 274l38 42l37 42l209 -232l209 232z" />
    <glyph glyph-name="uni270E" unicode="&#x270e;" vert-adv-y="0" 
d="M193 784l243 268l-40 44h-40l-203 -234v-34zM419 530l243 270l-163 180l-242 -268zM387 424l-311 350c-9 10 -13 24 -13 34v74c0 14 6 26 13 34l230 266c9 10 21 12 32 12h76c13 0 25 -4 32 -12c101 -118 208 -232 312 -346c5 -6 10 -16 12 -24c31 -144 59 -288 90 -432
c0 -4 2 -8 2 -12c0 -22 -14 -42 -34 -48c-2 -1 -4 -1 -6 -1c-5 0 -11 1 -14 1l-398 90c-7 2 -18 8 -23 14zM702 702l-193 -212l157 -36l70 78z" />
    <glyph glyph-name="uni2714" unicode="&#x2714;" vert-adv-y="0" 
d="M79 638c18 20 44 30 67 30s45 -10 61 -28l187 -204l308 536c18 30 47 46 76 46c16 0 34 -6 48 -16c27 -20 42 -52 42 -84c0 -18 -6 -38 -15 -54l-367 -640c-23 -40 -49 -54 -72 -54c-31 0 -58 26 -67 36l-266 290c-18 20 -27 48 -27 74s9 50 25 68z" />
    <glyph glyph-name="uni273C" unicode="&#x273c;" vert-adv-y="0" 
d="M481 852l-60 300c0 36 29 56 58 56c31 0 59 -20 59 -56zM544 812l203 208c7 4 16 8 23 8c32 0 60 -40 60 -76c0 -16 -8 -34 -24 -44zM544 732l262 -92c16 -12 24 -28 24 -48c0 -34 -26 -74 -58 -74c-7 0 -16 2 -23 8zM481 692l59 -300c0 -36 -29 -56 -58 -56
c-31 0 -59 20 -59 56zM418 732l-204 -208c-7 -4 -16 -8 -23 -8c-32 0 -60 40 -60 76c0 16 8 34 24 44zM418 812l-263 92c-16 12 -24 28 -24 48c0 34 26 74 58 74c7 0 16 -2 23 -8z" />
    <glyph glyph-name="uni2753" unicode="&#x2753;" vert-adv-y="0" 
d="M209 954h-108v184c0 16 7 32 16 42l113 124c11 12 27 14 38 14h427c14 0 29 -6 38 -16l113 -126c11 -12 16 -28 16 -42v-122c0 -16 -9 -34 -18 -44l-329 -344v-160h-108v186c0 14 5 32 16 44l331 344v72l-83 90h-381l-81 -88v-158zM400 356h120v-122h-120v122z" />
    <glyph glyph-name="uni2B06" unicode="&#x2b06;" vert-adv-y="0" 
d="M490 258h-108v578h-220l274 358l273 -358h-219v-578z" />
    <glyph glyph-name="uni2B07" unicode="&#x2b07;" vert-adv-y="0" 
d="M382 1194h108v-578h219l-273 -358l-274 358h220v578z" />
    <glyph glyph-name="u1F394" unicode="&#x1f394;" vert-adv-y="0" 
d="M482 840c31 38 27 64 110 84c14 4 29 4 43 4c40 0 79 -8 101 -20c54 -26 96 -92 96 -176c0 -6 -2 -12 -2 -18c-5 -52 -27 -94 -43 -126c-47 -92 -72 -120 -139 -196c-43 -50 -248 -170 -248 -170c11 30 18 60 18 90c0 38 -13 76 -40 108c-65 76 -153 76 -200 168
c-16 32 -38 74 -43 126c0 6 -2 12 -2 18c0 84 42 150 96 176c22 12 60 20 100 20c14 0 30 0 44 -4c83 -20 78 -46 109 -84z" />
    <glyph glyph-name="uni21AF" unicode="&#x21af;" vert-adv-y="0" 
d="M236 1274v-528l443 484v-888h156l-205 -274l-205 274h146v598l-443 -482v816h108z" />
    <glyph glyph-name="NameMe.857" vert-adv-y="0" 
d="M162 624h547l-273 -364z" />
    <glyph glyph-name="lambda" unicode="&#x3bb;" vert-adv-y="0" 
d="M104 1072v122h33c68 0 182 -6 243 -122l497 -972h-125l-257 503l-274 -503h-133l348 624l-150 284c-32 60 -108 64 -182 64z" />
    <glyph glyph-name="dieresistonos" unicode="&#x385;" vert-adv-y="0" 
d="M338 1238c-11 12 -16 28 -16 42c0 18 7 34 16 44l216 242c11 12 25 18 38 18c16 0 31 -8 40 -18s16 -26 16 -44c0 -14 -5 -30 -16 -42l-216 -242c-9 -10 -24 -18 -40 -18c-13 0 -27 6 -38 18zM205 1202h114v-122h-114v122zM536 1202h112v-122h-112v122z" />
    <glyph glyph-name="dotaccent" unicode="&#x2d9;" vert-adv-y="0" 
d="M335 1238c0 62 45 112 101 112s100 -50 100 -112s-44 -112 -100 -112s-101 50 -101 112z" />
    <glyph glyph-name="sdotaccent" unicode="&#x1e61;" vert-adv-y="0" 
d="M646 744l-79 88h-277l-52 -60l502 -442c13 -12 20 -26 20 -44s-6 -34 -17 -46l-113 -124c-11 -12 -24 -18 -38 -18h-324c-14 0 -27 6 -38 18l-111 120c-11 12 -16 26 -16 44v56h108v-30l79 -88h281l54 60l-501 440c-13 10 -18 26 -20 44v7c0 15 6 29 15 39l108 126
c11 12 23 18 39 18h323c14 0 26 -6 37 -18l112 -122c11 -12 16 -26 16 -42v-64h-108v38zM335 1238c0 62 45 112 101 112s100 -50 100 -112s-44 -112 -100 -112s-101 50 -101 112z" />
    <glyph glyph-name="Sdotaccent" unicode="&#x1e60;" vert-adv-y="0" 
d="M745 996l-68 80h-378l-78 -86v-64l609 -476c16 -12 23 -30 23 -50v-118c0 -16 -5 -28 -14 -40l-103 -124c-11 -12 -23 -22 -39 -22h-425c-14 0 -27 6 -38 18l-110 122c-11 12 -16 26 -16 42v62h108v-38l77 -84h380l72 88v62l-608 476c-16 12 -24 30 -24 50v120
c0 16 6 30 17 42l109 122c11 12 24 16 38 16h421c14 0 27 -4 38 -16l105 -116c11 -12 16 -26 16 -42v-64h-112v40zM380 1372c0 62 45 112 101 112s100 -50 100 -112s-44 -112 -100 -112s-101 50 -101 112z" />
    <glyph glyph-name="fdotaccent" unicode="&#x1e1f;" vert-adv-y="0" 
d="M506 1078l-72 -82v-164h218v-122h-220v-612h-106v612h-223v122h223v188c0 16 3 30 14 42l103 118c11 12 23 18 39 18h278v-120h-254zM380 1372c0 62 45 112 101 112s100 -50 100 -112s-44 -112 -100 -112s-101 50 -101 112z" />
    <glyph glyph-name="Fdotaccent" unicode="&#x1e1e;" vert-adv-y="0" 
d="M108 1194h749v-120h-643v-362h537v-112h-537v-502h-106v1096zM380 1372c0 62 45 112 101 112s100 -50 100 -112s-44 -112 -100 -112s-101 50 -101 112z" />
    <glyph glyph-name="bdotaccent" unicode="&#x1e03;" vert-adv-y="0" 
d="M103 104v1214h108v-368h280c18 0 33 -12 38 -18l214 -242c13 -14 17 -32 17 -42v-246c0 -20 -12 -36 -17 -42l-221 -242c-13 -14 -31 -14 -38 -14h-381zM211 218h252l190 208v198l-183 208h-259v-614zM335 1238c0 62 45 112 101 112s100 -50 100 -112s-44 -112 -100 -112
s-101 50 -101 112z" />
    <glyph glyph-name="Bdotaccent" unicode="&#x1e02;" vert-adv-y="0" 
d="M214 218v858h-106v118h479c18 0 32 -10 39 -16l216 -250c11 -12 15 -26 15 -40c0 -20 -7 -36 -16 -46l-182 -194l182 -198c11 -12 16 -28 16 -40c0 -18 -7 -34 -16 -44l-220 -250c-13 -14 -29 -18 -38 -18h-475v120h106zM562 586h-240v-368h238l167 188zM560 708l167 180
l-164 188h-241v-368h238zM380 1372c0 62 45 112 101 112s100 -50 100 -112s-44 -112 -100 -112s-101 50 -101 112z" />
    <glyph glyph-name="NameMe.879" vert-adv-y="0" 
d="M506 1078l-72 -82v-164h218v-122h-220v-612h-106v612h-223v122h223v188c0 16 3 30 14 42l103 118c11 12 23 18 39 18h278v-120h-254z" />
    <glyph glyph-name="ddotaccent" unicode="&#x1e0b;" vert-adv-y="0" 
d="M760 102h-382c-7 0 -25 2 -38 16l-221 242c-5 6 -16 22 -16 42v246c0 10 3 28 16 42l216 242c5 6 18 18 36 18h281v368h108v-1216zM652 218v614h-258l-185 -208v-198l191 -208h252zM335 1238c0 62 45 112 101 112s100 -50 100 -112s-44 -112 -100 -112s-101 50 -101 112z
" />
    <glyph glyph-name="Ddotaccent" unicode="&#x1e0a;" vert-adv-y="0" 
d="M322 220h241l186 206v440l-186 210h-241v-856zM214 1076h-106v118h479c18 0 33 -12 38 -18l216 -244c13 -14 16 -32 16 -42v-488c0 -20 -11 -38 -16 -44l-218 -240c-13 -14 -29 -20 -38 -20h-477v120h106v858zM380 1372c0 62 45 112 101 112s100 -50 100 -112
s-44 -112 -100 -112s-101 50 -101 112z" />
    <glyph glyph-name="tdotaccent" unicode="&#x1e6b;" vert-adv-y="0" 
d="M535 246l23 -28h88v-120h-110c-14 0 -26 6 -37 18l-56 62c-11 12 -16 26 -16 42v598h-222v122h222v254h108v-254h221v-122h-221v-572zM380 1372c0 62 45 112 101 112s100 -50 100 -112s-44 -112 -100 -112s-101 50 -101 112z" />
    <glyph glyph-name="Tdotaccent" unicode="&#x1e6a;" vert-adv-y="0" 
d="M108 1194h749v-120h-321v-976h-108v976h-320v120zM380 1372c0 62 45 112 101 112s100 -50 100 -112s-44 -112 -100 -112s-101 50 -101 112z" />
    <glyph glyph-name="mdotaccent" unicode="&#x1e41;" vert-adv-y="0" 
d="M538 746v-648h-110v648l-73 84h-65l-79 -86v-646h-108v852h109v-34l17 18c11 12 23 18 37 18h112c16 0 29 -6 40 -18l64 -78l69 76c11 12 24 18 38 18h115c14 0 27 -6 38 -18l106 -118c11 -12 16 -26 16 -42v-674h-108v650l-74 82h-70zM378 1238c0 62 45 112 101 112
s101 -50 101 -112s-45 -112 -101 -112s-101 50 -101 112z" />
    <glyph glyph-name="Mdotaccent" unicode="&#x1e40;" vert-adv-y="0" 
d="M536 740v-152h-109v152l-211 248v-888h-108v1032c0 26 12 46 34 56c7 4 13 6 20 6c13 0 27 -8 38 -20l279 -322l286 326c11 12 25 16 38 16c4 0 9 2 13 2c2 0 4 -1 7 -2c22 -10 34 -32 34 -58v-1036h-108v892zM380 1372c0 62 45 112 101 112s100 -50 100 -112
s-44 -112 -100 -112s-101 50 -101 112z" />
    <glyph glyph-name="NameMe.878" vert-adv-y="0" 
d="M535 246l23 -28h88v-120h-110c-14 0 -26 6 -37 18l-56 62c-11 12 -16 26 -16 42v598h-222v122h222v254h108v-254h221v-122h-221v-572z" />
    <glyph glyph-name="rdotaccent" unicode="&#x1e59;" vert-adv-y="0" 
d="M299 626v-526h-106v668c0 18 -6 30 -17 44c-13 12 -23 18 -41 18h-32v122h88c31 0 108 -58 108 -122v-38l124 140c11 12 24 20 38 20h131c16 0 29 -6 38 -18l113 -122c11 -12 17 -26 17 -44v-60h-108v36l-81 86h-87zM335 1238c0 62 45 112 101 112s100 -50 100 -112
s-44 -112 -100 -112s-101 50 -101 112z" />
    <glyph glyph-name="Rdotaccent" unicode="&#x1e58;" vert-adv-y="0" 
d="M500 588l341 -382c11 -12 16 -26 16 -42v-64h-106v28l-405 460h-132v-488h-106v1094h585c14 0 27 -6 38 -18l110 -120c11 -12 16 -26 16 -42v-246c0 -16 -5 -30 -16 -42l-107 -120c-11 -12 -23 -18 -37 -18h-197zM214 708h459l76 84v196l-78 86h-457v-366zM380 1372
c0 62 45 112 101 112s100 -50 100 -112s-44 -112 -100 -112s-101 50 -101 112z" />
    <glyph glyph-name="ndotaccent" unicode="&#x1e45;" vert-adv-y="0" 
d="M297 884l43 48c5 6 20 18 38 18h223c9 0 23 -2 36 -16l106 -116c5 -6 17 -22 17 -42v-674h-103v650l-77 78h-180l-76 -84v-646h-108v670c0 6 3 14 7 24l-32 40h-88v118h113c18 0 29 -10 34 -18zM335 1238c0 62 45 112 101 112s100 -50 100 -112s-44 -112 -100 -112
s-101 50 -101 112z" />
    <glyph glyph-name="Ndotaccent" unicode="&#x1e44;" vert-adv-y="0" 
d="M108 100v1094h106l537 -610v610h106v-1094h-106v300l-537 616v-916h-106zM380 1372c0 62 45 112 101 112s100 -50 100 -112s-44 -112 -100 -112s-101 50 -101 112z" />
    <glyph glyph-name="uni0394" unicode="&#x394;" vert-adv-y="0" 
d="M261 220h441l-221 638zM104 100l377 1094l378 -1094h-755z" />
    <glyph glyph-name="uni2718" unicode="&#x2718;" vert-adv-y="0" 
d="M137 746v188l293 -190l427 478v-226l-299 -336l223 -144v-184l-327 210l-357 -398v226l227 256z" />
    <glyph glyph-name="quoteright" unicode="&#x2019;" vert-adv-y="0" 
d="M385 1318h108l-54 -366h-54v366z" />
    <glyph glyph-name="quoteleft" unicode="&#x2018;" vert-adv-y="0" 
d="M439 1318h54v-366h-108z" />
    <glyph glyph-name="uni2693" unicode="&#x2693;" vert-adv-y="0" 
d="M439 1318h108v-318h198v-120h-198v-584c70 26 155 98 304 214l62 -100c-164 -128 -271 -204 -366 -226v-82h-108v82c-97 20 -204 96 -371 228l62 96c153 -120 237 -190 309 -214v586h-227v120h227v318z" />
    <glyph glyph-name="uni2716" unicode="&#x2716;" vert-adv-y="0" 
d="M133 856l151 170l197 -216l194 216l153 -170l-194 -216l194 -218l-153 -168l-194 216l-197 -216l-151 168l195 218z" />
    <glyph glyph-name="uni018E" unicode="&#x18e;" vert-adv-y="0" 
d="M864 1194v-1096h-761v120h651v368h-432v122h432v366h-651v120h761z" />
    <glyph glyph-name="afii10074" unicode="&#x438;" vert-adv-y="0" 
d="M761 100h-109v642l-447 -586v-56h-108v852h108v-584l447 584h109v-852z" />
    <glyph glyph-name="ring" unicode="&#x2da;" vert-adv-y="0" 
d="M317 1074c0 -74 54 -134 119 -134c67 0 122 60 122 134s-55 134 -122 134c-65 0 -119 -60 -119 -134zM227 1074c0 130 94 234 209 234c117 0 212 -104 212 -234c0 -128 -95 -234 -212 -234c-115 0 -209 106 -209 234z" />
    <glyph glyph-name="quotedblright" unicode="&#x201d;" vert-adv-y="0" 
d="M220 1318h108l-54 -366h-54v366zM549 1318h108l-54 -366h-54v366z" />
    <glyph glyph-name="quotedblleft" unicode="&#x201c;" vert-adv-y="0" 
d="M275 1318h54v-366h-108zM605 1318h54v-366h-108z" />
    <glyph glyph-name="uni2713" unicode="&#x2713;" vert-adv-y="0" 
d="M108 608c11 12 25 18 38 18s27 -6 38 -18l221 -246l328 586c11 18 28 30 46 30c11 0 20 -4 29 -10c16 -12 25 -32 25 -52c0 -10 -4 -22 -9 -32l-363 -650c-2 -2 -3 -6 -7 -10c-11 -12 -25 -18 -38 -18s-27 6 -38 18l-270 300c-11 12 -16 28 -16 42s5 30 16 42z" />
    <glyph glyph-name="afii10017" unicode="&#x410;" vert-adv-y="0" 
d="M214 488v-390h-106v676c0 18 11 34 16 40l319 362c11 14 25 18 36 18c18 0 32 -8 41 -18l322 -364c13 -14 15 -32 15 -42v-672h-108v390h-535zM216 600h533v146l-268 300l-265 -298v-148z" />
    <glyph glyph-name="afii10018" unicode="&#x411;" vert-adv-y="0" 
d="M103 104v1214h655v-122h-547v-246h280c18 0 33 -12 38 -18l214 -242c13 -14 17 -32 17 -42v-246c0 -20 -12 -36 -17 -42l-221 -242c-13 -14 -31 -14 -38 -14h-381zM211 218h252l190 208v198l-183 208h-259v-614z" />
    <glyph glyph-name="afii10019" unicode="&#x412;" vert-adv-y="0" 
d="M214 218v858h-106v118h479c18 0 32 -10 39 -16l216 -250c11 -12 15 -26 15 -40c0 -20 -7 -36 -16 -46l-182 -194l182 -198c11 -12 16 -28 16 -40c0 -18 -7 -34 -16 -44l-220 -250c-13 -14 -29 -18 -38 -18h-475v120h106zM562 586h-240v-368h238l167 188zM560 708l167 180
l-164 188h-241v-368h238z" />
    <glyph glyph-name="afii10020" unicode="&#x413;" vert-adv-y="0" 
d="M211 100h-108v1094h761v-118h-653v-976z" />
    <glyph glyph-name="afii10021" unicode="&#x414;" vert-adv-y="0" 
d="M212 -256h-108v476h92c56 258 90 526 90 812v98v64h488v-974h90v-476h-108v356h-544v-356zM306 220h360v852h-274v-44c0 -286 -32 -552 -86 -808z" />
    <glyph glyph-name="afii10022" unicode="&#x415;" vert-adv-y="0" 
d="M108 1196h749v-122h-643v-362h429v-122h-429v-372h643v-120h-749v1098z" />
    <glyph glyph-name="afii10024" unicode="&#x416;" vert-adv-y="0" 
d="M427 1194h108v-402l219 248v154h108v-178c0 -16 -5 -30 -16 -42l-290 -326l290 -328c11 -12 16 -26 16 -42v-178h-108v154l-219 246v-400h-108v404l-222 -250v-154h-108v178c0 16 5 30 16 42l290 326l-290 328c-11 12 -16 26 -16 42v178h108v-154l222 -248v402z" />
    <glyph glyph-name="afii10025" unicode="&#x417;" vert-adv-y="0" 
d="M104 104v120h564l102 112v124l-113 124h-337v120h337l113 124v124l-102 112h-564v120h587c14 0 29 -8 38 -18l133 -148c11 -12 16 -28 16 -42v-172c0 -16 -7 -32 -16 -42l-106 -118l106 -118c9 -10 16 -26 16 -42v-172c0 -14 -5 -30 -16 -42l-133 -148
c-9 -10 -24 -18 -38 -18h-587z" />
    <glyph glyph-name="afii10026" unicode="&#x418;" vert-adv-y="0" 
d="M864 100h-110v916l-549 -616v-300h-108v1094h108v-610l549 610h110v-1094z" />
    <glyph glyph-name="afii10027" unicode="&#x419;" vert-adv-y="0" 
d="M203 1492h108c2 -16 4 -30 8 -46s9 -30 16 -44s16 -24 25 -34c11 -12 21 -22 34 -30s26 -12 40 -16c13 -4 26 -6 39 -6c14 0 29 2 42 6s25 10 38 18s23 18 32 28s18 22 25 36s12 32 16 48c4 14 6 26 6 40h108c0 -26 -2 -52 -9 -76s-16 -48 -27 -70s-26 -44 -42 -62
s-34 -34 -54 -46s-41 -22 -64 -30c-22 -6 -44 -12 -67 -12s-47 2 -70 8s-45 18 -65 30s-40 28 -58 46c-16 18 -32 38 -43 60c-13 22 -22 46 -27 72c-5 24 -11 54 -11 80zM864 100h-110v916l-549 -616v-300h-108v1096h108v-612l549 612h110v-1096z" />
    <glyph glyph-name="uni25B6" unicode="&#x25b6;" vert-adv-y="0" 
d="M245 1168l426 -313l-426 -295v608z" />
    <glyph glyph-name="afii10028" unicode="&#x41a;" vert-adv-y="0" 
d="M221 376v-278h-113v1096h113v-646l528 608v38h106v-62c0 -16 -5 -30 -16 -42l-387 -444l389 -444c11 -12 16 -26 16 -42v-62h-108v38l-373 426z" />
    <glyph glyph-name="afii10029" unicode="&#x41b;" vert-adv-y="0" 
d="M860 98h-108v978h-270c0 -732 -68 -786 -295 -978l-63 100c169 136 250 222 250 908v88h486v-1096z" />
    <glyph glyph-name="afii10030" unicode="&#x41c;" vert-adv-y="0" 
d="M536 740v-152h-109v152l-211 248v-888h-108v1032c0 26 12 46 34 56c7 4 13 6 20 6c13 0 27 -8 38 -20l279 -322l286 326c11 12 25 16 38 16c4 0 9 2 13 2c2 0 4 -1 7 -2c22 -10 34 -32 34 -58v-1036h-108v892z" />
    <glyph glyph-name="afii10031" unicode="&#x41d;" vert-adv-y="0" 
d="M108 1194h106v-482h537v482h106v-1094h-106v500h-537v-500h-106v1094z" />
    <glyph glyph-name="afii10032" unicode="&#x41e;" vert-adv-y="0" 
d="M220 988v-688l70 -80h381l78 86v680l-78 90h-379zM126 1052l103 124c13 16 28 18 39 18h427c18 0 34 -10 39 -18l108 -124c13 -14 15 -32 15 -42v-730c0 -20 -9 -36 -16 -42l-110 -120c-13 -14 -29 -18 -38 -18h-425c-18 0 -33 10 -38 16l-106 114c-13 14 -16 34 -16 44
v738c0 18 11 32 18 40z" />
    <glyph glyph-name="afii10033" unicode="&#x41f;" vert-adv-y="0" 
d="M205 98h-108v1096h765v-1096h-108v976h-549v-976z" />
    <glyph glyph-name="afii10034" unicode="&#x420;" vert-adv-y="0" 
d="M214 586h349l188 210v78l-186 200h-351v-488zM214 462v-366h-106v1098h479c14 0 27 -4 38 -16l216 -238c11 -12 16 -24 16 -40v-128c0 -16 -4 -30 -15 -42l-217 -246c-11 -12 -24 -22 -38 -22h-373z" />
    <glyph glyph-name="afii10035" unicode="&#x421;" vert-adv-y="0" 
d="M857 1058l-76 -84l-95 102h-175l-295 -328v-202l297 -328h171l94 110l79 -84l-110 -128c-7 -8 -22 -18 -40 -18h-216c-9 0 -24 6 -37 20l-330 360c-5 6 -16 22 -16 42v252c0 10 1 28 14 42l330 364c5 6 20 16 38 16h217c9 0 25 0 38 -14z" />
    <glyph glyph-name="afii10036" unicode="&#x422;" vert-adv-y="0" 
d="M108 1194h749v-120h-321v-976h-108v976h-320v120z" />
    <glyph glyph-name="afii10037" unicode="&#x423;" vert-adv-y="0" 
d="M248 98h-127l304 496l-315 488c-5 8 -11 22 -11 34v78h108v-58l283 -438l266 436v60h108v-78c0 -10 -4 -24 -9 -34z" />
    <glyph glyph-name="afii10038" unicode="&#x424;" vert-adv-y="0" 
d="M115 838l110 126c13 14 29 14 36 14h175v216h109v-216h164c18 0 33 -12 40 -20l101 -126c11 -12 14 -28 14 -38v-306c0 -20 -11 -36 -16 -42l-105 -118c-10 -13 -22 -14 -31 -14h-6h-161v-216h-109v216h-175c-16 0 -29 8 -36 14l-112 116c-14 14 -16 32 -16 44v310
c0 20 13 34 18 40zM205 772v-260l78 -84h153v432h-153zM545 428h139l72 84v260l-70 88h-141v-432z" />
    <glyph glyph-name="afii10039" unicode="&#x425;" vert-adv-y="0" 
d="M479 562l-261 -306v-154h-108v178c0 16 5 30 16 42l277 324l-277 330c-11 12 -16 26 -16 42v178h108v-154l263 -310l268 308v154h108v-178c0 -16 -5 -30 -16 -42l-285 -326l285 -328c11 -12 16 -26 16 -42v-178h-108v154z" />
    <glyph glyph-name="afii10040" unicode="&#x426;" vert-adv-y="0" 
d="M101 1194h108v-978h493v978h108v-980h52v-346h-104v228h-657v1098z" />
    <glyph glyph-name="afii10042" unicode="&#x428;" vert-adv-y="0" 
d="M101 1194h108v-978h191v556h109v-556h193v978h108v-1098h-709v1098z" />
    <glyph glyph-name="afii10043" unicode="&#x429;" vert-adv-y="0" 
d="M101 1194h108v-978h191v556h109v-556h189v978h108v-980h56v-346h-104v228h-657v1098z" />
    <glyph glyph-name="afii10046" unicode="&#x42c;" vert-adv-y="0" 
d="M103 104v1214h108v-426h383c18 0 33 -12 38 -18l214 -242c13 -14 16 -32 16 -42v-188c0 -20 -11 -36 -16 -42l-221 -242c-13 -14 -31 -14 -38 -14h-484zM211 218h354l191 208v140l-184 208h-361v-556z" />
    <glyph glyph-name="afii10048" unicode="&#x42e;" vert-adv-y="0" 
d="M328 1052l102 124c13 16 29 18 40 18h232c18 0 35 -10 40 -18l108 -124c13 -14 14 -32 14 -42v-730c0 -20 -9 -36 -16 -42l-110 -120c-13 -14 -29 -18 -38 -18h-230c-18 0 -33 10 -38 16l-106 114c-13 14 -15 34 -15 44v292h-106v-466h-110v1094h110v-512h106v330
c0 18 10 32 17 40zM421 988v-688l70 -80h188l77 86v680l-77 88h-186z" />
    <glyph glyph-name="afii10049" unicode="&#x42f;" vert-adv-y="0" 
d="M461 588h-204c-14 0 -26 6 -37 18l-107 120c-11 12 -16 26 -16 42v246c0 16 5 30 16 42l110 120c11 12 24 18 38 18h603v-1096h-108v490h-140l-409 -454v-36h-110v60c0 16 7 30 18 42zM756 708v366h-473l-78 -86v-196l76 -84h475z" />
    <glyph glyph-name="afii10041" unicode="&#x427;" vert-adv-y="0" 
d="M864 1332v-1236h-108v536l-133 -144c-11 -10 -24 -10 -38 -10h-315c-14 0 -27 6 -38 16l-113 120c-11 12 -16 26 -16 44v674h108v-648l81 -88h271l193 202v534h108z" />
    <glyph glyph-name="afii10044" unicode="&#x42a;" vert-adv-y="0" 
d="M103 1318h279v-426h212c18 0 33 -12 38 -18l214 -242c13 -14 16 -32 16 -42v-188c0 -20 -11 -36 -16 -42l-221 -242c-13 -14 -31 -14 -38 -14h-313v1090h-171v124zM382 218h183l191 208v140l-184 208h-190v-556z" />
    <glyph glyph-name="afii10045" unicode="&#x42b;" vert-adv-y="0" 
d="M760 1318h104v-1220h-104v1220zM103 104v1214h108v-426h216c18 0 32 -12 37 -18l215 -242c13 -14 16 -32 16 -42v-188c0 -20 -11 -36 -16 -42l-222 -242c-13 -14 -31 -14 -38 -14h-316zM211 218h187l191 208v140l-184 208h-194v-556z" />
    <glyph glyph-name="afii10065" unicode="&#x430;" vert-adv-y="0" 
d="M648 216v252h-362l-77 -88v-74l75 -90h364zM756 216h110v-116h-605c-18 0 -33 12 -38 18l-104 124c-13 14 -16 34 -16 42v120c0 20 11 36 16 42l106 122c13 14 29 16 38 16h385v166l-74 84h-367v118h389c18 0 33 -12 38 -18l106 -120c13 -14 16 -30 16 -40v-558z" />
    <glyph glyph-name="afii10066" unicode="&#x431;" vert-adv-y="0" 
d="M211 296l66 -80h346l79 88v328l-72 80h-340l-79 -90v-162v-164zM117 232c-9 10 -14 24 -14 40v188v188v328c0 16 7 34 16 42l111 124c11 12 25 18 38 18h358l81 80l72 -90l-97 -96c-9 -8 -23 -14 -36 -14h-356l-79 -88v-160l19 22c7 10 24 18 38 18h384
c13 0 26 -6 37 -18l105 -116c9 -8 16 -26 16 -42v-376c0 -14 -5 -30 -16 -42l-112 -124c-7 -10 -24 -18 -38 -18h-390c-13 0 -29 6 -40 20z" />
    <glyph glyph-name="afii10067" unicode="&#x432;" vert-adv-y="0" 
d="M212 218v620h-109v120h437c18 0 33 -12 40 -18l216 -198c13 -10 14 -26 14 -40c0 -20 -9 -34 -16 -46l-182 -128l182 -144c14 -6 16 -28 16 -40c0 -18 -7 -34 -16 -44l-220 -184c-14 -12 -29 -18 -38 -18h-433v120h109zM515 466h-193v-248h191l162 126zM513 588l160 118
l-156 132h-195v-250h191z" />
    <glyph glyph-name="afii10068" unicode="&#x433;" vert-adv-y="0" 
d="M211 98h-108v854h707v-120h-599v-734z" />
    <glyph glyph-name="afii10069" unicode="&#x434;" vert-adv-y="0" 
d="M212 -256h-108v476h92c56 258 90 286 90 572v98v62h488v-732h90v-476h-108v356h-544v-356zM306 220h360v612h-274v-44c0 -286 -32 -312 -86 -568z" />
    <glyph glyph-name="uni2731" unicode="&#x2731;" vert-adv-y="0" 
d="M776 1126l140 -154l-178 -200l182 -208l-141 -154l-198 224v-344h-199v342l-197 -224l-138 156l182 208l-179 200l139 154l193 -214v334h199v-336z" />
    <glyph glyph-name="uni276F" unicode="&#x276f;" vert-adv-y="0" 
d="M74 1554c11 10 34 28 61 28c22 0 49 -12 65 -36l693 -880c18 -22 23 -44 23 -68s-9 -52 -23 -68l-693 -878c-22 -32 -51 -34 -65 -34c-23 0 -47 12 -61 26l-2 4l-4 4c-5 10 -21 30 -21 64c0 24 9 52 23 68l643 814l-641 816c-25 30 -25 50 -25 74c0 38 21 56 21 58l4 4z
" />
    <glyph glyph-name="uni25FC" unicode="&#x25fc;" vert-adv-y="0" 
d="M133 1012h699v-776h-699v776z" />
    <glyph glyph-name="afii57636" unicode="&#x20aa;" vert-adv-y="0" 
d="M758 1184h108v-1024c0 -36 -31 -60 -54 -60h-357c-14 0 -28 8 -37 18l-90 100c-11 12 -17 28 -17 42v636h108v-612l58 -64h281v964zM212 100h-108v1024c0 36 31 60 54 60h357c14 0 27 -8 36 -18l92 -102c11 -12 16 -26 16 -40v-636h-108v612l-58 64h-281v-964z" />
    <glyph glyph-name="afii10070" unicode="&#x435;" vert-adv-y="0" 
d="M209 462v-158l77 -90h474v-112h-495c-16 0 -31 10 -36 16l-112 120c-13 14 -14 32 -14 42v484c0 20 13 34 18 40l109 126c13 14 31 22 40 22h326c18 0 33 -16 38 -22l106 -124c13 -14 16 -30 16 -40v-304h-547zM211 586h441v156l-78 88h-284l-79 -90v-154z" />
    <glyph glyph-name="afii10072" unicode="&#x436;" vert-adv-y="0" 
d="M421 956h114v-288.424l225 244.424v40h108v-60c0 -16 -6 -32 -17 -44l-293 -322l293 -324c11 -12 17 -26 17 -42v-64h-108v38l-225 247.662v-285.662h-114v276.614l-216 -238.614v-38h-108v64c0 16 4 30 15 42l293 322l-293 324c-11 12 -15 28 -15 44v60h108v-40
l216 -235.495v279.495z" />
    <glyph glyph-name="afii10073" unicode="&#x437;" vert-adv-y="0" 
d="M104 104v120h449l102 112v12l-113 124h-222v120h222l113 124v14l-102 112h-449v120h472c14 0 29 -12 38 -22l133 -144c11 -12 16 -28 16 -42v-62c0 -16 -7 -32 -16 -42l-106 -118l106 -118c9 -10 16 -26 16 -42v-60c0 -14 -5 -30 -16 -42l-133 -148
c-9 -10 -24 -18 -38 -18h-472z" />
    <glyph glyph-name="afii10075" unicode="&#x439;" vert-adv-y="0" 
d="M761 100h-109v642l-447 -586v-56h-108v852h108v-584l447 584h109v-852zM203 1318h108c2 -16 4 -30 8 -46s9 -30 16 -44s16 -24 25 -34c11 -12 21 -22 34 -30s26 -12 40 -16c13 -4 26 -6 39 -6c14 0 29 2 42 6s25 10 38 18s23 18 32 28s18 22 25 36s12 32 16 48
c4 14 6 26 6 40h108c0 -26 -2 -52 -9 -76s-16 -48 -27 -70s-26 -44 -42 -62s-34 -34 -54 -46s-41 -22 -64 -30c-22 -6 -44 -12 -67 -12s-47 2 -70 8s-45 18 -65 30s-40 28 -58 46c-16 18 -32 38 -43 60c-13 22 -22 46 -27 72c-5 24 -11 54 -11 80z" />
    <glyph glyph-name="afii10076" unicode="&#x43a;" vert-adv-y="0" 
d="M216 354v-256h-113v858h113v-430l430 384v38h108v-62c0 -16 -5 -32 -16 -42l-270 -254l270 -388c9 -14 16 -26 16 -42v-62h-108v38l-270 370z" />
    <glyph glyph-name="afii10077" unicode="&#x43b;" vert-adv-y="0" 
d="M760 98h-108v736h-227c0 -558 -11 -544 -238 -736l-63 100c169 136 193 98 193 666v90h443v-856z" />
    <glyph glyph-name="afii10079" unicode="&#x43d;" vert-adv-y="0" 
d="M103 950h109v-370h440v370h108v-852h-108v360h-440v-360h-109v852z" />
    <glyph glyph-name="afii10080" unicode="&#x43e;" vert-adv-y="0" 
d="M211 748v-444l77 -84h292l72 84v444l-71 88h-293zM121 814l109 126c13 14 29 14 36 14h339c18 0 32 -12 39 -20l101 -126c11 -12 15 -28 15 -38v-490c0 -20 -12 -36 -17 -42l-104 -118c-10 -13 -22 -14 -31 -14h-7h-335c-16 0 -29 8 -36 14l-111 116
c-14 14 -16 32 -16 44v494c0 20 13 34 18 40z" />
    <glyph glyph-name="afii10081" unicode="&#x43f;" vert-adv-y="0" 
d="M205 98h-108v856h663v-856h-108v736h-447v-736z" />
    <glyph glyph-name="afii10082" unicode="&#x440;" vert-adv-y="0" 
d="M103 956h396c11 0 16 0 23 -8l221 -236c5 -6 17 -22 17 -42v-268c0 -10 -4 -28 -17 -42l-216 -242c-5 -6 -18 -18 -36 -18h-280v-368h-108v1224zM211 830v-612h257l185 208v220l-174 184h-268z" />
    <glyph glyph-name="afii10083" unicode="&#x441;" vert-adv-y="0" 
d="M760 950v-118h-366l-185 -208v-198l191 -208h360v-116h-382c-7 0 -25 2 -38 16l-221 242c-5 6 -16 22 -16 42v246c0 10 3 28 16 42l216 242c5 6 18 18 36 18h389z" />
    <glyph glyph-name="afii10084" unicode="&#x442;" vert-adv-y="0" 
d="M97 954h663v-122h-278v-734h-109v734h-276v122z" />
    <glyph glyph-name="afii10085" unicode="&#x443;" vert-adv-y="0" 
d="M409 156l-290 326c-11 12 -16 26 -16 42v428h108v-404l275 -306l164 182v528h108v-552c0 -16 -5 -30 -16 -42l-553 -614l-76 84z" />
    <glyph glyph-name="afii10087" unicode="&#x445;" vert-adv-y="0" 
d="M482 440l-277 -306v-38h-108v64c0 16 4 30 15 42l293 322l-293 324c-11 12 -15 28 -15 44v60h108v-40l277 -302l278 302v40h108v-60c0 -16 -6 -32 -17 -44l-293 -322l293 -324c11 -12 17 -26 17 -42v-64h-108v38z" />
    <glyph glyph-name="afii10088" unicode="&#x446;" vert-adv-y="0" 
d="M101 948h108v-732h398v732h108v-734h52v-346h-105v228h-561v852z" />
    <glyph glyph-name="afii10089" unicode="&#x447;" vert-adv-y="0" 
d="M760 954v-858h-108v384l-130 -144c-11 -10 -24 -10 -38 -10h-214c-14 0 -27 6 -38 16l-113 120c-11 12 -16 26 -16 44v448h108v-422l81 -88h171l189 202v308h108z" />
    <glyph glyph-name="afii10090" unicode="&#x448;" vert-adv-y="0" 
d="M101 954h108v-738h162v388h110v-388h172v738h108v-858h-660v858z" />
    <glyph glyph-name="afii10094" unicode="&#x44c;" vert-adv-y="0" 
d="M103 104v836h108v-224h316c18 0 33 -12 38 -18l178 -202c11 -16 17 -32 17 -42v-92c0 -20 -12 -36 -17 -42l-185 -202c-14 -12 -31 -14 -38 -14h-417zM211 218h288l154 168v44l-147 168h-295v-380z" />
    <glyph glyph-name="afii10096" unicode="&#x44e;" vert-adv-y="0" 
d="M328 814l102 126c13 16 29 16 40 16h128c18 0 34 -8 39 -16l108 -126c13 -14 15 -32 15 -42v-492c0 -20 -10 -36 -17 -42l-109 -120c-13 -14 -29 -18 -38 -18h-126c-18 0 -33 10 -38 16l-106 114c-13 14 -15 34 -15 44v176h-106v-350h-110v856h110v-390h106v208
c0 18 10 32 17 40zM421 750v-450l70 -80h83l78 86v442l-78 88h-81z" />
    <glyph glyph-name="afii10097" unicode="&#x44f;" vert-adv-y="0" 
d="M347 464h-90c-14 0 -26 6 -37 18l-107 120c-11 12 -16 26 -16 42v130c0 16 5 30 16 42l110 124c11 12 24 14 38 14h499v-856h-108v366h-150l-295 -330v-36h-110v60c0 16 7 30 18 42zM652 584v250h-369l-78 -86v-80l76 -84h371z" />
    <glyph glyph-name="afii10086" unicode="&#x444;" vert-adv-y="0" 
d="M115 696l110 126c13 14 29 14 36 14h112v118h109v-118h123c18 0 32 -12 39 -20l101 -126c11 -12 15 -28 15 -38v-256c0 -20 -12 -36 -17 -42l-104 -118c-10 -13 -22 -14 -31 -14h-7h-119v-124h-109v124h-112c-16 0 -29 8 -36 14l-112 116c-14 14 -16 32 -16 44v260
c0 20 13 34 18 40zM205 630v-210l78 -84h90v382h-90zM482 336h98l72 84v210l-71 88h-99v-382z" />
    <glyph glyph-name="NameMe.955" vert-adv-y="0" 
d="M1130 950l76 -84l-322 -366v-500h-108v524c0 14 5 32 16 42zM1102 -80c0 36 25 64 57 64s61 -28 61 -64s-29 -68 -61 -68s-57 32 -57 68zM1318 162c0 36 25 66 57 66s61 -30 61 -66s-29 -66 -61 -66s-57 30 -57 66zM1426 528c0 36 25 66 57 66s61 -30 61 -66
s-29 -66 -61 -66s-57 30 -57 66zM1319 896c0 36 28 68 60 68s59 -32 59 -68s-27 -64 -59 -64s-60 28 -60 64zM1098 1134c0 36 27 66 59 66s60 -30 60 -66s-28 -66 -60 -66s-59 30 -59 66zM763 -208c0 38 27 68 61 68c32 0 58 -30 58 -68c0 -36 -26 -64 -58 -64
c-34 0 -61 28 -61 64zM436 -84c0 36 25 66 57 66c34 0 61 -30 61 -66s-27 -66 -61 -66c-32 0 -57 30 -57 66zM216 160c0 36 27 64 59 64s60 -28 60 -64c0 -38 -28 -68 -60 -68s-59 30 -59 68zM104 524c0 38 28 68 62 68c32 0 57 -30 57 -68c0 -36 -25 -64 -57 -64
c-34 0 -62 28 -62 64zM216 894c0 36 27 66 59 66s60 -30 60 -66s-28 -66 -60 -66s-59 30 -59 66zM437 1134c0 36 28 66 60 66s59 -30 59 -66s-27 -66 -59 -66s-60 30 -60 66zM761 1254c0 36 28 66 60 66s59 -30 59 -66s-27 -66 -59 -66s-60 30 -60 66z" />
    <glyph glyph-name="Zcaron" unicode="&#x17d;" vert-adv-y="0" 
d="M855 1012c0 -16 -5 -30 -16 -42l-623 -712v-38h641v-122h-749v184c0 16 5 30 16 42l623 712v38h-639v120h747v-182zM731 1548l38 -42l-247 -274c-11 -12 -23 -16 -36 -16c-16 0 -31 6 -40 16l-246 274l38 42l37 42l209 -232l209 232z" />
    <glyph glyph-name="zcaron" unicode="&#x17e;" vert-adv-y="0" 
d="M103 952h763l-542 -734h542v-120h-763l543 732h-543v122zM731 1360l38 -42l-247 -274c-11 -12 -23 -16 -36 -16c-16 0 -31 6 -40 16l-246 274l38 42l37 42l209 -232l209 232z" />
    <glyph glyph-name="Ohorn" unicode="&#x1a0;" vert-adv-y="0" 
d="M756 940h108v-108c0 -16 -7 -34 -16 -42l-40 -44c-11 -12 -25 -18 -38 -18h-93v-448c0 -20 -9 -36 -16 -42l-110 -120c-13 -14 -29 -18 -38 -18h-256c-18 0 -32 10 -37 16l-107 114c-13 14 -16 34 -16 44v738c0 18 11 32 18 40l103 124c13 16 28 18 39 18h258
c18 0 34 -10 39 -18l108 -124c13 -14 15 -32 15 -42v-162h72l7 8v84zM209 988v-688l70 -80h212l78 86v680l-78 90h-210z" />
    <glyph glyph-name="Uhorn" unicode="&#x1af;" vert-adv-y="0" 
d="M756 940h108v-108c0 -16 -7 -34 -16 -42l-40 -44c-11 -12 -25 -18 -38 -18h-93v-446c0 -8 -2 -26 -15 -40l-104 -122c-7 -8 -22 -20 -40 -20h-259c-9 0 -25 4 -38 18l-106 118c-5 6 -14 22 -14 42v916h104v-890l78 -84h212l74 86v888h108v-346h72l7 8v84z" />
    </font>
</defs>
</svg>
