<?xml version="1.0" standalone="no"?>
<!DOCTYPE svg PUBLIC "-//W3C//DTD SVG 1.1//EN" "http://www.w3.org/Graphics/SVG/1.1/DTD/svg11.dtd" >
<!--
2011-5-25: Created.
-->
<svg xmlns="http://www.w3.org/2000/svg" xmlns:xlink="http://www.w3.org/1999/xlink" version="1.1">
<metadata>
Created by FontForge 20201107 at Fri Jul 29 21:44:17 2022
 By Ricardo Bánffy
Copyright 2011-2021 The 3270font Project Authors (https://github.com/rbanffy/3270font)
</metadata>
<defs>
<font id="3270Condensed" horiz-adv-x="874" vert-adv-y="2000" >
  <font-face 
    font-family="IBM 3270 Condensed"
    font-weight="400"
    font-stretch="normal"
    units-per-em="2000"
    panose-1="2 0 5 9 0 0 0 0 0 0"
    ascent="1600"
    descent="-400"
    x-height="950"
    cap-height="1194"
    bbox="-4 -405 1390 1626"
    underline-thickness="120"
    underline-position="-200"
    unicode-range="U+000D-1FBF9"
  />
    <missing-glyph />
    <glyph glyph-name="nobreakspace" vert-adv-y="0" 
 />
    <glyph glyph-name="Euro" unicode="&#x20ac;" vert-adv-y="0" 
d="M87 646h99v122h-99v122h97l4 152l225 276h237l105 -124l-75 -88l-72 90h-150l-173 -208v-98h494l-52 -122h-442v-122h446l-57 -122h-389v-86l170 -218h148l77 96l75 -96l-103 -122h-245l-221 280v146h-99v122z" />
    <glyph glyph-name="cr" vert-adv-y="0" 
 />
    <glyph glyph-name="nl" vert-adv-y="0" 
 />
    <glyph glyph-name="eightones" vert-adv-y="0" 
d="M215 644c0 160 102 288 227 288s227 -128 227 -288c0 -158 -102 -288 -227 -288s-227 130 -227 288z" />
    <glyph glyph-name="hyphen" unicode="-" vert-adv-y="0" 
d="M193 712h483v-112h-483v112z" />
    <glyph glyph-name="greater" unicode="&#x3e;" vert-adv-y="0" 
d="M215 1100c-8 12 -13 28 -13 44s7 30 15 42s21 18 34 20c4 0 5 1 9 1c9 0 16 -3 25 -9l394 -490v-112l-392 -492c-9 -5 -19 -12 -30 -12h-2c-12 2 -22 8 -30 18c-10 10 -14 26 -16 42c0 4 -1 7 -1 11c0 12 3 22 7 33l370 456z" />
    <glyph glyph-name="less" unicode="&#x3c;" vert-adv-y="0" 
d="M666 198c8 -12 13 -28 13 -44s-7 -30 -15 -42s-21 -18 -34 -20c-4 0 -5 -1 -9 -1c-9 0 -16 3 -25 9l-394 490v112l393 492c9 5 18 12 29 12h3c12 -2 21 -8 29 -18c10 -10 14 -26 16 -42c0 -4 1 -7 1 -11c0 -12 -3 -22 -7 -33l-370 -456z" />
    <glyph glyph-name="bracketleft" unicode="[" vert-adv-y="0" 
d="M290 1318h289v-122h-195v-1098h195v-124h-289v1344z" />
    <glyph glyph-name="bracketright" unicode="]" vert-adv-y="0" 
d="M290 1318h289v-1344h-289v124h192v1098h-192v122z" />
    <glyph glyph-name="parenright" unicode=")" vert-adv-y="0" 
d="M581 354l-202 -238c-10 -10 -21 -18 -33 -18c-13 0 -24 8 -32 20c-10 12 -14 26 -14 42s4 28 14 40l188 226v440l-190 232c-10 10 -14 26 -14 42s4 28 14 38c10 12 21 18 33 18s24 -6 32 -18l203 -250c10 -12 15 -22 15 -38v-488c0 -16 -4 -36 -14 -48z" />
    <glyph glyph-name="parenleft" unicode="(" vert-adv-y="0" 
d="M311 940l203 238c10 10 20 18 32 18c13 0 25 -8 33 -20c10 -12 14 -26 14 -42s-4 -28 -14 -40l-188 -226v-440l189 -232c10 -10 15 -26 15 -42s-5 -28 -15 -38c-10 -12 -21 -18 -33 -18s-24 6 -32 18l-203 250c-10 12 -14 22 -14 38v488c0 16 3 36 13 48z" />
    <glyph glyph-name="braceright" unicode="}" vert-adv-y="0" 
d="M330 1346l16 -3l11 -7l7 -8l102 -122l9 -15l5 -15l1 -12v-344l68 -86h59v-120h-59l-68 -88v-342l-1 -13l-5 -16l-9 -15l-102 -122l-7 -7l-11 -8l-16 -3h-146v120h127l73 88v342l2 18l6 15l5 9l63 82l-63 80l-5 9l-6 15l-2 18v342l-73 88h-127v120h146z" />
    <glyph glyph-name="braceleft" unicode="{" vert-adv-y="0" 
d="M580 1346v-120h-126l-73 -88v-342c0 -20 -9 -36 -13 -42l-64 -80l64 -82c4 -6 13 -22 13 -42v-342l73 -88h126v-120h-146c-16 0 -30 12 -34 18l-102 122c-12 14 -14 34 -14 44v342l-69 88h-57v120h57l69 86v344c0 10 2 28 14 42l102 122c4 8 18 18 34 18h146z" />
    <glyph glyph-name="space" unicode=" " vert-adv-y="0" 
 />
    <glyph glyph-name="equal" unicode="=" vert-adv-y="0" 
d="M97 934h674v-112h-674v112zM97 600h674v-112h-674v112z" />
    <glyph glyph-name="afii57929" unicode="&#x2bc;" vert-adv-y="0" 
 />
    <glyph glyph-name="quotedbl" unicode="&#x22;" vert-adv-y="0" 
d="M186 1318h101v-366h-101v366zM482 1318h99v-366h-99v366z" />
    <glyph glyph-name="slash" unicode="/" vert-adv-y="0" 
d="M112 236l-11 27v30l11 27l592 730l21 16h26l22 -16l12 -27v-30l-12 -27l-591 -730l-23 -16h-25z" />
    <glyph glyph-name="backslash" unicode="\" vert-adv-y="0" 
d="M113 1051l22 15h24l23 -15l591 -730l13 -27v-31l-13 -27l-22 -15h-25l-21 15l-592 730l-12 27v31z" />
    <glyph glyph-name="bar" unicode="|" vert-adv-y="0" 
d="M384 1440h98v-1676h-98v1676z" />
    <glyph glyph-name="brokenbar" unicode="&#xa6;" vert-adv-y="0" 
d="M384 708v732h98v-732h-98zM482 468v-704h-98v704h98z" />
    <glyph glyph-name="question" unicode="?" vert-adv-y="0" 
d="M290 954h-97v184c0 16 6 32 14 42l103 124c10 12 24 14 34 14h276c13 0 26 -6 34 -16l103 -126c10 -12 14 -28 14 -42v-122c0 -16 -8 -34 -16 -44l-273 -320v-184h-97v210c0 14 5 32 15 44l276 320v72l-75 90h-238l-73 -88v-158zM385 222h97v-122h-97v122z" />
    <glyph glyph-name="exclam" unicode="!" vert-adv-y="0" 
d="M384 220h100v-122h-100v122zM384 1318h98v-856h-98v856z" />
    <glyph glyph-name="dollar" unicode="$" vert-adv-y="0" 
d="M788 1076v-120h-298v-246h145c13 0 27 -8 35 -18l101 -124c10 -12 13 -28 13 -42v-128c0 -16 -5 -32 -13 -42l-97 -120c-10 -12 -24 -18 -36 -18h-148v-240h-98v240h-288v120h288v252h-147c-12 0 -24 6 -34 18l-98 120c-8 10 -14 26 -14 42v126c0 14 4 30 14 42l98 120
c8 10 21 18 34 18h147v240h98v-240h298zM392 956h-126l-70 -86v-76l70 -84h126v246zM490 338h129l68 84v78l-71 90h-126v-252z" />
    <glyph glyph-name="cent" unicode="&#xa2;" vert-adv-y="0" 
d="M94 581c-4 5 -7 11 -7 17v313c0 14 4 27 8 34l87 117c4 6 11 10 17 10h185v246h98v-244h198v-122h-198v-366h198v-122h-198v-244h-98v244h-182c-4 0 -7 2 -11 7zM384 952h-149l-45 -60v-242l48 -64h146v366z" />
    <glyph glyph-name="sterling" unicode="&#xa3;" vert-adv-y="0" 
d="M251 224h-57v-12h45zM395 706v-426l67 -56h162l85 96l67 -88l-100 -116c-9 -10 -20 -16 -34 -16h-198c-13 0 -25 5 -34 16l-42 50c-8 10 -18 15 -25 15c-3 0 -5 -1 -7 -3l-56 -66c-5 -7 -18 -12 -33 -12h-101c-27 0 -49 25 -49 56v122c0 33 22 60 49 60h97l55 -18v386
h-201v122h201v306c0 17 5 32 13 42l98 122c11 13 22 20 35 20h103c13 0 23 -7 34 -20l98 -120l-70 -84l-83 102h-62l-69 -86v-282h198v-122h-198z" />
    <glyph glyph-name="yen" unicode="&#xa5;" vert-adv-y="0" 
d="M433 1012l262 292l68 -92l-281 -310l1 -72h296v-122h-296v-244h296v-122h-296v-244h-99v244h-297v122h297v244h-297v122h297l-2 66l-281 316l65 94z" />
    <glyph glyph-name="paragraph" unicode="&#xb6;" vert-adv-y="0" 
d="M194 1208v-372h235l67 84v200l-67 88h-235zM194 96h-90v1222h343c10 0 21 -6 31 -18l97 -120c10 -11 15 -24 15 -38v-246c0 -15 -6 -29 -15 -40l-97 -116c-8 -10 -17 -16 -21 -16h-263v-628zM496 584h99v-122h98v-118h-98v-368h-99v368h-99v118h99v122z" />
    <glyph glyph-name="currency" unicode="&#xa4;" vert-adv-y="0" 
d="M346 374l-204 -256l-55 66l188 240c-52 52 -84 132 -84 220c0 90 32 170 84 222l-190 244l55 66l205 -260c24 12 52 16 80 16s55 -4 79 -16l204 258l57 -66l-190 -242c50 -52 83 -134 83 -222c0 -86 -29 -164 -78 -216l188 -244l-57 -66l-204 258
c-26 -12 -53 -20 -82 -20c-28 0 -55 8 -79 18zM269 644c0 -106 70 -192 156 -192s155 86 155 192s-69 194 -155 194s-156 -88 -156 -194z" />
    <glyph glyph-name="zero" unicode="0" vert-adv-y="0" 
d="M434 888c26 0 48 -28 48 -60v-246c0 -32 -22 -60 -48 -60c-28 0 -49 28 -49 60v246c0 32 21 60 49 60zM193 990v-564l168 -208h147l168 204v568l-172 210h-140zM112 1056l200 246c8 12 22 18 34 18h177c13 0 26 -8 34 -18l200 -246c10 -10 14 -28 14 -42v-616
c0 -16 -6 -34 -14 -42l-195 -240c-10 -12 -24 -18 -34 -18h-184c-13 0 -28 8 -34 18l-198 244c-10 12 -15 28 -15 42v612c0 16 7 34 15 42z" />
    <glyph glyph-name="one" unicode="1" vert-adv-y="0" 
d="M403 1296c10 12 21 20 33 20c6 0 16 0 22 -4c20 -10 24 -30 24 -56v-1156h-97v1008l-155 -196l-68 78z" />
    <glyph glyph-name="two" unicode="2" vert-adv-y="0" 
d="M193 952h-96v64c0 16 7 32 15 42l196 244c10 12 22 18 34 18h282c13 0 26 -8 34 -18l99 -122c10 -12 14 -28 14 -42v-252c0 -16 -6 -32 -14 -42l-498 -628h512v-120h-630c-12 0 -24 6 -34 18s-14 28 -14 42s4 30 14 42l569 712v204l-70 86h-245l-168 -208v-40z" />
    <glyph glyph-name="three" unicode="3" vert-adv-y="0" 
d="M193 1200v120h578v-186c0 -16 -6 -32 -14 -42l-216 -266c6 -2 12 -8 16 -12l198 -244c10 -12 15 -28 15 -42v-134c0 -16 -7 -32 -15 -42l-190 -234c-10 -12 -22 -18 -34 -18h-293c-13 0 -26 8 -34 18l-107 132l69 84l91 -114h258l161 198v84l-169 210h-79
c-12 0 -25 6 -35 18s-14 26 -14 42s4 30 14 42l283 344v42h-483z" />
    <glyph glyph-name="four" unicode="4" vert-adv-y="0" 
d="M676 600h95v-112h-95v-438h-97v438h-433c-26 0 -49 28 -49 60v224c0 12 5 30 15 42l388 488c6 10 22 18 35 18h141v-720zM579 600v600h-24l-365 -458v-142h389z" />
    <glyph glyph-name="five" unicode="5" vert-adv-y="0" 
d="M771 1320v-120h-578v-246h335c12 0 24 -6 34 -18l195 -240c8 -8 14 -26 14 -42v-252c0 -14 -4 -30 -14 -42l-196 -242c-6 -10 -22 -18 -35 -18h-424v120h406l168 208v202l-166 204h-413v486h674z" />
    <glyph glyph-name="six" unicode="6" vert-adv-y="0" 
d="M97 372v2v636c0 14 5 30 15 42l232 286l69 -84l-217 -268v-330l122 150c8 10 21 18 34 18h178c12 0 23 -6 33 -18l194 -242c8 -10 14 -26 14 -42v-144c0 -14 -4 -30 -14 -42l-202 -248c-8 -10 -20 -18 -33 -18h-177c-12 0 -24 6 -34 18l-199 244c-2 2 -15 40 -15 40z
M196 492v-92l168 -210h138l172 214v100l-166 206h-137z" />
    <glyph glyph-name="seven" unicode="7" vert-adv-y="0" 
d="M385 98h-95v568c0 16 6 34 14 42l370 456v36h-577v120h674v-180c0 -14 -4 -32 -14 -42l-372 -458v-542z" />
    <glyph glyph-name="eight" unicode="8" vert-adv-y="0" 
d="M207 1166l95 132c10 14 22 20 35 20h193c14 0 25 -6 33 -16l95 -120c10 -12 14 -26 14 -40v-250l-16 -40l-58 -68l162 -214c6 -10 11 -24 11 -40v-142c0 -14 -4 -26 -14 -38l-196 -238c-8 -10 -18 -14 -31 -14h-194c-14 0 -28 6 -34 14l-190 238l-15 40v142
c0 10 6 24 16 38l159 210l-63 68c-10 10 -16 26 -16 44v238c0 10 4 24 14 36zM194 508v-94l161 -206h155l167 208v92l-167 218h-149zM290 1108v-192l70 -78h152l65 78v204l-67 84h-152z" />
    <glyph glyph-name="nine" unicode="9" vert-adv-y="0" 
d="M676 868l-212 -262c-6 -10 -22 -18 -35 -18h-191c-12 0 -24 6 -34 18l-92 114c-8 8 -15 26 -15 42v254c0 14 5 32 15 42l198 244c6 10 21 18 34 18h280c12 0 26 -6 34 -18l99 -124c8 -10 14 -26 14 -42v-856c0 -14 -4 -30 -14 -42l-130 -160l-68 84l117 140v566z
M676 1032v82l-72 86h-241l-169 -208v-206l63 -78h153z" />
    <glyph glyph-name="germandbls" unicode="&#xdf;" vert-adv-y="0" 
d="M89 1030v5l-1 6l1 5l2 5l2 4l1 5l2 4l3 4l3 4l196 228l5 6l1 1l2 2l2 1l3 3l3 3l4 2h6h6h109h5l3 1l5 -1l3 -3l5 -4l4 -3l2 -3l4 -3l3 -4l92 -120l6 -6l1 -2v-2l1 -2l2 -4l1 -4l1 -4v-3l1 -2l1 -3v-8v-124v-8l-1 -2l-1 -2v-2l-1 -3l-1 -2v-3v-2l-1 -2l-1 -2l-1 -2v-2
l-1 -2l-2 -1l-2 -2l-2 -1l-65 -86l263 -324l3 -4l3 -4l2 -4l2 -4l1 -4v-4l1 -3l1 -2l1 -3v-8v-246l-1 -5l-2 -6l-1 -5l-1 -4l-1 -4l-1 -4l-2 -4l-3 -4l-4 -4l-92 -112l-3 -4l-4 -3l-2 -3l-4 -2l-4 -2l-4 -2l-4 -2l-4 -3l-4 -1h-203h-7h-5l-3 3l-5 2l-3 3l-3 3l-4 3l-3 4
l-98 120l64 80l84 -100h167l67 80v198l-283 346l-2 4l-3 4l-3 4l-1 5v4l-1 5l-1 5l-1 4v5v14l1 5l2 5l1 4l3 4l3 4l2 4l85 110v78l-67 86h-71l-168 -196v-908h-91v932z" />
    <glyph glyph-name="section" unicode="&#xa7;" vert-adv-y="0" 
d="M538 252l41 48v202l-350 416l-41 -44v-202zM579 146v-106v-16c-2 -4 -6 -8 -8 -12s-4 -8 -8 -12l-90 -122c-4 -4 -5 -8 -9 -10s-8 -8 -12 -10c-2 -1 -3 -1 -5 -1c-4 0 -5 1 -8 1h-251v120h230l64 84v96l-378 448c-4 4 -7 8 -9 12s-4 10 -6 14c-1 2 -1 4 -1 6
c0 4 1 7 1 10v252c0 6 3 10 5 16c2 4 3 10 5 14l10 10l79 84v106c0 4 -1 7 -1 11c0 1 0 3 1 5c0 4 3 8 5 12l6 12l93 122c2 4 6 8 10 10s6 4 10 6s10 10 14 10h253v-122h-233l-66 -88v-92l380 -448c4 -4 6 -8 8 -12c4 -6 4 -10 4 -14c2 -6 2 -12 2 -16v-252
c0 -6 -3 -12 -5 -16c-2 -6 -3 -10 -5 -14s-4 -8 -8 -12z" />
    <glyph glyph-name="numbersign" unicode="#" vert-adv-y="0" 
d="M480 952h-193v-246h193v246zM190 1196h97v-122h193v122h95v-124h97v-120h-97v-246h97v-120h-97v-120h-95v120h-193v-122h-97v122h-96v122h96v244h-96v122h96v122z" />
    <glyph glyph-name="at" unicode="@" vert-adv-y="0" 
d="M482 704v120h-25l-70 -86v-34h95zM580 704h31l63 80v328l-65 80h-346l-69 -84v-810l61 -76h516v-120h-536c-12 0 -26 6 -36 18l-89 110c-8 10 -13 26 -13 42v860c0 14 3 30 13 42l97 120c8 10 23 18 36 18h385c12 0 26 -6 36 -18l94 -116c8 -10 13 -26 13 -42v-378
c0 -14 -3 -30 -13 -42l-92 -114c-8 -10 -21 -18 -34 -18h-294c-26 0 -48 28 -48 60v118c0 14 3 30 13 42l98 122c8 10 23 14 36 14h94c26 0 49 -24 49 -56v-180z" />
    <glyph glyph-name="percent" unicode="%" vert-adv-y="0" 
d="M112 236l-11 27v30l11 27l592 730l21 16h26l22 -16l12 -27v-30l-12 -27l-591 -730l-23 -16h-25zM583 162c0 -40 25 -72 57 -72c31 0 57 32 57 72s-26 68 -57 68c-32 0 -57 -28 -57 -68zM490 160c0 102 67 186 148 186s148 -84 148 -186s-67 -186 -148 -186
s-148 84 -148 186zM190 1128c0 -40 25 -72 57 -72c31 0 56 32 56 72s-25 68 -56 68c-32 0 -57 -28 -57 -68zM97 1126c0 102 67 186 148 186s147 -84 147 -186s-66 -186 -147 -186s-148 84 -148 186z" />
    <glyph glyph-name="underscore" unicode="_" vert-adv-y="0" 
d="M87 98h692v-124h-692v124z" />
    <glyph glyph-name="ampersand" unicode="&#x26;" vert-adv-y="0" 
d="M302 484l-4 3l-3 4l-2 3l-1 4l-3 4l-2 4l-1 5v4l1 5v76h-58l-45 -78v-214l67 -84h164l50 62zM105 736l-2 3l-3 4l-3 3v4v6v6v6v246v8v6v8v2l-1 2l1 2l2 2l3 2l2 2l5 6l89 118l3 4l3 3l3 3l4 2l4 2l4 2l4 1l4 -1h4h109h4l4 -1l4 -1l4 -2l3 -2l4 -2l1 -1l2 -2l2 -1l1 -1
l2 -2l2 -1l91 -110v-2l1 -2l1 -2l2 -2l1 -2l1 -2l2 -5l1 -4l1 -5l2 -5v-4l1 -5v-248l1 -3l2 -2l2 -3l-1 -3l-1 -2v-3l-2 -5v-4l-1 -5l-2 -2l-1 -2l-1 -2l-5 -6l-90 -114v-68l153 -186l170 208l67 -80l-172 -210l167 -204l-65 -78l-167 202l-65 -80l-2 -4l-4 -3l-3 -3l-3 -2
l-5 -2l-3 -2l-5 -1l-4 1h-4h-202h-3l-4 -1l-4 1l-3 3l-3 2l-3 3l-2 1l-2 2l-1 1l-2 1l-2 2l-1 1l-97 118l-3 4l-2 4l-2 4l-2 5l-2 4l-2 5l-1 5l2 6l1 5v254v6v6l1 2l2 2l1 2v4v3v4v3l52 88zM384 796v200l-64 80h-69l-63 -84v-206l37 -66h101z" />
    <glyph glyph-name="minus" unicode="&#x2212;" vert-adv-y="0" 
d="M193 712h483v-112h-483v112z" />
    <glyph glyph-name="period" unicode="." vert-adv-y="0" 
d="M290 322h192v-222h-192v222z" />
    <glyph glyph-name="comma" unicode="," vert-adv-y="0" 
d="M578 378v-214l-29 -84l-219 -272l-136 168l191 238v164h193z" />
    <glyph glyph-name="colon" unicode=":" vert-adv-y="0" 
d="M290 322h192v-222h-192v222zM290 822h192v-222h-192v222z" />
    <glyph glyph-name="plus" unicode="+" vert-adv-y="0" 
d="M385 1044h97v-332h289v-126h-289v-320h-97v320h-288v126h288v332z" />
    <glyph glyph-name="logicalnot" unicode="&#xac;" vert-adv-y="0" 
d="M97 820h674v-364h-97v244h-577v120z" />
    <glyph glyph-name="macron" unicode="&#xaf;" vert-adv-y="0" 
d="M168 1318h530v-122h-530v122z" />
    <glyph glyph-name="degree" unicode="&#xb0;" vert-adv-y="0" 
d="M385 1318c107 0 192 -110 192 -242s-85 -242 -192 -242s-191 110 -191 242s84 242 191 242zM287 1076c0 -72 45 -128 98 -128s99 56 99 128s-46 130 -99 130s-98 -58 -98 -130z" />
    <glyph glyph-name="periodcentered" unicode="&#xb7;" vert-adv-y="0" 
d="M287 708h195v-246h-195v246z" />
    <glyph glyph-name="asciicircum" unicode="^" vert-adv-y="0" 
d="M215 992l-34 42l222 274c3.10574 3.83321 6.37283 7.61022 10.4118 10.4432c4.039 2.83296 8.73013 4.6974 13.5882 5.55683c2.62267 0.463971 5.27773 0.678935 7.93739 0.678935c5.76007 0 11.5417 -1.00825 17.0626 -2.67893
c3.96864 -1.20095 7.82111 -2.8754 11.2129 -5.2604c3.39177 -2.38501 6.17688 -5.51795 8.78712 -8.7396l222 -274l-34 -42l-35 -42l-188 231l-187 -231z" />
    <glyph glyph-name="asciitilde" unicode="~" vert-adv-y="0" 
d="M148 1136l-35 42l98 120c2.84302 3.48125 5.46295 7.22671 9 10c1.88814 1.48043 4.01928 2.62855 6.23005 3.5609c2.21077 0.932346 4.48662 1.70211 6.76995 2.4391c1.94041 0.626313 3.90038 1.20964 5.90774 1.56736
c2.00736 0.357722 4.05328 0.432639 6.09226 0.432639h105c4.41332 0 8.8736 -0.43469 13 -2c4.34512 -1.64828 8.32835 -4.15115 12 -7c3.36074 -2.60761 6.30967 -5.7051 9 -9l178 -218h64l79 96l34 -42l34 -42l-93 -114c-2.68796 -3.29492 -5.69786 -6.32091 -9 -9
c-3.38796 -2.74871 -6.94907 -5.38023 -11 -7c-4.40773 -1.76244 -9.25297 -2 -14 -2h-105c-4.08486 0 -8.20132 0.497971 -12 2c-3.89046 1.53832 -7.50962 3.69362 -11 6c-2.07744 1.37274 -4.09648 2.84308 -5.94455 4.51185
c-1.84807 1.66878 -3.48061 3.5594 -5.05545 5.48815l-178 218h-64l-83 -102z" />
    <glyph glyph-name="dieresis" unicode="&#xa8;" vert-adv-y="0" 
d="M184 1318h103v-122h-103v122zM482 1318h101v-122h-101v122z" />
    <glyph glyph-name="grave" unicode="`" vert-adv-y="0" 
d="M311 1302c10 12 22 16 35 16c12 0 25 -4 35 -16l202 -248c10 -12 13 -28 13 -42c0 -16 -3 -32 -13 -44s-23 -16 -36 -16c-12 0 -23 4 -33 16l-203 250c-10 12 -13 28 -13 42c0 16 3 32 13 42z" />
    <glyph glyph-name="acute" unicode="&#xb4;" vert-adv-y="0" 
d="M304 972c-10 12 -14 28 -14 42c0 18 6 34 14 44l195 242c10 12 22 18 34 18c14 0 28 -8 36 -18s14 -26 14 -44c0 -14 -4 -30 -14 -42l-195 -242c-8 -10 -22 -18 -36 -18c-12 0 -24 6 -34 18z" />
    <glyph glyph-name="cedilla" unicode="&#xb8;" vert-adv-y="0" 
d="M388 350h97v-323c0 -16 -6 -33 -14 -42l-91 -112c-9 -12 -23 -18 -34 -18h-148v120h128l62 77v298z" />
    <glyph glyph-name="agrave" unicode="&#xe0;" vert-adv-y="0" 
d="M583 216v252h-326l-69 -88v-74l68 -90h327zM680 216h99v-116h-544c-16 0 -30 12 -34 18l-94 124c-12 14 -14 34 -14 42v120c0 20 10 36 14 42l95 122c12 14 27 16 35 16h346v166l-66 84h-331v118h350c16 0 31 -12 35 -18l95 -120c12 -14 14 -30 14 -40v-558zM202 1416
c10 12 23 16 36 16c12 0 24 -4 34 -16l202 -248c10 -12 14 -28 14 -42c0 -16 -4 -32 -14 -44s-22 -16 -35 -16c-12 0 -24 4 -34 16l-203 250c-10 12 -12 28 -12 42c0 16 2 32 12 42z" />
    <glyph glyph-name="egrave" unicode="&#xe8;" vert-adv-y="0" 
d="M188 462v-158l69 -90h427v-112h-446c-14 0 -28 10 -32 16l-101 120c-12 14 -12 32 -12 42v484c0 20 12 34 16 40l98 126c12 14 28 22 36 22h293c16 0 31 -16 35 -22l95 -124c12 -14 14 -30 14 -40v-304h-492zM190 586h397v156l-70 88h-256l-71 -90v-154zM201 1416
c10 12 23 16 36 16c12 0 24 -4 34 -16l202 -248c10 -12 13 -28 13 -42c0 -16 -3 -32 -13 -44s-23 -16 -36 -16c-12 0 -24 4 -34 16l-202 250c-10 12 -13 28 -13 42c0 16 3 32 13 42z" />
    <glyph glyph-name="igrave" unicode="&#xec;" vert-adv-y="0" 
d="M384 952h99v-854h-99v854zM209 1420c10 12 23 16 36 16c12 0 24 -4 34 -16l203 -248c10 -12 12 -28 12 -42c0 -16 -2 -32 -12 -44s-23 -16 -36 -16c-12 0 -25 4 -35 16l-202 250c-10 12 -13 28 -13 42c0 16 3 32 13 42z" />
    <glyph glyph-name="ograve" unicode="&#xf2;" vert-adv-y="0" 
d="M190 748v-444l69 -84h263l65 84v444l-64 88h-264zM109 814l98 126c12 14 26 14 32 14h305c16 0 30 -12 36 -20l90 -126c10 -12 14 -28 14 -38v-490c0 -20 -11 -36 -15 -42l-94 -118c-9 -13 -20 -14 -28 -14h-6h-302c-14 0 -26 8 -32 14l-100 116c-13 14 -14 32 -14 44
v494c0 20 12 34 16 40zM154 1416c10 12 23 16 36 16c12 0 23 -4 33 -16l203 -248c10 -12 13 -28 13 -42c0 -16 -3 -32 -13 -44s-22 -16 -35 -16c-12 0 -25 4 -35 16l-202 250c-10 12 -13 28 -13 42c0 16 3 32 13 42z" />
    <glyph glyph-name="ugrave" unicode="&#xf9;" vert-adv-y="0" 
d="M604 168l-39 -48c-4 -6 -18 -18 -34 -18h-294c-8 0 -21 2 -33 16l-95 116c-4 6 -15 22 -15 42v676h96v-652l66 -82h256l68 88v646h97v-670c0 -6 -3 -14 -7 -24l30 -40h79v-116h-99c-16 0 -30 8 -34 16zM199 1416c10 12 23 16 36 16c12 0 24 -4 34 -16l203 -248
c10 -12 12 -28 12 -42c0 -16 -2 -32 -12 -44s-23 -16 -36 -16c-12 0 -25 4 -35 16l-202 250c-10 12 -13 28 -13 42c0 16 3 32 13 42z" />
    <glyph glyph-name="atilde" unicode="&#xe3;" vert-adv-y="0" 
d="M583 216v252h-326l-69 -88v-74l68 -90h327zM680 216h99v-116h-544c-16 0 -30 12 -34 18l-94 124c-12 14 -14 34 -14 42v120c0 20 10 36 14 42l95 122c12 14 27 16 35 16h346v166l-66 84h-331v118h350c16 0 31 -12 35 -18l95 -120c12 -14 14 -30 14 -40v-558zM150 1254
l-34 42l97 120c3.13572 3.87925 6.70156 7.46923 11 10c4.11652 2.42366 8.53384 4.30492 13 6c1.75491 0.666057 3.54749 1.25018 5.39276 1.59414c1.84527 0.343957 3.73018 0.405858 5.60724 0.405858h105c4.41593 0 8.90011 -0.359471 13 -2
c4.30737 -1.72355 8.15683 -4.40113 12 -7c1.86701 -1.26253 3.71652 -2.56092 5.40902 -4.04925c1.69251 -1.48833 3.17519 -3.19711 4.59098 -4.95075l176 -218h65l78 96l35 -42l35 -42l-93 -114c-2.69001 -3.29743 -5.58407 -6.46216 -9 -9
c-3.96263 -2.94401 -8.37447 -5.27545 -13 -7c-3.82529 -1.4262 -7.91749 -2 -12 -2h-106c-1.87642 0 -3.76059 0.0681894 -5.60385 0.419395c-1.84326 0.351206 -3.63366 0.936754 -5.39615 1.5806c-4.49274 1.64122 -9.02337 3.34204 -13 6
c-3.93598 2.63079 -7.01589 6.32466 -10 10l-177 218h-65l-83 -102z" />
    <glyph glyph-name="otilde" unicode="&#xf5;" vert-adv-y="0" 
d="M190 748v-444l69 -84h263l65 84v444l-64 88h-264zM109 814l98 126c12 14 26 14 32 14h305c16 0 30 -12 36 -20l90 -126c10 -12 14 -28 14 -38v-490c0 -20 -11 -36 -15 -42l-94 -118c-9 -13 -20 -14 -28 -14h-6h-302c-14 0 -26 8 -32 14l-100 116c-13 14 -14 32 -14 44
v494c0 20 12 34 16 40zM89 1254l-34 42l97 120c10 12 22 18 34 18h106c13 0 28 -8 34 -18l176 -218h67l77 96l34 -42l35 -42l-93 -114c-6 -10 -21 -18 -34 -18h-106c-12 0 -23 6 -33 18l-177 218h-66l-83 -102z" />
    <glyph glyph-name="ydiaeresis" vert-adv-y="0" 
d="M356 156l-261 326c-10 12 -14 26 -14 42v428h97v-404l248 -306l147 182v528h97v-552c0 -16 -4 -30 -14 -42l-498 -614l-67 84zM162 1196h102v-122h-102v122zM460 1196h101v-122h-101v122z" />
    <glyph glyph-name="Yacute" unicode="&#xdd;" vert-adv-y="0" 
d="M482 742v-642h-98v642l-272 348c-10 12 -15 26 -15 42v62h97v-38l242 -304l238 304v38h97v-58c0 -16 -3 -32 -13 -44zM391 1238c-10 12 -15 28 -15 42c0 18 7 34 15 44l194 242c10 12 22 18 34 18c14 0 27 -8 35 -18s15 -26 15 -44c0 -14 -5 -30 -15 -42l-194 -242
c-8 -10 -21 -18 -35 -18c-12 0 -24 6 -34 18z" />
    <glyph glyph-name="yacute" unicode="&#xfd;" vert-adv-y="0" 
d="M368 156l-261 326c-10 12 -14 26 -14 42v428h97v-404l247 -306l148 182v528h97v-552c0 -16 -4 -30 -14 -42l-498 -614l-68 84zM338 1092c-10 12 -14 28 -14 42c0 18 6 34 14 44l195 242c10 12 22 18 34 18c14 0 28 -8 36 -18s14 -26 14 -44c0 -14 -4 -30 -14 -42
l-194 -242c-8 -10 -22 -18 -36 -18c-12 0 -25 6 -35 18z" />
    <glyph glyph-name="eacute" unicode="&#xe9;" vert-adv-y="0" 
d="M188 462v-158l69 -90h427v-112h-446c-14 0 -28 10 -32 16l-101 120c-12 14 -12 32 -12 42v484c0 20 12 34 16 40l98 126c12 14 28 22 36 22h293c16 0 31 -16 35 -22l95 -124c12 -14 14 -30 14 -40v-304h-492zM190 586h397v156l-70 88h-256l-71 -90v-154zM403 1092
c-10 12 -14 28 -14 42c0 18 6 34 14 44l195 242c10 12 22 18 34 18c14 0 28 -8 36 -18s14 -26 14 -44c0 -14 -4 -30 -14 -42l-195 -242c-8 -10 -22 -18 -36 -18c-12 0 -24 6 -34 18z" />
    <glyph glyph-name="onequarter" unicode="&#xbc;" vert-adv-y="0" 
d="M336 828h-99v360l-14 -16l-67 84l97 118c4 6 14 18 34 18c18 0 49 -18 49 -60v-504zM687 1120c10 12 23 18 36 18s25 -6 35 -18s15 -28 15 -44s-5 -32 -13 -44l-584 -732c-10 -12 -21 -18 -34 -18s-25 6 -35 18s-14 28 -14 44s4 32 12 44zM828 346v-120h-49v-126h-97v126
h-147c-36 0 -47 40 -47 62v56v58c0 18 10 34 14 40l148 184c10 14 26 20 32 20h52c32 0 47 -36 47 -58v-242h47zM682 346v152l-97 -124v-28h97z" />
    <glyph glyph-name="onehalf" unicode="&#xbd;" vert-adv-y="0" 
d="M830 222v-120h-297v118c0 20 9 36 13 42l185 224v20l-18 22h-65l-32 -42l-72 80l47 62c6 10 20 18 36 18h108c8 0 23 -4 35 -18l44 -58c6 -8 12 -24 12 -42v-66c0 -10 0 -28 -12 -42l-162 -198h178zM687 1120c10 12 23 18 36 18s25 -6 35 -18s15 -28 15 -44
s-5 -32 -13 -44l-584 -732c-10 -12 -21 -18 -34 -18s-25 6 -35 18s-14 28 -14 44s4 32 12 44zM336 828h-99v360l-14 -16l-67 84l97 118c4 6 14 18 34 18c18 0 49 -18 49 -60v-504z" />
    <glyph glyph-name="threequarters" unicode="&#xbe;" vert-adv-y="0" 
d="M117 1202v110h286v-92l-75 -102l61 -76c6 -10 11 -24 11 -36v-104c0 -14 -3 -26 -9 -36l-53 -76c-8 -12 -21 -20 -34 -20h-129c-12 0 -21 6 -29 14l-55 60l58 82l42 -46h93l27 40l-1 62l-25 34h-89v88l75 98h-154zM687 1120c10 12 23 18 36 18s25 -6 35 -18
s15 -28 15 -44s-5 -32 -13 -44l-584 -732c-10 -12 -21 -18 -34 -18s-25 6 -35 18s-14 28 -14 44s4 32 12 44zM828 346v-120h-49v-126h-97v126h-147c-36 0 -47 40 -47 62v56v58c0 18 10 34 14 40l148 184c10 14 26 20 32 20h52c32 0 47 -36 47 -58v-242h47zM682 346v152
l-97 -124v-28h97z" />
    <glyph glyph-name="udieresis" unicode="&#xfc;" vert-adv-y="0" 
d="M604 168l-39 -48c-4 -6 -18 -18 -34 -18h-294c-8 0 -21 2 -33 16l-95 116c-4 6 -15 22 -15 42v676h96v-652l66 -82h256l68 88v646h97v-670c0 -6 -3 -14 -7 -24l30 -40h79v-116h-99c-16 0 -30 8 -34 16zM220 1196h102v-122h-102v122zM518 1196h101v-122h-101v122z" />
    <glyph glyph-name="ccedilla" unicode="&#xe7;" vert-adv-y="0" 
d="M684 950v-118h-329l-167 -208v-198l172 -208h324v-116h-122v-321c0 -16 -7 -33 -15 -42l-90 -112c-9 -12 -23 -18 -34 -18h-148v120h127l63 77v296h-125c-6 0 -22 2 -34 16l-199 242c-4 6 -14 22 -14 42v246c0 10 2 28 14 42l195 242c4 6 16 18 32 18h350z" />
    <glyph glyph-name="adieresis" unicode="&#xe4;" vert-adv-y="0" 
d="M583 216v252h-326l-69 -88v-74l68 -90h327zM680 216h99v-116h-544c-16 0 -30 12 -34 18l-94 124c-12 14 -14 34 -14 42v120c0 20 10 36 14 42l95 122c12 14 27 16 35 16h346v166l-66 84h-331v118h350c16 0 31 -12 35 -18l95 -120c12 -14 14 -30 14 -40v-558zM170 1320
h102v-122h-102v122zM468 1320h101v-122h-101v122z" />
    <glyph glyph-name="edieresis" unicode="&#xeb;" vert-adv-y="0" 
d="M188 462v-158l69 -90h427v-112h-446c-14 0 -28 10 -32 16l-101 120c-12 14 -12 32 -12 42v484c0 20 12 34 16 40l98 126c12 14 28 22 36 22h293c16 0 31 -16 35 -22l95 -124c12 -14 14 -30 14 -40v-304h-492zM190 586h397v156l-70 88h-256l-71 -90v-154zM170 1316h102
v-122h-102v122zM468 1316h101v-122h-101v122z" />
    <glyph glyph-name="idieresis" unicode="&#xef;" vert-adv-y="0" 
d="M384 952h98v-854h-98v854zM526 1314h101v-122h-101v122zM229 1314h101v-122h-101v122z" />
    <glyph glyph-name="odieresis" unicode="&#xf6;" vert-adv-y="0" 
d="M190 748v-444l69 -84h263l65 84v444l-64 88h-264zM109 814l98 126c12 14 26 14 32 14h305c16 0 30 -12 36 -20l90 -126c10 -12 14 -28 14 -38v-490c0 -20 -11 -36 -15 -42l-94 -118c-9 -13 -20 -14 -28 -14h-6h-302c-14 0 -26 8 -32 14l-100 116c-13 14 -14 32 -14 44
v494c0 20 12 34 16 40zM168 1316h103v-122h-103v122zM466 1316h101v-122h-101v122z" />
    <glyph glyph-name="uni03BC" unicode="&#x3bc;" vert-adv-y="0" 
d="M91 952h92v-652l70 -82h261l67 88v646h98v-670c0 -6 -3 -14 -7 -24l29 -40h80v-116h-99c-16 0 -30 8 -34 16l-42 50l-39 -48c-4 -6 -18 -18 -34 -18h-300c-8 0 -20 2 -32 16l-15 18v-404h-95v1220z" />
    <glyph glyph-name="acircumflex" unicode="&#xe2;" vert-adv-y="0" 
d="M583 216v252h-326l-69 -88v-74l68 -90h327zM680 216h99v-116h-544c-16 0 -30 12 -34 18l-94 124c-12 14 -14 34 -14 42v120c0 20 10 36 14 42l95 122c12 14 27 16 35 16h346v166l-66 84h-331v118h350c16 0 31 -12 35 -18l95 -120c12 -14 14 -30 14 -40v-558zM196 1092
l-34 42l222 274c10 12 21 16 33 16c14 0 27 -6 35 -16l222 -274l-34 -42l-34 -42l-188 232l-188 -232z" />
    <glyph glyph-name="ecircumflex" unicode="&#xea;" vert-adv-y="0" 
d="M188 462v-158l69 -90h427v-112h-446c-14 0 -28 10 -32 16l-101 120c-12 14 -12 32 -12 42v484c0 20 12 34 16 40l98 126c12 14 28 22 36 22h293c16 0 31 -16 35 -22l95 -124c12 -14 14 -30 14 -40v-304h-492zM190 586h397v156l-70 88h-256l-71 -90v-154zM178 1092l-34 42
l222 274c10 12 21 16 33 16c14 0 27 -6 35 -16l222 -274l-34 -42l-34 -42l-188 232l-188 -232z" />
    <glyph glyph-name="icircumflex" unicode="&#xee;" vert-adv-y="0" 
d="M384 952h98v-854h-98v854zM215 1024l-33 42l221 274c10 12 21 16 33 16c14 0 28 -6 36 -16l221 -274l-33 -42l-34 -42l-189 232l-188 -232z" />
    <glyph glyph-name="ocircumflex" unicode="&#xf4;" vert-adv-y="0" 
d="M190 748v-444l69 -84h263l65 84v444l-64 88h-264zM109 814l98 126c12 14 26 14 32 14h305c16 0 30 -12 36 -20l90 -126c10 -12 14 -28 14 -38v-490c0 -20 -11 -36 -15 -42l-94 -118c-9 -13 -20 -14 -28 -14h-6h-302c-14 0 -26 8 -32 14l-100 116c-13 14 -14 32 -14 44
v494c0 20 12 34 16 40zM158 1092l-33 42l221 274c10 12 21 16 33 16c14 0 28 -6 36 -16l221 -274l-33 -42l-34 -42l-188 232l-188 -232z" />
    <glyph glyph-name="ucircumflex" unicode="&#xfb;" vert-adv-y="0" 
d="M604 168l-39 -48c-4 -6 -18 -18 -34 -18h-294c-8 0 -21 2 -33 16l-95 116c-4 6 -15 22 -15 42v676h96v-652l66 -82h256l68 88v646h97v-670c0 -6 -3 -14 -7 -24l30 -40h79v-116h-99c-16 0 -30 8 -34 16zM202 1092l-34 42l223 274c10 12 20 16 32 16c14 0 27 -6 35 -16
l222 -274l-34 -42l-34 -42l-187 232l-188 -232z" />
    <glyph glyph-name="aacute" unicode="&#xe1;" vert-adv-y="0" 
d="M583 216v252h-326l-69 -88v-74l68 -90h327zM680 216h99v-116h-544c-16 0 -30 12 -34 18l-94 124c-12 14 -14 34 -14 42v120c0 20 10 36 14 42l95 122c12 14 27 16 35 16h346v166l-66 84h-331v118h350c16 0 31 -12 35 -18l95 -120c12 -14 14 -30 14 -40v-558zM384 1092
c-10 12 -15 28 -15 42c0 18 7 34 15 44l195 242c10 12 21 18 33 18c14 0 28 -8 36 -18s14 -26 14 -44c0 -14 -4 -30 -14 -42l-194 -242c-8 -10 -22 -18 -36 -18c-12 0 -24 6 -34 18z" />
    <glyph glyph-name="multiply" unicode="&#xd7;" vert-adv-y="0" 
d="M154 906l69 86l210 -260l211 260l69 -86l-211 -260l211 -260l-69 -84l-211 258l-210 -258l-69 84l210 260z" />
    <glyph glyph-name="iacute" unicode="&#xed;" vert-adv-y="0" 
d="M381 952h101v-854h-101v854zM395 1090c-10 12 -14 28 -14 42c0 18 6 34 14 44l195 242c10 12 22 18 34 18c14 0 28 -8 36 -18s14 -26 14 -44c0 -14 -4 -30 -14 -42l-195 -242c-8 -10 -22 -18 -36 -18c-12 0 -24 6 -34 18z" />
    <glyph glyph-name="oacute" unicode="&#xf3;" vert-adv-y="0" 
d="M190 748v-444l69 -84h263l65 84v444l-64 88h-264zM109 814l98 126c12 14 26 14 32 14h305c16 0 30 -12 36 -20l90 -126c10 -12 14 -28 14 -38v-490c0 -20 -11 -36 -15 -42l-94 -118c-9 -13 -20 -14 -28 -14h-6h-302c-14 0 -26 8 -32 14l-100 116c-13 14 -14 32 -14 44
v494c0 20 12 34 16 40zM342 1092c-10 12 -14 28 -14 42c0 18 6 34 14 44l194 242c10 12 23 18 35 18c14 0 27 -8 35 -18s14 -26 14 -44c0 -14 -4 -30 -14 -42l-195 -242c-8 -10 -21 -18 -35 -18c-12 0 -24 6 -34 18z" />
    <glyph glyph-name="uacute" unicode="&#xfa;" vert-adv-y="0" 
d="M604 168l-39 -48c-4 -6 -18 -18 -34 -18h-294c-8 0 -21 2 -33 16l-95 116c-4 6 -15 22 -15 42v676h96v-652l66 -82h256l68 88v646h97v-670c0 -6 -3 -14 -7 -24l30 -40h79v-116h-99c-16 0 -30 8 -34 16zM385 1092c-10 12 -14 28 -14 42c0 18 6 34 14 44l195 242
c10 12 22 18 34 18c14 0 28 -8 36 -18s14 -26 14 -44c0 -14 -4 -30 -14 -42l-195 -242c-8 -10 -22 -18 -36 -18c-12 0 -24 6 -34 18z" />
    <glyph glyph-name="ntilde" unicode="&#xf1;" vert-adv-y="0" 
d="M267 884l39 48c4 6 18 18 34 18h201c8 0 20 -2 32 -16l96 -116c4 -6 15 -22 15 -42v-674h-93v650l-69 78h-162l-68 -84v-646h-98v670c0 6 3 14 7 24l-29 40h-79v118h101c16 0 27 -10 31 -18zM138 1254l-34 42l97 120c10 12 22 18 34 18h105c13 0 28 -8 34 -18l177 -218
h66l78 96l34 -42l34 -42l-93 -114c-6 -10 -21 -18 -34 -18h-105c-12 0 -23 6 -33 18l-178 218h-65l-83 -102z" />
    <glyph glyph-name="Agrave" unicode="&#xc0;" vert-adv-y="0" 
d="M193 488v-390h-96v676c0 18 11 34 15 40l287 362c10 14 22 18 32 18c16 0 29 -8 37 -18l290 -364c12 -14 13 -32 13 -42v-672h-97v390h-481zM194 600h480v146l-241 300l-239 -298v-148zM107 1566c10 12 22 16 35 16c12 0 24 -4 34 -16l203 -248c10 -12 13 -28 13 -42
c0 -16 -3 -32 -13 -44s-22 -16 -35 -16c-12 0 -24 4 -34 16l-203 250c-10 12 -13 28 -13 42c0 16 3 32 13 42z" />
    <glyph glyph-name="Egrave" unicode="&#xc8;" vert-adv-y="0" 
d="M97 1196h674v-122h-578v-362h386v-122h-386v-372h578v-120h-674v1098zM214 1570c10 12 22 16 35 16c12 0 25 -4 35 -16l202 -248c10 -12 13 -28 13 -42c0 -16 -3 -32 -13 -44s-23 -16 -36 -16c-12 0 -23 4 -33 16l-203 250c-10 12 -13 28 -13 42c0 16 3 32 13 42z" />
    <glyph glyph-name="Igrave" unicode="&#xcc;" vert-adv-y="0" 
d="M290 1194h289v-120h-97v-856h97v-122h-289v122h95v856h-95v120zM202 1570c10 12 23 16 36 16c12 0 24 -4 34 -16l202 -248c10 -12 14 -28 14 -42c0 -16 -4 -32 -14 -44s-22 -16 -35 -16c-12 0 -24 4 -34 16l-203 250c-10 12 -12 28 -12 42c0 16 2 32 12 42z" />
    <glyph glyph-name="Ograve" unicode="&#xd2;" vert-adv-y="0" 
d="M198 988v-688l63 -80h343l70 86v680l-70 90h-341zM113 1052l93 124c12 16 25 18 35 18h385c16 0 31 -10 35 -18l97 -124c12 -14 13 -32 13 -42v-730c0 -20 -8 -36 -14 -42l-99 -120c-12 -14 -26 -18 -34 -18h-383c-16 0 -30 10 -34 16l-95 114c-12 14 -15 34 -15 44v738
c0 18 10 32 16 40zM201 1568c10 12 23 16 36 16c12 0 24 -4 34 -16l202 -248c10 -12 13 -28 13 -42c0 -16 -3 -32 -13 -44s-23 -16 -36 -16c-12 0 -24 4 -34 16l-202 250c-10 12 -13 28 -13 42c0 16 3 32 13 42z" />
    <glyph glyph-name="Ugrave" unicode="&#xd9;" vert-adv-y="0" 
d="M97 1194h94v-890l70 -84h347l66 86v888h97v-912c0 -8 -1 -26 -13 -40l-94 -122c-6 -8 -20 -20 -36 -20h-389c-8 0 -21 4 -33 18l-96 118c-4 6 -13 22 -13 42v916zM191 1566c10 12 23 16 36 16c12 0 24 -4 34 -16l203 -248c10 -12 12 -28 12 -42c0 -16 -2 -32 -12 -44
s-23 -16 -36 -16c-12 0 -25 4 -35 16l-202 250c-10 12 -13 28 -13 42c0 16 3 32 13 42z" />
    <glyph glyph-name="Atilde" unicode="&#xc3;" vert-adv-y="0" 
d="M193 488v-390h-96v676c0 18 11 34 15 40l287 362c10 14 22 18 32 18c16 0 29 -8 37 -18l290 -364c12 -14 13 -32 13 -42v-672h-97v390h-481zM194 600h480v146l-241 300l-239 -298v-148zM133 1414l-34 42l97 120c10 12 22 18 34 18h106c13 0 27 -8 33 -18l177 -218h66
l78 96l34 -42l34 -42l-92 -114c-6 -10 -21 -18 -34 -18h-106c-12 0 -24 6 -34 18l-176 218h-67l-83 -102z" />
    <glyph glyph-name="Otilde" unicode="&#xd5;" vert-adv-y="0" 
d="M198 988v-688l63 -80h343l70 86v680l-70 90h-341zM113 1052l93 124c12 16 25 18 35 18h385c16 0 31 -10 35 -18l97 -124c12 -14 13 -32 13 -42v-730c0 -20 -8 -36 -14 -42l-99 -120c-12 -14 -26 -18 -34 -18h-383c-16 0 -30 10 -34 16l-95 114c-12 14 -15 34 -15 44v738
c0 18 10 32 16 40zM140 1414l-34 42l97 120c10 12 23 18 35 18h105c13 0 27 -8 33 -18l178 -218h65l79 96l34 -42l33 -42l-92 -114c-6 -10 -21 -18 -34 -18h-105c-12 0 -24 6 -34 18l-177 218h-67l-81 -102z" />
    <glyph glyph-name="uni00B9" unicode="&#xb9;" vert-adv-y="0" 
d="M322 1038l-67 84l146 180c10 12 23 16 35 16c14 0 28 -6 34 -16c14 -16 14 -34 14 -42v-734h-99v590z" />
    <glyph glyph-name="uni00B2" unicode="&#xb2;" vert-adv-y="0" 
d="M642 648v-122h-387v70v52c0.528591 4.64953 0.733059 9.32814 1 14c0.27428 4.8003 0.880604 9.68418 3 14c1.79735 3.66003 4.45502 6.8142 7 10l278 348v84l-68 84h-65l-71 -88v-36h-87v58c0 2.03631 0.111675 4.07899 0.518256 6.07429
c0.406582 1.9953 1.02071 3.94228 1.48174 5.92571c0.534296 2.29861 0.812368 4.64831 1.01021 6.9999c0.197845 2.35159 0.389184 4.71792 0.989787 7.0001c0.594076 2.25739 1.59425 4.39619 2.84462 6.3673c1.25037 1.97112 2.7119 3.79828 4.15538 5.6327l96 122
c2.77799 3.53036 5.59222 7.07294 9 10c2.96375 2.54566 6.34764 4.61275 10 6c4.12555 1.56697 8.58689 2 13 2h102c1.71496 0 3.43855 -0.060372 5.11912 -0.402124c1.68057 -0.341752 3.30399 -0.923695 4.88088 -1.59788c3.84632 -1.64445 7.58077 -3.59018 11 -6
c3.86796 -2.72608 7.03247 -6.31402 10 -10l95 -118c2.67749 -3.32572 5.53839 -6.51147 8 -10c2.95023 -4.181 5.00506 -8.98057 6 -14c0.911283 -4.59737 1 -9.31318 1 -14v-128c0 -0.423208 0.000688789 -0.847086 0.000688789 -1.27133
c0 -3.6129 -0.0499539 -7.25224 -1.00069 -10.7287c-0.67052 -2.4518 -1.76517 -4.76343 -2.89507 -7.04033c-1.1299 -2.27689 -2.22645 -4.57447 -3.10493 -6.95967c-0.778635 -2.11409 -1.42482 -4.28103 -2.35702 -6.33204
c-0.932201 -2.05102 -2.23493 -3.90924 -3.64298 -5.66796l-261 -326h281z" />
    <glyph glyph-name="uni00B3" unicode="&#xb3;" vert-adv-y="0" 
d="M237 1196v122h348c32 0 47 -34 47 -56v-4c0 -1.33333 0.888889 -0.888889 0.888889 -1.03704c0 -0.0740741 -0.222222 -0.296296 -0.888889 -0.962963v-60c0 -18 -11 -32 -15 -40l-117 -148c10 -4 16 -10 18 -12l99 -122c10 -12 13 -28 13 -39v-5v-122
c0 -20 -10 -36 -14 -42l-96 -120c-9 -13 -21 -17 -30 -17c-3 0 -4 1 -6 1h-148c-14 0 -27 8 -33 16l-50 56l65 88l37 -42h110l68 84v74l-69 86h-75h-4c-5 0 -20 1 -32 14c-8 10 -15 26 -15 46c0 12 4 26 14 40l163 204h-278z" />
    <glyph glyph-name="ordfeminine" unicode="&#xaa;" vert-adv-y="0" 
d="M583 458v254h-326l-67 -88v-74l70 -92h323zM680 458h99v-116h-542c-16 0 -31 18 -35 24l-95 120c-12 14 -13 34 -13 42v120c0 20 9 34 13 40l97 124c12 14 26 16 34 16h345v162l-66 84h-329v120h350c16 0 29 -14 33 -20l97 -120c12 -14 12 -30 12 -40v-556zM87 218h692
v-120h-692v120z" />
    <glyph glyph-name="masculine" vert-adv-y="0" 
d="M184 990v-444l71 -84h260l65 84v444l-63 88h-262zM104 1056l98 122c12 14 27 16 33 16h303c16 0 29 -10 35 -18l91 -126c10 -12 13 -28 13 -38v-490c0 -20 -11 -36 -15 -42l-93 -118c-9 -13 -21 -14 -29 -14h-5h-300c-14 0 -27 8 -33 14l-100 116c-13 14 -15 32 -15 44
v494c0 20 13 34 17 40zM87 218h597v-120h-597v120z" />
    <glyph glyph-name="guillemotleft" unicode="&#xab;" vert-adv-y="0" 
d="M400 1122l70 -84l-310 -388l310 -384l-70 -84l-342 426c-8 10 -14 26 -14 44c0 12 4 28 14 40zM697 1120l69 -84l-309 -388l309 -384l-69 -84l-342 426c-8 10 -13 26 -13 42c0 14 3 28 13 42z" />
    <glyph glyph-name="guillemotright" unicode="&#xbb;" vert-adv-y="0" 
d="M464 1122l342 -430c10 -14 12 -28 12 -42c0 -16 -4 -32 -12 -42l-342 -426l-71 84l308 384l-308 388zM166 1120l342 -430c10 -12 14 -26 14 -40c0 -18 -8 -34 -14 -44l-342 -426l-69 84l308 384l-308 388z" />
    <glyph glyph-name="exclamdown" unicode="&#xa1;" vert-adv-y="0" 
d="M384 1318h98v-122h-98v122zM384 952h98v-854h-98v854z" />
    <glyph glyph-name="questiondown" unicode="&#xbf;" vert-adv-y="0" 
d="M587 1202h-105v122h105v-122zM778 472v-214c0 -2 -2 -4 -2 -6c-4 -9 -6 -17 -11 -24l-77 -108c-6 -8 -14 -21 -27 -21l-9 1h-326c-4 0 -4 -1 -7 -1c-10 0 -22 10 -27 17l-90 102c-6 8 -17 20 -17 36c0 4 1 8 1 12v156c0 16 13 35 20 44l276 314v180h98v-218
c0 -2 -1 -6 -1 -8c-4 -12 -9 -19 -16 -28l-273 -314v-102l56 -66h281l52 64v184h99z" />
    <glyph glyph-name="Adieresis" unicode="&#xc4;" vert-adv-y="0" 
d="M193 488v-390h-96v676c0 18 11 34 15 40l287 362c10 14 22 18 32 18c16 0 29 -8 37 -18l290 -364c12 -14 13 -32 13 -42v-672h-97v390h-481zM194 600h480v146l-241 300l-239 -298v-148zM220 1438h102v-122h-102v122zM518 1438h101v-122h-101v122z" />
    <glyph glyph-name="Edieresis" unicode="&#xcb;" vert-adv-y="0" 
d="M97 1196h674v-122h-578v-362h386v-122h-386v-372h578v-120h-674v1098zM222 1438h102v-122h-102v122zM520 1438h100v-122h-100v122z" />
    <glyph glyph-name="Idieresis" unicode="&#xcf;" vert-adv-y="0" 
d="M290 1194h289v-120h-97v-856h97v-122h-289v122h95v856h-95v120zM227 1432h102v-122h-102v122zM525 1432h101v-122h-101v122z" />
    <glyph glyph-name="Odieresis" unicode="&#xd6;" vert-adv-y="0" 
d="M198 988v-688l63 -80h343l70 86v680l-70 90h-341zM113 1052l93 124c12 16 25 18 35 18h385c16 0 31 -10 35 -18l97 -124c12 -14 13 -32 13 -42v-730c0 -20 -8 -36 -14 -42l-99 -120c-12 -14 -26 -18 -34 -18h-383c-16 0 -30 10 -34 16l-95 114c-12 14 -15 34 -15 44v738
c0 18 10 32 16 40zM247 1438h101v-122h-101v122zM544 1438h100v-122h-100v122z" />
    <glyph glyph-name="Udieresis" unicode="&#xdc;" vert-adv-y="0" 
d="M97 1194h94v-890l70 -84h347l66 86v888h97v-912c0 -8 -1 -26 -13 -40l-94 -122c-6 -8 -20 -20 -36 -20h-389c-8 0 -21 4 -33 18l-96 118c-4 6 -13 22 -13 42v916zM217 1444h103v-122h-103v122zM515 1444h101v-122h-101v122z" />
    <glyph glyph-name="Acircumflex" unicode="&#xc2;" vert-adv-y="0" 
d="M193 488v-390h-96v676c0 18 11 34 15 40l287 362c10 14 22 18 32 18c16 0 29 -8 37 -18l290 -364c12 -14 13 -32 13 -42v-672h-97v390h-481zM194 600h480v146l-241 300l-239 -298v-148zM202 1268l-34 42l223 274c10 12 20 16 32 16c14 0 27 -6 35 -16l222 -274l-34 -42
l-34 -42l-187 232l-188 -232z" />
    <glyph glyph-name="Ecircumflex" unicode="&#xca;" vert-adv-y="0" 
d="M97 1196h674v-122h-578v-362h386v-122h-386v-372h578v-120h-674v1098zM207 1270l-33 42l221 274c10 12 21 16 33 16c14 0 28 -6 36 -16l221 -274l-33 -42l-35 -42l-188 232l-188 -232z" />
    <glyph glyph-name="Icircumflex" unicode="&#xce;" vert-adv-y="0" 
d="M290 1194h289v-120h-97v-856h97v-122h-289v122h95v856h-95v120zM217 1268l-34 42l222 274c10 12 20 16 32 16c14 0 28 -6 36 -16l222 -274l-34 -42l-34 -42l-188 232l-188 -232z" />
    <glyph glyph-name="Ocircumflex" unicode="&#xd4;" vert-adv-y="0" 
d="M198 988v-688l63 -80h343l70 86v680l-70 90h-341zM113 1052l93 124c12 16 25 18 35 18h385c16 0 31 -10 35 -18l97 -124c12 -14 13 -32 13 -42v-730c0 -20 -8 -36 -14 -42l-99 -120c-12 -14 -26 -18 -34 -18h-383c-16 0 -30 10 -34 16l-95 114c-12 14 -15 34 -15 44v738
c0 18 10 32 16 40zM217 1268l-34 42l222 274c10 12 20 16 32 16c14 0 28 -6 36 -16l222 -274l-34 -42l-34 -42l-188 232l-188 -232z" />
    <glyph glyph-name="Ucircumflex" unicode="&#xdb;" vert-adv-y="0" 
d="M97 1194h94v-890l70 -84h347l66 86v888h97v-912c0 -8 -1 -26 -13 -40l-94 -122c-6 -8 -20 -20 -36 -20h-389c-8 0 -21 4 -33 18l-96 118c-4 6 -13 22 -13 42v916zM199 1268l-33 42l221 274c10 12 20 16 32 16c14 0 28 -6 36 -16l222 -274l-33 -42l-35 -42l-188 232
l-188 -232z" />
    <glyph glyph-name="Aacute" unicode="&#xc1;" vert-adv-y="0" 
d="M193 488v-390h-96v676c0 18 11 34 15 40l287 362c10 14 22 18 32 18c16 0 29 -8 37 -18l290 -364c12 -14 13 -32 13 -42v-672h-97v390h-481zM194 600h480v146l-241 300l-239 -298v-148zM490 1242c-10 12 -14 28 -14 42c0 18 6 34 14 44l195 242c10 12 22 18 34 18
c14 0 28 -8 36 -18s15 -26 15 -44c0 -14 -5 -30 -15 -42l-194 -242c-8 -10 -22 -18 -36 -18c-12 0 -25 6 -35 18z" />
    <glyph glyph-name="Eacute" unicode="&#xc9;" vert-adv-y="0" 
d="M97 1196h674v-122h-578v-362h386v-122h-386v-372h578v-120h-674v1098zM381 1242c-10 12 -15 28 -15 42c0 18 7 34 15 44l194 242c10 12 22 18 34 18c14 0 27 -8 35 -18s16 -26 16 -44c0 -14 -6 -30 -16 -42l-194 -242c-8 -10 -21 -18 -35 -18c-12 0 -24 6 -34 18z" />
    <glyph glyph-name="Iacute" unicode="&#xcd;" vert-adv-y="0" 
d="M290 1194h289v-120h-97v-856h97v-122h-289v122h95v856h-95v120zM400 1240c-10 12 -15 28 -15 42c0 18 7 34 15 44l195 242c10 12 21 18 33 18c14 0 28 -8 36 -18s15 -26 15 -44c0 -14 -5 -30 -15 -42l-194 -242c-8 -10 -22 -18 -36 -18c-12 0 -24 6 -34 18z" />
    <glyph glyph-name="Oacute" unicode="&#xd3;" vert-adv-y="0" 
d="M198 988v-688l63 -80h343l70 86v680l-70 90h-341zM113 1052l93 124c12 16 25 18 35 18h385c16 0 31 -10 35 -18l97 -124c12 -14 13 -32 13 -42v-730c0 -20 -8 -36 -14 -42l-99 -120c-12 -14 -26 -18 -34 -18h-383c-16 0 -30 10 -34 16l-95 114c-12 14 -15 34 -15 44v738
c0 18 10 32 16 40zM415 1240c-10 12 -15 28 -15 42c0 18 7 34 15 44l194 242c10 12 23 18 35 18c14 0 27 -8 35 -18s14 -26 14 -44c0 -14 -4 -30 -14 -42l-195 -242c-8 -10 -21 -18 -35 -18c-12 0 -24 6 -34 18z" />
    <glyph glyph-name="Uacute" unicode="&#xda;" vert-adv-y="0" 
d="M97 1194h94v-890l70 -84h347l66 86v888h97v-912c0 -8 -1 -26 -13 -40l-94 -122c-6 -8 -20 -20 -36 -20h-389c-8 0 -21 4 -33 18l-96 118c-4 6 -13 22 -13 42v916zM392 1238c-10 12 -15 28 -15 42c0 18 7 34 15 44l195 242c10 12 21 18 33 18c14 0 28 -8 36 -18
s14 -26 14 -44c0 -14 -4 -30 -14 -42l-194 -242c-8 -10 -22 -18 -36 -18c-12 0 -24 6 -34 18z" />
    <glyph glyph-name="Ntilde" unicode="&#xd1;" vert-adv-y="0" 
d="M97 100v1094h96l483 -610v610h95v-1094h-95v300l-483 616v-916h-96zM136 1412l-34 42l97 120c10 12 22 18 34 18h105c13 0 29 -8 35 -18l176 -218h67l77 96l34 -42l34 -42l-92 -114c-6 -10 -21 -18 -34 -18h-105c-12 0 -24 6 -34 18l-176 218h-67l-83 -102z" />
    <glyph glyph-name="a" unicode="a" vert-adv-y="0" 
d="M583 216v252h-326l-69 -88v-74l68 -90h327zM680 216h99v-116h-544c-16 0 -30 12 -34 18l-94 124c-12 14 -14 34 -14 42v120c0 20 10 36 14 42l95 122c12 14 27 16 35 16h346v166l-66 84h-331v118h350c16 0 31 -12 35 -18l95 -120c12 -14 14 -30 14 -40v-558z" />
    <glyph glyph-name="b" unicode="b" vert-adv-y="0" 
d="M93 104v1214h97v-368h252c16 0 30 -12 34 -18l193 -242c12 -14 15 -32 15 -42v-246c0 -20 -11 -36 -15 -42l-199 -242c-12 -14 -28 -14 -34 -14h-343zM190 218h227l171 208v198l-165 208h-233v-614z" />
    <glyph glyph-name="c" unicode="c" vert-adv-y="0" 
d="M684 950v-118h-329l-167 -208v-198l172 -208h324v-116h-344c-6 0 -22 2 -34 16l-199 242c-4 6 -14 22 -14 42v246c0 10 2 28 14 42l195 242c4 6 16 18 32 18h350z" />
    <glyph glyph-name="d" unicode="d" vert-adv-y="0" 
d="M684 102h-344c-6 0 -22 2 -34 16l-199 242c-4 6 -14 22 -14 42v246c0 10 2 28 14 42l195 242c4 6 16 18 32 18h253v368h97v-1216zM587 218v614h-232l-167 -208v-198l172 -208h227z" />
    <glyph glyph-name="e" unicode="e" vert-adv-y="0" 
d="M188 462v-158l69 -90h427v-112h-446c-14 0 -28 10 -32 16l-101 120c-12 14 -12 32 -12 42v484c0 20 12 34 16 40l98 126c12 14 28 22 36 22h293c16 0 31 -16 35 -22l95 -124c12 -14 14 -30 14 -40v-304h-492zM190 586h397v156l-70 88h-256l-71 -90v-154z" />
    <glyph glyph-name="f" unicode="f" vert-adv-y="0" 
d="M455 1198l-64 -82v-164h196v-122h-198v-732h-96v732h-200v122h200v188c0 16 3 30 13 42l93 118c10 12 21 18 35 18h250v-120h-229z" />
    <glyph glyph-name="g" unicode="g" vert-adv-y="0" 
d="M632 380l-112 -138c-6 -10 -21 -18 -34 -18h-154c-12 0 -24 6 -34 18l-191 236c-8 8 -14 26 -14 42v134c0 14 4 30 14 42l196 244c6 10 21 16 34 16h244c12 0 25 -4 35 -16l99 -124c8 -8 14 -26 14 -42v-742c0 -14 -4 -30 -14 -42l-91 -112c-6 -10 -21 -18 -34 -18h-262
c-12 0 -23 6 -33 18l-94 116l68 84l79 -98h223l61 76v324zM632 548v202l-70 86h-206l-166 -206v-86l162 -200h114z" />
    <glyph glyph-name="h" unicode="h" vert-adv-y="0" 
d="M93 96v1236h97v-536l116 144c10 10 21 10 34 10h193c13 0 24 -6 34 -16l102 -120c10 -12 15 -26 15 -44v-674h-97v648l-73 88h-154l-170 -202v-534h-97z" />
    <glyph glyph-name="i" unicode="i" vert-adv-y="0" 
d="M384 1318h98v-122h-98v122zM384 952h98v-854h-98v854z" />
    <glyph glyph-name="j" unicode="j" vert-adv-y="0" 
d="M682 34c0 -16 -6 -30 -16 -42l-97 -122c-10 -12 -20 -16 -34 -16h-201c-13 0 -24 6 -34 18l-98 122l69 84l84 -106h160l68 86v894h99v-918zM583 1318h101v-122h-101v122z" />
    <glyph glyph-name="k" unicode="k" vert-adv-y="0" 
d="M410 524l269 -342l-70 -84l-287 368h-129v-368h-100v1220h100v-732h131l292 366l68 -84z" />
    <glyph glyph-name="l" unicode="l" vert-adv-y="0" 
d="M481 246l21 -28h79v-120h-99c-13 0 -23 6 -33 18l-50 62c-10 12 -15 26 -15 42v1098h97v-1072z" />
    <glyph glyph-name="m" unicode="m" vert-adv-y="0" 
d="M484 746v-648h-99v648l-65 84h-59l-71 -86v-646h-97v852h98v-34l15 18c10 12 20 18 33 18h101c14 0 26 -6 36 -18l58 -78l62 76c10 12 21 18 34 18h104c13 0 24 -6 34 -18l95 -118c10 -12 15 -26 15 -42v-674h-98v650l-66 82h-63z" />
    <glyph glyph-name="n" unicode="n" vert-adv-y="0" 
d="M267 884l39 48c4 6 18 18 34 18h201c8 0 20 -2 32 -16l96 -116c4 -6 15 -22 15 -42v-674h-93v650l-69 78h-162l-68 -84v-646h-98v670c0 6 3 14 7 24l-29 40h-79v118h101c16 0 27 -10 31 -18z" />
    <glyph glyph-name="o" unicode="o" vert-adv-y="0" 
d="M190 748v-444l69 -84h263l65 84v444l-64 88h-264zM109 814l98 126c12 14 26 14 32 14h305c16 0 30 -12 36 -20l90 -126c10 -12 14 -28 14 -38v-490c0 -20 -11 -36 -15 -42l-94 -118c-9 -13 -20 -14 -28 -14h-6h-302c-14 0 -26 8 -32 14l-100 116c-13 14 -14 32 -14 44
v494c0 20 12 34 16 40z" />
    <glyph glyph-name="p" unicode="p" vert-adv-y="0" 
d="M93 956h356c10 0 15 0 21 -8l199 -236c4 -6 15 -22 15 -42v-268c0 -10 -3 -28 -15 -42l-195 -242c-4 -6 -16 -18 -32 -18h-252v-368h-97v1224zM190 830v-612h231l167 208v220l-157 184h-241z" />
    <glyph glyph-name="q" unicode="q" vert-adv-y="0" 
d="M680 948v-1078h99v-124h-198v362h-247c-16 0 -28 12 -32 18l-195 242c-12 14 -14 32 -14 42v238c0 20 10 36 14 42l199 242c12 14 28 16 34 16h340zM581 832h-221l-172 -208v-190l167 -208h226v606z" />
    <glyph glyph-name="r" unicode="r" vert-adv-y="0" 
d="M269 626v-526h-95v668c0 18 -6 30 -16 44c-12 12 -20 18 -36 18h-29v122h79c28 0 97 -58 97 -122v-38l112 140c10 12 21 20 34 20h118c14 0 26 -6 34 -18l102 -122c10 -12 15 -26 15 -44v-60h-97v36l-73 86h-78z" />
    <glyph glyph-name="s" unicode="s" vert-adv-y="0" 
d="M581 744l-71 88h-249l-47 -60l452 -442c12 -12 18 -26 18 -44s-5 -34 -15 -46l-102 -124c-10 -12 -21 -18 -34 -18h-292c-13 0 -24 6 -34 18l-100 120c-10 12 -14 26 -14 44v56h97v-30l71 -88h253l48 60l-450 440c-12 10 -16 26 -18 44v7c0 15 5 29 13 39l97 126
c10 12 21 18 35 18h291c13 0 23 -6 33 -18l101 -122c10 -12 15 -26 15 -42v-64h-98v38z" />
    <glyph glyph-name="t" unicode="t" vert-adv-y="0" 
d="M481 246l21 -28h79v-120h-99c-13 0 -23 6 -33 18l-50 62c-10 12 -15 26 -15 42v610h-200v122h200v366h97v-366h199v-122h-199v-584z" />
    <glyph glyph-name="u" unicode="u" vert-adv-y="0" 
d="M604 168l-39 -48c-4 -6 -18 -18 -34 -18h-294c-8 0 -21 2 -33 16l-95 116c-4 6 -15 22 -15 42v676h96v-652l66 -82h256l68 88v646h97v-670c0 -6 -3 -14 -7 -24l30 -40h79v-116h-99c-16 0 -30 8 -34 16z" />
    <glyph glyph-name="v" unicode="v" vert-adv-y="0" 
d="M190 782l244 -508l248 514v162h97v-178c0 -12 -2 -20 -6 -30l-297 -616c-10 -20 -24 -30 -42 -30s-32 10 -42 30l-293 610c-4 10 -6 18 -6 30v184h97v-168z" />
    <glyph glyph-name="w" unicode="w" vert-adv-y="0" 
d="M486 422l141 -178l55 64v644h97v-670c0 -18 -4 -32 -14 -44l-104 -122c-10 -10 -22 -16 -34 -16s-24 6 -34 18l-157 198l-162 -204c-10 -12 -22 -20 -35 -20s-23 8 -33 20l-99 124c-10 12 -14 26 -14 42v674h97v-650l49 -62l148 182v164h99v-164z" />
    <glyph glyph-name="x" unicode="x" vert-adv-y="0" 
d="M434 440l-250 -306v-38h-97v64c0 16 4 30 14 42l263 322l-263 324c-10 12 -14 28 -14 44v60h97v-40l250 -302l250 302v40h97v-60c0 -16 -5 -32 -15 -44l-264 -322l264 -324c10 -12 15 -26 15 -42v-64h-97v38z" />
    <glyph glyph-name="y" unicode="y" vert-adv-y="0" 
d="M368 156l-261 326c-10 12 -14 26 -14 42v428h97v-404l247 -306l148 182v528h97v-552c0 -16 -4 -30 -14 -42l-498 -614l-68 84z" />
    <glyph glyph-name="z" unicode="z" vert-adv-y="0" 
d="M93 952h686l-487 -734h487v-120h-686l488 732h-488v122z" />
    <glyph glyph-name="ae" unicode="&#xe6;" vert-adv-y="0" 
d="M385 588h-29l-172 -208v-78l72 -84h60l69 88v282zM385 708v36l-71 86h-227v120h247c16 0 30 -10 34 -16l65 -78l65 78c4 6 17 16 33 16h104c6 0 22 -2 34 -16l99 -120c6 -8 14 -24 14 -44v-308h-300v-158l71 -86h225v-120h-247c-8 0 -21 4 -33 18l-64 80l-63 -80
c-12 -16 -26 -18 -34 -18h-100c-16 0 -31 10 -35 16l-100 120c-12 14 -15 34 -15 44v128c0 20 11 36 15 42l201 242c12 14 26 18 34 18h48zM482 588h203v158l-71 84h-63l-69 -80v-162z" />
    <glyph glyph-name="oslash" unicode="&#xf8;" vert-adv-y="0" 
d="M563 770l-48 62h-160l-72 -86v-326zM581 622l-275 -340l46 -62h163l66 84v318zM680 742v-462c0 -16 -6 -30 -16 -42l-95 -120c-10 -12 -20 -14 -34 -14h-203c-13 0 -24 6 -34 18l-61 74l-67 -82l-68 84l84 104v468c0 16 5 30 15 42l99 122c10 12 21 20 34 20h202
c14 0 26 -2 36 -14l62 -86l66 86l68 -88z" />
    <glyph glyph-name="aring" unicode="&#xe5;" vert-adv-y="0" 
d="M583 216v252h-326l-69 -88v-74l68 -90h327zM680 216h99v-116h-544c-16 0 -30 12 -34 18l-94 124c-12 14 -14 34 -14 42v120c0 20 10 36 14 42l95 122c12 14 27 16 35 16h346v166l-66 84h-331v118h350c16 0 31 -12 35 -18l95 -120c12 -14 14 -30 14 -40v-558zM419 1558
c107 0 192 -110 192 -242s-85 -242 -192 -242s-190 110 -190 242s83 242 190 242zM320 1316c0 -72 46 -128 99 -128s99 56 99 128s-46 130 -99 130s-99 -58 -99 -130z" />
    <glyph glyph-name="uni0247" unicode="&#x247;" vert-adv-y="0" 
d="M138 100c-29 0 -52 34 -52 69c0 20 7 31 15 41l43 56c-1 2 -1 4 -1 5c0 4 1 6 1 9v472c0 20 12 34 16 40l99 126c12 14 28 22 36 22h240c16 0 30 -16 34 -22l47 -62l66 84c9 11 16 20 35 20c28 0 51 -27 51 -61c0 -19 -7 -35 -15 -45l-74 -94v-298h-237l-163 -208l31 -40
h372v-112h-392c-14 0 -29 10 -33 16l-45 54l-38 -50c-9 -11 -17 -22 -36 -22zM239 384l63 78h-63v-78zM400 586l149 188l-34 44h-203l-71 -90v-142h159zM541 586h44v56z" />
    <glyph glyph-name="fm" vert-adv-y="0" 
d="M87 1318h692v-244h-692v244zM384 952h197v-244h-197v244zM384 462h197c-37 -304 -154 -442 -395 -488z" />
    <glyph glyph-name="dup" vert-adv-y="0" 
d="M384 466h98v-368h-98v368zM384 954h98v-368h-98v368zM698 814l70 -84l-160 -200l163 -208l-70 -84l-231 292zM170 814l229 -284l-233 -292l-67 84l164 208l-161 200zM87 1318h692v-244h-692v244z" />
    <glyph glyph-name="A" unicode="A" vert-adv-y="0" 
d="M193 488v-390h-96v676c0 18 11 34 15 40l287 362c10 14 22 18 32 18c16 0 29 -8 37 -18l290 -364c12 -14 13 -32 13 -42v-672h-97v390h-481zM194 600h480v146l-241 300l-239 -298v-148z" />
    <glyph glyph-name="B" unicode="B" vert-adv-y="0" 
d="M193 218v858h-96v118h431c16 0 29 -10 35 -16l195 -250c10 -12 13 -26 13 -40c0 -20 -6 -36 -14 -46l-164 -194l164 -198c10 -12 14 -28 14 -40c0 -18 -6 -34 -14 -44l-198 -250c-12 -14 -26 -18 -34 -18h-428v120h96zM506 586h-216v-368h214l150 188zM504 708l150 180
l-147 188h-217v-368h214z" />
    <glyph glyph-name="C" unicode="C" vert-adv-y="0" 
d="M771 1058l-68 -84l-86 102h-157l-266 -328v-202l268 -328h154l84 110l71 -84l-99 -128c-6 -8 -20 -18 -36 -18h-194c-8 0 -21 6 -33 20l-297 360c-4 6 -15 22 -15 42v252c0 10 1 28 13 42l297 364c4 6 18 16 34 16h195c8 0 22 0 34 -14z" />
    <glyph glyph-name="D" unicode="D" vert-adv-y="0" 
d="M290 220h217l167 206v440l-167 210h-217v-856zM193 1076h-96v118h431c16 0 30 -12 34 -18l195 -244c12 -14 14 -32 14 -42v-488c0 -20 -10 -38 -14 -44l-196 -240c-12 -14 -27 -20 -35 -20h-429v120h96v858z" />
    <glyph glyph-name="E" unicode="E" vert-adv-y="0" 
d="M97 1196h674v-122h-578v-362h386v-122h-386v-372h578v-120h-674v1098z" />
    <glyph glyph-name="F" unicode="F" vert-adv-y="0" 
d="M97 1194h674v-120h-578v-362h483v-112h-483v-502h-96v1096z" />
    <glyph glyph-name="G" unicode="G" vert-adv-y="0" 
d="M385 600h386v-112h-95v-386h-336c-8 0 -22 2 -34 16l-194 238c-4 6 -15 22 -15 42v496c0 10 1 32 13 46l194 238c4 8 18 16 34 16h195c8 0 24 -2 36 -16l121 -152l-70 -84l-106 134h-154l-166 -206v-446l166 -202h220v266h-195v112z" />
    <glyph glyph-name="H" unicode="H" vert-adv-y="0" 
d="M97 1194h96v-482h483v482h95v-1094h-95v500h-483v-500h-96v1094z" />
    <glyph glyph-name="I" unicode="I" vert-adv-y="0" 
d="M290 1194h289v-120h-97v-856h97v-122h-289v122h95v856h-95v120z" />
    <glyph glyph-name="J" unicode="J" vert-adv-y="0" 
d="M97 464h96v-162l71 -82h151l67 86v768h-97v120h291v-120h-97v-792c0 -8 -2 -28 -14 -42l-95 -122c-6 -8 -20 -18 -36 -18h-191c-6 0 -22 2 -34 16l-97 116c-4 6 -15 22 -15 42v190z" />
    <glyph glyph-name="K" unicode="K" vert-adv-y="0" 
d="M199 376v-278h-102v1096h102v-646l475 608v38h96v-62c0 -16 -5 -30 -15 -42l-348 -444l350 -444c10 -12 14 -26 14 -42v-62h-97v38l-336 426z" />
    <glyph glyph-name="L" unicode="L" vert-adv-y="0" 
d="M97 1194h96v-976h578v-120h-674v1096z" />
    <glyph glyph-name="M" unicode="M" vert-adv-y="0" 
d="M482 740v-152h-98v152l-190 248v-888h-97v1032c0 26 11 46 31 56c6 4 12 6 18 6c12 0 24 -8 34 -20l251 -322l257 326c10 12 23 16 35 16c4 0 7 2 11 2c2 0 4 -1 7 -2c20 -10 30 -32 30 -58v-1036h-97v892z" />
    <glyph glyph-name="N" unicode="N" vert-adv-y="0" 
d="M97 100v1094h96l483 -610v610h95v-1094h-95v300l-483 616v-916h-96z" />
    <glyph glyph-name="O" unicode="O" vert-adv-y="0" 
d="M198 988v-688l63 -80h343l70 86v680l-70 90h-341zM113 1052l93 124c12 16 25 18 35 18h385c16 0 31 -10 35 -18l97 -124c12 -14 13 -32 13 -42v-730c0 -20 -8 -36 -14 -42l-99 -120c-12 -14 -26 -18 -34 -18h-383c-16 0 -30 10 -34 16l-95 114c-12 14 -15 34 -15 44v738
c0 18 10 32 16 40z" />
    <glyph glyph-name="P" unicode="P" vert-adv-y="0" 
d="M193 586h314l169 210v78l-168 200h-315v-488zM193 462v-366h-96v1098h431c13 0 24 -4 34 -16l195 -238c10 -12 14 -24 14 -40v-128c0 -16 -3 -30 -13 -42l-196 -246c-10 -12 -21 -22 -34 -22h-335z" />
    <glyph glyph-name="Q" unicode="Q" vert-adv-y="0" 
d="M601 166l164 -218l-72 -80l-175 236h-176c-13 0 -24 6 -34 18l-196 238c-10 12 -15 26 -15 42v494c0 16 5 32 15 44l194 238c10 12 21 16 34 16h191c13 0 24 -4 34 -16l192 -244c10 -12 14 -26 14 -42v-492c0 -18 -4 -30 -14 -42zM531 248l143 178v442l-164 208h-149
l-167 -204v-444l167 -204h68l-40 80c-4 10 -7 18 -7 30v130h98v-114z" />
    <glyph glyph-name="R" unicode="R" vert-adv-y="0" 
d="M450 588l307 -382c10 -12 14 -26 14 -42v-64h-95v28l-365 460h-118v-488h-96v1094h527c13 0 24 -6 34 -18l99 -120c10 -12 14 -26 14 -42v-246c0 -16 -4 -30 -14 -42l-96 -120c-10 -12 -21 -18 -34 -18h-177zM193 708h413l68 84v196l-70 86h-411v-366z" />
    <glyph glyph-name="S" unicode="S" vert-adv-y="0" 
d="M670 996l-61 80h-340l-70 -86v-64l548 -476c14 -12 21 -30 21 -50v-118c0 -16 -5 -28 -13 -40l-93 -124c-10 -12 -21 -22 -35 -22h-382c-13 0 -24 6 -34 18l-99 122c-10 12 -15 26 -15 42v62h97v-38l70 -84h342l64 88v62l-547 476c-14 12 -21 30 -21 50v120
c0 16 5 30 15 42l98 122c10 12 21 16 34 16h379c13 0 24 -4 34 -16l95 -116c10 -12 14 -26 14 -42v-64h-101v40z" />
    <glyph glyph-name="T" unicode="T" vert-adv-y="0" 
d="M97 1194h674v-120h-289v-976h-97v976h-288v120z" />
    <glyph glyph-name="U" unicode="U" vert-adv-y="0" 
d="M97 1194h94v-890l70 -84h347l66 86v888h97v-912c0 -8 -1 -26 -13 -40l-94 -122c-6 -8 -20 -20 -36 -20h-389c-8 0 -21 4 -33 18l-96 118c-4 6 -13 22 -13 42v916z" />
    <glyph glyph-name="V" unicode="V" vert-adv-y="0" 
d="M194 1026l235 -716l245 714v170h97v-182c0 -8 -1 -16 -3 -24l-294 -856c-8 -22 -24 -36 -45 -36s-37 14 -45 36l-287 858c-1 3 -2 5 -2 7c0 5 2 10 2 15v182h97v-168z" />
    <glyph glyph-name="W" unicode="W" vert-adv-y="0" 
d="M431 314l-154 -200c-10 -12 -22 -18 -34 -18c-13 0 -24 6 -34 18l-97 120c-10 12 -15 26 -15 42v918h96v-894l50 -58l141 184v278h97v-282l143 -180l50 60v892h97v-918c0 -18 -4 -32 -14 -44l-99 -118c-10 -10 -21 -18 -34 -18c-12 0 -24 8 -34 20z" />
    <glyph glyph-name="X" unicode="X" vert-adv-y="0" 
d="M431 562l-235 -306v-154h-97v178c0 16 4 30 14 42l250 324l-250 330c-10 12 -14 26 -14 42v178h97v-154l237 -310l241 308v154h97v-178c0 -16 -4 -30 -14 -42l-257 -326l257 -328c10 -12 14 -26 14 -42v-178h-97v154z" />
    <glyph glyph-name="Y" unicode="Y" vert-adv-y="0" 
d="M482 742v-642h-98v642l-272 348c-10 12 -15 26 -15 42v62h97v-38l242 -304l238 304v38h97v-58c0 -16 -3 -32 -13 -44z" />
    <glyph glyph-name="Z" unicode="Z" vert-adv-y="0" 
d="M769 1012c0 -16 -4 -30 -14 -42l-561 -712v-38h577v-122h-674v184c0 16 5 30 15 42l560 712v38h-575v120h672v-182z" />
    <glyph glyph-name="AE" unicode="&#xc6;" vert-adv-y="0" 
d="M482 1074l-296 -326v-162h296v488zM86 98v414v244c0 56 23 84 55 120l236 264c26 28 43 44 65 54h337v-120h-198v-366h198v-122h-198v-368h198v-120h-297v364h-296v-364h-100z" />
    <glyph glyph-name="Oslash" unicode="&#xd8;" vert-adv-y="0" 
d="M682 864l-480 -584l51 -60h359l70 86v558zM661 1012l-49 64h-357l-65 -88v-554zM105 1052l93 124c12 16 25 18 35 18h401c16 0 31 -10 35 -18l97 -124c12 -14 13 -32 13 -42v-730c0 -20 -8 -36 -14 -42l-99 -120c-12 -14 -26 -18 -34 -18h-399c-16 0 -30 10 -34 16
l-95 114c-12 14 -15 34 -15 44v738c0 18 10 32 16 40z" />
    <glyph glyph-name="Aring" unicode="&#xc5;" vert-adv-y="0" 
d="M426 1598c107 0 191 -110 191 -242s-84 -242 -191 -242s-191 110 -191 242s84 242 191 242zM328 1356c0 -72 45 -128 98 -128s99 56 99 128s-46 130 -99 130s-98 -58 -98 -130zM188 296v-198h-95v508c0 18 10 34 14 40l292 362c10 14 22 18 32 18c16 0 29 -8 37 -18
l297 -364c12 -14 13 -32 13 -42v-504h-98l2 198h-494zM190 418h490v160l-247 304l-243 -302v-162z" />
    <glyph glyph-name="Ccedilla" unicode="&#xc7;" vert-adv-y="0" 
d="M771 1058l-68 -84l-86 102h-157l-266 -328v-202l268 -328h154l84 110l71 -84l-99 -128c-6 -8 -20 -18 -36 -18h-62v-309c0 -15 -6 -32 -14 -41l-91 -108c-9 -12 -23 -17 -34 -17h-147v116h127l62 74v285h-35c-8 0 -21 6 -33 20l-297 360c-4 6 -15 22 -15 42v252
c0 10 1 28 13 42l297 364c4 6 18 16 34 16h195c8 0 22 0 34 -14z" />
    <glyph glyph-name="semicolon" unicode=";" vert-adv-y="0" 
d="M579 378v-214l-30 -84l-219 -272l-136 168l191 238v164h194zM385 822h194v-222h-194v222z" />
    <glyph glyph-name="asterisk" unicode="*" vert-adv-y="0" 
d="M384 708h98v-368h-98v368zM384 1196h98v-368h-98v368zM698 1056l70 -84l-160 -200l163 -208l-70 -84l-231 292zM170 1056l229 -284l-233 -292l-67 84l164 208l-161 200z" />
    <glyph glyph-name="c0" vert-adv-y="0" 
 />
    <glyph glyph-name="c1" vert-adv-y="0" 
 />
    <glyph glyph-name="c2" vert-adv-y="0" 
 />
    <glyph glyph-name="c3" vert-adv-y="0" 
 />
    <glyph glyph-name="c4" vert-adv-y="0" 
 />
    <glyph glyph-name="c5" vert-adv-y="0" 
 />
    <glyph glyph-name="c6" vert-adv-y="0" 
 />
    <glyph glyph-name="c7" vert-adv-y="0" 
 />
    <glyph glyph-name="c8" vert-adv-y="0" 
 />
    <glyph glyph-name="c9" vert-adv-y="0" 
 />
    <glyph glyph-name="ca" vert-adv-y="0" 
 />
    <glyph glyph-name="cb" vert-adv-y="0" 
 />
    <glyph glyph-name="cc" vert-adv-y="0" 
 />
    <glyph glyph-name="cd" vert-adv-y="0" 
 />
    <glyph glyph-name="ce" vert-adv-y="0" 
 />
    <glyph glyph-name="cf" vert-adv-y="0" 
 />
    <glyph glyph-name="copyright" unicode="&#xa9;" vert-adv-y="0" 
d="M581 950v-120h-129l-68 -86v-196l68 -86h129v-120h-148c-8 0 -24 4 -36 18l-97 122c-4 6 -13 22 -13 42v244c0 10 1 28 13 42l97 122c4 8 18 18 34 18h150zM109 996l146 182c12 14 24 16 32 16h296c16 0 32 -8 36 -16l146 -184c12 -14 13 -32 13 -42v-610
c0 -20 -9 -38 -13 -44l-146 -180c-12 -14 -28 -18 -36 -18h-296c-16 0 -30 12 -34 18l-144 180c-12 14 -15 34 -15 44v612c0 20 11 36 15 42zM191 928v-564l117 -144h255l117 144v564l-117 148h-253z" />
    <glyph glyph-name="registered" unicode="&#xae;" vert-adv-y="0" 
d="M109 996l146 182c12 14 22 16 30 16h298c16 0 30 -8 36 -16l146 -184c12 -14 13 -32 13 -42v-612c0 -20 -9 -36 -13 -42l-146 -180c-13 -14 -28 -18 -36 -18h-298c-16 0 -28 10 -32 18l-144 180c-12 14 -15 32 -15 42v614c0 20 11 34 15 42zM191 928v-564l117 -144h255
l117 144v564l-117 148h-253zM285 950h197c16 0 31 -10 35 -16l52 -60c12 -14 14 -32 14 -44v-122c0 -20 -8 -36 -14 -44l-44 -52l50 -118c2 -6 5 -16 5 -28v-124h-98v110l-57 134h-43v-246h-97v610zM382 830v-124h82l18 28v70l-18 26h-82z" />
    <glyph glyph-name="boxA" vert-adv-y="0" 
d="M0 462h869v-488h-869v488zM99 342v-244h671v244h-671zM97 586h-97l4 552c0 20 10 36 14 42l197 240c10 12 22 16 32 16c16 0 29 -8 37 -18l196 -242c12 -14 12 -32 12 -42v-548h-97v244h-296zM99 950h296v160l-147 182l-147 -180z" />
    <glyph glyph-name="insert" vert-adv-y="0" 
d="M0 36v368l433 548l435 -554l-1 -362l-434 546z" />
    <glyph glyph-name="boxB" vert-adv-y="0" 
d="M0 462h867v-488h-867v488zM99 342v-244h669v244h-669zM374 1318v120l347 -2c16 0 30 -10 34 -16l99 -122c12 -14 14 -32 14 -42v-120c0 -20 -8 -38 -14 -44l-65 -76l63 -84c12 -14 13 -32 13 -40v-124c0 -20 -9 -36 -13 -42l-97 -120c-12 -14 -26 -18 -34 -18h-347v120
h96v610h-96zM571 708h129l68 84v76l-65 84h-132v-244zM571 1318v-246h126l74 88v72l-70 86h-130z" />
    <glyph glyph-name="box6" vert-adv-y="0" 
d="M287 464h29l83 104c4 6 18 18 34 18h100c8 0 20 -4 32 -18l101 -120c6 -6 16 -24 16 -44v-124c0 -8 -2 -26 -14 -40l-96 -124c-6 -8 -20 -20 -36 -20h-200c-8 0 -22 4 -34 18l-100 122c-4 6 -12 22 -12 42v490c0 10 0 28 12 42l98 124l71 -82l-84 -108v-280zM287 344v-42
l69 -86h159l70 90v74l-73 86h-58l-85 -104c-12 -14 -25 -18 -33 -18h-49zM99 1074v-1100h671v1100h-671zM0 1196h869v-1342h-869v1342z" />
    <glyph glyph-name="plusminus" unicode="&#xb1;" vert-adv-y="0" 
d="M384 1318h98v-366h297v-122h-297v-368h-98v368h-297v122h297v366zM87 342h692v-124h-692v124z" />
    <glyph glyph-name="Eth" unicode="&#xd0;" vert-adv-y="0" 
d="M186 1076h-99v118h448c16 0 30 -10 34 -18l194 -244c12 -14 15 -32 15 -42v-488c0 -20 -9 -36 -15 -44l-196 -240c-12 -14 -26 -20 -34 -20h-446v120h99v378h-97v108h97v372zM285 220h229l166 206v440l-166 210h-229v-372h199v-108h-199v-376z" />
    <glyph glyph-name="rightarrow" vert-adv-y="0" 
d="M494 952l294 -306l-294 -304v244h-494v122h494v244z" />
    <glyph glyph-name="Thorn" unicode="&#xde;" vert-adv-y="0" 
d="M89 1194h94v-180h350c16 0 30 -12 34 -18l198 -242c12 -14 13 -34 13 -44v-124c0 -20 -9 -36 -13 -42l-198 -244c-12 -14 -26 -18 -34 -18h-350v-182h-94v1094zM183 894v-492h329l168 210v74l-166 208h-331z" />
    <glyph glyph-name="upshift" vert-adv-y="0" 
d="M282 -22v652h-253l402 644l400 -644h-250v-652h-299zM379 98h105v652h151l-204 328l-204 -328h152v-652z" />
    <glyph glyph-name="human" vert-adv-y="0" 
d="M168 114l-61 94l277 282v218h-297v122h297v132c-60 26 -97 98 -97 174c0 106 70 188 147 188c87 0 147 -92 147 -188c0 -84 -42 -150 -99 -174v-132h297v-122h-297v-218l281 -288l-62 -92l-268 276zM384 1136c0 -36 22 -64 50 -64c24 0 50 24 50 64c0 36 -22 68 -50 68
c-24 0 -50 -28 -50 -68z" />
    <glyph glyph-name="underB" vert-adv-y="0" 
d="M190 1318v120h346c16 0 32 -12 36 -18l98 -120c12 -14 14 -34 14 -44v-120c0 -20 -9 -38 -15 -44l-63 -76l63 -84c12 -14 13 -32 13 -40v-124c0 -20 -10 -36 -14 -42l-96 -120c-12 -14 -28 -18 -36 -18h-346v120h97v610h-97zM385 708h132l68 86v74l-65 86h-135v-246z
M385 1318v-246h129l73 88v72l-70 86h-132zM0 462h868v-120h-868v120z" />
    <glyph glyph-name="downshift" vert-adv-y="0" 
d="M285 1316h302v-652h249l-402 -644l-402 644h253v652zM382 1196v-652h-152l204 -328l204 328h-148v652h-108z" />
    <glyph glyph-name="boxquestion" vert-adv-y="0" 
d="M292 830h-98v184c0 20 9 36 15 42l101 122c12 14 26 18 34 18h200c16 0 29 -12 35 -20l97 -124c12 -14 14 -30 14 -40v-240c0 -20 -10 -36 -14 -42l-186 -228v-158h-97v182c0 10 4 28 16 42l184 230v188l-70 90h-160l-71 -88v-158zM392 218h98v-120h-98v120zM99 1318
v-1344h671v1344h-671zM0 1440h869v-1586h-869v1586z" />
    <glyph glyph-name="boxsolid" vert-adv-y="0" 
d="M0 1440h868v-1586h-868v1586z" />
    <glyph glyph-name="e0" vert-adv-y="0" 
 />
    <glyph glyph-name="e1" vert-adv-y="0" 
 />
    <glyph glyph-name="e2" vert-adv-y="0" 
 />
    <glyph glyph-name="e3" vert-adv-y="0" 
 />
    <glyph glyph-name="e4" vert-adv-y="0" 
 />
    <glyph glyph-name="e5" vert-adv-y="0" 
 />
    <glyph glyph-name="e6" vert-adv-y="0" 
 />
    <glyph glyph-name="e7" vert-adv-y="0" 
 />
    <glyph glyph-name="e8" vert-adv-y="0" 
 />
    <glyph glyph-name="e9" vert-adv-y="0" 
 />
    <glyph glyph-name="ea" vert-adv-y="0" 
 />
    <glyph glyph-name="eb" vert-adv-y="0" 
 />
    <glyph glyph-name="ec" vert-adv-y="0" 
 />
    <glyph glyph-name="ed" vert-adv-y="0" 
 />
    <glyph glyph-name="ee" vert-adv-y="0" 
 />
    <glyph glyph-name="badcommhi" vert-adv-y="0" 
d="M0 1378l544 -668h323v-122l-233 -2l233 -280l1 -366l-520 646h-348v124h241l-241 304v364z" />
    <glyph glyph-name="commhi" vert-adv-y="0" 
d="M0 704h868v-118h-868v118z" />
    <glyph glyph-name="commjag" vert-adv-y="0" 
d="M0 590v120h661l-392 -492h599v-120h-832l392 492h-428z" />
    <glyph glyph-name="commlo" vert-adv-y="0" 
d="M0 220h868v-124h-868v124z" />
    <glyph glyph-name="clockleft" vert-adv-y="0" 
d="M685 1254c0 36 25 66 54 66s53 -30 53 -66s-24 -66 -53 -66s-54 30 -54 66zM393 1134c0 36 25 66 54 66s53 -30 53 -66s-24 -66 -53 -66s-54 30 -54 66zM194 894c0 36 25 66 54 66s53 -30 53 -66s-24 -66 -53 -66s-54 30 -54 66zM94 524c0 38 24 68 55 68
c29 0 52 -30 52 -68c0 -36 -23 -64 -52 -64c-31 0 -55 28 -55 64zM194 160c0 36 25 64 54 64s53 -28 53 -64c0 -38 -24 -68 -53 -68s-54 30 -54 68zM392 -84c0 36 23 66 52 66c31 0 55 -30 55 -66s-24 -66 -55 -66c-29 0 -52 30 -52 66zM687 -208c0 38 24 68 55 68
c29 0 52 -30 52 -68c0 -36 -23 -64 -52 -64c-31 0 -55 28 -55 64zM868 770v-170l-78 -100v-492h-97v516c0 10 1 28 13 44z" />
    <glyph glyph-name="clockright" vert-adv-y="0" 
d="M194 1254c0 36 25 66 54 66s54 -30 54 -66s-25 -66 -54 -66s-54 30 -54 66zM393 1016c0 36 25 68 54 68s53 -32 53 -68s-24 -64 -53 -64s-54 28 -54 64zM490 648c0 36 22 66 51 66s55 -30 55 -66s-26 -66 -55 -66s-51 30 -51 66zM392 282c0 36 23 66 52 66s55 -30 55 -66
s-26 -66 -55 -66s-52 30 -52 66zM198 40c0 36 22 64 51 64s55 -28 55 -64s-26 -68 -55 -68s-51 32 -51 68zM223 1074l69 -84l-292 -368v172z" />
    <glyph glyph-name="lock" vert-adv-y="0" 
d="M875 1494v-548l-188 -234l188 -233v-551l-410 510l-465 -580v548l243 306l-243 302v546l465 -574z" />
    <glyph glyph-name="eth" unicode="&#xf0;" vert-adv-y="0" 
 />
    <glyph glyph-name="leftarrow" vert-adv-y="0" 
d="M373 952v-244h494v-122h-494v-244l-294 304z" />
    <glyph glyph-name="thorn" unicode="&#xfe;" vert-adv-y="0" 
d="M97 1318h101v-370h249c16 0 31 -12 35 -18l195 -242c12 -14 15 -32 15 -42v-244c0 -20 -11 -36 -15 -42l-197 -246c-12 -14 -26 -18 -34 -18h-248v-364h-101v1586zM198 828v-612h228l169 210v196l-167 206h-230z" />
    <glyph glyph-name="keyleft" vert-adv-y="0" 
d="M382 776c0 -110 71 -204 165 -204c89 0 166 88 166 204c0 110 -72 204 -166 204c-89 0 -165 -88 -165 -204zM285 776c0 184 121 324 262 324c133 0 238 -120 259 -270h63v-122h-65c-26 -150 -134 -256 -257 -256c-149 0 -262 150 -262 324z" />
    <glyph glyph-name="keyright" vert-adv-y="0" 
d="M0 830h868v-488h-198v368h-99v-246h-296v244h-275v122z" />
    <glyph glyph-name="box4" vert-adv-y="0" 
d="M585 462h97v-120h-97v-244h-97v244h-250c-18 0 -48 18 -48 60v120c0 10 2 28 14 44l296 368c2 0 15 16 36 16c18 0 49 -16 49 -60v-428zM488 462v284l-201 -248v-36h201zM95 1076v-1102h678v1102h-678zM0 1192h868v-1340h-868v1340z" />
    <glyph glyph-name="underA" vert-adv-y="0" 
d="M0 460h868v-116h-868v116zM295 592l-97 2l3 552c0 20 10 34 14 42l198 238c10 12 21 16 33 16c14 0 28 -6 36 -16l195 -242c12 -16 13 -34 13 -44v-548h-97v244h-297zM296 956h297v160l-147 182l-148 -178z" />
    <glyph glyph-name="magcard" vert-adv-y="0" 
d="M97 464v-116h681v116h-681zM97 948v-360h674v360h-674zM0 1076h868v-860h-868v860z" />
    <glyph glyph-name="boxhuman" vert-adv-y="0" 
d="M385 1016c0 -36 23 -64 51 -64c24 0 50 24 50 64c0 36 -22 68 -50 68c-24 0 -51 -28 -51 -68zM0 1440h868v-1580h-868v1580zM774 54v534h-290v-218zM774 710v610h-673v-610h284v132c-60 26 -97 98 -97 174c0 106 71 188 148 188c87 0 147 -92 147 -188
c0 -84 -44 -150 -101 -174l2 -132h290zM158 -32h548l-272 298zM101 588v-524l284 306v218h-284z" />
    <glyph glyph-name="apl_space" vert-adv-y="0" 
 />
    <glyph glyph-name="apl_bracketright" vert-adv-y="0" 
d="M298 1318h295v-1344h-295v124h196v1098h-196v122z" />
    <glyph glyph-name="apl_bracketleft" vert-adv-y="0" 
d="M298 1318h295v-122h-198v-1098h198v-124h-295v1344z" />
    <glyph glyph-name="apl_stile" vert-adv-y="0" 
d="M395 1600h99v-2000h-99v2000z" />
    <glyph glyph-name="apl_2vertical" vert-adv-y="0" 
d="M642 1602h100v-2000h-100v2000zM149 1602h98v-2000h-98v2000z" />
    <glyph glyph-name="apl_2horizontal" vert-adv-y="0" 
d="M0 -86h868v-122h-868v122zM0 1378h868v-120h-868v120z" />
    <glyph glyph-name="apl_leftvbar" vert-adv-y="0" 
d="M149 1602h98v-2000h-98v2000z" />
    <glyph glyph-name="apl_rightvbar" vert-adv-y="0" 
d="M642 1602h100v-2000h-100v2000z" />
    <glyph glyph-name="apl_midvbar" vert-adv-y="0" 
d="M395 1602h99v-1624h-99v1624z" />
    <glyph glyph-name="apl_leftsolid" vert-adv-y="0" 
d="M0 1600h437v-2000h-437v2000z" />
    <glyph glyph-name="apl_rightsolid" vert-adv-y="0" 
d="M437 1600h438v-2000h-438v2000z" />
    <glyph glyph-name="apl_topsolid" vert-adv-y="0" 
d="M0 1600h875v-1000h-875v1000z" />
    <glyph glyph-name="apl_bottomsolid" vert-adv-y="0" 
d="M0 600h875v-1000h-875v1000z" />
    <glyph glyph-name="apl_solid" vert-adv-y="0" 
d="M0 1600h875v-2000h-875v2000z" />
    <glyph glyph-name="apl_midhbar" vert-adv-y="0" 
d="M0 708h867v-122h-867v122z" />
    <glyph glyph-name="apl_lowerleft" vert-adv-y="0" 
d="M392 1560h98v-768l69 -84h308v-120h-329c-12 0 -24 6 -34 18l-97 120c-8 10 -15 26 -15 42v792z" />
    <glyph glyph-name="apl_upperleft" vert-adv-y="0" 
d="M392 -264v792c0 16 7 32 15 42l97 120c10 12 22 18 34 18h329v-120h-308l-69 -84v-768h-98z" />
    <glyph glyph-name="apl_leftjoin" vert-adv-y="0" 
d="M395 1602h99v-894h373v-122h-373v-984h-99v2000z" />
    <glyph glyph-name="apl_bottomjoin" vert-adv-y="0" 
d="M395 1602h99v-894h371v-122h-865v122h395v894z" />
    <glyph glyph-name="apl_intersect" vert-adv-y="0" 
d="M395 1602h99v-894h373v-122h-373v-982h-99v982h-395v122h395v894z" />
    <glyph glyph-name="apl_lowerright" vert-adv-y="0" 
d="M490 1560v-792c0 -16 -8 -32 -16 -42l-97 -120c-10 -12 -21 -18 -33 -18h-330v120h308l70 84v768h98z" />
    <glyph glyph-name="apl_upperright" vert-adv-y="0" 
d="M490 -268h-97v768l-69 84h-308v120h329c12 0 24 -6 34 -18l97 -120c8 -10 14 -26 14 -42v-792z" />
    <glyph glyph-name="apl_rightjoin" vert-adv-y="0" 
d="M395 1602h99v-2000h-99v984h-395v122h395v894z" />
    <glyph glyph-name="apl_topjoin" vert-adv-y="0" 
d="M0 708h867v-122h-373v-982h-99v982h-395v122z" />
    <glyph glyph-name="dec_solid" vert-adv-y="0" 
d="M247 1602h395v-2000h-395v2000z" />
    <glyph glyph-name="dec_filled_circle" vert-adv-y="0" 
d="M263 646c0 134 83 240 184 240c102 0 185 -106 185 -240c0 -132 -83 -240 -185 -240c-101 0 -184 108 -184 240z" />
    <glyph glyph-name="dec_halftone_block" vert-adv-y="0" 
 />
    <glyph glyph-name="dec_ht" vert-adv-y="0" 
d="M149 1378h98v-244h99v244h98v-608h-98v244h-99v-244h-98v608zM395 646h298v-122h-100v-486h-99v486l-99 2v120z" />
    <glyph glyph-name="dec_ff" vert-adv-y="0" 
d="M395 652h295v-120h-198v-124h150v-122h-150v-242h-97v608zM149 1378h295v-120h-197v-124h148v-122h-148v-242h-98v608z" />
    <glyph glyph-name="dec_cr" vert-adv-y="0" 
d="M444 1196h-98v38l-18 22h-69l-12 -16v-324l16 -24h67l15 20v40h97v-62c0 -10 -3 -26 -13 -40l-42 -58c-6 -8 -17 -20 -35 -20h-111c-10 0 -23 4 -35 20l-44 60c-6 8 -13 22 -13 40v372c0 10 3 28 15 42l42 52c4 6 17 18 33 18h107c6 0 21 -2 33 -16l49 -56
c6 -8 16 -24 16 -46v-62zM397 36v608h199c16 0 28 -10 34 -18l47 -60c12 -14 13 -34 13 -42v-62c0 -20 -9 -36 -13 -42l-73 -92l81 -202c4 -10 5 -20 5 -26v-64h-97v50l-78 198h-21v-248h-97zM494 402h32l67 84v16l-18 24l-81 -2v-122z" />
    <glyph glyph-name="dec_lf" vert-adv-y="0" 
d="M395 652h295v-120h-198v-124h150v-122h-150v-242h-97v608zM149 1378h98v-488h197v-120h-295v608z" />
    <glyph glyph-name="dec_degree" vert-adv-y="0" 
d="M285 1074c0 -74 49 -134 107 -134c60 0 110 60 110 134s-50 134 -110 134c-58 0 -107 -60 -107 -134zM204 1074c0 130 84 234 188 234c105 0 191 -104 191 -234c0 -128 -86 -234 -191 -234c-104 0 -188 106 -188 234z" />
    <glyph glyph-name="dec_plusminus" vert-adv-y="0" 
d="M395 1318h99v-366h296v-122h-296v-368h-99v368h-296v122h296v366zM99 342h691v-124h-691v124z" />
    <glyph glyph-name="dec_nl" vert-adv-y="0" 
d="M149 1378h98l148 -304v304h99v-608l-95 2l-152 302v-304h-98v608zM395 646h99v-488h199v-120h-298v608z" />
    <glyph glyph-name="dec_vt" vert-adv-y="0" 
d="M148 1380h97v-346l75 -110l75 110v346h97v-368c0 -10 0 -24 -10 -38l-126 -182c-10 -15 -23 -23 -36 -23s-24 7 -36 23l-126 182c-4 6 -10 20 -10 38v368zM395 646h298v-122h-100v-486h-99v486l-99 2v120z" />
    <glyph glyph-name="dec_lowerright" vert-adv-y="0" 
d="M496 1560v-792c0 -16 -6 -32 -14 -42l-98 -120c-10 -12 -22 -18 -34 -18h-329v120h307l71 84v768h97z" />
    <glyph glyph-name="dec_upperright" vert-adv-y="0" 
d="M490 -268h-97v768l-69 84h-308v120h329c12 0 24 -6 34 -18l97 -120c8 -10 14 -26 14 -42v-792z" />
    <glyph glyph-name="dec_upperleft" vert-adv-y="0" 
d="M392 -264v792c0 16 7 32 15 42l97 120c10 12 22 18 34 18h329v-120h-308l-69 -84v-768h-98z" />
    <glyph glyph-name="dec_lowerleft" vert-adv-y="0" 
d="M392 1560h98v-768l69 -84h308v-120h-329c-12 0 -24 6 -34 18l-97 120c-8 10 -15 26 -15 42v792z" />
    <glyph glyph-name="dec_intersect" vert-adv-y="0" 
d="M395 1600h99v-892h374v-122h-374v-986h-99v986h-395v122h395v892z" />
    <glyph glyph-name="dec_hbar1" vert-adv-y="0" 
d="M0 1440h868v-122h-868v122z" />
    <glyph glyph-name="dec_hbar2" vert-adv-y="0" 
d="M0 1074h868v-122h-868v122z" />
    <glyph glyph-name="dec_hbar3" vert-adv-y="0" 
d="M0 708h868v-122h-868v122z" />
    <glyph glyph-name="dec_hbar4" vert-adv-y="0" 
d="M0 342h868v-124h-868v124z" />
    <glyph glyph-name="dec_hbar5" vert-adv-y="0" 
d="M0 -26h868v-120h-868v120z" />
    <glyph glyph-name="dec_leftjoin" vert-adv-y="0" 
d="M395 1600h99v-892h374v-122h-374v-986h-99v2000z" />
    <glyph glyph-name="dec_rightjoin" vert-adv-y="0" 
d="M395 1600h99v-2000h-99v986h-395v122h395v892z" />
    <glyph glyph-name="dec_bottomjoin" vert-adv-y="0" 
d="M395 1598h99v-890h374v-122h-868v122h395v890z" />
    <glyph glyph-name="dec_topjoin" vert-adv-y="0" 
d="M0 708h868v-122h-374v-984h-99v984h-395v122z" />
    <glyph glyph-name="dec_vbar" vert-adv-y="0" 
d="M395 1600h99v-2000h-99v2000z" />
    <glyph glyph-name="dec_notgreater" vert-adv-y="0" 
d="M677 198c8 -12 13 -28 13 -44s-6 -30 -14 -42s-21 -18 -34 -20c-4 0 -5 -1 -9 -1c-9 0 -16 3 -25 9l-394 490v112l392 498c7 4 15 7 24 7c3 0 4 -1 8 -1c12 -2 22 -8 30 -18c10 -10 14 -26 16 -42v-11c0 -12 -3 -22 -7 -33l-369 -456zM149 -26h593v-120h-593v120z" />
    <glyph glyph-name="dec_notless" vert-adv-y="0" 
d="M223 1098c-8 12 -11 28 -11 44s7 30 15 42s19 20 32 22c3 0 4 1 7 1c11 0 19 -4 29 -11l393 -490v-110l-392 -500c-6 -4 -13 -5 -20 -5c-4 0 -8 0 -12 1c-12 2 -21 6 -29 16c-10 10 -16 26 -18 42c0 3 -1 5 -1 8c0 13 4 24 9 36l368 456zM149 -26h593v-120h-593v120z" />
    <glyph glyph-name="dec_pi" vert-adv-y="0" 
d="M99 1074h691v-122h-98l1 -854h-100v854l-297 2v-670c0 -6 0 -16 -4 -26l-55 -160l-88 52l50 148v656h-98z" />
    <glyph glyph-name="dec_notequal" vert-adv-y="0" 
d="M174 224l-69 84l124 154h-130v124h229l100 122h-331v122h429l190 234l68 -84l-120 -150h125v-122h-224l-99 -122h324v-124h-424z" />
    <glyph glyph-name="dec_sterling" vert-adv-y="0" 
d="M251 224h-57v-12h45zM395 706v-426l67 -56h162l85 96l67 -88l-100 -116c-9 -10 -20 -16 -34 -16h-198c-13 0 -25 5 -34 16l-42 50c-8 10 -18 15 -25 15c-3 0 -5 -1 -7 -3l-56 -66c-5 -7 -18 -12 -33 -12h-101c-27 0 -49 25 -49 56v122c0 33 22 60 49 60h97l55 -18v386
h-201v122h201v306c0 17 5 32 13 42l98 122c11 13 22 20 35 20h103c13 0 23 -7 34 -20l98 -120l-70 -84l-83 102h-62l-69 -86v-282h198v-122h-198z" />
    <glyph glyph-name="dec_periodcentered" vert-adv-y="0" 
d="M298 708h196v-246h-196v246z" />
    <glyph glyph-name="quotesingle" unicode="'" vert-adv-y="0" 
d="M395 1318h99v-366h-99v366z" />
    <glyph glyph-name="uni00AD" unicode="&#xad;" vert-adv-y="0" 
d="M198 708h495v-122h-495v122z" />
    <glyph glyph-name="uni00B5" unicode="&#xb5;" vert-adv-y="0" 
d="M91 952h92v-652l70 -82h261l67 88v646h98v-670c0 -6 -3 -14 -7 -24l29 -40h80v-116h-99c-16 0 -30 8 -34 16l-42 50l-39 -48c-4 -6 -18 -18 -34 -18h-300c-8 0 -20 2 -32 16l-15 18v-404h-95v1220z" />
    <glyph glyph-name="divide" unicode="&#xf7;" vert-adv-y="0" 
d="M336 1134h197v-244h-197v244zM87 708h692v-122h-692v122zM336 402h197v-244h-197v244z" />
    <glyph glyph-name="ydieresis" unicode="&#xff;" vert-adv-y="0" 
d="M356 156l-261 326c-10 12 -14 26 -14 42v428h97v-404l248 -306l147 182v528h97v-552c0 -16 -4 -30 -14 -42l-498 -614l-67 84zM162 1196h102v-122h-102v122zM460 1196h101v-122h-101v122z" />
    <glyph glyph-name="uni1E54" unicode="&#x1e54;" vert-adv-y="0" 
d="M182 586h314l168 210v78l-166 200h-316v-488zM182 462v-366h-96v1098h431c13 0 24 -4 34 -16l194 -238c10 -12 15 -24 15 -40v-128c0 -16 -3 -30 -13 -42l-196 -246c-10 -12 -21 -22 -34 -22h-335zM255 1242c-10 12 -16 28 -16 42c0 18 8 34 16 44l194 242
c10 12 21 18 33 18c14 0 28 -8 36 -18s15 -26 15 -44c0 -14 -5 -30 -15 -42l-194 -242c-8 -10 -22 -18 -36 -18c-12 0 -23 6 -33 18z" />
    <glyph glyph-name="uni1E55" unicode="&#x1e55;" vert-adv-y="0" 
d="M81 956h356c10 0 15 0 21 -8l200 -236c4 -6 14 -22 14 -42v-268c0 -10 -2 -28 -14 -42l-194 -242c-4 -6 -17 -18 -33 -18h-253v-368h-97v1224zM178 830v-612h232l167 208v220l-158 184h-241zM374 1092c-10 12 -14 28 -14 42c0 18 6 34 14 44l195 242c10 12 22 18 34 18
c14 0 27 -8 35 -18s14 -26 14 -44c0 -14 -4 -30 -14 -42l-194 -242c-8 -10 -21 -18 -35 -18c-12 0 -25 6 -35 18z" />
    <glyph glyph-name="uni1E57" unicode="&#x1e57;" vert-adv-y="0" 
d="M81 956h356c10 0 15 0 21 -8l200 -236c4 -6 14 -22 14 -42v-268c0 -10 -2 -28 -14 -42l-194 -242c-4 -6 -17 -18 -33 -18h-253v-368h-97v1224zM178 830v-612h232l167 208v220l-158 184h-241zM215 1238c0 62 41 112 91 112s91 -50 91 -112s-41 -112 -91 -112
s-91 50 -91 112z" />
    <glyph glyph-name="ordmasculine" unicode="&#xba;" vert-adv-y="0" 
d="M184 990v-444l71 -84h260l65 84v444l-63 88h-262zM104 1056l98 122c12 14 27 16 33 16h303c16 0 29 -10 35 -18l91 -126c10 -12 13 -28 13 -38v-490c0 -20 -11 -36 -15 -42l-93 -118c-9 -13 -21 -14 -29 -14h-5h-300c-14 0 -27 8 -33 14l-100 116c-13 14 -15 32 -15 44
v494c0 20 13 34 17 40zM87 218h597v-120h-597v120z" />
    <glyph glyph-name="Amacron" unicode="&#x100;" vert-adv-y="0" 
d="M182 488v-390h-96v676c0 18 11 34 15 40l286 362c10 14 22 18 32 18c16 0 30 -8 38 -18l290 -364c12 -14 13 -32 13 -42v-672h-98v390h-480zM183 600h479v146l-241 300l-238 -298v-148zM142 1438h530v-122h-530v122z" />
    <glyph glyph-name="amacron" unicode="&#x101;" vert-adv-y="0" 
d="M572 216v252h-325l-71 -88v-74l69 -90h327zM669 216h99v-116h-545c-16 0 -29 12 -33 18l-95 124c-12 14 -14 34 -14 42v120c0 20 10 36 14 42l96 122c12 14 26 16 34 16h347v166l-66 84h-331v118h350c16 0 30 -12 34 -18l95 -120c12 -14 15 -30 15 -40v-558zM164 1196
h529v-122h-529v122z" />
    <glyph glyph-name="Abreve" unicode="&#x102;" vert-adv-y="0" 
d="M302 1420c10 12 22 18 32 18c14 0 27 -8 35 -18l67 -82l68 82c10 12 22 18 32 18c28 0 51 -30 51 -62c0 -14 -3 -28 -15 -42l-102 -124c-8 -10 -22 -16 -36 -16c-12 0 -23 4 -33 16l-99 124c-8 10 -15 26 -15 44c0 14 5 30 15 42zM188 464v-366h-95v552c0 20 10 36 14 42
l292 362c10 12 22 18 32 18c14 0 27 -8 35 -18l297 -364c12 -14 15 -32 15 -42v-550h-98v366h-492zM190 586h490v38l-247 304l-243 -304v-38z" />
    <glyph glyph-name="abreve" unicode="&#x103;" vert-adv-y="0" 
d="M583 216v252h-326l-69 -88v-74l68 -90h327zM680 216h99v-116h-544c-16 0 -30 12 -34 18l-94 124c-12 14 -14 34 -14 42v120c0 20 10 36 14 42l95 122c12 14 27 16 35 16h346v166l-66 84h-331v118h350c16 0 31 -12 35 -18l95 -120c12 -14 14 -30 14 -40v-558zM298 1300
c10 12 22 18 32 18c14 0 28 -8 36 -18l67 -82l67 82c10 12 23 18 33 18c14 0 28 -8 36 -18s14 -26 14 -44c0 -12 -4 -28 -14 -40l-103 -124c-8 -10 -21 -18 -35 -18c-12 0 -22 6 -32 18l-101 124c-8 10 -14 26 -14 44c0 12 4 28 14 40z" />
    <glyph glyph-name="Nacute" unicode="&#x143;" vert-adv-y="0" 
d="M86 100v1094h96l482 -610v610h96v-1094h-96v300l-482 616v-916h-96zM373 1244c-10 12 -15 28 -15 42c0 18 7 34 15 44l194 242c10 12 22 18 34 18c14 0 27 -8 35 -18s16 -26 16 -44c0 -14 -6 -30 -16 -42l-194 -242c-8 -10 -21 -18 -35 -18c-12 0 -24 6 -34 18z" />
    <glyph glyph-name="nacute" unicode="&#x144;" vert-adv-y="0" 
d="M256 884l39 48c4 6 17 18 33 18h202c8 0 20 -2 32 -16l96 -116c4 -6 14 -22 14 -42v-674h-92v650l-70 78h-162l-68 -84v-646h-97v670c0 6 3 14 7 24l-30 40h-79v118h102c16 0 27 -10 31 -18zM379 1092c-10 12 -15 28 -15 42c0 18 7 34 15 44l194 242c10 12 23 18 35 18
c14 0 28 -8 36 -18s14 -26 14 -44c0 -14 -4 -30 -14 -42l-195 -242c-8 -10 -22 -18 -36 -18c-12 0 -24 6 -34 18z" />
    <glyph glyph-name="Dcaron" unicode="&#x10e;" vert-adv-y="0" 
d="M279 220h217l166 206v440l-166 210h-217v-856zM182 1076h-96v118h431c16 0 30 -12 34 -18l194 -244c12 -14 15 -32 15 -42v-488c0 -20 -11 -38 -15 -44l-196 -240c-12 -14 -26 -20 -34 -20h-429v120h96v858zM658 1548l34 -42l-222 -274c-10 -12 -21 -16 -33 -16
c-14 0 -28 6 -36 16l-221 274l34 42l34 42l188 -232l188 232z" />
    <glyph glyph-name="dcaron" unicode="&#x10f;" vert-adv-y="0" 
d="M672 102h-344c-6 0 -21 2 -33 16l-200 242c-4 6 -14 22 -14 42v246c0 10 2 28 14 42l195 242c4 6 16 18 32 18h253v368h97v-1216zM575 218v614h-231l-168 -208v-198l172 -208h227z" />
    <glyph glyph-name="dcroat" unicode="&#x111;" vert-adv-y="0" 
d="M583 218v614h-231l-168 -208v-198l172 -208h227zM680 102h-343c-6 0 -22 2 -34 16l-199 242c-4 6 -15 22 -15 42v246c0 10 3 28 15 42l194 242c4 6 16 18 32 18h253v110h-235v122h235v136h97v-136h77v-122h-77v-958z" />
    <glyph glyph-name="Dcroat" unicode="&#x110;" vert-adv-y="0" 
d="M186 1076h-99v118h448c16 0 30 -10 34 -18l194 -244c12 -14 15 -32 15 -42v-488c0 -20 -9 -36 -15 -44l-196 -240c-12 -14 -26 -20 -34 -20h-446v120h99v376h-97v122h97v360zM285 220h229l166 206v440l-166 210h-229v-360h99v-122h-99v-374z" />
    <glyph glyph-name="Emacron" unicode="&#x112;" vert-adv-y="0" 
d="M86 1196h674v-122h-578v-362h385v-122h-385v-372h578v-120h-674v1098zM146 1438h530v-122h-530v122z" />
    <glyph glyph-name="emacron" unicode="&#x113;" vert-adv-y="0" 
d="M176 462v-158l71 -90h425v-112h-445c-14 0 -29 10 -33 16l-100 120c-12 14 -13 32 -13 42v484c0 20 12 34 16 40l99 126c12 14 27 22 35 22h294c16 0 30 -16 34 -22l95 -124c12 -14 15 -30 15 -40v-304h-493zM178 586h397v156l-69 88h-257l-71 -90v-154zM123 1196h529
v-122h-529v122z" />
    <glyph glyph-name="Ebreve" unicode="&#x114;" vert-adv-y="0" 
d="M183 1498h97c2 -16 3 -30 7 -46s9 -30 15 -44s14 -22 22 -32c10 -12 19 -24 31 -32s23 -12 36 -16c12 -4 23 -10 35 -10c13 0 26 6 38 10s22 10 34 18s20 20 28 30s17 20 23 34s10 32 14 48c4 14 6 26 6 40h97c0 -26 -2 -52 -8 -76s-14 -48 -24 -70s-24 -44 -38 -62
s-31 -34 -49 -46s-36 -22 -57 -30c-20 -6 -40 -12 -61 -12s-42 2 -63 8s-40 18 -58 30s-36 28 -52 46c-14 18 -29 38 -39 60c-12 22 -20 46 -24 72c-4 24 -10 54 -10 80zM87 1074h692v-122h-593v-366h395v-124h-395v-244h593v-120h-692v976z" />
    <glyph glyph-name="ebreve" unicode="&#x115;" vert-adv-y="0" 
d="M183 1374h97c2 -16 3 -30 7 -46s9 -30 15 -44s14 -24 22 -34c10 -12 19 -22 31 -30s23 -12 36 -16c12 -4 23 -6 35 -6c13 0 26 2 38 6s22 10 34 18s20 18 28 28s17 22 23 36s10 32 14 48c4 14 6 26 6 40h97c0 -26 -2 -52 -8 -76s-14 -48 -24 -70s-24 -44 -38 -62
s-31 -34 -49 -46s-36 -22 -57 -30c-20 -6 -40 -12 -61 -12s-42 2 -63 8s-40 18 -58 30s-36 28 -52 46c-14 18 -29 38 -39 60c-12 22 -20 46 -24 72c-4 24 -10 54 -10 80zM188 462v-158l69 -90h427v-112h-446c-14 0 -28 10 -32 16l-101 120c-12 14 -12 32 -12 42v484
c0 20 12 34 16 40l98 126c12 14 28 22 36 22h293c16 0 31 -16 35 -22l95 -124c12 -14 14 -30 14 -40v-304h-492zM190 586h397v156l-70 88h-256l-71 -90v-154z" />
    <glyph glyph-name="Edotaccent" unicode="&#x116;" vert-adv-y="0" 
d="M86 1196h674v-122h-578v-362h385v-122h-385v-372h578v-120h-674v1098zM342 1372c0 62 41 112 91 112s90 -50 90 -112s-40 -112 -90 -112s-91 50 -91 112z" />
    <glyph glyph-name="edotaccent" unicode="&#x117;" vert-adv-y="0" 
d="M176 462v-158l71 -90h425v-112h-445c-14 0 -29 10 -33 16l-100 120c-12 14 -13 32 -13 42v484c0 20 12 34 16 40l99 126c12 14 27 22 35 22h294c16 0 30 -16 34 -22l95 -124c12 -14 15 -30 15 -40v-304h-493zM178 586h397v156l-69 88h-257l-71 -90v-154zM302 1238
c0 62 40 112 90 112s90 -50 90 -112s-40 -112 -90 -112s-90 50 -90 112z" />
    <glyph glyph-name="Eogonek" unicode="&#x118;" vert-adv-y="0" 
d="M97 1196h674v-122h-578v-362h386v-122h-386v-372h578v-120h-64v-36l35 -46h36v-116h-57c-16 0 -23 6 -33 18l-61 82l-8 12c-2 2 -5 10 -5 18v68h-517v1098z" />
    <glyph glyph-name="eogonek" unicode="&#x119;" vert-adv-y="0" 
d="M525 12c-2 2 -5 10 -5 18v72h-282c-14 0 -28 10 -32 16l-101 120c-12 14 -12 32 -12 42v484c0 20 12 34 16 40l98 126c12 14 28 22 36 22h293c16 0 31 -16 35 -22l95 -124c12 -14 14 -30 14 -40v-304h-492v-158l69 -90h427v-112h-72v-40l36 -46h36v-116h-57
c-16 0 -22 6 -32 18l-62 82zM190 586h397v156l-70 88h-256l-71 -90v-154z" />
    <glyph glyph-name="Ecaron" unicode="&#x11a;" vert-adv-y="0" 
d="M86 1196h674v-122h-578v-362h385v-122h-385v-372h578v-120h-674v1098zM658 1548l34 -42l-222 -274c-10 -12 -21 -16 -33 -16c-14 0 -28 6 -36 16l-221 274l34 42l34 42l188 -232l188 232z" />
    <glyph glyph-name="ecaron" unicode="&#x11b;" vert-adv-y="0" 
d="M176 462v-158l71 -90h425v-112h-445c-14 0 -29 10 -33 16l-100 120c-12 14 -13 32 -13 42v484c0 20 12 34 16 40l99 126c12 14 27 22 35 22h294c16 0 30 -16 34 -22l95 -124c12 -14 15 -30 15 -40v-304h-493zM178 586h397v156l-69 88h-257l-71 -90v-154zM620 1370l34 -42
l-221 -274c-10 -12 -21 -16 -33 -16c-14 0 -28 6 -36 16l-222 274l34 42l35 42l188 -232l188 232z" />
    <glyph glyph-name="gcircumflex" unicode="&#x11d;" vert-adv-y="0" 
d="M620 380l-112 -138c-6 -10 -21 -18 -34 -18h-154c-12 0 -23 6 -33 18l-192 236c-8 8 -14 26 -14 42v134c0 14 4 30 14 42l197 244c6 10 21 16 34 16h245c12 0 23 -4 33 -16l99 -124c8 -8 14 -26 14 -42v-742c0 -14 -4 -30 -14 -42l-91 -112c-6 -10 -20 -18 -33 -18h-261
c-12 0 -24 6 -34 18l-94 116l67 84l80 -98h222l61 76v324zM620 548v202l-69 86h-206l-167 -206v-86l162 -200h115zM194 1092l-34 42l222 274c10 12 21 16 33 16c14 0 27 -6 35 -16l222 -274l-34 -42l-34 -42l-187 232l-188 -232z" />
    <glyph glyph-name="Gcircumflex" unicode="&#x11c;" vert-adv-y="0" 
d="M374 600h386v-112h-96v-386h-336c-8 0 -21 2 -33 16l-194 238c-4 6 -15 22 -15 42v496c0 10 1 32 13 46l194 238c4 8 19 16 35 16h194c8 0 23 -2 35 -16l122 -152l-70 -84l-107 134h-154l-165 -206v-446l165 -202h221v266h-195v112zM193 1270l-35 42l223 274
c10 12 20 16 32 16c14 0 28 -6 36 -16l221 -274l-34 -42l-33 -42l-188 232l-188 -232z" />
    <glyph glyph-name="Gbreve" unicode="&#x11e;" vert-adv-y="0" 
d="M302 1420c10 12 22 18 32 18c14 0 27 -8 35 -18l67 -82l68 82c10 12 20 18 32 18c14 0 28 -8 36 -20c8 -10 15 -26 15 -44c0 -12 -5 -28 -15 -40l-102 -124c-8 -10 -22 -16 -36 -16c-12 0 -23 4 -33 16l-99 124c-8 10 -15 26 -15 44c0 14 5 30 15 42zM384 586h397v-122
h-102v-304c0 -22 -17 -58 -51 -58h-294c-8 0 -22 2 -34 16l-195 238c-4 6 -14 22 -14 42v416c0 10 1 28 13 42l194 242c4 8 18 18 34 18h203c8 0 24 -4 36 -18l97 -122l-70 -84l-83 104h-162l-165 -206v-366l165 -202h228v242h-197v122z" />
    <glyph glyph-name="gbreve" unicode="&#x11f;" vert-adv-y="0" 
d="M302 1420c10 12 22 18 32 18c14 0 27 -8 35 -18l67 -82l68 82c10 12 20 18 32 18c14 0 28 -8 36 -20c8 -10 15 -26 15 -44c0 -12 -5 -28 -15 -40l-102 -124c-8 -10 -22 -16 -36 -16c-12 0 -23 4 -33 16l-99 124c-8 10 -15 26 -15 44c0 14 5 30 15 42zM684 462v288l-73 84
h-256l-169 -208v-82l169 -202h155l83 102c10 12 21 18 34 18h57zM684 342h-36l-83 -102c-8 -12 -20 -22 -34 -22h-195c-13 0 -24 6 -34 18l-198 240c-10 12 -15 26 -15 42v134c0 18 5 32 15 42l198 238c10 12 21 22 34 22h294c13 0 24 -4 34 -14l102 -120
c10 -12 15 -26 15 -44v-740c0 -16 -7 -30 -15 -42l-94 -120c-10 -12 -22 -18 -36 -18h-300c-13 0 -24 6 -34 18l-100 120l69 84l84 -102h261l68 84v282z" />
    <glyph glyph-name="Gdotaccent" unicode="&#x120;" vert-adv-y="0" 
d="M374 600h386v-112h-96v-386h-336c-8 0 -21 2 -33 16l-194 238c-4 6 -15 22 -15 42v496c0 10 1 32 13 46l194 238c4 8 19 16 35 16h194c8 0 23 -2 35 -16l122 -152l-70 -84l-107 134h-154l-165 -206v-446l165 -202h221v266h-195v112zM342 1372c0 62 41 112 91 112
s90 -50 90 -112s-40 -112 -90 -112s-91 50 -91 112z" />
    <glyph glyph-name="gdotaccent" unicode="&#x121;" vert-adv-y="0" 
d="M620 380l-112 -138c-6 -10 -21 -18 -34 -18h-154c-12 0 -23 6 -33 18l-192 236c-8 8 -14 26 -14 42v134c0 14 4 30 14 42l197 244c6 10 21 16 34 16h245c12 0 23 -4 33 -16l99 -124c8 -8 14 -26 14 -42v-742c0 -14 -4 -30 -14 -42l-91 -112c-6 -10 -20 -18 -33 -18h-261
c-12 0 -24 6 -34 18l-94 116l67 84l80 -98h222l61 76v324zM620 548v202l-69 86h-206l-167 -206v-86l162 -200h115zM342 1238c0 62 41 112 91 112s90 -50 90 -112s-40 -112 -90 -112s-91 50 -91 112z" />
    <glyph glyph-name="Gcommaaccent" unicode="&#x122;" vert-adv-y="0" 
d="M766 1590v-304c0 -16 -5 -28 -13 -40l-95 -120c-10 -12 -19 -18 -32 -18h-12.8158l65.8158 -82l-70 -84l-107 134h-154l-165 -206v-446l165 -202h221v266h-195v112h386v-112h-96v-386h-336c-8 0 -21 2 -33 16l-194 238c-4 6 -15 22 -15 42v496c0 10 1 32 13 46l194 238
c4 8 19 16 35 16h146v28h132l66 86v282h94z" />
    <glyph glyph-name="gcommaaccent" unicode="&#x123;" vert-adv-y="0" 
d="M632 548v202l-70 86h-206l-166 -206v-86l162 -200h114zM632 380l-112 -138c-6 -10 -21 -18 -34 -18h-154c-12 0 -24 6 -34 18l-191 236c-8 8 -14 26 -14 42v134c0 14 4 30 14 42l196 244c6 10 21 16 34 16h244c12 0 25 -4 35 -16l99 -124c8 -8 14 -26 14 -42v-742
c0 -14 -4 -30 -14 -42l-91 -112c-6 -10 -21 -18 -34 -18h-262c-12 0 -23 6 -33 18l-94 116l68 84l79 -98h223l61 76v324zM766 1590v-304c0 -16 -5 -28 -13 -40l-95 -120c-10 -12 -19 -18 -32 -18h-152v114h132l66 86v282h94z" />
    <glyph glyph-name="uni007F" vert-adv-y="0" 
 />
    <glyph glyph-name="uni0080" vert-adv-y="0" 
 />
    <glyph glyph-name="uni0081" vert-adv-y="0" 
 />
    <glyph glyph-name="uni0082" vert-adv-y="0" 
 />
    <glyph glyph-name="uni0083" vert-adv-y="0" 
 />
    <glyph glyph-name="uni0084" vert-adv-y="0" 
 />
    <glyph glyph-name="uni0085" unicode="&#x85;" vert-adv-y="0" 
 />
    <glyph glyph-name="uni0086" vert-adv-y="0" 
 />
    <glyph glyph-name="uni0087" vert-adv-y="0" 
 />
    <glyph glyph-name="uni0088" vert-adv-y="0" 
 />
    <glyph glyph-name="uni0089" vert-adv-y="0" 
 />
    <glyph glyph-name="uni008A" vert-adv-y="0" 
 />
    <glyph glyph-name="uni008B" vert-adv-y="0" 
 />
    <glyph glyph-name="uni008C" vert-adv-y="0" 
 />
    <glyph glyph-name="uni008D" vert-adv-y="0" 
 />
    <glyph glyph-name="uni008E" vert-adv-y="0" 
 />
    <glyph glyph-name="uni008F" vert-adv-y="0" 
 />
    <glyph glyph-name="uni0090" vert-adv-y="0" 
 />
    <glyph glyph-name="uni0091" vert-adv-y="0" 
 />
    <glyph glyph-name="uni0092" vert-adv-y="0" 
 />
    <glyph glyph-name="uni0093" vert-adv-y="0" 
 />
    <glyph glyph-name="uni0094" vert-adv-y="0" 
 />
    <glyph glyph-name="uni0095" vert-adv-y="0" 
 />
    <glyph glyph-name="uni0096" vert-adv-y="0" 
 />
    <glyph glyph-name="uni0097" vert-adv-y="0" 
 />
    <glyph glyph-name="uni0098" vert-adv-y="0" 
 />
    <glyph glyph-name="uni0099" vert-adv-y="0" 
 />
    <glyph glyph-name="uni009A" vert-adv-y="0" 
 />
    <glyph glyph-name="uni009B" vert-adv-y="0" 
 />
    <glyph glyph-name="uni009C" vert-adv-y="0" 
 />
    <glyph glyph-name="uni009D" vert-adv-y="0" 
 />
    <glyph glyph-name="uni009E" vert-adv-y="0" 
 />
    <glyph glyph-name="uni009F" vert-adv-y="0" 
 />
    <glyph glyph-name="uni00A0" unicode="&#xa0;" vert-adv-y="0" 
 />
    <glyph glyph-name="Aogonek" unicode="&#x104;" vert-adv-y="0" 
d="M194 600h480v146l-241 300l-239 -298v-148zM193 488v-390h-96v676c0 18 11 34 15 40l287 362c10 14 22 18 32 18c16 0 29 -8 37 -18l290 -364c12 -14 13 -32 13 -42v-610h7v-100l36 -46h35v-116h-57c-16 0 -22 6 -32 18l-62 82l-8 12c-2 2 -5 10 -5 18v70h-11v390h-481z
" />
    <glyph glyph-name="aogonek" unicode="&#x105;" vert-adv-y="0" 
d="M680 216h99v-116h-99v-38l36 -46h36v-116h-57c-16 0 -23 6 -33 18l-61 82l-8 12c-2 2 -5 10 -5 18v70h-353c-16 0 -30 12 -34 18l-94 124c-12 14 -14 34 -14 42v120c0 20 10 36 14 42l95 122c12 14 27 16 35 16h346v166l-66 84h-331v118h350c16 0 31 -12 35 -18l95 -120
c12 -14 14 -30 14 -40v-558zM583 216v252h-326l-69 -88v-74l68 -90h327z" />
    <glyph glyph-name="Cacute" unicode="&#x106;" vert-adv-y="0" 
d="M760 1058l-68 -84l-86 102h-157l-266 -328v-202l267 -328h154l84 110l72 -84l-99 -128c-6 -8 -19 -18 -35 -18h-195c-8 0 -22 6 -34 20l-296 360c-4 6 -15 22 -15 42v252c0 10 1 28 13 42l296 364c4 6 18 16 34 16h197c8 0 22 0 34 -14zM514 1242c-10 12 -15 28 -15 42
c0 18 7 34 15 44l194 242c10 12 22 18 34 18c14 0 28 -8 36 -18s14 -26 14 -44c0 -14 -4 -30 -14 -42l-195 -242c-8 -10 -22 -18 -36 -18c-12 0 -23 6 -33 18z" />
    <glyph glyph-name="cacute" unicode="&#x107;" vert-adv-y="0" 
d="M672 950v-118h-328l-168 -208v-198l172 -208h324v-116h-344c-6 0 -21 2 -33 16l-200 242c-4 6 -14 22 -14 42v246c0 10 2 28 14 42l195 242c4 6 16 18 32 18h350zM449 1092c-10 12 -15 28 -15 42c0 18 7 34 15 44l195 242c10 12 21 18 33 18c14 0 28 -8 36 -18
s14 -26 14 -44c0 -14 -4 -30 -14 -42l-195 -242c-8 -10 -22 -18 -36 -18c-12 0 -23 6 -33 18z" />
    <glyph glyph-name="Ccircumflex" unicode="&#x108;" vert-adv-y="0" 
d="M760 1058l-68 -84l-86 102h-157l-266 -328v-202l267 -328h154l84 110l72 -84l-99 -128c-6 -8 -19 -18 -35 -18h-195c-8 0 -22 6 -34 20l-296 360c-4 6 -15 22 -15 42v252c0 10 1 28 13 42l296 364c4 6 18 16 34 16h197c8 0 22 0 34 -14zM298 1270l-34 42l222 274
c10 12 20 16 32 16c14 0 28 -6 36 -16l222 -274l-34 -42l-34 -42l-188 232l-188 -232z" />
    <glyph glyph-name="ccircumflex" unicode="&#x109;" vert-adv-y="0" 
d="M672 950v-118h-328l-168 -208v-198l172 -208h324v-116h-344c-6 0 -21 2 -33 16l-200 242c-4 6 -14 22 -14 42v246c0 10 2 28 14 42l195 242c4 6 16 18 32 18h350zM266 1092l-35 42l223 274c10 12 20 16 32 16c14 0 28 -6 36 -16l221 -274l-34 -42l-33 -42l-188 232
l-188 -232z" />
    <glyph glyph-name="Cdotaccent" unicode="&#x10a;" vert-adv-y="0" 
d="M760 1058l-68 -84l-86 102h-157l-266 -328v-202l267 -328h154l84 110l72 -84l-99 -128c-6 -8 -19 -18 -35 -18h-195c-8 0 -22 6 -34 20l-296 360c-4 6 -15 22 -15 42v252c0 10 1 28 13 42l296 364c4 6 18 16 34 16h197c8 0 22 0 34 -14zM434 1372c0 62 41 112 91 112
s91 -50 91 -112s-41 -112 -91 -112s-91 50 -91 112z" />
    <glyph glyph-name="cdotaccent" unicode="&#x10b;" vert-adv-y="0" 
d="M672 950v-118h-328l-168 -208v-198l172 -208h324v-116h-344c-6 0 -21 2 -33 16l-200 242c-4 6 -14 22 -14 42v246c0 10 2 28 14 42l195 242c4 6 16 18 32 18h350zM302 1238c0 62 40 112 90 112s90 -50 90 -112s-40 -112 -90 -112s-90 50 -90 112z" />
    <glyph glyph-name="Ccaron" unicode="&#x10c;" vert-adv-y="0" 
d="M760 1058l-68 -84l-86 102h-157l-266 -328v-202l267 -328h154l84 110l72 -84l-99 -128c-6 -8 -19 -18 -35 -18h-195c-8 0 -22 6 -34 20l-296 360c-4 6 -15 22 -15 42v252c0 10 1 28 13 42l296 364c4 6 18 16 34 16h197c8 0 22 0 34 -14zM752 1548l34 -42l-223 -274
c-10 -12 -20 -16 -32 -16c-14 0 -27 6 -35 16l-222 274l34 42l34 42l188 -232l187 232z" />
    <glyph glyph-name="ccaron" unicode="&#x10d;" vert-adv-y="0" 
d="M672 950v-118h-328l-168 -208v-198l172 -208h324v-116h-344c-6 0 -21 2 -33 16l-200 242c-4 6 -14 22 -14 42v246c0 10 2 28 14 42l195 242c4 6 16 18 32 18h350zM733 1386l33 -42l-222 -274c-10 -12 -20 -16 -32 -16c-14 0 -28 6 -36 16l-221 274l33 42l34 42l188 -232
l188 232z" />
    <glyph glyph-name="uni1E56" unicode="&#x1e56;" vert-adv-y="0" 
d="M182 586h314l168 210v78l-166 200h-316v-488zM182 462v-366h-96v1098h431c13 0 24 -4 34 -16l194 -238c10 -12 15 -24 15 -40v-128c0 -16 -3 -30 -13 -42l-196 -246c-10 -12 -21 -22 -34 -22h-335zM266 1372c0 62 40 112 90 112s91 -50 91 -112s-41 -112 -91 -112
s-90 50 -90 112z" />
    <glyph glyph-name="uniFF00" unicode="&#xff00;" vert-adv-y="0" 
 />
    <glyph glyph-name="uniFF01" unicode="&#xff01;" vert-adv-y="0" 
d="M384 220h100v-122h-100v122zM384 1318h98v-856h-98v856z" />
    <glyph glyph-name="uniFF02" unicode="&#xff02;" vert-adv-y="0" 
d="M186 1318h101v-366h-101v366zM482 1318h99v-366h-99v366z" />
    <glyph glyph-name="uniFF03" unicode="&#xff03;" vert-adv-y="0" 
d="M480 952h-193v-246h193v246zM190 1196h97v-122h193v122h95v-124h97v-120h-97v-246h97v-120h-97v-120h-95v120h-193v-122h-97v122h-96v122h96v244h-96v122h96v122z" />
    <glyph glyph-name="uniFF04" unicode="&#xff04;" vert-adv-y="0" 
d="M788 1076v-120h-298v-246h145c13 0 27 -8 35 -18l101 -124c10 -12 13 -28 13 -42v-128c0 -16 -5 -32 -13 -42l-97 -120c-10 -12 -24 -18 -36 -18h-148v-240h-98v240h-288v120h288v252h-147c-12 0 -24 6 -34 18l-98 120c-8 10 -14 26 -14 42v126c0 14 4 30 14 42l98 120
c8 10 21 18 34 18h147v240h98v-240h298zM392 956h-126l-70 -86v-76l70 -84h126v246zM490 338h129l68 84v78l-71 90h-126v-252z" />
    <glyph glyph-name="uniFF05" unicode="&#xff05;" vert-adv-y="0" 
d="M112 236l-11 27v30l11 27l592 730l21 16h26l22 -16l12 -27v-30l-12 -27l-591 -730l-23 -16h-25zM583 162c0 -40 25 -72 57 -72c31 0 57 32 57 72s-26 68 -57 68c-32 0 -57 -28 -57 -68zM490 160c0 102 67 186 148 186s148 -84 148 -186s-67 -186 -148 -186
s-148 84 -148 186zM190 1128c0 -40 25 -72 57 -72c31 0 56 32 56 72s-25 68 -56 68c-32 0 -57 -28 -57 -68zM97 1126c0 102 67 186 148 186s147 -84 147 -186s-66 -186 -147 -186s-148 84 -148 186z" />
    <glyph glyph-name="uniFF06" unicode="&#xff06;" vert-adv-y="0" 
d="M302 484c-4 4 -7 6 -9 10l-6 12c-1 1 -1 3 -1 5c0 3 1 6 1 9v76h-58l-45 -78v-214l67 -84h164l50 62zM105 736c-2 4 -6 6 -8 10v4v6v6v6v246v8v6v8c0 1.33333 -0.888889 2.66667 -0.888889 4c0 0.666667 0.222222 1.33333 0.888889 2c2 2 5 4 7 6s3 4 5 6l89 118
c4 4 5 8 9 10l12 6c2 1 3 1 4 1c4 0 4 -1 8 -1h109c4 0 8 0 12 -2s7 -4 11 -6c2 -2 3 -2 5 -4s3 -2 5 -4l91 -110c2 -2 0 -4 2 -6s4 -4 4 -6c2 -4 2 -10 4 -14s2 -10 2 -14v-248c0 -2 6 -6 6 -8s-2 -6 -2 -8c-2 -4 -2 -10 -4 -14c-2 -2 -1 -4 -3 -6s-3 -4 -5 -6l-91 -114
v-68l154 -186l170 208l67 -80l-172 -210l167 -204l-65 -78l-167 202l-65 -80c-4 -4 -5 -8 -9 -10s-7 -4 -11 -6c-2 -1 -4 -1 -5 -1c-4 0 -4 1 -8 1h-202c-3 0 -4 -1 -7 -1c-2 0 -3 0 -4 1c-4 2 -5 6 -9 8c-2 2 -3 2 -5 4s-3 2 -5 4l-97 118c-4 4 -5 8 -7 12s-4 10 -6 14
c0 1 -1 2 -1 3c0 5 3 8 3 13v254v6v6s4 4 4 6v4c0.42265 0.845299 0.57735 1.60128 0.57735 2.3057c0 1.9245 -1.1547 3.4641 -1.1547 5.3886c0 0.704416 0.154701 1.4604 0.57735 2.3057l52 88zM384 796v200l-64 80h-69l-63 -84v-206l37 -66h101z" />
    <glyph glyph-name="uniFF07" unicode="&#xff07;" vert-adv-y="0" 
d="M395 1318h99v-366h-99v366z" />
    <glyph glyph-name="uniFF08" unicode="&#xff08;" vert-adv-y="0" 
d="M311 940l203 238c10 10 20 18 32 18c13 0 25 -8 33 -20c10 -12 14 -26 14 -42s-4 -28 -14 -40l-188 -226v-440l189 -232c10 -10 15 -26 15 -42s-5 -28 -15 -38c-10 -12 -21 -18 -33 -18s-24 6 -32 18l-203 250c-10 12 -14 22 -14 38v488c0 16 3 36 13 48z" />
    <glyph glyph-name="uniFF09" unicode="&#xff09;" vert-adv-y="0" 
d="M581 354l-202 -238c-10 -10 -21 -18 -33 -18c-13 0 -24 8 -32 20c-10 12 -14 26 -14 42s4 28 14 40l188 226v440l-190 232c-10 10 -14 26 -14 42s4 28 14 38c10 12 21 18 33 18s24 -6 32 -18l203 -250c10 -12 15 -22 15 -38v-488c0 -16 -4 -36 -14 -48z" />
    <glyph glyph-name="uniFF0A" unicode="&#xff0a;" vert-adv-y="0" 
d="M384 708h98v-368h-98v368zM384 1196h98v-368h-98v368zM698 1056l70 -84l-160 -200l163 -208l-70 -84l-231 292zM170 1056l229 -284l-233 -292l-67 84l164 208l-161 200z" />
    <glyph glyph-name="uniFF0B" unicode="&#xff0b;" vert-adv-y="0" 
d="M385 1044h97v-332h289v-126h-289v-320h-97v320h-288v126h288v332z" />
    <glyph glyph-name="uniFF0C" unicode="&#xff0c;" vert-adv-y="0" 
d="M579 378v-214l-30 -84l-219 -272l-136 168l191 238v164h194z" />
    <glyph glyph-name="uniFF0D" unicode="&#xff0d;" vert-adv-y="0" 
d="M193 712h483v-112h-483v112z" />
    <glyph glyph-name="uniFF0E" unicode="&#xff0e;" vert-adv-y="0" 
d="M290 322h192v-222h-192v222z" />
    <glyph glyph-name="uniFF0F" unicode="&#xff0f;" vert-adv-y="0" 
d="M112 236l-11 27v30l11 27l592 730l21 16h26l22 -16l12 -27v-30l-12 -27l-591 -730l-23 -16h-25z" />
    <glyph glyph-name="uniFF10" unicode="&#xff10;" vert-adv-y="0" 
d="M434 888c26 0 48 -28 48 -60v-246c0 -32 -22 -60 -48 -60c-28 0 -49 28 -49 60v246c0 32 21 60 49 60zM193 990v-564l168 -208h147l168 204v568l-172 210h-140zM112 1056l200 246c8 12 22 18 34 18h177c13 0 26 -8 34 -18l200 -246c10 -10 14 -28 14 -42v-616
c0 -16 -6 -34 -14 -42l-195 -240c-10 -12 -24 -18 -34 -18h-184c-13 0 -28 8 -34 18l-198 244c-10 12 -15 28 -15 42v612c0 16 7 34 15 42z" />
    <glyph glyph-name="uniFF11" unicode="&#xff11;" vert-adv-y="0" 
d="M403 1296c10 12 21 20 33 20c6 0 16 0 22 -4c20 -10 24 -30 24 -56v-1156h-97v1008l-155 -196l-68 78z" />
    <glyph glyph-name="uniFF12" unicode="&#xff12;" vert-adv-y="0" 
d="M193 952h-96v64c0 16 7 32 15 42l196 244c10 12 22 18 34 18h282c13 0 26 -8 34 -18l99 -122c10 -12 14 -28 14 -42v-252c0 -16 -6 -32 -14 -42l-498 -628h512v-120h-630c-12 0 -24 6 -34 18s-14 28 -14 42s4 30 14 42l569 712v204l-70 86h-245l-168 -208v-40z" />
    <glyph glyph-name="uniFF13" unicode="&#xff13;" vert-adv-y="0" 
d="M193 1200v120h578v-186c0 -16 -6 -32 -14 -42l-216 -266c6 -2 12 -8 16 -12l198 -244c10 -12 15 -28 15 -42v-134c0 -16 -7 -32 -15 -42l-190 -234c-10 -12 -22 -18 -34 -18h-293c-13 0 -26 8 -34 18l-107 132l69 84l91 -114h258l161 198v84l-169 210h-79
c-12 0 -25 6 -35 18s-14 26 -14 42s4 30 14 42l283 344v42h-483z" />
    <glyph glyph-name="uniFF14" unicode="&#xff14;" vert-adv-y="0" 
d="M676 600h95v-112h-95v-438h-97v438h-433c-26 0 -49 28 -49 60v224c0 12 5 30 15 42l388 488c6 10 22 18 35 18h141v-720zM579 600v600h-24l-365 -458v-142h389z" />
    <glyph glyph-name="uniFF15" unicode="&#xff15;" vert-adv-y="0" 
d="M771 1320v-120h-578v-246h335c12 0 24 -6 34 -18l195 -240c8 -8 14 -26 14 -42v-252c0 -14 -4 -30 -14 -42l-196 -242c-6 -10 -22 -18 -35 -18h-424v120h406l168 208v202l-166 204h-413v486h674z" />
    <glyph glyph-name="uniFF16" unicode="&#xff16;" vert-adv-y="0" 
d="M97 372v2v636c0 14 5 30 15 42l232 286l69 -84l-217 -268v-330l122 150c8 10 21 18 34 18h178c12 0 23 -6 33 -18l194 -242c8 -10 14 -26 14 -42v-144c0 -14 -4 -30 -14 -42l-202 -248c-8 -10 -20 -18 -33 -18h-177c-12 0 -24 6 -34 18l-199 244c-2 2 -15 40 -15 40z
M196 492v-92l168 -210h138l172 214v100l-166 206h-137z" />
    <glyph glyph-name="uniFF17" unicode="&#xff17;" vert-adv-y="0" 
d="M385 98h-95v568c0 16 6 34 14 42l370 456v36h-577v120h674v-180c0 -14 -4 -32 -14 -42l-372 -458v-542z" />
    <glyph glyph-name="uniFF18" unicode="&#xff18;" vert-adv-y="0" 
d="M207 1166l95 132c10 14 22 20 35 20h193c14 0 25 -6 33 -16l95 -120c10 -12 14 -26 14 -40v-250l-16 -40l-58 -68l162 -214c6 -10 11 -24 11 -40v-142c0 -14 -4 -26 -14 -38l-196 -238c-8 -10 -18 -14 -31 -14h-194c-14 0 -28 6 -34 14l-190 238l-15 40v142
c0 10 6 24 16 38l159 210l-63 68c-10 10 -16 26 -16 44v238c0 10 4 24 14 36zM194 508v-94l161 -206h155l167 208v92l-167 218h-149zM290 1108v-192l70 -78h152l65 78v204l-67 84h-152z" />
    <glyph glyph-name="uniFF19" unicode="&#xff19;" vert-adv-y="0" 
d="M676 868l-212 -262c-6 -10 -22 -18 -35 -18h-191c-12 0 -24 6 -34 18l-92 114c-8 8 -15 26 -15 42v254c0 14 5 32 15 42l198 244c6 10 21 18 34 18h280c12 0 26 -6 34 -18l99 -124c8 -10 14 -26 14 -42v-856c0 -14 -4 -30 -14 -42l-130 -160l-68 84l117 140v566z
M676 1032v82l-72 86h-241l-169 -208v-206l63 -78h153z" />
    <glyph glyph-name="uniFF1A" unicode="&#xff1a;" vert-adv-y="0" 
d="M290 322h192v-222h-192v222zM290 822h192v-222h-192v222z" />
    <glyph glyph-name="uniFF1B" unicode="&#xff1b;" vert-adv-y="0" 
d="M579 378v-214l-30 -84l-219 -272l-136 168l191 238v164h194zM385 822h194v-222h-194v222z" />
    <glyph glyph-name="uniFF1C" unicode="&#xff1c;" vert-adv-y="0" 
d="M666 198c8 -12 13 -28 13 -44s-7 -30 -15 -42s-21 -18 -34 -20c-4 0 -5 -1 -9 -1c-9 0 -16 3 -25 9l-394 490v112l393 492c9 5 18 12 29 12h3c12 -2 21 -8 29 -18c10 -10 14 -26 16 -42c0 -4 1 -7 1 -11c0 -12 -3 -22 -7 -33l-370 -456z" />
    <glyph glyph-name="uniFF1D" unicode="&#xff1d;" vert-adv-y="0" 
d="M97 934h674v-112h-674v112zM97 600h674v-112h-674v112z" />
    <glyph glyph-name="uniFF1E" unicode="&#xff1e;" vert-adv-y="0" 
d="M215 1100c-8 12 -13 28 -13 44s7 30 15 42s21 18 34 20c4 0 5 1 9 1c9 0 16 -3 25 -9l394 -490v-112l-392 -492c-9 -5 -19 -12 -30 -12h-2c-12 2 -22 8 -30 18c-10 10 -14 26 -16 42c0 4 -1 7 -1 11c0 12 3 22 7 33l370 456z" />
    <glyph glyph-name="uniFF1F" unicode="&#xff1f;" vert-adv-y="0" 
d="M290 954h-97v184c0 16 6 32 14 42l103 124c10 12 24 14 34 14h276c13 0 26 -6 34 -16l103 -126c10 -12 14 -28 14 -42v-122c0 -16 -8 -34 -16 -44l-273 -320v-184h-97v210c0 14 5 32 15 44l276 320v72l-75 90h-238l-73 -88v-158zM385 222h97v-122h-97v122z" />
    <glyph glyph-name="uniFF20" unicode="&#xff20;" vert-adv-y="0" 
d="M482 704v120h-25l-70 -86v-34h95zM580 704h31l63 80v328l-65 80h-346l-69 -84v-810l61 -76h516v-120h-536c-12 0 -26 6 -36 18l-89 110c-8 10 -13 26 -13 42v860c0 14 3 30 13 42l97 120c8 10 23 18 36 18h385c12 0 26 -6 36 -18l94 -116c8 -10 13 -26 13 -42v-378
c0 -14 -3 -30 -13 -42l-92 -114c-8 -10 -21 -18 -34 -18h-294c-26 0 -48 28 -48 60v118c0 14 3 30 13 42l98 122c8 10 23 14 36 14h94c26 0 49 -24 49 -56v-180z" />
    <glyph glyph-name="uniFF22" unicode="&#xff22;" vert-adv-y="0" 
d="M193 218v858h-96v118h431c16 0 29 -10 35 -16l195 -250c10 -12 13 -26 13 -40c0 -20 -6 -36 -14 -46l-164 -194l164 -198c10 -12 14 -28 14 -40c0 -18 -6 -34 -14 -44l-198 -250c-12 -14 -26 -18 -34 -18h-428v120h96zM506 586h-216v-368h214l150 188zM504 708l150 180
l-147 188h-217v-368h214z" />
    <glyph glyph-name="uniFF23" unicode="&#xff23;" vert-adv-y="0" 
d="M771 1058l-68 -84l-86 102h-157l-266 -328v-202l268 -328h154l84 110l71 -84l-99 -128c-6 -8 -20 -18 -36 -18h-194c-8 0 -21 6 -33 20l-297 360c-4 6 -15 22 -15 42v252c0 10 1 28 13 42l297 364c4 6 18 16 34 16h195c8 0 22 0 34 -14z" />
    <glyph glyph-name="uniFF24" unicode="&#xff24;" vert-adv-y="0" 
d="M290 220h217l167 206v440l-167 210h-217v-856zM193 1076h-96v118h431c16 0 30 -12 34 -18l195 -244c12 -14 14 -32 14 -42v-488c0 -20 -10 -38 -14 -44l-196 -240c-12 -14 -27 -20 -35 -20h-429v120h96v858z" />
    <glyph glyph-name="uniFF25" unicode="&#xff25;" vert-adv-y="0" 
d="M97 1196h674v-122h-578v-362h386v-122h-386v-372h578v-120h-674v1098z" />
    <glyph glyph-name="uniFF26" unicode="&#xff26;" vert-adv-y="0" 
d="M97 1194h674v-120h-578v-362h483v-112h-483v-502h-96v1096z" />
    <glyph glyph-name="uniFF27" unicode="&#xff27;" vert-adv-y="0" 
d="M385 600h386v-112h-95v-386h-336c-8 0 -22 2 -34 16l-194 238c-4 6 -15 22 -15 42v496c0 10 1 32 13 46l194 238c4 8 18 16 34 16h195c8 0 24 -2 36 -16l121 -152l-70 -84l-106 134h-154l-166 -206v-446l166 -202h220v266h-195v112z" />
    <glyph glyph-name="uniFF28" unicode="&#xff28;" vert-adv-y="0" 
d="M97 1194h96v-482h483v482h95v-1094h-95v500h-483v-500h-96v1094z" />
    <glyph glyph-name="uniFF29" unicode="&#xff29;" vert-adv-y="0" 
d="M290 1194h289v-120h-97v-856h97v-122h-289v122h95v856h-95v120z" />
    <glyph glyph-name="uniFF2A" unicode="&#xff2a;" vert-adv-y="0" 
d="M97 464h96v-162l71 -82h151l67 86v768h-97v120h291v-120h-97v-792c0 -8 -2 -28 -14 -42l-95 -122c-6 -8 -20 -18 -36 -18h-191c-6 0 -22 2 -34 16l-97 116c-4 6 -15 22 -15 42v190z" />
    <glyph glyph-name="uniFF2B" unicode="&#xff2b;" vert-adv-y="0" 
d="M199 376v-278h-102v1096h102v-646l475 608v38h96v-62c0 -16 -5 -30 -15 -42l-348 -444l350 -444c10 -12 14 -26 14 -42v-62h-97v38l-336 426z" />
    <glyph glyph-name="uniFF2C" unicode="&#xff2c;" vert-adv-y="0" 
d="M97 1194h96v-976h578v-120h-674v1096z" />
    <glyph glyph-name="uniFF2D" unicode="&#xff2d;" vert-adv-y="0" 
d="M482 740v-152h-98v152l-190 248v-888h-97v1032c0 26 11 46 31 56c6 4 12 6 18 6c12 0 24 -8 34 -20l251 -322l257 326c10 12 23 16 35 16c4 0 7 2 11 2c2 0 4 -1 7 -2c20 -10 30 -32 30 -58v-1036h-97v892z" />
    <glyph glyph-name="uniFF2E" unicode="&#xff2e;" vert-adv-y="0" 
d="M97 100v1094h96l483 -610v610h95v-1094h-95v300l-483 616v-916h-96z" />
    <glyph glyph-name="uniFF2F" unicode="&#xff2f;" vert-adv-y="0" 
d="M198 988v-688l63 -80h343l70 86v680l-70 90h-341zM113 1052l93 124c12 16 25 18 35 18h385c16 0 31 -10 35 -18l97 -124c12 -14 13 -32 13 -42v-730c0 -20 -8 -36 -14 -42l-99 -120c-12 -14 -26 -18 -34 -18h-383c-16 0 -30 10 -34 16l-95 114c-12 14 -15 34 -15 44v738
c0 18 10 32 16 40z" />
    <glyph glyph-name="uniFF30" unicode="&#xff30;" vert-adv-y="0" 
d="M193 586h314l169 210v78l-168 200h-315v-488zM193 462v-366h-96v1098h431c13 0 24 -4 34 -16l195 -238c10 -12 14 -24 14 -40v-128c0 -16 -3 -30 -13 -42l-196 -246c-10 -12 -21 -22 -34 -22h-335z" />
    <glyph glyph-name="uniFF31" unicode="&#xff31;" vert-adv-y="0" 
d="M601 166l164 -218l-72 -80l-175 236h-176c-13 0 -24 6 -34 18l-196 238c-10 12 -15 26 -15 42v494c0 16 5 32 15 44l194 238c10 12 21 16 34 16h191c13 0 24 -4 34 -16l192 -244c10 -12 14 -26 14 -42v-492c0 -18 -4 -30 -14 -42zM531 248l143 178v442l-164 208h-149
l-167 -204v-444l167 -204h68l-40 80c-4 10 -7 18 -7 30v130h98v-114z" />
    <glyph glyph-name="uniFF32" unicode="&#xff32;" vert-adv-y="0" 
d="M450 588l307 -382c10 -12 14 -26 14 -42v-64h-95v28l-365 460h-118v-488h-96v1094h527c13 0 24 -6 34 -18l99 -120c10 -12 14 -26 14 -42v-246c0 -16 -4 -30 -14 -42l-96 -120c-10 -12 -21 -18 -34 -18h-177zM193 708h413l68 84v196l-70 86h-411v-366z" />
    <glyph glyph-name="uniFF33" unicode="&#xff33;" vert-adv-y="0" 
d="M670 996l-61 80h-340l-70 -86v-64l548 -476c14 -12 21 -30 21 -50v-118c0 -16 -5 -28 -13 -40l-93 -124c-10 -12 -21 -22 -35 -22h-382c-13 0 -24 6 -34 18l-99 122c-10 12 -15 26 -15 42v62h97v-38l70 -84h342l64 88v62l-547 476c-14 12 -21 30 -21 50v120
c0 16 5 30 15 42l98 122c10 12 21 16 34 16h379c13 0 24 -4 34 -16l95 -116c10 -12 14 -26 14 -42v-64h-101v40z" />
    <glyph glyph-name="uniFF34" unicode="&#xff34;" vert-adv-y="0" 
d="M97 1194h674v-120h-289v-976h-97v976h-288v120z" />
    <glyph glyph-name="uniFF35" unicode="&#xff35;" vert-adv-y="0" 
d="M97 1194h94v-890l70 -84h347l66 86v888h97v-912c0 -8 -1 -26 -13 -40l-94 -122c-6 -8 -20 -20 -36 -20h-389c-8 0 -21 4 -33 18l-96 118c-4 6 -13 22 -13 42v916z" />
    <glyph glyph-name="uniFF36" unicode="&#xff36;" vert-adv-y="0" 
d="M194 1026l235 -716l245 714v170h97v-182c0 -8 -1 -16 -3 -24l-294 -856c-8 -22 -24 -36 -45 -36s-37 14 -45 36l-287 858c-1 3 -2 5 -2 7c0 5 2 10 2 15v182h97v-168z" />
    <glyph glyph-name="uniFF37" unicode="&#xff37;" vert-adv-y="0" 
d="M431 314l-154 -200c-10 -12 -22 -18 -34 -18c-13 0 -24 6 -34 18l-97 120c-10 12 -15 26 -15 42v918h96v-894l50 -58l141 184v278h97v-282l143 -180l50 60v892h97v-918c0 -18 -4 -32 -14 -44l-99 -118c-10 -10 -21 -18 -34 -18c-12 0 -24 8 -34 20z" />
    <glyph glyph-name="uniFF38" unicode="&#xff38;" vert-adv-y="0" 
d="M431 562l-235 -306v-154h-97v178c0 16 4 30 14 42l250 324l-250 330c-10 12 -14 26 -14 42v178h97v-154l237 -310l241 308v154h97v-178c0 -16 -4 -30 -14 -42l-257 -326l257 -328c10 -12 14 -26 14 -42v-178h-97v154z" />
    <glyph glyph-name="uniFF39" unicode="&#xff39;" vert-adv-y="0" 
d="M482 742v-642h-98v642l-272 348c-10 12 -15 26 -15 42v62h97v-38l242 -304l238 304v38h97v-58c0 -16 -3 -32 -13 -44z" />
    <glyph glyph-name="uniFF3A" unicode="&#xff3a;" vert-adv-y="0" 
d="M769 1012c0 -16 -4 -30 -14 -42l-561 -712v-38h577v-122h-674v184c0 16 5 30 15 42l560 712v38h-575v120h672v-182z" />
    <glyph glyph-name="uniFF3B" unicode="&#xff3b;" vert-adv-y="0" 
d="M290 1318h289v-122h-195v-1098h195v-124h-289v1344z" />
    <glyph glyph-name="uniFF3C" unicode="&#xff3c;" vert-adv-y="0" 
d="M113 1051l22 15h24l23 -15l591 -730l13 -27v-31l-13 -27l-22 -15h-25l-21 15l-592 730l-12 27v31z" />
    <glyph glyph-name="uniFF3D" unicode="&#xff3d;" vert-adv-y="0" 
d="M290 1318h289v-1344h-289v124h192v1098h-192v122z" />
    <glyph glyph-name="uniFF3E" unicode="&#xff3e;" vert-adv-y="0" 
d="M215 992l-33 42l221 274c10 12 21 16 33 16c14 0 28 -6 36 -16l221 -274l-33 -42l-34 -42l-189 232l-188 -232z" />
    <glyph glyph-name="uniFF3F" unicode="&#xff3f;" vert-adv-y="0" 
d="M87 98h692v-124h-692v124z" />
    <glyph glyph-name="uniFF40" unicode="&#xff40;" vert-adv-y="0" 
d="M311 1302c10 12 22 16 35 16c12 0 25 -4 35 -16l202 -248c10 -12 13 -28 13 -42c0 -16 -3 -32 -13 -44s-23 -16 -36 -16c-12 0 -23 4 -33 16l-203 250c-10 12 -13 28 -13 42c0 16 3 32 13 42z" />
    <glyph glyph-name="uniFF41" unicode="&#xff41;" vert-adv-y="0" 
d="M583 216v252h-326l-69 -88v-74l68 -90h327zM680 216h99v-116h-544c-16 0 -30 12 -34 18l-94 124c-12 14 -14 34 -14 42v120c0 20 10 36 14 42l95 122c12 14 27 16 35 16h346v166l-66 84h-331v118h350c16 0 31 -12 35 -18l95 -120c12 -14 14 -30 14 -40v-558z" />
    <glyph glyph-name="uniFF42" unicode="&#xff42;" vert-adv-y="0" 
d="M93 104v1214h97v-368h252c16 0 30 -12 34 -18l193 -242c12 -14 15 -32 15 -42v-246c0 -20 -11 -36 -15 -42l-199 -242c-12 -14 -28 -14 -34 -14h-343zM190 218h227l171 208v198l-165 208h-233v-614z" />
    <glyph glyph-name="uniFF43" unicode="&#xff43;" vert-adv-y="0" 
d="M684 950v-118h-329l-167 -208v-198l172 -208h324v-116h-344c-6 0 -22 2 -34 16l-199 242c-4 6 -14 22 -14 42v246c0 10 2 28 14 42l195 242c4 6 16 18 32 18h350z" />
    <glyph glyph-name="uniFF44" unicode="&#xff44;" vert-adv-y="0" 
d="M684 102h-344c-6 0 -22 2 -34 16l-199 242c-4 6 -14 22 -14 42v246c0 10 2 28 14 42l195 242c4 6 16 18 32 18h253v368h97v-1216zM587 218v614h-232l-167 -208v-198l172 -208h227z" />
    <glyph glyph-name="uniFF45" unicode="&#xff45;" vert-adv-y="0" 
d="M188 462v-158l69 -90h427v-112h-446c-14 0 -28 10 -32 16l-101 120c-12 14 -12 32 -12 42v484c0 20 12 34 16 40l98 126c12 14 28 22 36 22h293c16 0 31 -16 35 -22l95 -124c12 -14 14 -30 14 -40v-304h-492zM190 586h397v156l-70 88h-256l-71 -90v-154z" />
    <glyph glyph-name="uniFF46" unicode="&#xff46;" vert-adv-y="0" 
d="M455 1198l-64 -82v-164h196v-122h-198v-732h-96v732h-200v122h200v188c0 16 3 30 13 42l93 118c10 12 21 18 35 18h250v-120h-229z" />
    <glyph glyph-name="uniFF47" unicode="&#xff47;" vert-adv-y="0" 
d="M632 380l-112 -138c-6 -10 -21 -18 -34 -18h-154c-12 0 -24 6 -34 18l-191 236c-8 8 -14 26 -14 42v134c0 14 4 30 14 42l196 244c6 10 21 16 34 16h244c12 0 25 -4 35 -16l99 -124c8 -8 14 -26 14 -42v-742c0 -14 -4 -30 -14 -42l-91 -112c-6 -10 -21 -18 -34 -18h-262
c-12 0 -23 6 -33 18l-94 116l68 84l79 -98h223l61 76v324zM632 548v202l-70 86h-206l-166 -206v-86l162 -200h114z" />
    <glyph glyph-name="uniFF48" unicode="&#xff48;" vert-adv-y="0" 
d="M93 96v1236h97v-536l116 144c10 10 21 10 34 10h193c13 0 24 -6 34 -16l102 -120c10 -12 15 -26 15 -44v-674h-97v648l-73 88h-154l-170 -202v-534h-97z" />
    <glyph glyph-name="uniFF49" unicode="&#xff49;" vert-adv-y="0" 
d="M384 1318h98v-122h-98v122zM384 952h98v-854h-98v854z" />
    <glyph glyph-name="uniFF4A" unicode="&#xff4a;" vert-adv-y="0" 
d="M682 34c0 -16 -6 -30 -16 -42l-97 -122c-10 -12 -20 -16 -34 -16h-201c-13 0 -24 6 -34 18l-98 122l69 84l84 -106h160l68 86v894h99v-918zM583 1318h101v-122h-101v122z" />
    <glyph glyph-name="uniFF4B" unicode="&#xff4b;" vert-adv-y="0" 
d="M410 524l269 -342l-70 -84l-287 368h-129v-368h-100v1220h100v-732h131l292 366l68 -84z" />
    <glyph glyph-name="uniFF4C" unicode="&#xff4c;" vert-adv-y="0" 
d="M481 246l21 -28h79v-120h-99c-13 0 -23 6 -33 18l-50 62c-10 12 -15 26 -15 42v1098h97v-1072z" />
    <glyph glyph-name="uniFF4D" unicode="&#xff4d;" vert-adv-y="0" 
d="M484 746v-648h-99v648l-65 84h-59l-71 -86v-646h-97v852h98v-34l15 18c10 12 20 18 33 18h101c14 0 26 -6 36 -18l58 -78l62 76c10 12 21 18 34 18h104c13 0 24 -6 34 -18l95 -118c10 -12 15 -26 15 -42v-674h-98v650l-66 82h-63z" />
    <glyph glyph-name="uniFF4E" unicode="&#xff4e;" vert-adv-y="0" 
d="M267 884l39 48c4 6 18 18 34 18h201c8 0 20 -2 32 -16l96 -116c4 -6 15 -22 15 -42v-674h-93v650l-69 78h-162l-68 -84v-646h-98v670c0 6 3 14 7 24l-29 40h-79v118h101c16 0 27 -10 31 -18z" />
    <glyph glyph-name="uniFF4F" unicode="&#xff4f;" vert-adv-y="0" 
d="M190 748v-444l69 -84h263l65 84v444l-64 88h-264zM109 814l98 126c12 14 26 14 32 14h305c16 0 30 -12 36 -20l90 -126c10 -12 14 -28 14 -38v-490c0 -20 -11 -36 -15 -42l-94 -118c-9 -13 -20 -14 -28 -14h-6h-302c-14 0 -26 8 -32 14l-100 116c-13 14 -14 32 -14 44
v494c0 20 12 34 16 40z" />
    <glyph glyph-name="uniFF50" unicode="&#xff50;" vert-adv-y="0" 
d="M93 956h356c10 0 15 0 21 -8l199 -236c4 -6 15 -22 15 -42v-268c0 -10 -3 -28 -15 -42l-195 -242c-4 -6 -16 -18 -32 -18h-252v-368h-97v1224zM190 830v-612h231l167 208v220l-157 184h-241z" />
    <glyph glyph-name="uniFF51" unicode="&#xff51;" vert-adv-y="0" 
d="M680 948v-1078h99v-124h-198v362h-247c-16 0 -28 12 -32 18l-195 242c-12 14 -14 32 -14 42v238c0 20 10 36 14 42l199 242c12 14 28 16 34 16h340zM581 832h-221l-172 -208v-190l167 -208h226v606z" />
    <glyph glyph-name="uniFF52" unicode="&#xff52;" vert-adv-y="0" 
d="M269 626v-526h-95v668c0 18 -6 30 -16 44c-12 12 -20 18 -36 18h-29v122h79c28 0 97 -58 97 -122v-38l112 140c10 12 21 20 34 20h118c14 0 26 -6 34 -18l102 -122c10 -12 15 -26 15 -44v-60h-97v36l-73 86h-78z" />
    <glyph glyph-name="uniFF53" unicode="&#xff53;" vert-adv-y="0" 
d="M581 744l-71 88h-249l-47 -60l452 -442c12 -12 18 -26 18 -44s-5 -34 -15 -46l-102 -124c-10 -12 -21 -18 -34 -18h-292c-13 0 -24 6 -34 18l-100 120c-10 12 -14 26 -14 44v56h97v-30l71 -88h253l48 60l-450 440c-12 10 -16 26 -18 44v7c0 15 5 29 13 39l97 126
c10 12 21 18 35 18h291c13 0 23 -6 33 -18l101 -122c10 -12 15 -26 15 -42v-64h-98v38z" />
    <glyph glyph-name="uniFF54" unicode="&#xff54;" vert-adv-y="0" 
d="M481 246l21 -28h79v-120h-99c-13 0 -23 6 -33 18l-50 62c-10 12 -15 26 -15 42v610h-200v122h200v366h97v-366h199v-122h-199v-584z" />
    <glyph glyph-name="uniFF55" unicode="&#xff55;" vert-adv-y="0" 
d="M604 168l-39 -48c-4 -6 -18 -18 -34 -18h-294c-8 0 -21 2 -33 16l-95 116c-4 6 -15 22 -15 42v676h96v-652l66 -82h256l68 88v646h97v-670c0 -6 -3 -14 -7 -24l30 -40h79v-116h-99c-16 0 -30 8 -34 16z" />
    <glyph glyph-name="uniFF56" unicode="&#xff56;" vert-adv-y="0" 
d="M190 782l244 -508l248 514v162h97v-178c0 -12 -2 -20 -6 -30l-297 -616c-10 -20 -24 -30 -42 -30s-32 10 -42 30l-293 610c-4 10 -6 18 -6 30v184h97v-168z" />
    <glyph glyph-name="uniFF57" unicode="&#xff57;" vert-adv-y="0" 
d="M486 422l141 -178l55 64v644h97v-670c0 -18 -4 -32 -14 -44l-104 -122c-10 -10 -22 -16 -34 -16s-24 6 -34 18l-157 198l-162 -204c-10 -12 -22 -20 -35 -20s-23 8 -33 20l-99 124c-10 12 -14 26 -14 42v674h97v-650l49 -62l148 182v164h99v-164z" />
    <glyph glyph-name="uniFF58" unicode="&#xff58;" vert-adv-y="0" 
d="M434 440l-250 -306v-38h-97v64c0 16 4 30 14 42l263 322l-263 324c-10 12 -14 28 -14 44v60h97v-40l250 -302l250 302v40h97v-60c0 -16 -5 -32 -15 -44l-264 -322l264 -324c10 -12 15 -26 15 -42v-64h-97v38z" />
    <glyph glyph-name="uniFF59" unicode="&#xff59;" vert-adv-y="0" 
d="M368 156l-261 326c-10 12 -14 26 -14 42v428h97v-404l247 -306l148 182v528h97v-552c0 -16 -4 -30 -14 -42l-498 -614l-68 84z" />
    <glyph glyph-name="uniFF5A" unicode="&#xff5a;" vert-adv-y="0" 
d="M93 952h686l-487 -734h487v-120h-686l488 732h-488v122z" />
    <glyph glyph-name="uniFF5B" unicode="&#xff5b;" vert-adv-y="0" 
d="M580 1346v-120h-126l-73 -88v-342c0 -20 -9 -36 -13 -42l-64 -80l64 -82c4 -6 13 -22 13 -42v-342l73 -88h126v-120h-146c-16 0 -30 12 -34 18l-102 122c-12 14 -14 34 -14 44v342l-69 88h-57v120h57l69 86v344c0 10 2 28 14 42l102 122c4 8 18 18 34 18h146z" />
    <glyph glyph-name="uniFF5C" unicode="&#xff5c;" vert-adv-y="0" 
d="M384 1440h98v-1676h-98v1676z" />
    <glyph glyph-name="uniFF5D" unicode="&#xff5d;" vert-adv-y="0" 
d="M338 1322c4 0 6 -2 8 -2s5 -2 7 -2s5 -2 7 -2s4 -2 6 -4s1 -2 3 -4l4 -4l101 -122c2 -2 4 -6 6 -8s2 -4 4 -8s2 -10 4 -14c0 -2 2 -4 2 -6v-8v-342l67 -88h59v-120h-59l-67 -86v-344v-6s-2 -4 -2 -6s-2 -6 -2 -8s0 -6 -2 -8s-2 -6 -4 -8l-6 -6l-101 -122l-4 -4
s-1 -2 -3 -4s-4 -4 -6 -4s-5 -2 -7 -2s-5 -2 -7 -2s-4 -2 -8 -2h-145v120h127l72 88v342v10c0 2 -0.25 3.5 -0.25 4.75s0.25 2.25 1.25 3.25c2 2 2 4 4 6s1 6 3 8c0 2 1 4 1 6s2 2 4 4l63 80l-63 82c-2 2 -4 2 -4 4s-1 4 -1 6c-2 2 -1 6 -3 8s-2 4 -4 6
c-1 1 -1.25 2 -1.25 3.25s0.25 2.75 0.25 4.75v10v342l-72 88h-127v120h145z" />
    <glyph glyph-name="uniFF5E" unicode="&#xff5e;" vert-adv-y="0" 
d="M148 1136l-35 42l98 120c10 12 22 18 34 18h105c13 0 28 -8 34 -18l177 -218h66l78 96l34 -42l34 -42l-93 -114c-6 -10 -21 -18 -34 -18h-105c-12 0 -24 6 -34 18l-177 218h-66l-82 -102z" />
    <glyph glyph-name="uni2E28" unicode="&#x2e28;" vert-adv-y="0" 
d="M175 940l202 238c10 10 21 18 33 18c13 0 24 -8 32 -20c10 -12 15 -26 15 -42s-5 -28 -15 -40l-187 -226v-440l189 -232c10 -10 14 -26 14 -42s-4 -28 -14 -38c-10 -12 -21 -18 -33 -18s-24 6 -32 18l-203 250c-10 12 -14 22 -14 38v488c0 16 3 36 13 48zM423 940
l203 238c10 10 20 18 32 18c13 0 24 -8 32 -20c10 -12 15 -26 15 -42s-5 -28 -15 -40l-188 -226v-440l190 -232c10 -10 14 -26 14 -42s-4 -28 -14 -38c-10 -12 -20 -18 -32 -18s-25 6 -33 18l-202 250c-10 12 -15 22 -15 38v488c0 16 3 36 13 48z" />
    <glyph glyph-name="uni2E29" unicode="&#x2e29;" vert-adv-y="0" 
d="M458 354l-202 -238c-10 -10 -21 -18 -33 -18c-13 0 -24 8 -32 20c-10 12 -15 26 -15 42s5 28 15 40l188 226v440l-189 232c-10 10 -15 26 -15 42s5 28 15 38c10 12 20 18 32 18s25 -6 33 -18l202 -250c10 -12 15 -22 15 -38v-488c0 -16 -4 -36 -14 -48zM708 354
l-202 -238c-10 -10 -21 -18 -33 -18c-13 0 -24 8 -32 20c-10 12 -15 26 -15 42s5 28 15 40l187 226v440l-189 232c-10 10 -14 26 -14 42s4 28 14 38c10 12 21 18 33 18s24 -6 32 -18l202 -250c10 -12 15 -22 15 -38v-488c0 -16 -3 -36 -13 -48z" />
    <glyph glyph-name="uniFF61" unicode="&#xff61;" vert-adv-y="0" 
d="M324 296v-152h123v152h-123zM287 388h195c20 0 36 -22 36 -46v-244c0 -24 -16 -46 -36 -46h-195c-20 0 -38 22 -38 46v244c0 24 18 46 38 46z" />
    <glyph glyph-name="uniFF62" unicode="&#xff62;" vert-adv-y="0" 
d="M444 1298h-363v-576h-81v678h444v-102z" />
    <glyph glyph-name="uniFF63" unicode="&#xff63;" vert-adv-y="0" 
d="M421 -290h363v576h81v-678h-444v102z" />
    <glyph glyph-name="uniFF64" unicode="&#xff64;" vert-adv-y="0" 
 />
    <glyph glyph-name="uniFF65" unicode="&#xff65;" vert-adv-y="0" 
d="M340 878h193v-222h-193v222z" />
    <glyph glyph-name="uniFFE0" unicode="&#xffe0;" vert-adv-y="0" 
d="M94 581c-4 5 -7 11 -7 17v313c0 14 4 27 8 34l87 117c4 6 11 10 17 10h185v246h98v-244h198v-122h-198v-366h198v-122h-198v-244h-98v244h-182c-4 0 -7 2 -11 7zM384 952h-149l-45 -60v-242l48 -64h146v366z" />
    <glyph glyph-name="uniFFE1" unicode="&#xffe1;" vert-adv-y="0" 
d="M251 224h-57v-12h45zM395 706v-426l67 -56h162l85 96l67 -88l-100 -116c-9 -10 -20 -16 -34 -16h-198c-13 0 -25 5 -34 16l-42 50c-8 10 -18 15 -25 15c-3 0 -5 -1 -7 -3l-56 -66c-5 -7 -18 -12 -33 -12h-101c-27 0 -49 25 -49 56v122c0 33 22 60 49 60h97l55 -18v386
h-201v122h201v306c0 17 5 32 13 42l98 122c11 13 22 20 35 20h103c13 0 23 -7 34 -20l98 -120l-70 -84l-83 102h-62l-69 -86v-282h198v-122h-198z" />
    <glyph glyph-name="uniFFE2" unicode="&#xffe2;" vert-adv-y="0" 
d="M781 612h-101v210h-591v120h692v-330z" />
    <glyph glyph-name="uniFFE3" unicode="&#xffe3;" vert-adv-y="0" 
d="M31 1318h816v-122h-816v122z" />
    <glyph glyph-name="uniFFE4" unicode="&#xffe4;" vert-adv-y="0" 
d="M384 708v732h98v-732h-98zM482 468v-704h-98v704h98z" />
    <glyph glyph-name="uniFFE5" unicode="&#xffe5;" vert-adv-y="0" 
d="M384 704v38l-272 348c-10 12 -15 26 -15 42v62h97v-38l242 -304l238 304v38h97v-58c0 -16 -3 -32 -13 -44l-276 -350v-38h289v-112h-289v-222h289v-112h-289v-158h-98v158h-287v112h287v222h-287v112h287z" />
    <glyph glyph-name="uniFFE6" unicode="&#xffe6;" vert-adv-y="0" 
d="M431 314l-97 -200c-8 -14 -22 -18 -34 -18c-13 0 -24 6 -34 18l-98 120c-10 12 -14 26 -14 42v212h-57v112h57v222h-57v112h57v260h97v-260h366v262h98v-262h56v-112h-56v-222h56v-112h-56v-212c0 -18 -5 -32 -15 -44l-99 -118c-10 -10 -21 -16 -34 -16
c-12 0 -26 4 -34 18zM251 488v-188l49 -58l84 184v62h-133zM481 488v-66l86 -180l50 60v186h-136zM251 600h133v104h97v-104h136v222h-366v-222z" />
    <glyph glyph-name="uniFFE7" unicode="&#xffe7;" vert-adv-y="0" 
 />
    <glyph glyph-name="uniFFE8" unicode="&#xffe8;" vert-adv-y="0" 
 />
    <glyph glyph-name="uniFFE9" unicode="&#xffe9;" vert-adv-y="0" 
d="M418 952v-244h332v-122h-332v-244l-293 304z" />
    <glyph glyph-name="uniFFEA" unicode="&#xffea;" vert-adv-y="0" 
d="M684 672h-198v-412h-97v412h-198l246 360z" />
    <glyph glyph-name="uniFFEB" unicode="&#xffeb;" vert-adv-y="0" 
d="M457 952l293 -306l-293 -304v244h-332v122h332v244z" />
    <glyph glyph-name="uniFFEC" unicode="&#xffec;" vert-adv-y="0" 
d="M191 624h198v408h97v-408h198l-247 -364z" />
    <glyph glyph-name="uniFFED" unicode="&#xffed;" vert-adv-y="0" 
d="M263 1020h340v-432h-340v432z" />
    <glyph glyph-name="uniFFEE" unicode="&#xffee;" vert-adv-y="0" 
d="M265 804c0 -126 80 -226 179 -226c97 0 178 100 178 226s-81 226 -178 226c-99 0 -179 -100 -179 -226zM184 804c0 180 116 326 260 326c142 0 259 -146 259 -326s-117 -326 -259 -326c-144 0 -260 146 -260 326z" />
    <glyph glyph-name="uniFFFC" unicode="&#xfffc;" vert-adv-y="0" 
d="M644 382h81v-284c0 -14 -4 -30 -12 -38l-47 -52c-8 -8 -18 -12 -28 -12h-87c-10 0 -20 6 -28 14l-47 52c-8 10 -12 24 -12 36v96h81v-74l20 -24h59l20 24v262zM201 1382h159c22 0 39 -22 39 -50v-288c0 -28 -17 -50 -39 -50h-159c-22 0 -43 22 -43 50v288
c0 28 21 50 43 50zM239 1282v-188h79v188h-79zM308 776v100h129c10 0 21 -4 27 -12l67 -72c10 -10 14 -22 14 -36c0 -16 -7 -32 -17 -40l-29 -34l32 -38c10 -10 14 -24 14 -38c0 -12 -6 -26 -14 -34l-61 -76c-8 -10 -21 -14 -29 -14h-133v100h10v194h-10zM399 582h26l19 24
l-23 28h-22v-52zM399 776v-42h22l20 20l-20 22h-22z" />
    <glyph glyph-name="uniFFFD" unicode="&#xfffd;" vert-adv-y="0" 
d="M340 736c8 0 16 10 16 20v70l26 32h116l27 -32v-20l-143 -162c-10 -10 -13 -24 -13 -36v-92c0 -10 8 -20 16 -20h49c8 0 16 10 16 20v70l143 164c6 8 13 20 13 36v60c0 12 -3 24 -11 34l-51 62c-8 10 -19 14 -29 14h-149c-6 0 -18 0 -28 -12l-51 -62
c-6 -8 -12 -20 -12 -34v-92c0 -10 9 -20 17 -20h48zM382 416c-8 0 -16 -10 -16 -20v-60c0 -10 8 -20 16 -20h55c8 0 17 10 17 20v60c0 10 -9 20 -17 20h-55zM53 688l347 428c10 12 21 18 34 18s24 -6 34 -18l346 -428c10 -12 16 -28 16 -42s-6 -30 -16 -42l-346 -428
c-10 -12 -21 -18 -34 -18s-24 6 -34 18l-347 428c-10 12 -14 28 -14 42s4 30 14 42z" />
    <glyph glyph-name="uniFFFE" vert-adv-y="0" 
 />
    <glyph glyph-name="uni2B60" unicode="&#x2b60;" vert-adv-y="0" 
d="M211 1502h97v-728h-97v728zM308 122h-97v388c0 20 9 38 19 48l260 250v296h-75l123 360l123 -360h-74v-326c0 -14 -7 -36 -20 -48l-259 -250v-358z" />
    <glyph glyph-name="uni2B61" unicode="&#x2b61;" vert-adv-y="0" 
d="M395 646h97l150 -304v304h99v-608h-99l-150 304v-304h-97v608zM149 1382h98v-488h200v-120h-298v608z" />
    <glyph glyph-name="uni2B62" unicode="&#x2b62;" vert-adv-y="0" 
d="M330 1116h282v-90h-282v-436h91v184h146v86h-146v80h191v-236c-4 -6 -12 -10 -22 -14s-17 -6 -23 -6h-75v-94c0 -24 -5 -46 -19 -64s-32 -26 -52 -26h-91c-20 0 -37 8 -51 26s-23 40 -23 64v436c0 24 9 46 23 64s31 26 51 26z" />
    <glyph glyph-name="uni2B63" unicode="&#x2b63;" vert-adv-y="0" 
d="M256 1116h282c20 0 38 -8 52 -26s22 -40 22 -64v-86c0 -24 -8 -44 -22 -62s-32 -26 -52 -26h-42v-262c0 -24 -9 -46 -23 -64s-32 -26 -52 -26h-91c-20 0 -37 8 -51 26s-23 40 -23 64v114v236h74v-350h91v350h117v86h-282v90z" />
    <glyph glyph-name="uni2B64" unicode="&#x2b64;" vert-adv-y="0" 
d="M434 1186c84 0 115 -74 127 -160c2 -12 2 -20 2 -28v-132h98v-138c0 -29 -11 -81 -17 -108c-26 -108 -95 -192 -210 -192c-145 0 -207 126 -227 278c-0.333333 1.33333 -0.444444 2.66667 -0.444444 3.96296c0 2.59259 0.444444 5.03704 0.444444 7.03704v19v130h97v132
v15c0 21 6 37 10 53c18 65 50 120 120 120zM434 1106c-37 0 -46 -26 -57 -58c-4 -10 -4 -26 -4 -50s-4 -42 -4 -58v-74h130v132c0 22 -5 40 -9 50s-4 22 -8 32c-9 18 -26 26 -48 26zM482 686c0 46 -12 100 -48 100s-49 -54 -49 -100c0 -39 8 -64 24 -84c8 -10 15 -16 25 -16
c21 0 40 30 44 52c4 14 4 30 4 48z" />
    <glyph glyph-name="uni2B80" unicode="&#x2b80;" vert-adv-y="0" 
d="M18 1600l770 -1002l-762 -998h-26v2000h18z" />
    <glyph glyph-name="uni2B81" unicode="&#x2b81;" vert-adv-y="0" 
d="M13 1578c6 8 13 14 26 14c10 0 20 -4 26 -16l668 -944c6 -8 9 -18 9 -34s-3 -26 -9 -34l-668 -946c-6 -12 -16 -14 -26 -14c-13 0 -20 4 -26 12c-6 12 -13 24 -13 36c0 16 4 26 10 34l642 912l-642 912c-6 8 -10 22 -10 38c0 12 7 18 13 30z" />
    <glyph glyph-name="uni2B82" unicode="&#x2b82;" vert-adv-y="0" 
d="M857 1600h18v-2000h-26l-762 998z" />
    <glyph glyph-name="uni2B83" unicode="&#x2b83;" vert-adv-y="0" 
d="M849 1578c6 -8 13 -18 13 -30c0 -16 -4 -30 -10 -38l-643 -912l643 -912c6 -8 10 -18 10 -34s-7 -24 -13 -36c-6 -8 -14 -12 -27 -12c-10 0 -18 2 -24 14l-668 946c-6 8 -10 18 -10 34s4 22 10 34l668 944c6 12 14 16 24 16c13 0 21 -6 27 -14z" />
    <glyph glyph-name="uni21E0" unicode="&#x21e0;" vert-adv-y="0" 
d="M373 952v-244h34v-122h-34v-244l-294 304zM454 708h100v-122h-100v122zM800 708h67v-122h-67v122zM628 708h101v-122h-101v122z" />
    <glyph glyph-name="uni21E1" unicode="&#x21e1;" vert-adv-y="0" 
d="M148 770l247 362l247 -362h-198v-42h-99v42h-197zM345 670h99v-124h-99v124zM345 242h99v-82h-99v82zM345 454h99v-124h-99v124z" />
    <glyph glyph-name="uni21E2" unicode="&#x21e2;" vert-adv-y="0" 
d="M494 952l294 -306l-294 -304v244h-34v122h34v244zM413 708v-122h-101v122h101zM67 708v-122h-67v122h67zM239 708v-122h-101v122h101z" />
    <glyph glyph-name="uni21E3" unicode="&#x21e3;" vert-adv-y="0" 
d="M642 522l-249 -362l-245 362h197v42h99v-42h198zM444 622h-99v124h99v-124zM444 1050h-99v82h99v-82zM444 838h-99v124h99v-124z" />
    <glyph glyph-name="uni25B4" unicode="&#x25b4;" vert-adv-y="0" 
d="M188 604l253 473l239 -473h-492z" />
    <glyph glyph-name="uni25BE" unicode="&#x25be;" vert-adv-y="0" 
d="M441 655l-253 473h492z" />
    <glyph glyph-name="SF110000" unicode="&#x2502;" vert-adv-y="0" 
d="M494 1600v-2000h-99v2000h99z" />
    <glyph glyph-name="SF100000" unicode="&#x2500;" vert-adv-y="0" 
d="M875 710v-122h-875v122h875z" />
    <glyph glyph-name="SF050000" unicode="&#x253c;" vert-adv-y="0" 
d="M395 1600h99v-890h381v-122h-381v-988h-99v988h-395v122h395v890z" />
    <glyph glyph-name="uniE0B0" unicode="&#xe0b0;" vert-adv-y="0" 
d="M14 1592l743 -994l-743 -994h-14v1988h14z" />
    <glyph glyph-name="uniE0B1" unicode="&#xe0b1;" vert-adv-y="0" 
d="M13 1578c6 8 13 14 26 14c10 0 20 -4 26 -16l668 -944c6 -8 9 -18 9 -34s-3 -26 -9 -34l-668 -946c-6 -12 -16 -14 -26 -14c-13 0 -20 4 -26 12c-6 12 -13 24 -13 36c0 16 4 26 10 34l642 912l-642 912c-6 8 -10 22 -10 38c0 12 7 18 13 30z" />
    <glyph glyph-name="uniE0A2" unicode="&#xe0a2;" vert-adv-y="0" 
d="M434 1376c118 0 178 -111 190 -240c2 -18 4 -30 4 -42v-198h146v-208c0 -44 -16 -122 -25 -162c-18 -66 -58 -149 -97 -194c-50 -54 -125 -94 -218 -94c-114 0 -184 51 -238 124c-18 24 -34 48 -44 74c-17 49 -37 98 -45 156c-6 24 -6 46 -8 64s-5 32 -5 44v196h145v198
c0 6 6 20 6 42c0 20 6 40 10 58c12 43 34 92 56 124c22 35 72 58 123 58zM434 1256c-32 0 -56 -11 -68 -42c-15 -43 -24 -53 -24 -120c0 -36 -5 -64 -5 -88v-110h194v198c0 32 -7 60 -13 74c-11 52 -32 88 -84 88zM434 776c-32 0 -60 -43 -65 -78c-6 -22 -8 -46 -8 -72
c0 -56 9 -99 34 -126c13 -16 25 -24 39 -24c30 0 61 43 65 78c6 20 8 44 8 72c0 53 -9 101 -34 128c-13 16 -25 22 -39 22z" />
    <glyph glyph-name="uniE0A0" unicode="&#xe0a0;" vert-adv-y="0" 
d="M211 1502h97v-728h-97v728zM308 122h-97v388c0 20 9 38 19 48l260 250v296h-75l123 360l123 -360h-74v-326c0 -14 -7 -36 -20 -48l-259 -250v-358z" />
    <glyph glyph-name="uniE0A1" unicode="&#xe0a1;" vert-adv-y="0" 
d="M395 646h97l150 -304v304h99v-608h-99l-150 304v-304h-97v608zM149 1382h98v-488h200v-120h-298v608z" />
    <glyph glyph-name="block" unicode="&#x2588;" vert-adv-y="0" 
d="M0 1600h875v-2000h-875v2000z" />
    <glyph glyph-name="NameMe.702" vert-adv-y="0" 
d="M196 1336v-1100h476v1100h-476zM97 1458h674v-1342h-674v1342z" />
    <glyph glyph-name="uniFF21" unicode="&#xff21;" vert-adv-y="0" 
d="M193 488v-390h-96v676c0 18 11 34 15 40l287 362c10 14 22 18 32 18c16 0 29 -8 37 -18l290 -364c12 -14 13 -32 13 -42v-672h-97v390h-481zM194 600h480v146l-241 300l-239 -298v-148z" />
    <glyph glyph-name="SF080000" unicode="&#x251c;" vert-adv-y="0" 
d="M395 1600h99v-890h381v-122h-381v-988h-99v2000z" />
    <glyph glyph-name="SF090000" unicode="&#x2524;" vert-adv-y="0" 
d="M395 1600h99v-2000h-99v988h-395v122h395v890z" />
    <glyph glyph-name="SF010000" unicode="&#x250c;" vert-adv-y="0" 
d="M395 -398v1108h480v-122h-379v-986h-101z" />
    <glyph glyph-name="SF030000" unicode="&#x2510;" vert-adv-y="0" 
d="M496 -398h-101v986h-395v122h496v-1108z" />
    <glyph glyph-name="SF020000" unicode="&#x2514;" vert-adv-y="0" 
d="M395 1600h101v-890h379v-122h-480v1012z" />
    <glyph glyph-name="SF040000" unicode="&#x2518;" vert-adv-y="0" 
d="M496 1600v-1012h-496v122h395v890h101z" />
    <glyph glyph-name="uni21E7" unicode="&#x21e7;" vert-adv-y="0" 
d="M282 -22v652h-253l402 644l400 -644h-250v-652h-299zM379 98h105v652h151l-204 328l-204 -328h152v-652z" />
    <glyph glyph-name="uni21E9" unicode="&#x21e9;" vert-adv-y="0" 
d="M285 1316h302v-652h249l-402 -644l-402 644h253v652zM382 1196v-652h-152l204 -328l204 328h-148v652h-108z" />
    <glyph glyph-name="arrowleft" unicode="&#x2190;" vert-adv-y="0" 
d="M373 952v-244h494v-122h-494v-244l-294 304z" />
    <glyph glyph-name="arrowright" unicode="&#x2192;" vert-adv-y="0" 
d="M506 952l292 -306l-292 -304v244h-494v122h494v244z" />
    <glyph glyph-name="filledbox" unicode="&#x25a0;" vert-adv-y="0" 
d="M120 1012h629v-776h-629v776z" />
    <glyph glyph-name="lfblock" unicode="&#x258c;" vert-adv-y="0" 
d="M2 1600h437v-2000h-437v2000z" />
    <glyph glyph-name="rtblock" unicode="&#x2590;" vert-adv-y="0" 
d="M437 1600h438v-2000h-438v2000z" />
    <glyph glyph-name="upblock" unicode="&#x2580;" vert-adv-y="0" 
d="M0 1600h875v-1000h-875v1000z" />
    <glyph glyph-name="dnblock" unicode="&#x2584;" vert-adv-y="0" 
d="M0 600h875v-1000h-875v1000z" />
    <glyph glyph-name="NameMe.721" vert-adv-y="0" 
d="M60 810h246v312l522 -496l-522 -494v308h-246v370zM157 690v-130h246v-186l266 252l-266 252v-188h-246z" />
    <glyph glyph-name="uni21E8" unicode="&#x21e8;" vert-adv-y="0" 
d="M60 810h246v312l522 -496l-522 -494v308h-246v370zM157 690v-130h246v-186l266 252l-266 252v-188h-246z" />
    <glyph glyph-name="NameMe.1114234" vert-adv-y="0" 
d="M828 444h-247v-312l-521 496l521 494v-308h247v-370zM731 564v130h-247v186l-265 -252l265 -252v188h247z" />
    <glyph glyph-name="uni21E6" unicode="&#x21e6;" vert-adv-y="0" 
d="M828 444h-247v-312l-521 496l521 494v-308h247v-370zM731 564v130h-247v186l-265 -252l265 -252v188h247z" />
    <glyph glyph-name="Hcircumflex" unicode="&#x124;" vert-adv-y="0" 
d="M97 1194h96v-482h483v482h95v-1094h-95v500h-483v-500h-96v1094zM215 1250l-33 42l221 274c10 12 21 16 33 16c14 0 28 -6 36 -16l221 -274l-33 -42l-34 -42l-189 232l-188 -232z" />
    <glyph glyph-name="hcircumflex" unicode="&#x125;" vert-adv-y="0" 
d="M93 96v1236h85.5839l198.416 246c10 12 21 16 33 16c14 0 28 -6 36 -16l222 -274l-34 -42l-35 -42l-188 232l-188 -232l-33 42v-466l116 144c10 10 21 10 34 10h193c13 0 24 -6 34 -16l102 -120c10 -12 15 -26 15 -44v-674h-97v648l-73 88h-154l-170 -202v-534h-97z" />
    <glyph glyph-name="Hbar" unicode="&#x126;" vert-adv-y="0" 
d="M87 1194h99v-254h496v254h97v-254h39v-118h-39v-724h-97v488h-496v-488h-99v724h-42v118h42v254zM682 822h-496v-114h496v114z" />
    <glyph glyph-name="hbar" unicode="&#x127;" vert-adv-y="0" 
d="M85 1076h-40v118h40v138h97v-138h225v-118h-225v-280l116 144c10 10 21 10 34 10h196c13 0 24 -6 34 -16l102 -120c10 -12 15 -26 15 -44v-674h-98v648l-73 88h-156l-170 -202v-534h-97v980z" />
    <glyph glyph-name="Itilde" unicode="&#x128;" vert-adv-y="0" 
d="M290 1194h289v-120h-97v-856h97v-122h-289v122h95v856h-95v120zM148 1412l-35 42l98 120c10 12 22 18 34 18h105c13 0 28 -8 34 -18l177 -218h66l78 96l34 -42l34 -42l-93 -114c-6 -10 -21 -18 -34 -18h-105c-12 0 -24 6 -34 18l-177 218h-66l-82 -102z" />
    <glyph glyph-name="itilde" unicode="&#x129;" vert-adv-y="0" 
d="M384 952h98v-854h-98v854zM148 1242l-35 42l98 120c10 12 22 18 34 18h105c13 0 28 -8 34 -18l177 -218h66l78 96l34 -42l34 -42l-93 -114c-6 -10 -21 -18 -34 -18h-105c-12 0 -24 6 -34 18l-177 218h-66l-82 -102z" />
    <glyph glyph-name="imacron" unicode="&#x12b;" vert-adv-y="0" 
d="M384 952h98v-854h-98v854zM168 1318h530v-122h-530v122z" />
    <glyph glyph-name="ibreve" unicode="&#x12d;" vert-adv-y="0" 
d="M384 952h98v-854h-98v854zM183 1318h97c2 -16 3 -30 7 -46s9 -30 15 -44s14 -24 22 -34c10 -12 19 -22 31 -30s23 -12 36 -16c12 -4 23 -6 35 -6c13 0 26 2 38 6s22 10 34 18s20 18 28 28s17 22 23 36s10 32 14 48c4 14 6 26 6 40h97c0 -26 -2 -52 -8 -76
s-14 -48 -24 -70s-24 -44 -38 -62s-31 -34 -49 -46s-36 -22 -57 -30c-20 -6 -40 -12 -61 -12s-42 2 -63 8s-40 18 -58 30s-36 28 -52 46c-14 18 -29 38 -39 60c-12 22 -20 46 -24 72c-4 24 -10 54 -10 80z" />
    <glyph glyph-name="iogonek" unicode="&#x12f;" vert-adv-y="0" 
d="M384 1318h98v-122h-98v122zM384 952h98v-854h-98v854zM391 -240c-2 2 -6 10 -6 18v132h93v-100l36 -46h35v-116h-57c-16 0 -22 6 -32 18l-61 82z" />
    <glyph glyph-name="dotlessi" unicode="&#x131;" vert-adv-y="0" 
d="M384 952h98v-854h-98v854z" />
    <glyph glyph-name="Idotaccent" unicode="&#x130;" vert-adv-y="0" 
d="M285 1194h296v-120h-99v-856h99v-122h-296v122h99v856h-99v120zM384 1440h98v-122h-98v122z" />
    <glyph glyph-name="Imacron" unicode="&#x12a;" vert-adv-y="0" 
d="M290 1194h289v-120h-97v-856h97v-122h-289v122h95v856h-95v120zM168 1440h530v-122h-530v122z" />
    <glyph glyph-name="Ibreve" unicode="&#x12c;" vert-adv-y="0" 
d="M290 1194h289v-120h-97v-856h97v-122h-289v122h95v856h-95v120zM183 1538h97c2 -16 3 -30 7 -46s9 -30 15 -44s14 -24 22 -34c10 -12 19 -22 31 -30s23 -12 36 -16c12 -4 23 -6 35 -6c13 0 26 2 38 6s22 10 34 18s20 18 28 28s17 22 23 36s10 32 14 48c4 14 6 26 6 40h97
c0 -26 -2 -52 -8 -76s-14 -48 -24 -70s-24 -44 -38 -62s-31 -34 -49 -46s-36 -22 -57 -30c-20 -6 -40 -12 -61 -12s-42 2 -63 8s-40 18 -58 30s-36 28 -52 46c-14 18 -29 38 -39 60c-12 22 -20 46 -24 72c-4 24 -10 54 -10 80z" />
    <glyph glyph-name="Iogonek" unicode="&#x12e;" vert-adv-y="0" 
d="M290 1194h289v-120h-97v-856h97v-122h-289v122h95v856h-95v120zM441 -240c-2 2 -5 10 -5 18v132h92v-100l35 -46h36v-116h-56c-16 0 -23 6 -33 18l-61 82z" />
    <glyph glyph-name="ogonek" unicode="&#x2db;" vert-adv-y="0" 
d="M193 12c-2 2 -5 10 -5 18v132h92v-100l36 -46h36v-116h-57c-16 0 -22 6 -32 18l-62 82z" />
    <glyph glyph-name="breve" unicode="&#x2d8;" vert-adv-y="0" 
d="M183 1314l97 4c1.08213 -15.4894 3.39946 -30.896 7 -46c3.5991 -15.0979 8.48775 -29.9113 15 -44c5.91519 -12.797 13.1731 -25.0074 22 -36c8.75913 -10.9082 19.1668 -20.5377 31 -28c11.141 -7.02578 23.3889 -12.1994 36 -16
c11.3677 -3.42588 23.1305 -5.72159 35 -6c0.795115 -0.0186503 1.5903 -0.0279184 2.3854 -0.0279184c12.0912 0 24.1605 2.14333 35.6146 6.02792c12.1969 4.1365 23.7334 10.2237 34 18c10.5487 7.98993 19.7299 17.6694 28 28c8.91903 11.1412 16.8666 23.1137 23 36
c6.6318 13.9335 10.9582 28.8715 14 44c2.91953 14.5202 4.82348 29.236 6 44h97c0.0265991 -1.66212 0.0398698 -3.32441 0.0398698 -4.98667c0 -23.8715 -2.73687 -47.7373 -8.03987 -71.0133c-5.48929 -24.0937 -13.6251 -47.5723 -24 -70
c-10.2033 -22.0566 -22.684 -43.1315 -38 -62c-14.1618 -17.4465 -30.7088 -32.9475 -49 -46c-17.5341 -12.5122 -36.6989 -22.7982 -57 -30c-19.6011 -6.95349 -40.224 -11.045 -61 -12c-2.98325 -0.137136 -5.97077 -0.206551 -8.95861 -0.206551
c-18.3056 0 -36.623 2.60559 -54.0414 8.20655c-20.8002 6.68841 -40.1068 17.4613 -58 30c-18.9959 13.3114 -36.6784 28.5849 -52 46c-15.8099 17.9702 -28.8345 38.331 -39 60c-10.7661 22.9492 -18.5013 47.2546 -24 72c-5.54957 24.9742 -8.83801 50.443 -10 76z" />
    <glyph glyph-name="Jcircumflex" unicode="&#x134;" vert-adv-y="0" 
d="M97 464h96v-162l71 -82h151l67 86v768h-97v120h291v-120h-97v-792c0 -8 -2 -28 -14 -42l-95 -122c-6 -8 -20 -18 -36 -18h-191c-6 0 -22 2 -34 16l-97 116c-4 6 -15 22 -15 42v190zM123 1268l-34 42l222 274c10 12 21 16 33 16c14 0 27 -6 35 -16l222 -274l-34 -42
l-34 -42l-188 232l-187 -232z" />
    <glyph glyph-name="jcircumflex" unicode="&#x135;" vert-adv-y="0" 
d="M680 34c0 -16 -6 -30 -16 -42l-97 -122c-10 -12 -20 -16 -34 -16h-201c-13 0 -24 6 -34 18l-99 122l70 84l84 -106h161l67 86v894h99v-918zM214 1084l-34 42l221 274c10 12 21 16 33 16c14 0 28 -6 36 -16l222 -274l-34 -42l-34 -42l-188 232l-188 -232z" />
    <glyph glyph-name="IJ" unicode="&#x132;" vert-adv-y="0" 
d="M320 464h95v-162l71 -82h75l67 86v768h-56v120h204v-120h-51v-792c0 -8 0 -28 -12 -42l-96 -122c-6 -8 -20 -22 -36 -22h-115c-6 0 -21 6 -33 20l-97 116c-4 6 -16 22 -16 42v190zM94 1194h226v-120h-64v-856h64v-122h-226v122h64v856h-64v120z" />
    <glyph glyph-name="ij" unicode="&#x133;" vert-adv-y="0" 
d="M384 1318h98v-122h-98v122zM384 952h98v-854h-98v854zM682 34c0 -16 -6 -30 -16 -42l-97 -122c-10 -12 -20 -16 -34 -16h-201c-13 0 -24 6 -34 18l-98 122l69 84l84 -106h160l68 86v894h99v-918zM583 1318h101v-122h-101v122z" />
    <glyph glyph-name="ellipsis" unicode="&#x2026;" vert-adv-y="0" 
d="M287 342h114v-244h-114v244zM49 342h115v-244h-115v244zM523 342h115v-244h-115v244z" />
    <glyph glyph-name="uni27F3" unicode="&#x27f3;" vert-adv-y="0" 
d="M713 948v240c0 32 22 60 48 60s49 -28 49 -60v-424c0 -32 -23 -60 -49 -60h-340c-26 0 -48 28 -48 60s22 60 48 60h169h18h52c-39 110 -127 186 -229 186c-138 0 -249 -136 -249 -306s111 -310 249 -310c105 0 195 82 231 196h103c-40 -182 -174 -316 -334 -316
c-191 0 -346 194 -346 430s155 426 346 426c117 0 219 -72 282 -182z" />
    <glyph glyph-name="etilde" unicode="&#x1ebd;" vert-adv-y="0" 
d="M148 1136l-35 42l98 120c10 12 22 18 34 18h105c13 0 28 -8 34 -18l177 -218h66l78 96l34 -42l34 -42l-93 -114c-6 -10 -21 -18 -34 -18h-105c-12 0 -24 6 -34 18l-177 218h-66l-82 -102zM188 462v-158l69 -90h427v-112h-446c-14 0 -28 10 -32 16l-101 120
c-12 14 -12 32 -12 42v484c0 20 12 34 16 40l98 126c12 14 28 22 36 22h293c16 0 31 -16 35 -22l95 -124c12 -14 14 -30 14 -40v-304h-492zM190 586h397v156l-70 88h-256l-71 -90v-154z" />
    <glyph glyph-name="utilde" unicode="&#x169;" vert-adv-y="0" 
d="M148 1136l-35 42l98 120c10 12 22 18 34 18h105c13 0 28 -8 34 -18l177 -218h66l78 96l34 -42l34 -42l-93 -114c-6 -10 -21 -18 -34 -18h-105c-12 0 -24 6 -34 18l-177 218h-66l-82 -102zM604 168l-39 -48c-4 -6 -18 -18 -34 -18h-294c-8 0 -21 2 -33 16l-95 116
c-4 6 -15 22 -15 42v676h96v-652l66 -82h256l68 88v646h97v-670c0 -6 -3 -14 -7 -24l30 -40h79v-116h-99c-16 0 -30 8 -34 16z" />
    <glyph glyph-name="Etilde" unicode="&#x1ebc;" vert-adv-y="0" 
d="M148 1136l-35 42l98 120c10 12 22 18 34 18h105c13 0 28 -8 34 -18l177 -218h66l78 96l34 -42l34 -42l-93 -114c-6 -10 -21 -18 -34 -18h-105c-12 0 -24 6 -34 18l-177 218h-66l-82 -102zM87 940h692v-122h-593v-208h395v-122h-395v-270h593v-120h-692v842z" />
    <glyph glyph-name="Utilde" unicode="&#x168;" vert-adv-y="0" 
d="M148 1136l-35 42l98 120c10 12 22 18 34 18h105c13 0 28 -8 34 -18l177 -218h66l78 96l34 -42l34 -42l-93 -114c-6 -10 -21 -18 -34 -18h-105c-12 0 -24 6 -34 18l-177 218h-66l-82 -102zM91 940h95v-636l69 -84h359l66 86v634h98v-658c0 -8 -1 -26 -13 -40l-95 -122
c-6 -8 -19 -20 -35 -20h-402c-8 0 -22 4 -34 18l-95 118c-4 6 -13 22 -13 42v662z" />
    <glyph glyph-name="macute" unicode="&#x1e3f;" vert-adv-y="0" 
d="M304 972c-10 12 -14 28 -14 42c0 18 6 34 14 44l195 242c10 12 22 18 34 18c14 0 28 -8 36 -18s14 -26 14 -44c0 -14 -4 -30 -14 -42l-195 -242c-8 -10 -22 -18 -36 -18c-12 0 -24 6 -34 18zM484 746v-648h-99v648l-65 84h-59l-71 -86v-646h-97v852h98v-34l15 18
c10 12 20 18 33 18h101c14 0 26 -6 36 -18l58 -78l62 76c10 12 21 18 34 18h104c13 0 24 -6 34 -18l95 -118c10 -12 15 -26 15 -42v-674h-98v650l-66 82h-63z" />
    <glyph glyph-name="NameMe.755" vert-adv-y="0" 
d="M87 940h692v-122h-593v-208h395v-122h-395v-270h593v-120h-692v842z" />
    <glyph glyph-name="NameMe.756" vert-adv-y="0" 
d="M91 940h95v-636l69 -84h359l66 86v634h98v-658c0 -8 -1 -26 -13 -40l-95 -122c-6 -8 -19 -20 -35 -20h-402c-8 0 -22 4 -34 18l-95 118c-4 6 -13 22 -13 42v662z" />
    <glyph glyph-name="gacute" unicode="&#x1f5;" vert-adv-y="0" 
d="M308 1026c-10 12 -15 28 -15 42c0 18 7 34 15 44l194 242c10 12 22 18 34 18c14 0 28 -8 36 -18s15 -26 15 -44c0 -14 -5 -30 -15 -42l-195 -242c-8 -10 -21 -18 -35 -18c-12 0 -24 6 -34 18zM632 374l-112 -138c-6 -10 -21 -18 -34 -18h-154c-12 0 -24 6 -34 18
l-191 236c-8 8 -14 26 -14 42v134c0 14 4 30 14 42l196 244c6 10 21 16 34 16h244c12 0 25 -4 35 -16l99 -124c8 -8 14 -26 14 -42v-742c0 -14 -4 -30 -14 -42l-91 -112c-6 -10 -21 -18 -34 -18h-262c-12 0 -23 6 -33 18l-94 116l68 84l79 -98h223l61 76v324zM632 542v202
l-70 86h-206l-166 -206v-86l162 -200h114z" />
    <glyph glyph-name="kacute" unicode="&#x1e31;" vert-adv-y="0" 
d="M403 972c-10 12 -14 28 -14 42c0 18 6 34 14 44l195 242c10 12 22 18 34 18c14 0 28 -8 36 -18s14 -26 14 -44c0 -14 -4 -30 -14 -42l-195 -242c-8 -10 -22 -18 -36 -18c-12 0 -24 6 -34 18zM410 524l269 -342l-70 -84l-287 368h-129v-368h-100v1220h100v-732h131
l292 366l68 -84z" />
    <glyph glyph-name="lacute" unicode="&#x13a;" vert-adv-y="0" 
d="M400 1016c-10 12 -15 28 -15 42c0 18 7 34 15 44l195 242c10 12 21 18 33 18c14 0 28 -8 36 -18s15 -26 15 -44c0 -14 -5 -30 -15 -42l-194 -242c-8 -10 -22 -18 -36 -18c-12 0 -24 6 -34 18zM481 246l21 -28h79v-120h-99c-13 0 -23 6 -33 18l-50 62
c-10 12 -15 26 -15 42v722h97v-696z" />
    <glyph glyph-name="zacute" unicode="&#x17a;" vert-adv-y="0" 
d="M304 1016c-10 12 -14 28 -14 42c0 18 6 34 14 44l195 242c10 12 22 18 34 18c14 0 28 -8 36 -18s14 -26 14 -44c0 -14 -4 -30 -14 -42l-195 -242c-8 -10 -22 -18 -36 -18c-12 0 -24 6 -34 18zM93 952h686l-487 -734h487v-120h-686l488 732h-488v122z" />
    <glyph glyph-name="smalll" vert-adv-y="0" 
d="M481 246l21 -28h79v-120h-99c-13 0 -23 6 -33 18l-50 62c-10 12 -15 26 -15 42v722h97v-696z" />
    <glyph glyph-name="sacute" unicode="&#x15b;" vert-adv-y="0" 
d="M304 1018c-10 12 -14 28 -14 42c0 18 6 34 14 44l195 242c10 12 22 18 34 18c14 0 28 -8 36 -18s14 -26 14 -44c0 -14 -4 -30 -14 -42l-195 -242c-8 -10 -22 -18 -36 -18c-12 0 -24 6 -34 18zM581 744l-71 88h-249l-47 -60l452 -442c12 -12 18 -26 18 -44s-5 -34 -15 -46
l-102 -124c-10 -12 -21 -18 -34 -18h-292c-13 0 -24 6 -34 18l-100 120c-10 12 -14 26 -14 44v56h97v-30l71 -88h253l48 60l-450 440c-12 10 -16 26 -18 44v7c0 15 5 29 13 39l97 126c10 12 21 18 35 18h291c13 0 23 -6 33 -18l101 -122c10 -12 15 -26 15 -42v-64h-98v38z
" />
    <glyph glyph-name="wacute" unicode="&#x1e83;" vert-adv-y="0" 
d="M304 972c-10 12 -14 28 -14 42c0 18 6 34 14 44l195 242c10 12 22 18 34 18c14 0 28 -8 36 -18s14 -26 14 -44c0 -14 -4 -30 -14 -42l-195 -242c-8 -10 -22 -18 -36 -18c-12 0 -24 6 -34 18zM486 422l141 -178l55 64v644h97v-670c0 -18 -4 -32 -14 -44l-104 -122
c-10 -10 -22 -16 -34 -16s-24 6 -34 18l-157 198l-162 -204c-10 -12 -22 -20 -35 -20s-23 8 -33 20l-99 124c-10 12 -14 26 -14 42v674h97v-650l49 -62l148 182v164h99v-164z" />
    <glyph glyph-name="NameMe.2214" vert-adv-y="0" 
d="M304 972c-10 12 -14 28 -14 42c0 18 6 34 14 44l195 242c10 12 22 18 34 18c14 0 28 -8 36 -18s14 -26 14 -44c0 -14 -4 -30 -14 -42l-195 -242c-8 -10 -22 -18 -36 -18c-12 0 -24 6 -34 18zM269 626v-526h-95v668c0 18 -6 30 -16 44c-12 12 -20 18 -36 18h-29v122h79
c28 0 97 -58 97 -122v-38l112 140c10 12 21 20 34 20h118c14 0 26 -6 34 -18l102 -122c10 -12 15 -26 15 -44v-60h-97v36l-73 86h-78z" />
    <glyph glyph-name="uni27EB" unicode="&#x27eb;" vert-adv-y="0" 
d="M464 1122l342 -430c10 -14 12 -28 12 -42c0 -16 -4 -32 -12 -42l-342 -426l-71 84l308 384l-308 388zM166 1120l342 -430c10 -12 14 -26 14 -40c0 -18 -8 -34 -14 -44l-342 -426l-69 84l308 384l-308 388z" />
    <glyph glyph-name="uni27EA" unicode="&#x27ea;" vert-adv-y="0" 
d="M400 1122l70 -84l-310 -388l310 -384l-70 -84l-342 426c-8 10 -14 26 -14 44c0 12 4 28 14 40zM697 1120l69 -84l-309 -388l309 -384l-69 -84l-342 426c-8 10 -13 26 -13 42c0 14 3 28 13 42z" />
    <glyph glyph-name="SF060000" unicode="&#x252c;" vert-adv-y="0" 
d="M875 710v-122h-381v-988h-99v988h-395v122h875z" />
    <glyph glyph-name="SF070000" unicode="&#x2534;" vert-adv-y="0" 
d="M0 588v122h395v890h99v-890h379v-122h-873z" />
    <glyph glyph-name="SF390000" unicode="&#x2554;" vert-adv-y="0" 
d="M873 830v-122h-474v-1108h-99v1230h573zM873 584v-122h-278v-862h-99v984h377z" />
    <glyph glyph-name="SF250000" unicode="&#x2557;" vert-adv-y="0" 
d="M595 830v-1230h-99v1108h-496v122h595zM399 584v-984h-99v862h-300v122h399z" />
    <glyph glyph-name="SF260000" unicode="&#x255d;" vert-adv-y="0" 
d="M595 1600v-1138h-595v122h496v1016h99zM399 1600v-892h-399v122h300v770h99z" />
    <glyph glyph-name="SF380000" unicode="&#x255a;" vert-adv-y="0" 
d="M873 830v-122h-377v892h99v-770h278zM873 584v-122h-573v1138h99v-1016h474z" />
    <glyph glyph-name="SF430000" unicode="&#x2550;" vert-adv-y="0" 
d="M875 584v-122h-875v122h875zM875 830v-120h-875v120h875z" />
    <glyph glyph-name="SF240000" unicode="&#x2551;" vert-adv-y="0" 
d="M399 1600v-2000h-99v2000h99zM595 1600v-2000h-99v2000h99z" />
    <glyph glyph-name="SF370000" unicode="&#x255f;" vert-adv-y="0" 
d="M399 1600v-2000h-99v2000h99zM873 708v-122h-278v-986h-99v2000h99v-892h278z" />
    <glyph glyph-name="SF200000" unicode="&#x2562;" vert-adv-y="0" 
d="M399 1600v-2000h-99v986h-300v122h300v892h99zM595 1600v-2000h-99v2000h99z" />
    <glyph glyph-name="SF440000" unicode="&#x256c;" vert-adv-y="0" 
d="M399 1600v-892h-399v122h300v770h99zM873 830v-122h-377v892h99v-770h278zM873 584v-122h-278v-862h-99v984h377zM399 584v-984h-99v862h-300v122h399z" />
    <glyph glyph-name="SF530000" unicode="&#x256b;" vert-adv-y="0" 
d="M873 708v-122h-278v-986h-99v986h-97v-986h-99v986h-300v122h300v892h99v-892h97v892h99v-892h278z" />
    <glyph glyph-name="SF540000" unicode="&#x256a;" vert-adv-y="0" 
d="M873 830v-122h-379v-124h379v-122h-379v-862h-99v862h-395v122h395v124h-395v122h395v770h99v-770h379z" />
    <glyph glyph-name="SF230000" unicode="&#x2563;" vert-adv-y="0" 
d="M399 584v-984h-99v862h-300v122h399zM399 1600v-892h-399v122h300v770h99zM595 1600v-2000h-99v2000h99z" />
    <glyph glyph-name="SF420000" unicode="&#x2560;" vert-adv-y="0" 
d="M873 584v-122h-278v-862h-99v984h377zM873 830v-122h-377v892h99v-770h278zM399 1600v-2000h-99v2000h99z" />
    <glyph glyph-name="SF410000" unicode="&#x2566;" vert-adv-y="0" 
d="M873 584v-122h-278v-862h-99v984h377zM399 584v-984h-99v862h-300v122h399zM873 830v-122h-873v122h873z" />
    <glyph glyph-name="SF400000" unicode="&#x2569;" vert-adv-y="0" 
d="M399 1600v-892h-399v122h300v770h99zM873 830v-122h-377v892h99v-770h278zM873 584v-122h-873v122h873z" />
    <glyph glyph-name="trademark" unicode="&#x2122;" vert-adv-y="0" 
d="M446 1378h81l64 -124l69 124h81v-608h-81v436l-69 -120l-64 120v-436h-81v608zM81 1378h283v-102h-101v-506h-81v506h-101v102z" />
    <glyph glyph-name="H18533" unicode="&#x25cf;" vert-adv-y="0" 
d="M75 630c0 252 165 456 369 456s370 -204 370 -456s-166 -456 -370 -456s-369 204 -369 456z" />
    <glyph glyph-name="uni2583" unicode="&#x2583;" vert-adv-y="0" 
d="M0 350h875v-750h-875v750z" />
    <glyph glyph-name="uni2581" unicode="&#x2581;" vert-adv-y="0" 
d="M0 -150h875v-250h-875v250z" />
    <glyph glyph-name="uni2582" unicode="&#x2582;" vert-adv-y="0" 
d="M0 100h875v-500h-875v500z" />
    <glyph glyph-name="uni2585" unicode="&#x2585;" vert-adv-y="0" 
d="M0 850h875v-1250h-875v1250z" />
    <glyph glyph-name="uni2586" unicode="&#x2586;" vert-adv-y="0" 
d="M0 1100h875v-1500h-875v1500z" />
    <glyph glyph-name="uni2587" unicode="&#x2587;" vert-adv-y="0" 
d="M0 1350h875v-1750h-875v1750z" />
    <glyph glyph-name="uni2589" unicode="&#x2589;" vert-adv-y="0" 
d="M0 1600h765v-2000h-765v2000z" />
    <glyph glyph-name="uni23CE" unicode="&#x23ce;" vert-adv-y="0" 
d="M515 1150h230v-650h-376v-220l-302 368l302 368v-222h146v356zM664 1050h-68v-356h-308v82l-106 -128l106 -128v80h376v450z" />
    <glyph glyph-name="uni2318" unicode="&#x2318;" vert-adv-y="0" 
d="M237 602v226h-160c-18 0 -37 16 -37 44v248v10c4 30 30 56 54 56h196c18 0 38 -18 38 -46v-200h174v180v10c4 30 29 56 53 56h198c18 0 37 -18 37 -46v-248c0 -2 -1 -6 -1 -10c-4 -30 -28 -54 -52 -54h-144v-226h160c18 0 37 -18 37 -46v-244c0 -2 -1 -6 -1 -10
c-4 -30 -28 -54 -52 -54h-198c-18 0 -37 16 -37 44v200h-174v-180c0 -2 -2 -6 -2 -10c-4 -30 -28 -54 -52 -54h-195c-18 0 -39 16 -39 44v244v10c4 30 31 56 55 56h142zM328 828v-226h174v226h-174zM593 940h107v136h-107v-136zM593 492v-134h107v134h-107zM237 492h-104
v-134h104v134zM237 940v136h-106v-136h106z" />
    <glyph glyph-name="ltshade" unicode="&#x2591;" vert-adv-y="0" 
d="M778 -320h48v-80h-48v80zM389 -320h48v-80h-48v80zM194 -320h49v-80h-49v80zM583 -320h49v-80h-49v80zM0 -320h49v-80h-49v80zM778 -160h48v-80h-48v80zM389 -160h48v-80h-48v80zM486 -240h49v-80h-49v80zM583 -160h49v-80h-49v80zM680 -240h49v-80h-49v80zM0 -160h49
v-80h-49v80zM97 -240h49v-80h-49v80zM194 -160h49v-80h-49v80zM292 -240h48v-80h-48v80zM778 0h48v-80h-48v80zM389 0h48v-80h-48v80zM486 -80h49v-80h-49v80zM583 0h49v-80h-49v80zM680 -80h49v-80h-49v80zM0 0h49v-80h-49v80zM97 -80h49v-80h-49v80zM194 0h49v-80h-49v80z
M292 -80h48v-80h-48v80zM778 160h48v-80h-48v80zM389 160h48v-80h-48v80zM486 80h49v-80h-49v80zM583 160h49v-80h-49v80zM680 80h49v-80h-49v80zM0 160h49v-80h-49v80zM97 80h49v-80h-49v80zM194 160h49v-80h-49v80zM292 80h48v-80h-48v80zM778 320h48v-80h-48v80zM389 320
h48v-80h-48v80zM486 240h49v-80h-49v80zM583 320h49v-80h-49v80zM680 240h49v-80h-49v80zM0 320h49v-80h-49v80zM97 240h49v-80h-49v80zM194 320h49v-80h-49v80zM292 240h48v-80h-48v80zM778 480h48v-80h-48v80zM389 480h48v-80h-48v80zM486 400h49v-80h-49v80zM583 480h49
v-80h-49v80zM680 400h49v-80h-49v80zM0 480h49v-80h-49v80zM97 400h49v-80h-49v80zM194 480h49v-80h-49v80zM292 400h48v-80h-48v80zM778 640h48v-80h-48v80zM389 640h48v-80h-48v80zM486 560h49v-80h-49v80zM583 640h49v-80h-49v80zM680 560h49v-80h-49v80zM0 640h49v-80
h-49v80zM97 560h49v-80h-49v80zM194 640h49v-80h-49v80zM292 560h48v-80h-48v80zM778 800h48v-80h-48v80zM389 800h48v-80h-48v80zM486 720h49v-80h-49v80zM583 800h49v-80h-49v80zM680 720h49v-80h-49v80zM0 800h49v-80h-49v80zM97 720h49v-80h-49v80zM194 800h49v-80h-49
v80zM292 720h48v-80h-48v80zM778 960h48v-80h-48v80zM389 960h48v-80h-48v80zM486 880h49v-80h-49v80zM583 960h49v-80h-49v80zM680 880h49v-80h-49v80zM0 960h49v-80h-49v80zM97 880h49v-80h-49v80zM194 960h49v-80h-49v80zM292 880h48v-80h-48v80zM778 1120h48v-80h-48v80
zM389 1120h48v-80h-48v80zM486 1040h49v-80h-49v80zM583 1120h49v-80h-49v80zM680 1040h49v-80h-49v80zM0 1120h49v-80h-49v80zM97 1040h49v-80h-49v80zM194 1120h49v-80h-49v80zM292 1040h48v-80h-48v80zM778 1280h48v-80h-48v80zM389 1280h48v-80h-48v80zM486 1200h49v-80
h-49v80zM583 1280h49v-80h-49v80zM680 1200h49v-80h-49v80zM0 1280h49v-80h-49v80zM97 1200h49v-80h-49v80zM194 1280h49v-80h-49v80zM292 1200h48v-80h-48v80zM778 1440h48v-80h-48v80zM389 1440h48v-80h-48v80zM486 1360h49v-80h-49v80zM583 1440h49v-80h-49v80zM680 1360
h49v-80h-49v80zM0 1440h49v-80h-49v80zM97 1360h49v-80h-49v80zM194 1440h49v-80h-49v80zM292 1360h48v-80h-48v80zM778 1600h48v-80h-48v80zM389 1600h48v-80h-48v80zM486 1520h49v-80h-49v80zM583 1600h49v-80h-49v80zM680 1520h49v-80h-49v80zM0 1600h49v-80h-49v80z
M97 1520h49v-80h-49v80zM194 1600h49v-80h-49v80zM292 1520h48v-80h-48v80z" />
    <glyph glyph-name="shade" unicode="&#x2592;" vert-adv-y="0" 
d="M730 1279v-79h48v79h-48zM633 1279v-79h47v79h-47zM536 1279v-79h47v79h-47zM438 1279v-79h48v79h-48zM778 1359v-79h48v79h-48zM681 1359v-79h48v79h-48zM584 1359v-79h48v79h-48zM487 1359v-79h48v79h-48zM778 1440h48v79h-48v-79zM778 1439h-48v-79h48v79zM681 1440
h48v79h-48v-79zM680 1439h-47v-79h47v79zM584 1440h48v79h-48v-79zM583 1439h-47v-79h47v79zM487 1440h48v79h-48v-79zM486 1439h-48v-79h48v79zM778 -160h48v79h-48v-79zM778 -161h-48v-79h48v79zM681 -160h48v79h-48v-79zM680 -161h-47v-79h47v79zM584 -160h48v79h-48v-79
zM583 -161h-47v-79h47v79zM487 -160h48v79h-48v-79zM486 -161h-48v-79h48v79zM390 -160h47v79h-47v-79zM389 -161h-48v-79h48v79zM292 -160h48v79h-48v-79zM292 -161h-48v-79h48v79zM195 -160h48v79h-48v-79zM194 -161h-47v-79h47v79zM98 -160h48v79h-48v-79zM97 -161h-47
v-79h47v79zM730 -1v-79h48v79h-48zM633 -1v-79h47v79h-47zM536 -1v-79h47v79h-47zM438 -1v-79h48v79h-48zM341 -1v-79h48v79h-48zM244 -1v-79h48v79h-48zM147 -1v-79h47v79h-47zM50 -1v-79h47v79h-47zM778 79v-79h48v79h-48zM681 79v-79h48v79h-48zM584 79v-79h48v79h-48z
M487 79v-79h48v79h-48zM390 79v-79h47v79h-47zM292 79v-79h48v79h-48zM195 79v-79h48v79h-48zM98 79v-79h48v79h-48zM778 160h48v79h-48v-79zM778 159h-48v-79h48v79zM681 160h48v79h-48v-79zM680 159h-47v-79h47v79zM584 160h48v79h-48v-79zM583 159h-47v-79h47v79z
M487 160h48v79h-48v-79zM486 159h-48v-79h48v79zM390 160h47v79h-47v-79zM389 159h-48v-79h48v79zM292 160h48v79h-48v-79zM292 159h-48v-79h48v79zM195 160h48v79h-48v-79zM194 159h-47v-79h47v79zM98 160h48v79h-48v-79zM97 159h-47v-79h47v79zM730 319v-79h48v79h-48z
M633 319v-79h47v79h-47zM536 319v-79h47v79h-47zM438 319v-79h48v79h-48zM341 319v-79h48v79h-48zM244 319v-79h48v79h-48zM147 319v-79h47v79h-47zM50 319v-79h47v79h-47zM778 399v-79h48v79h-48zM681 399v-79h48v79h-48zM584 399v-79h48v79h-48zM487 399v-79h48v79h-48z
M390 399v-79h47v79h-47zM292 399v-79h48v79h-48zM195 399v-79h48v79h-48zM98 399v-79h48v79h-48zM778 480h48v79h-48v-79zM778 479h-48v-79h48v79zM681 480h48v79h-48v-79zM680 479h-47v-79h47v79zM584 480h48v79h-48v-79zM583 479h-47v-79h47v79zM487 480h48v79h-48v-79z
M486 479h-48v-79h48v79zM390 480h47v79h-47v-79zM389 479h-48v-79h48v79zM292 480h48v79h-48v-79zM292 479h-48v-79h48v79zM195 480h48v79h-48v-79zM194 479h-47v-79h47v79zM98 480h48v79h-48v-79zM97 479h-47v-79h47v79zM730 639v-79h48v79h-48zM633 639v-79h47v79h-47z
M536 639v-79h47v79h-47zM438 639v-79h48v79h-48zM341 639v-79h48v79h-48zM244 639v-79h48v79h-48zM147 639v-79h47v79h-47zM50 639v-79h47v79h-47zM778 719v-79h48v79h-48zM681 719v-79h48v79h-48zM584 719v-79h48v79h-48zM487 719v-79h48v79h-48zM390 719v-79h47v79h-47z
M292 719v-79h48v79h-48zM195 719v-79h48v79h-48zM98 719v-79h48v79h-48zM778 800h48v79h-48v-79zM778 799h-48v-79h48v79zM681 800h48v79h-48v-79zM680 799h-47v-79h47v79zM584 800h48v79h-48v-79zM583 799h-47v-79h47v79zM487 800h48v79h-48v-79zM486 799h-48v-79h48v79z
M390 800h47v79h-47v-79zM389 799h-48v-79h48v79zM292 800h48v79h-48v-79zM292 799h-48v-79h48v79zM195 800h48v79h-48v-79zM194 799h-47v-79h47v79zM98 800h48v79h-48v-79zM97 799h-47v-79h47v79zM730 959v-79h48v79h-48zM633 959v-79h47v79h-47zM536 959v-79h47v79h-47z
M438 959v-79h48v79h-48zM341 959v-79h48v79h-48zM244 959v-79h48v79h-48zM147 959v-79h47v79h-47zM50 959v-79h47v79h-47zM778 1039v-79h48v79h-48zM681 1039v-79h48v79h-48zM584 1039v-79h48v79h-48zM487 1039v-79h48v79h-48zM390 1039v-79h47v79h-47zM292 1039v-79h48v79
h-48zM195 1039v-79h48v79h-48zM98 1039v-79h48v79h-48zM778 1120h48v79h-48v-79zM778 1119h-48v-79h48v79zM681 1120h48v79h-48v-79zM680 1119h-47v-79h47v79zM584 1120h48v79h-48v-79zM583 1119h-47v-79h47v79zM487 1120h48v79h-48v-79zM486 1119h-48v-79h48v79zM389 1119
h-48v-79h48v79zM292 1119h-48v-79h48v79zM194 1119h-47v-79h47v79zM97 1119h-47v-79h47v79zM146 -320v79h-48v-79h48zM243 -320v79h-48v-79h48zM340 -320v79h-48v-79h48zM437 -320v79h-47v-79h47zM535 -320v79h-48v-79h48zM632 -320v79h-48v-79h48zM729 -320v79h-48v-79h48z
M826 -320v79h-48v-79h48zM341 1279v-79h48v79h-48zM244 1279v-79h48v79h-48zM147 1279v-79h47v79h-47zM50 1279v-79h47v79h-47zM390 1359v-79h47v79h-47zM292 1359v-79h48v79h-48zM195 1359v-79h48v79h-48zM98 1359v-79h48v79h-48zM390 1440h47v79h-47v-79zM389 1439h-48
v-79h48v79zM292 1440h48v79h-48v-79zM292 1439h-48v-79h48v79zM195 1440h48v79h-48v-79zM194 1439h-47v-79h47v79zM98 1440h48v79h-48v-79zM97 1439h-47v-79h47v79zM0 1600h50v-80h47v80h50v-80h47v80h50v-80h48v80h49v-80h48v80h49v-80h48v80h50v-80h47v80h50v-80h47v80h50
v-80h48v80h49v-80h48v-81h-48v-79h48v-81h-48v-79h48v-81h-48v-79h48v-81h-48v-79h48v-81h-48v-79h48v-81h-48v-79h48v-81h-48v-79h48v-81h-48v-79h48v-81h-48v-79h48v-81h-48v-79h48v-81h-48v-79h48v-81h-48v-79h-49v79h-48v-79h-50v79h-47v-79h-50v79h-47v-79h-50v79h-48
v-79h-49v79h-48v-79h-49v79h-48v-79h-50v79h-47v-79h-50v79h-47v-79h-50v80h49v79h-49v81h49v79h-49v81h49v79h-49v81h49v79h-49v81h49v79h-49v81h49v79h-49v81h49v79h-49v81h49v79h-49v81h49v79h-49v81h49v79h-49v81h49v79h-49v81h49v79h-49v81zM390 1120h47v79h-47v-79z
M292 1120h48v79h-48v-79zM195 1120h48v79h-48v-79zM98 1120h48v79h-48v-79z" />
    <glyph glyph-name="dkshade" unicode="&#x2593;" vert-adv-y="0" 
d="M0 -320v80h49v80h-49v80h49v80h-49v80h49v80h-49v80h49v80h-49v80h49v80h-49v80h49v80h-49v80h49v80h-49v80h49v80h-49v80h49v80h-49v80h49v80h-49v80h49v80h-49v80h49v80h145v-80h49v80h146v-80h48v80h146v-80h49v80h146v-80h48v80h49v-2000h-49v80h-48v-80h-146v80h-49
v-80h-146v80h-48v-80h-146v80h-49v-80h-145v80h-49zM778 -160v-80h48v80h-48zM389 -160v-80h48v80h-48zM486 -240v-80h49v80h-49zM583 -160v-80h49v80h-49zM680 -240v-80h49v80h-49zM97 -240v-80h49v80h-49zM194 -160v-80h49v80h-49zM292 -240v-80h48v80h-48zM778 0v-80h48
v80h-48zM389 0v-80h48v80h-48zM486 -80v-80h49v80h-49zM583 0v-80h49v80h-49zM680 -80v-80h49v80h-49zM97 -80v-80h49v80h-49zM194 0v-80h49v80h-49zM292 -80v-80h48v80h-48zM778 160v-80h48v80h-48zM389 160v-80h48v80h-48zM486 80v-80h49v80h-49zM583 160v-80h49v80h-49z
M680 80v-80h49v80h-49zM97 80v-80h49v80h-49zM194 160v-80h49v80h-49zM292 80v-80h48v80h-48zM778 320v-80h48v80h-48zM389 320v-80h48v80h-48zM486 240v-80h49v80h-49zM583 320v-80h49v80h-49zM680 240v-80h49v80h-49zM97 240v-80h49v80h-49zM194 320v-80h49v80h-49z
M292 240v-80h48v80h-48zM778 480v-80h48v80h-48zM389 480v-80h48v80h-48zM486 400v-80h49v80h-49zM583 480v-80h49v80h-49zM680 400v-80h49v80h-49zM97 400v-80h49v80h-49zM194 480v-80h49v80h-49zM292 400v-80h48v80h-48zM778 640v-80h48v80h-48zM389 640v-80h48v80h-48z
M486 560v-80h49v80h-49zM583 640v-80h49v80h-49zM680 560v-80h49v80h-49zM97 560v-80h49v80h-49zM194 640v-80h49v80h-49zM292 560v-80h48v80h-48zM778 800v-80h48v80h-48zM389 800v-80h48v80h-48zM486 720v-80h49v80h-49zM583 800v-80h49v80h-49zM680 720v-80h49v80h-49z
M97 720v-80h49v80h-49zM194 800v-80h49v80h-49zM292 720v-80h48v80h-48zM778 960v-80h48v80h-48zM389 960v-80h48v80h-48zM486 880v-80h49v80h-49zM583 960v-80h49v80h-49zM680 880v-80h49v80h-49zM97 880v-80h49v80h-49zM194 960v-80h49v80h-49zM292 880v-80h48v80h-48z
M778 1120v-80h48v80h-48zM389 1120v-80h48v80h-48zM486 1040v-80h49v80h-49zM583 1120v-80h49v80h-49zM680 1040v-80h49v80h-49zM97 1040v-80h49v80h-49zM194 1120v-80h49v80h-49zM292 1040v-80h48v80h-48zM778 1280v-80h48v80h-48zM389 1280v-80h48v80h-48zM486 1200v-80
h49v80h-49zM583 1280v-80h49v80h-49zM680 1200v-80h49v80h-49zM97 1200v-80h49v80h-49zM194 1280v-80h49v80h-49zM292 1200v-80h48v80h-48zM778 1440v-80h48v80h-48zM389 1440v-80h48v80h-48zM486 1360v-80h49v80h-49zM583 1440v-80h49v80h-49zM680 1360v-80h49v80h-49z
M97 1360v-80h49v80h-49zM194 1440v-80h49v80h-49zM292 1360v-80h48v80h-48zM486 1520v-80h49v80h-49zM680 1520v-80h49v80h-49zM97 1520v-80h49v80h-49zM292 1520v-80h48v80h-48z" />
    <glyph glyph-name="uni2594" unicode="&#x2594;" vert-adv-y="0" 
d="M0 1600h875v-250h-875v250z" />
    <glyph glyph-name="uni2595" unicode="&#x2595;" vert-adv-y="0" 
d="M765 1600h110v-2000h-110v2000z" />
    <glyph glyph-name="uni2596" unicode="&#x2596;" vert-adv-y="0" 
d="M438 -400h-438v1001h438v-1001z" />
    <glyph glyph-name="uni2597" unicode="&#x2597;" vert-adv-y="0" 
d="M436 -396v997h436v-997h-436z" />
    <glyph glyph-name="uni2598" unicode="&#x2598;" vert-adv-y="0" 
d="M438 599h-438v1001h438v-1001z" />
    <glyph glyph-name="uni2599" unicode="&#x2599;" vert-adv-y="0" 
d="M0 1600h437v-1000h438v-1000h-875v4v1996z" />
    <glyph glyph-name="uni259A" unicode="&#x259a;" vert-adv-y="0" 
d="M438 601h434v-997h-436v995h-436v1001h438v-999z" />
    <glyph glyph-name="uni259B" unicode="&#x259b;" vert-adv-y="0" 
d="M0 1600h875v-1000h-438v-1000h-437v1998v2z" />
    <glyph glyph-name="uni259C" unicode="&#x259c;" vert-adv-y="0" 
d="M0 1600h875v-2000h-438v1000h-437v1000z" />
    <glyph glyph-name="uni259D" unicode="&#x259d;" vert-adv-y="0" 
d="M436 1600h439v-1001h-439v1001z" />
    <glyph glyph-name="uni259E" unicode="&#x259e;" vert-adv-y="0" 
d="M436 1600h439v-1001h-437v-999h-438v1001h436v999z" />
    <glyph glyph-name="uni259F" unicode="&#x259f;" vert-adv-y="0" 
d="M437 1600h438v-2000h-875v1000h437v1000z" />
    <glyph glyph-name="NameMe.806" unicode="&#x258d;" vert-adv-y="0" 
d="M0 1600h328v-2000h-328v2000z" />
    <glyph glyph-name="NameMe.807" unicode="&#x258e;" vert-adv-y="0" 
d="M0 1600h219v-2000h-219v2000z" />
    <glyph glyph-name="uni258A" unicode="&#x258a;" vert-adv-y="0" 
d="M0 1600h656v-2000h-656v2000z" />
    <glyph glyph-name="NameMe.809" unicode="&#x238b;" vert-adv-y="0" 
d="M535 946l40 110c140 -66 239 -232 239 -426c0 -252 -166 -456 -370 -456c-156 0 -288 118 -343 286l89 50c39 -126 137 -216 254 -216c55.3614 0 106.909 20.4326 149.916 55.5664l-283.916 350.434l-172 -172v470l382 -40l-139 -172l284.365 -351.37
c31.866 54.999 50.6351 122.416 50.6351 195.37c0 146 -76 270 -181 316z" />
    <glyph glyph-name="uni2196" unicode="&#x2196;" vert-adv-y="0" 
d="M520 958l-139 -172l348 -430l-69 -88l-350 432l-172 -172v470z" />
    <glyph glyph-name="uni2197" unicode="&#x2197;" vert-adv-y="0" 
d="M346 998h383v-470l-174 172l-348 -432l-69 88l348 430z" />
    <glyph glyph-name="uni2198" unicode="&#x2198;" vert-adv-y="0" 
d="M346 268l140 212l-348 432l69 86l348 -430l142 172v-472h-351z" />
    <glyph glyph-name="uni2199" unicode="&#x2199;" vert-adv-y="0" 
d="M520 308h-350v432l140 -172l350 430l69 -86l-348 -432z" />
    <glyph glyph-name="NameMe.814" vert-adv-y="0" 
d="M172 630c0 -186 122 -336 272 -336s272 150 272 336s-122 336 -272 336s-272 -150 -272 -336zM75 630c0 252 165 456 369 456s370 -204 370 -456s-166 -456 -370 -456s-369 204 -369 456z" />
    <glyph glyph-name="uni2319" unicode="&#x2319;" vert-adv-y="0" 
d="M771 699h-674v364h97v-242h577v-122z" />
    <glyph glyph-name="uni231A" unicode="&#x231a;" vert-adv-y="0" 
d="M402 1069c0 21 14 38 31 38s31 -17 31 -38s-14 -38 -31 -38s-31 17 -31 38zM235 1000c0 21 14 38 31 38s30 -17 30 -38s-13 -38 -30 -38s-31 17 -31 38zM120 862c0 21 13 38 30 38s32 -17 32 -38s-15 -38 -32 -38s-30 17 -30 38zM62 649c0 22 14 39 32 39
c17 0 29 -17 29 -39c0 -21 -12 -37 -29 -37c-18 0 -32 16 -32 37zM120 440c0 21 13 37 30 37s32 -16 32 -37c0 -22 -15 -39 -32 -39s-30 17 -30 39zM233 300c0 21 14 38 31 38c18 0 31 -17 31 -38s-13 -38 -31 -38c-17 0 -31 17 -31 38zM403 228c0 22 14 40 32 40
c17 0 29 -18 29 -40c0 -21 -12 -36 -29 -36c-18 0 -32 15 -32 36zM576 1000c0 21 15 38 32 38s30 -17 30 -38s-13 -38 -30 -38s-32 17 -32 38zM691 863c0 21 14 39 31 39s30 -18 30 -39s-13 -37 -30 -37s-31 16 -31 37zM746 652c0 21 13 38 30 38s31 -17 31 -38
s-14 -38 -31 -38s-30 17 -30 38zM690 441c0 21 13 38 30 38s31 -17 31 -38s-14 -38 -31 -38s-30 17 -30 38zM578 302c0 21 13 37 30 37s32 -16 32 -37s-15 -39 -32 -39s-30 18 -30 39zM593 894l39 -48l-167 -210v-288h-55v301c0 8 3 18 8 24z" />
    <glyph glyph-name="NameMe.818" unicode="&#x231c;" vert-adv-y="0" 
d="M444 1298h-363v-576h-81v678h444v-102z" />
    <glyph glyph-name="NameMe.819" unicode="&#x231d;" vert-adv-y="0" 
d="M421 1298v102h444v-678h-81v576h-363z" />
    <glyph glyph-name="NameMe.820" unicode="&#x231e;" vert-adv-y="0" 
d="M444 -290v-102h-444v678h81v-576h363z" />
    <glyph glyph-name="NameMe.821" unicode="&#x231f;" vert-adv-y="0" 
d="M421 -290h363v576h81v-678h-444v102z" />
    <glyph glyph-name="NameMe.822" vert-adv-y="0" 
d="M49 1538h771v-1872h-771v1872z" />
    <glyph glyph-name="SF500000" unicode="&#x2558;" vert-adv-y="0" 
d="M873 584v-122h-478v1138h97v-770h381v-122h-381v-124h381z" />
    <glyph glyph-name="SF210000" unicode="&#x2556;" vert-adv-y="0" 
d="M0 706h595v-1106h-99v984h-97v-984h-99v984h-300v122z" />
    <glyph glyph-name="SF270000" unicode="&#x255c;" vert-adv-y="0" 
d="M0 708h300v892h99v-892h97v892h99v-1014h-595v122z" />
    <glyph glyph-name="SF220000" unicode="&#x2555;" vert-adv-y="0" 
d="M0 830h476v-1230h-99v862h-377v122h377v124h-377v122z" />
    <glyph glyph-name="SF520000" unicode="&#x2553;" vert-adv-y="0" 
d="M873 706v-122h-278v-984h-99v984h-97v-984h-99v1106h573z" />
    <glyph glyph-name="SF510000" unicode="&#x2552;" vert-adv-y="0" 
d="M873 830v-122h-383v-124h383v-122h-383v-862h-98v1230h481z" />
    <glyph glyph-name="SF490000" unicode="&#x2559;" vert-adv-y="0" 
d="M873 708v-122h-573v1014h99v-892h97v892h99v-892h278z" />
    <glyph glyph-name="SF280000" unicode="&#x255b;" vert-adv-y="0" 
d="M0 584h376v124h-376v122h376v770h97v-1138h-473v122z" />
    <glyph glyph-name="SF460000" unicode="&#x2568;" vert-adv-y="0" 
d="M873 708v-122h-873v122h300v892h99v-892h97v892h99v-892h278z" />
    <glyph glyph-name="SF480000" unicode="&#x2565;" vert-adv-y="0" 
d="M873 708v-122h-278v-986h-99v986h-97v-986h-99v986h-300v122h873z" />
    <glyph glyph-name="SF470000" unicode="&#x2564;" vert-adv-y="0" 
d="M873 830v-122h-873v122h873zM873 584v-122h-379v-862h-99v862h-395v122h873z" />
    <glyph glyph-name="SF450000" unicode="&#x2567;" vert-adv-y="0" 
d="M873 830v-122h-873v122h395v770h99v-770h379zM873 584v-122h-873v122h873z" />
    <glyph glyph-name="SF190000" unicode="&#x2561;" vert-adv-y="0" 
d="M494 1600v-2000h-99v862h-395v122h395v124h-395v122h395v770h99z" />
    <glyph glyph-name="SF360000" unicode="&#x255e;" vert-adv-y="0" 
d="M873 830v-122h-379v-124h379v-122h-379v-862h-99v2000h99v-770h379z" />
    <glyph glyph-name="uni258F" unicode="&#x258f;" vert-adv-y="0" 
d="M0 1602h110v-1998h-110v1998z" />
    <glyph glyph-name="NameMe.837" unicode="&#xf100;" vert-adv-y="0" 
d="M708 700l7 -26l-31 -70zM571 724c-0.333333 -1 -0.444444 -1.77778 -0.444444 -2.37037c0 -1.18519 0.444444 -1.62963 0.444444 -1.62963c-2 0 -3 10 -6 12c2 5 5 10 6 10c0.666667 0 0.888889 -0.222222 0.888889 -0.777778
c0 -1.11111 -0.888889 -3.55556 -0.888889 -8.22222v-9zM547 644v1c0 5 -9 1 -9 8c0 4 4 11 13 25c-3 -9 -5 -15 -5 -18s1 -4 2 -4c4 0 14 16 14 30c1 -1.5 1.25 -3 1.25 -4.625s-0.25 -3.375 -0.25 -5.375c0 -10 -4 -22 -16 -32zM480 622c12 0 20 0 30 4
c-4 -4 -8 -10 -12 -14c-13 3 -24 7 -24 9c0 1 2 1 6 1zM437 1130l20 -2l-5 -4zM356 612v-18c-4 10 -7 22 -11 34c4 -8 7 -10 11 -16zM342 602c12 -26 16 -34 22 -52c-12 10 -14 24 -22 38v14zM136 918c2 2 3 4 5 4c1 0 1 0 1 -2c0 -3 0 -9 -4 -18c-4 -4 -6 -6 -8 -6
c-1 0 -2 1 -2 2c0 4 4 13 8 20zM115 814v3c0 6 -2 10 -2 15c0 4 3 9 7 16c-2 -8 -1 -18 -5 -34zM351 992l-69 -40l2 -1l18 9l26 13l-18 -13c-95 -80 -154 -140 -154 -322c0 -104 35 -94 63 -180c-4 2 -7 2 -13 12v-2c0 -10 19 -56 31 -74c-1 1 -4 1 -6 1c-4 0 -8 -1 -9 -1
c12 -26 32 -42 44 -58v8c6 -14 34 -64 54 -76v-12c22 -16 5 -12 36 -26v14c22 -40 64 -60 109 -64c-202 10 -355 240 -355 484c0 32 4 62 8 94c13 74 75 208 135 286l-2 -22c32 36 91 72 123 88c0 0 -2.55102 -4.08163 -2.55102 -6.41399
c0 -0.932945 0.408163 -1.58601 1.55102 -1.58601c8 0 26 8 38 10c-6 -4 -10 -8 -16 -12h2c13 0 75 -10 79 -10v12c34 -16 77 -28 127 -70c1 -1 0 -1 1 -1s2 2 2 5c0 6 -3 16 -7 20c45 -30 126 -158 126 -240l-2 -14c-4 18 -21 80 -31 94l11 -72l-13 8l11 -98l-1 -34l-8 24
l-4 -56c0 11 -1 22 -4 22c-1 0 -2 0 -2 -2c-22 -110 -67 -134 -87 -148s-83 -28 -115 -28c-4 0 -8 2 -12 2c28 -14 18 -16 57 -18c-10 -4 -21 -6 -33 -6c-55 0 -106 44 -134 94c6 -2 50 -48 84 -52c-40 36 -84 110 -84 186c0 80 55 134 116 134c31 0 59 -14 73 -44
c-16 24 -36 34 -57 34c-57 0 -124 -48 -124 -120v-10c8 -90 53 -170 132 -170c13 0 26 0 40 4c28 6 25 18 43 34c-1 -2 -1 -9 -1 -13c0 -0.666667 -0.444444 -1.33333 -0.444444 -1.7037c0 -0.185185 0.111111 -0.296296 0.444444 -0.296296l1 1c61 78 73 110 73 238
c0 112 -93 216 -218 216l-43 -4l18 10l-77 -34l-3 -1l1 -1l16 2h3z" />
    <glyph glyph-name="uni21A0" unicode="&#x21a0;" vert-adv-y="0" 
d="M257 952l221 -230v230l293 -306l-293 -304v228l-221 -228v244h-160v122h160v244z" />
    <glyph glyph-name="uni2934" unicode="&#x2934;" vert-adv-y="0" 
d="M344 672h-198l246 360l246 -360h-197v-358c0 -12 -6 -24 -12 -32l-85 -104c-10 -12 -23 -18 -36 -18h-162v100h138l60 72v340z" />
    <glyph glyph-name="heart" unicode="&#x2665;" vert-adv-y="0" 
d="M434 840c28 38 24 62 99 84c13 2 26 4 39 4c36 0 70 -8 90 -20c29 -16 65 -58 75 -100c4 -22 12 -52 12 -76c0 -6 -2 -12 -2 -18c-4 -52 -25 -94 -39 -126c-42 -92 -57 -136 -117 -212c-44 -56 -85 -96 -119 -136l-36 -42l-39 42c-34 40 -76 80 -120 136
c-60 76 -75 120 -117 212c-14 32 -34 74 -38 126c0 6 -2 12 -2 18c0 24 7 54 11 76c10 42 46 84 75 100c20 12 54 20 90 20c13 0 27 -2 40 -4c75 -22 70 -46 98 -84z" />
    <glyph glyph-name="uni2935" unicode="&#x2935;" vert-adv-y="0" 
d="M441 520h197l-246 -360l-246 360h198v340l-60 72h-138v100h162c13 0 26 -6 36 -18l85 -104c6 -8 12 -20 12 -32v-358z" />
    <glyph glyph-name="uni2936" unicode="&#x2936;" vert-adv-y="0" 
d="M606 584h-173v-242l-293 304l293 306v-248h157l58 72v170h81v-198c0 -16 -3 -34 -13 -46l-84 -104c-6 -8 -16 -14 -26 -14z" />
    <glyph glyph-name="uni2937" unicode="&#x2937;" vert-adv-y="0" 
d="M263 584c-10 0 -20 6 -26 14l-85 104c-10 12 -12 30 -12 46v198h81v-170l58 -72h157v248l293 -306l-293 -304v242h-173z" />
    <glyph glyph-name="NameMe.859" unicode="&#x21a1;" vert-adv-y="0" 
d="M188 866h197v198h99v-198h198l-184 -272h184l-246 -362l-248 362h186z" />
    <glyph glyph-name="NameMe.863" unicode="&#x219f;" vert-adv-y="0" 
d="M189 431l186 272h-186l247 362l247 -362h-184l184 -272h-198v-198h-99v198h-197z" />
    <glyph glyph-name="NameMe.864" unicode="&#x219e;" vert-adv-y="0" 
d="M257 952l221 -230v230l293 -306l-293 -304v228l-221 -228v244h-160v122h160v244z" />
    <glyph glyph-name="short_A" vert-adv-y="0" 
d="M188 296v-198h-95v508c0 18 10 34 14 40l292 362c10 14 22 18 32 18c16 0 29 -8 37 -18l297 -364c12 -14 13 -32 13 -42v-504h-98l2 198h-494zM190 418h490v160l-247 304l-243 -302v-162z" />
    <glyph glyph-name="caron" unicode="&#x2c7;" vert-adv-y="0" 
d="M658 1548l34 -42l-222 -274c-10 -12 -21 -16 -33 -16c-14 0 -28 6 -36 16l-221 274l34 42l34 42l188 -232l188 232z" />
    <glyph glyph-name="uni270E" unicode="&#x270e;" vert-adv-y="0" 
d="M174 784l218 268l-36 44h-36l-182 -234v-34zM377 530l219 270l-147 180l-218 -268zM348 424l-280 350c-8 10 -11 24 -11 34v74c0 14 5 26 11 34l207 266c8 10 19 12 29 12h69c12 0 22 -4 28 -12c91 -118 187 -232 281 -346c4 -6 9 -16 11 -24c28 -144 53 -288 81 -432
c0 -4 2 -8 2 -12c0 -22 -13 -42 -31 -48c-2 -1 -3 -1 -5 -1c-4 0 -10 1 -13 1l-358 90c-6 2 -17 8 -21 14zM632 702l-174 -212l141 -36l63 78z" />
    <glyph glyph-name="uni2714" unicode="&#x2714;" vert-adv-y="0" 
d="M71 638c16 20 39 30 60 30s41 -10 55 -28l169 -204l277 536c16 30 42 46 68 46c14 0 30 -6 43 -16c24 -20 38 -52 38 -84c0 -18 -5 -38 -13 -54l-331 -640c-21 -40 -43 -54 -64 -54c-28 0 -53 26 -61 36l-239 290c-16 20 -24 48 -24 74s8 50 22 68z" />
    <glyph glyph-name="uni273C" unicode="&#x273c;" vert-adv-y="0" 
d="M433 852l-54 300c0 36 26 56 52 56c28 0 53 -20 53 -56zM490 812l182 208c6 4 15 8 21 8c29 0 54 -40 54 -76c0 -16 -8 -34 -22 -44zM490 732l235 -92c14 -12 22 -28 22 -48c0 -34 -23 -74 -52 -74c-6 0 -15 2 -21 8zM433 692l53 -300c0 -36 -26 -56 -52 -56
c-28 0 -53 20 -53 56zM376 732l-183 -208c-6 -4 -15 -8 -21 -8c-29 0 -54 40 -54 76c0 16 8 34 22 44zM376 812l-236 92c-14 12 -22 28 -22 48c0 34 23 74 52 74c6 0 15 -2 21 -8z" />
    <glyph glyph-name="uni2753" unicode="&#x2753;" vert-adv-y="0" 
d="M188 954h-97v184c0 16 6 32 14 42l102 124c10 12 24 14 34 14h385c13 0 26 -6 34 -16l101 -126c10 -12 15 -28 15 -42v-122c0 -16 -8 -34 -16 -44l-297 -344v-160h-97v186c0 14 5 32 15 44l298 344v72l-75 90h-343l-73 -88v-158zM360 356h108v-122h-108v122z" />
    <glyph glyph-name="uni2B06" unicode="&#x2b06;" vert-adv-y="0" 
d="M441 258h-97v578h-198l246 358l246 -358h-197v-578z" />
    <glyph glyph-name="uni2B07" unicode="&#x2b07;" vert-adv-y="0" 
d="M344 1194h97v-578h197l-246 -358l-246 358h198v578z" />
    <glyph glyph-name="u1F394" unicode="&#x1f394;" vert-adv-y="0" 
d="M434 840c28 38 24 64 99 84c13 4 26 4 39 4c36 0 70 -8 90 -20c49 -26 87 -92 87 -176c0 -6 -2 -12 -2 -18c-4 -52 -25 -94 -39 -126c-42 -92 -65 -120 -125 -196c-39 -50 -223 -170 -223 -170c10 30 16 60 16 90c0 38 -12 76 -36 108c-58 76 -138 76 -180 168
c-14 32 -34 74 -38 126c0 6 -2 12 -2 18c0 84 37 150 86 176c20 12 54 20 90 20c13 0 27 0 40 -4c75 -20 70 -46 98 -84z" />
    <glyph glyph-name="uni21AF" unicode="&#x21af;" vert-adv-y="0" 
d="M212 1274v-528l399 484v-888h141l-185 -274l-185 274h132v598l-399 -482v816h97z" />
    <glyph glyph-name="NameMe.857" vert-adv-y="0" 
d="M146 624h492l-246 -364z" />
    <glyph glyph-name="lambda" unicode="&#x3bb;" vert-adv-y="0" 
d="M94 1072v122h29c61 0 164 -6 219 -122l447 -972h-112l-231 503l-247 -503h-120l313 624l-135 284c-29 60 -96 64 -163 64z" />
    <glyph glyph-name="dieresistonos" unicode="&#x385;" vert-adv-y="0" 
d="M304 1238c-10 12 -14 28 -14 42c0 18 6 34 14 44l195 242c10 12 22 18 34 18c14 0 28 -8 36 -18s14 -26 14 -44c0 -14 -4 -30 -14 -42l-195 -242c-8 -10 -22 -18 -36 -18c-12 0 -24 6 -34 18zM184 1202h103v-122h-103v122zM482 1202h101v-122h-101v122z" />
    <glyph glyph-name="dotaccent" unicode="&#x2d9;" vert-adv-y="0" 
d="M302 1238c0 62 40 112 90 112s90 -50 90 -112s-40 -112 -90 -112s-90 50 -90 112z" />
    <glyph glyph-name="sdotaccent" unicode="&#x1e61;" vert-adv-y="0" 
d="M581 744l-71 88h-249l-47 -60l452 -442c12 -12 18 -26 18 -44s-5 -34 -15 -46l-102 -124c-10 -12 -21 -18 -34 -18h-292c-13 0 -24 6 -34 18l-100 120c-10 12 -14 26 -14 44v56h97v-30l71 -88h253l48 60l-450 440c-12 10 -16 26 -18 44v7c0 15 5 29 13 39l97 126
c10 12 21 18 35 18h291c13 0 23 -6 33 -18l101 -122c10 -12 15 -26 15 -42v-64h-98v38zM302 1238c0 62 40 112 90 112s90 -50 90 -112s-40 -112 -90 -112s-90 50 -90 112z" />
    <glyph glyph-name="Sdotaccent" unicode="&#x1e60;" vert-adv-y="0" 
d="M670 996l-61 80h-340l-70 -86v-64l548 -476c14 -12 21 -30 21 -50v-118c0 -16 -5 -28 -13 -40l-93 -124c-10 -12 -21 -22 -35 -22h-382c-13 0 -24 6 -34 18l-99 122c-10 12 -15 26 -15 42v62h97v-38l70 -84h342l64 88v62l-547 476c-14 12 -21 30 -21 50v120
c0 16 5 30 15 42l98 122c10 12 21 16 34 16h379c13 0 24 -4 34 -16l95 -116c10 -12 14 -26 14 -42v-64h-101v40zM342 1372c0 62 41 112 91 112s90 -50 90 -112s-40 -112 -90 -112s-91 50 -91 112z" />
    <glyph glyph-name="fdotaccent" unicode="&#x1e1f;" vert-adv-y="0" 
d="M455 1078l-64 -82v-164h196v-122h-198v-612h-96v612h-200v122h200v188c0 16 3 30 13 42l93 118c10 12 21 18 35 18h250v-120h-229zM342 1372c0 62 41 112 91 112s90 -50 90 -112s-40 -112 -90 -112s-91 50 -91 112z" />
    <glyph glyph-name="Fdotaccent" unicode="&#x1e1e;" vert-adv-y="0" 
d="M97 1194h674v-120h-578v-362h483v-112h-483v-502h-96v1096zM342 1372c0 62 41 112 91 112s90 -50 90 -112s-40 -112 -90 -112s-91 50 -91 112z" />
    <glyph glyph-name="bdotaccent" unicode="&#x1e03;" vert-adv-y="0" 
d="M93 104v1214h97v-368h252c16 0 30 -12 34 -18l193 -242c12 -14 15 -32 15 -42v-246c0 -20 -11 -36 -15 -42l-199 -242c-12 -14 -28 -14 -34 -14h-343zM190 218h227l171 208v198l-165 208h-233v-614zM302 1238c0 62 40 112 90 112s90 -50 90 -112s-40 -112 -90 -112
s-90 50 -90 112z" />
    <glyph glyph-name="Bdotaccent" unicode="&#x1e02;" vert-adv-y="0" 
d="M193 218v858h-96v118h431c16 0 29 -10 35 -16l195 -250c10 -12 13 -26 13 -40c0 -20 -6 -36 -14 -46l-164 -194l164 -198c10 -12 14 -28 14 -40c0 -18 -6 -34 -14 -44l-198 -250c-12 -14 -26 -18 -34 -18h-428v120h96zM506 586h-216v-368h214l150 188zM504 708l150 180
l-147 188h-217v-368h214zM342 1372c0 62 41 112 91 112s90 -50 90 -112s-40 -112 -90 -112s-91 50 -91 112z" />
    <glyph glyph-name="NameMe.879" vert-adv-y="0" 
d="M455 1078l-64 -82v-164h196v-122h-198v-612h-96v612h-200v122h200v188c0 16 3 30 13 42l93 118c10 12 21 18 35 18h250v-120h-229z" />
    <glyph glyph-name="ddotaccent" unicode="&#x1e0b;" vert-adv-y="0" 
d="M684 102h-344c-6 0 -22 2 -34 16l-199 242c-4 6 -14 22 -14 42v246c0 10 2 28 14 42l195 242c4 6 16 18 32 18h253v368h97v-1216zM587 218v614h-232l-167 -208v-198l172 -208h227zM302 1238c0 62 40 112 90 112s90 -50 90 -112s-40 -112 -90 -112s-90 50 -90 112z" />
    <glyph glyph-name="Ddotaccent" unicode="&#x1e0a;" vert-adv-y="0" 
d="M290 220h217l167 206v440l-167 210h-217v-856zM193 1076h-96v118h431c16 0 30 -12 34 -18l195 -244c12 -14 14 -32 14 -42v-488c0 -20 -10 -38 -14 -44l-196 -240c-12 -14 -27 -20 -35 -20h-429v120h96v858zM342 1372c0 62 41 112 91 112s90 -50 90 -112
s-40 -112 -90 -112s-91 50 -91 112z" />
    <glyph glyph-name="tdotaccent" unicode="&#x1e6b;" vert-adv-y="0" 
d="M481 246l21 -28h79v-120h-99c-13 0 -23 6 -33 18l-50 62c-10 12 -15 26 -15 42v598h-200v122h200v254h97v-254h199v-122h-199v-572zM342 1372c0 62 41 112 91 112s90 -50 90 -112s-40 -112 -90 -112s-91 50 -91 112z" />
    <glyph glyph-name="Tdotaccent" unicode="&#x1e6a;" vert-adv-y="0" 
d="M97 1194h674v-120h-289v-976h-97v976h-288v120zM342 1372c0 62 41 112 91 112s90 -50 90 -112s-40 -112 -90 -112s-91 50 -91 112z" />
    <glyph glyph-name="mdotaccent" unicode="&#x1e41;" vert-adv-y="0" 
d="M484 746v-648h-99v648l-65 84h-59l-71 -86v-646h-97v852h98v-34l15 18c10 12 20 18 33 18h101c14 0 26 -6 36 -18l58 -78l62 76c10 12 21 18 34 18h104c13 0 24 -6 34 -18l95 -118c10 -12 15 -26 15 -42v-674h-98v650l-66 82h-63zM340 1238c0 62 41 112 91 112
s91 -50 91 -112s-41 -112 -91 -112s-91 50 -91 112z" />
    <glyph glyph-name="Mdotaccent" unicode="&#x1e40;" vert-adv-y="0" 
d="M482 740v-152h-98v152l-190 248v-888h-97v1032c0 26 11 46 31 56c6 4 12 6 18 6c12 0 24 -8 34 -20l251 -322l257 326c10 12 23 16 35 16c4 0 7 2 11 2c2 0 4 -1 7 -2c20 -10 30 -32 30 -58v-1036h-97v892zM342 1372c0 62 41 112 91 112s90 -50 90 -112
s-40 -112 -90 -112s-91 50 -91 112z" />
    <glyph glyph-name="NameMe.878" vert-adv-y="0" 
d="M481 246l21 -28h79v-120h-99c-13 0 -23 6 -33 18l-50 62c-10 12 -15 26 -15 42v598h-200v122h200v254h97v-254h199v-122h-199v-572z" />
    <glyph glyph-name="rdotaccent" unicode="&#x1e59;" vert-adv-y="0" 
d="M269 626v-526h-95v668c0 18 -6 30 -16 44c-12 12 -20 18 -36 18h-29v122h79c28 0 97 -58 97 -122v-38l112 140c10 12 21 20 34 20h118c14 0 26 -6 34 -18l102 -122c10 -12 15 -26 15 -44v-60h-97v36l-73 86h-78zM302 1238c0 62 40 112 90 112s90 -50 90 -112
s-40 -112 -90 -112s-90 50 -90 112z" />
    <glyph glyph-name="Rdotaccent" unicode="&#x1e58;" vert-adv-y="0" 
d="M450 588l307 -382c10 -12 14 -26 14 -42v-64h-95v28l-365 460h-118v-488h-96v1094h527c13 0 24 -6 34 -18l99 -120c10 -12 14 -26 14 -42v-246c0 -16 -4 -30 -14 -42l-96 -120c-10 -12 -21 -18 -34 -18h-177zM193 708h413l68 84v196l-70 86h-411v-366zM342 1372
c0 62 41 112 91 112s90 -50 90 -112s-40 -112 -90 -112s-91 50 -91 112z" />
    <glyph glyph-name="ndotaccent" unicode="&#x1e45;" vert-adv-y="0" 
d="M267 884l39 48c4 6 18 18 34 18h201c8 0 20 -2 32 -16l96 -116c4 -6 15 -22 15 -42v-674h-93v650l-69 78h-162l-68 -84v-646h-98v670c0 6 3 14 7 24l-29 40h-79v118h101c16 0 27 -10 31 -18zM302 1238c0 62 40 112 90 112s90 -50 90 -112s-40 -112 -90 -112
s-90 50 -90 112z" />
    <glyph glyph-name="Ndotaccent" unicode="&#x1e44;" vert-adv-y="0" 
d="M97 100v1094h96l483 -610v610h95v-1094h-95v300l-483 616v-916h-96zM342 1372c0 62 41 112 91 112s90 -50 90 -112s-40 -112 -90 -112s-91 50 -91 112z" />
    <glyph glyph-name="uni0394" unicode="&#x394;" vert-adv-y="0" 
d="M235 220h397l-199 638zM94 100l339 1094l340 -1094h-679z" />
    <glyph glyph-name="uni2718" unicode="&#x2718;" vert-adv-y="0" 
d="M123 746v188l264 -190l384 478v-226l-269 -336l201 -144v-184l-294 210l-322 -398v226l205 256z" />
    <glyph glyph-name="quoteright" unicode="&#x2019;" vert-adv-y="0" 
d="M346 1318h98l-49 -366h-49v366z" />
    <glyph glyph-name="quoteleft" unicode="&#x2018;" vert-adv-y="0" 
d="M395 1318h49v-366h-98z" />
    <glyph glyph-name="uni2693" unicode="&#x2693;" vert-adv-y="0" 
d="M395 1318h97v-318h178v-120h-178v-584c63 26 140 98 274 214l56 -100c-148 -128 -244 -204 -330 -226v-82h-97v82c-87 20 -184 96 -334 228l56 96c138 -120 213 -190 278 -214v586h-204v120h204v318z" />
    <glyph glyph-name="uni2716" unicode="&#x2716;" vert-adv-y="0" 
d="M120 856l136 170l177 -216l175 216l137 -170l-174 -216l174 -218l-137 -168l-175 216l-177 -216l-136 168l175 218z" />
    <glyph glyph-name="uni018E" unicode="&#x18e;" vert-adv-y="0" 
d="M778 1194v-1096h-685v120h586v368h-389v122h389v366h-586v120h685z" />
    <glyph glyph-name="afii10074" unicode="&#x438;" vert-adv-y="0" 
d="M685 100h-98v642l-403 -586v-56h-97v852h97v-584l403 584h98v-852z" />
    <glyph glyph-name="ring" unicode="&#x2da;" vert-adv-y="0" 
d="M285 1074c0 -74 49 -134 107 -134c60 0 110 60 110 134s-50 134 -110 134c-58 0 -107 -60 -107 -134zM204 1074c0 130 84 234 188 234c105 0 191 -104 191 -234c0 -128 -86 -234 -191 -234c-104 0 -188 106 -188 234z" />
    <glyph glyph-name="quotedblright" unicode="&#x201d;" vert-adv-y="0" 
d="M198 1318h97l-48 -366h-49v366zM494 1318h97l-48 -366h-49v366z" />
    <glyph glyph-name="quotedblleft" unicode="&#x201c;" vert-adv-y="0" 
d="M248 1318h48v-366h-97zM544 1318h49v-366h-97z" />
    <glyph glyph-name="uni2713" unicode="&#x2713;" vert-adv-y="0" 
d="M97 608c10 12 22 18 34 18s25 -6 35 -18l198 -246l296 586c10 18 25 30 41 30c10 0 18 -4 26 -10c14 -12 23 -32 23 -52c0 -10 -4 -22 -8 -32l-327 -650c-2 -2 -2 -6 -6 -10c-10 -12 -23 -18 -35 -18s-24 6 -34 18l-243 300c-10 12 -14 28 -14 42s4 30 14 42z" />
    <glyph glyph-name="afii10017" unicode="&#x410;" vert-adv-y="0" 
d="M193 488v-390h-96v676c0 18 11 34 15 40l287 362c10 14 22 18 32 18c16 0 29 -8 37 -18l290 -364c12 -14 13 -32 13 -42v-672h-97v390h-481zM194 600h480v146l-241 300l-239 -298v-148z" />
    <glyph glyph-name="afii10018" unicode="&#x411;" vert-adv-y="0" 
d="M93 104v1214h589v-122h-492v-246h252c16 0 30 -12 34 -18l193 -242c12 -14 15 -32 15 -42v-246c0 -20 -11 -36 -15 -42l-199 -242c-12 -14 -28 -14 -34 -14h-343zM190 218h227l171 208v198l-165 208h-233v-614z" />
    <glyph glyph-name="afii10019" unicode="&#x412;" vert-adv-y="0" 
d="M193 218v858h-96v118h431c16 0 29 -10 35 -16l195 -250c10 -12 13 -26 13 -40c0 -20 -6 -36 -14 -46l-164 -194l164 -198c10 -12 14 -28 14 -40c0 -18 -6 -34 -14 -44l-198 -250c-12 -14 -26 -18 -34 -18h-428v120h96zM506 586h-216v-368h214l150 188zM504 708l150 180
l-147 188h-217v-368h214z" />
    <glyph glyph-name="afii10020" unicode="&#x413;" vert-adv-y="0" 
d="M190 100h-97v1094h685v-118h-588v-976z" />
    <glyph glyph-name="afii10021" unicode="&#x414;" vert-adv-y="0" 
d="M191 -256h-97v476h82c50 258 81 526 81 812v98v64h440v-974h81v-476h-98v356h-489v-356zM275 220h324v852h-246v-44c0 -286 -29 -552 -78 -808z" />
    <glyph glyph-name="afii10022" unicode="&#x415;" vert-adv-y="0" 
d="M97 1196h674v-122h-578v-362h386v-122h-386v-372h578v-120h-674v1098z" />
    <glyph glyph-name="afii10024" unicode="&#x416;" vert-adv-y="0" 
d="M384 1194h97v-402l198 248v154h97v-178c0 -16 -5 -30 -15 -42l-261 -326l261 -328c10 -12 15 -26 15 -42v-178h-97v154l-198 246v-400h-97v404l-200 -250v-154h-97v178c0 16 5 30 15 42l261 326l-261 328c-10 12 -15 26 -15 42v178h97v-154l200 -248v402z" />
    <glyph glyph-name="afii10025" unicode="&#x417;" vert-adv-y="0" 
d="M94 104v120h507l92 112v124l-102 124h-303v120h303l102 124v124l-92 112h-507v120h528c13 0 26 -8 34 -18l120 -148c10 -12 14 -28 14 -42v-172c0 -16 -6 -32 -14 -42l-96 -118l96 -118c8 -10 14 -26 14 -42v-172c0 -14 -4 -30 -14 -42l-120 -148c-8 -10 -21 -18 -34 -18
h-528z" />
    <glyph glyph-name="afii10026" unicode="&#x418;" vert-adv-y="0" 
d="M778 100h-99v916l-495 -616v-300h-97v1094h97v-610l495 610h99v-1094z" />
    <glyph glyph-name="afii10027" unicode="&#x419;" vert-adv-y="0" 
d="M183 1492h97c2 -16 3 -30 7 -46s9 -30 15 -44s14 -24 22 -34c10 -12 19 -22 31 -30s23 -12 36 -16c12 -4 23 -6 35 -6c13 0 26 2 38 6s22 10 34 18s20 18 28 28s17 22 23 36s10 32 14 48c4 14 6 26 6 40h97c0 -26 -2 -52 -8 -76s-14 -48 -24 -70s-24 -44 -38 -62
s-31 -34 -49 -46s-36 -22 -57 -30c-20 -6 -40 -12 -61 -12s-42 2 -63 8s-40 18 -58 30s-36 28 -52 46c-14 18 -29 38 -39 60c-12 22 -20 46 -24 72c-4 24 -10 54 -10 80zM778 100h-99v916l-495 -616v-300h-97v1096h97v-612l495 612h99v-1096z" />
    <glyph glyph-name="uni25B6" unicode="&#x25b6;" vert-adv-y="0" 
d="M220 1168l384 -313l-384 -295v608z" />
    <glyph glyph-name="afii10028" unicode="&#x41a;" vert-adv-y="0" 
d="M199 376v-278h-102v1096h102v-646l475 608v38h96v-62c0 -16 -5 -30 -15 -42l-348 -444l350 -444c10 -12 14 -26 14 -42v-62h-97v38l-336 426z" />
    <glyph glyph-name="afii10029" unicode="&#x41b;" vert-adv-y="0" 
d="M774 98h-97v978h-243c0 -732 -62 -786 -266 -978l-56 100c152 136 225 222 225 908v88h437v-1096z" />
    <glyph glyph-name="afii10030" unicode="&#x41c;" vert-adv-y="0" 
d="M482 740v-152h-98v152l-190 248v-888h-97v1032c0 26 11 46 31 56c6 4 12 6 18 6c12 0 24 -8 34 -20l251 -322l257 326c10 12 23 16 35 16c4 0 7 2 11 2c2 0 4 -1 7 -2c20 -10 30 -32 30 -58v-1036h-97v892z" />
    <glyph glyph-name="afii10031" unicode="&#x41d;" vert-adv-y="0" 
d="M97 1194h96v-482h483v482h95v-1094h-95v500h-483v-500h-96v1094z" />
    <glyph glyph-name="afii10032" unicode="&#x41e;" vert-adv-y="0" 
d="M198 988v-688l63 -80h343l70 86v680l-70 90h-341zM113 1052l93 124c12 16 25 18 35 18h385c16 0 31 -10 35 -18l97 -124c12 -14 13 -32 13 -42v-730c0 -20 -8 -36 -14 -42l-99 -120c-12 -14 -26 -18 -34 -18h-383c-16 0 -30 10 -34 16l-95 114c-12 14 -15 34 -15 44v738
c0 18 10 32 16 40z" />
    <glyph glyph-name="afii10033" unicode="&#x41f;" vert-adv-y="0" 
d="M184 98h-97v1096h689v-1096h-97v976h-495v-976z" />
    <glyph glyph-name="afii10034" unicode="&#x420;" vert-adv-y="0" 
d="M193 586h314l169 210v78l-168 200h-315v-488zM193 462v-366h-96v1098h431c13 0 24 -4 34 -16l195 -238c10 -12 14 -24 14 -40v-128c0 -16 -3 -30 -13 -42l-196 -246c-10 -12 -21 -22 -34 -22h-335z" />
    <glyph glyph-name="afii10035" unicode="&#x421;" vert-adv-y="0" 
d="M771 1058l-68 -84l-86 102h-157l-266 -328v-202l268 -328h154l84 110l71 -84l-99 -128c-6 -8 -20 -18 -36 -18h-194c-8 0 -21 6 -33 20l-297 360c-4 6 -15 22 -15 42v252c0 10 1 28 13 42l297 364c4 6 18 16 34 16h195c8 0 22 0 34 -14z" />
    <glyph glyph-name="afii10036" unicode="&#x422;" vert-adv-y="0" 
d="M97 1194h674v-120h-289v-976h-97v976h-288v120z" />
    <glyph glyph-name="afii10037" unicode="&#x423;" vert-adv-y="0" 
d="M223 98h-114l273 496l-283 488c-4 8 -10 22 -10 34v78h97v-58l255 -438l239 436v60h98v-78c0 -10 -4 -24 -8 -34z" />
    <glyph glyph-name="afii10038" unicode="&#x424;" vert-adv-y="0" 
d="M104 838l98 126c12 14 27 14 33 14h157v216h98v-216h148c16 0 30 -12 36 -20l91 -126c10 -12 13 -28 13 -38v-306c0 -20 -11 -36 -15 -42l-94 -118c-9 -13 -20 -14 -28 -14h-6h-145v-216h-98v216h-157c-14 0 -27 8 -33 14l-100 116c-13 14 -15 32 -15 44v310
c0 20 13 34 17 40zM184 772v-260l71 -84h137v432h-137zM490 428h126l64 84v260l-63 88h-127v-432z" />
    <glyph glyph-name="afii10039" unicode="&#x425;" vert-adv-y="0" 
d="M431 562l-235 -306v-154h-97v178c0 16 4 30 14 42l250 324l-250 330c-10 12 -14 26 -14 42v178h97v-154l237 -310l241 308v154h97v-178c0 -16 -4 -30 -14 -42l-257 -326l257 -328c10 -12 14 -26 14 -42v-178h-97v154z" />
    <glyph glyph-name="afii10040" unicode="&#x426;" vert-adv-y="0" 
d="M91 1194h97v-978h444v978h97v-980h47v-346h-94v228h-591v1098z" />
    <glyph glyph-name="afii10042" unicode="&#x428;" vert-adv-y="0" 
d="M91 1194h97v-978h172v556h98v-556h174v978h97v-1098h-638v1098z" />
    <glyph glyph-name="afii10043" unicode="&#x429;" vert-adv-y="0" 
d="M91 1194h97v-978h172v556h98v-556h170v978h97v-980h51v-346h-94v228h-591v1098z" />
    <glyph glyph-name="afii10046" unicode="&#x42c;" vert-adv-y="0" 
d="M93 104v1214h97v-426h345c16 0 30 -12 34 -18l192 -242c12 -14 15 -32 15 -42v-188c0 -20 -11 -36 -15 -42l-199 -242c-12 -14 -28 -14 -34 -14h-435zM190 218h318l172 208v140l-165 208h-325v-556z" />
    <glyph glyph-name="afii10048" unicode="&#x42e;" vert-adv-y="0" 
d="M295 1052l92 124c12 16 26 18 36 18h209c16 0 32 -10 36 -18l97 -124c12 -14 13 -32 13 -42v-730c0 -20 -9 -36 -15 -42l-99 -120c-12 -14 -26 -18 -34 -18h-207c-16 0 -30 10 -34 16l-96 114c-12 14 -13 34 -13 44v292h-95v-466h-99v1094h99v-512h95v330
c0 18 9 32 15 40zM379 988v-688l63 -80h169l69 86v680l-69 88h-167z" />
    <glyph glyph-name="afii10049" unicode="&#x42f;" vert-adv-y="0" 
d="M415 588h-184c-13 0 -23 6 -33 18l-96 120c-10 12 -15 26 -15 42v246c0 16 5 30 15 42l99 120c10 12 21 18 34 18h543v-1096h-98v490h-126l-368 -454v-36h-99v60c0 16 7 30 17 42zM680 708v366h-425l-71 -86v-196l69 -84h427z" />
    <glyph glyph-name="afii10041" unicode="&#x427;" vert-adv-y="0" 
d="M778 1332v-1236h-98v536l-119 -144c-10 -10 -22 -10 -35 -10h-283c-13 0 -24 6 -34 16l-102 120c-10 12 -14 26 -14 44v674h97v-648l73 -88h244l173 202v534h98z" />
    <glyph glyph-name="afii10044" unicode="&#x42a;" vert-adv-y="0" 
d="M93 1318h251v-426h191c16 0 30 -12 34 -18l192 -242c12 -14 15 -32 15 -42v-188c0 -20 -11 -36 -15 -42l-199 -242c-12 -14 -28 -14 -34 -14h-281v1090h-154v124zM344 218h164l172 208v140l-165 208h-171v-556z" />
    <glyph glyph-name="afii10045" unicode="&#x42b;" vert-adv-y="0" 
d="M684 1318h94v-1220h-94v1220zM93 104v1214h97v-426h194c16 0 30 -12 34 -18l193 -242c12 -14 14 -32 14 -42v-188c0 -20 -10 -36 -14 -42l-200 -242c-12 -14 -28 -14 -34 -14h-284zM190 218h168l172 208v140l-166 208h-174v-556z" />
    <glyph glyph-name="afii10065" unicode="&#x430;" vert-adv-y="0" 
d="M583 216v252h-326l-69 -88v-74l68 -90h327zM680 216h99v-116h-544c-16 0 -30 12 -34 18l-94 124c-12 14 -14 34 -14 42v120c0 20 10 36 14 42l95 122c12 14 27 16 35 16h346v166l-66 84h-331v118h350c16 0 31 -12 35 -18l95 -120c12 -14 14 -30 14 -40v-558z" />
    <glyph glyph-name="afii10066" unicode="&#x431;" vert-adv-y="0" 
d="M190 296l59 -80h312l71 88v328l-65 80h-306l-71 -90v-162v-164zM105 232c-8 10 -12 24 -12 40v188v188v328c0 16 6 34 14 42l100 124c10 12 22 18 34 18h322l73 80l65 -90l-87 -96c-8 -8 -21 -14 -33 -14h-320l-71 -88v-160l17 22c6 10 21 18 34 18h346
c12 0 23 -6 33 -18l95 -116c8 -8 14 -26 14 -42v-376c0 -14 -4 -30 -14 -42l-101 -124c-6 -10 -21 -18 -34 -18h-351c-12 0 -26 6 -36 20z" />
    <glyph glyph-name="afii10067" unicode="&#x432;" vert-adv-y="0" 
d="M191 218v620h-98v120h393c16 0 30 -12 36 -18l194 -198c12 -10 13 -26 13 -40c0 -20 -8 -34 -14 -46l-164 -128l164 -144c13 -6 14 -28 14 -40c0 -18 -6 -34 -14 -44l-198 -184c-13 -12 -27 -18 -35 -18h-389v120h98zM464 466h-174v-248h172l146 126zM462 588l144 118
l-141 132h-175v-250h172z" />
    <glyph glyph-name="afii10068" unicode="&#x433;" vert-adv-y="0" 
d="M190 98h-97v854h636v-120h-539v-734z" />
    <glyph glyph-name="afii10069" unicode="&#x434;" vert-adv-y="0" 
d="M191 -256h-97v476h82c50 258 81 286 81 572v98v62h440v-732h81v-476h-98v356h-489v-356zM275 220h324v612h-246v-44c0 -286 -29 -312 -78 -568z" />
    <glyph glyph-name="uni2731" unicode="&#x2731;" vert-adv-y="0" 
d="M698 1126l126 -154l-160 -200l164 -208l-127 -154l-178 224v-344h-179v342l-178 -224l-124 156l164 208l-161 200l125 154l174 -214v334h179v-336z" />
    <glyph glyph-name="uni276F" unicode="&#x276f;" vert-adv-y="0" 
d="M67 1554c10 10 31 28 55 28c20 0 44 -12 58 -36l624 -880c16 -22 20 -44 20 -68s-7 -52 -20 -68l-624 -878c-20 -32 -45 -34 -58 -34c-21 0 -42 12 -55 26l-2 4l-4 4c-4 10 -19 30 -19 64c0 24 8 52 21 68l579 814l-577 816c-22 30 -23 50 -23 74c0 38 19 56 19 58l4 4z
" />
    <glyph glyph-name="uni25FC" unicode="&#x25fc;" vert-adv-y="0" 
d="M120 1012h629v-776h-629v776z" />
    <glyph glyph-name="afii57636" unicode="&#x20aa;" vert-adv-y="0" 
d="M682 1184h97v-1024c0 -36 -27 -60 -48 -60h-321c-13 0 -26 8 -34 18l-81 100c-10 12 -15 28 -15 42v636h97v-612l52 -64h253v964zM191 100h-97v1024c0 36 27 60 48 60h322c13 0 24 -8 32 -18l83 -102c10 -12 14 -26 14 -40v-636h-97v612l-52 64h-253v-964z" />
    <glyph glyph-name="afii10070" unicode="&#x435;" vert-adv-y="0" 
d="M188 462v-158l69 -90h427v-112h-446c-14 0 -28 10 -32 16l-101 120c-12 14 -12 32 -12 42v484c0 20 12 34 16 40l98 126c12 14 28 22 36 22h293c16 0 31 -16 35 -22l95 -124c12 -14 14 -30 14 -40v-304h-492zM190 586h397v156l-70 88h-256l-71 -90v-154z" />
    <glyph glyph-name="afii10072" unicode="&#x436;" vert-adv-y="0" 
d="M379 956h103v-288.016l202 244.016v40h97v-60c0 -16 -5 -32 -15 -44l-264 -322l264 -324c10 -12 15 -26 15 -42v-64h-97v38l-202 247.248v-285.248h-103v276.68l-195 -238.68v-38h-97v64c0 16 4 30 14 42l263 322l-263 324c-10 12 -14 28 -14 44v60h97v-40l195 -235.56
v279.56z" />
    <glyph glyph-name="afii10073" unicode="&#x437;" vert-adv-y="0" 
d="M94 104v120h404l92 112v12l-102 124h-200v120h200l102 124v14l-92 112h-404v120h424c13 0 27 -12 35 -22l119 -144c10 -12 15 -28 15 -42v-62c0 -16 -7 -32 -15 -42l-95 -118l95 -118c8 -10 15 -26 15 -42v-60c0 -14 -5 -30 -15 -42l-119 -148c-8 -10 -22 -18 -35 -18
h-424z" />
    <glyph glyph-name="afii10075" unicode="&#x439;" vert-adv-y="0" 
d="M685 100h-98v642l-403 -586v-56h-97v852h97v-584l403 584h98v-852zM183 1318h97c2 -16 3 -30 7 -46s9 -30 15 -44s14 -24 22 -34c10 -12 19 -22 31 -30s23 -12 36 -16c12 -4 23 -6 35 -6c13 0 26 2 38 6s22 10 34 18s20 18 28 28s17 22 23 36s10 32 14 48c4 14 6 26 6 40
h97c0 -26 -2 -52 -8 -76s-14 -48 -24 -70s-24 -44 -38 -62s-31 -34 -49 -46s-36 -22 -57 -30c-20 -6 -40 -12 -61 -12s-42 2 -63 8s-40 18 -58 30s-36 28 -52 46c-14 18 -29 38 -39 60c-12 22 -20 46 -24 72c-4 24 -10 54 -10 80z" />
    <glyph glyph-name="afii10076" unicode="&#x43a;" vert-adv-y="0" 
d="M194 354v-256h-101v858h101v-430l387 384v38h98v-62c0 -16 -5 -32 -15 -42l-243 -254l243 -388c8 -14 15 -26 15 -42v-62h-98v38l-243 370z" />
    <glyph glyph-name="afii10077" unicode="&#x43b;" vert-adv-y="0" 
d="M684 98h-97v736h-205c0 -558 -10 -544 -214 -736l-56 100c152 136 173 98 173 666v90h399v-856z" />
    <glyph glyph-name="afii10079" unicode="&#x43d;" vert-adv-y="0" 
d="M93 950h98v-370h396v370h97v-852h-97v360h-396v-360h-98v852z" />
    <glyph glyph-name="afii10080" unicode="&#x43e;" vert-adv-y="0" 
d="M190 748v-444l69 -84h263l65 84v444l-64 88h-264zM109 814l98 126c12 14 26 14 32 14h305c16 0 30 -12 36 -20l90 -126c10 -12 14 -28 14 -38v-490c0 -20 -11 -36 -15 -42l-94 -118c-9 -13 -20 -14 -28 -14h-6h-302c-14 0 -26 8 -32 14l-100 116c-13 14 -14 32 -14 44
v494c0 20 12 34 16 40z" />
    <glyph glyph-name="afii10081" unicode="&#x43f;" vert-adv-y="0" 
d="M184 98h-97v856h597v-856h-97v736h-403v-736z" />
    <glyph glyph-name="afii10082" unicode="&#x440;" vert-adv-y="0" 
d="M93 956h356c10 0 15 0 21 -8l199 -236c4 -6 15 -22 15 -42v-268c0 -10 -3 -28 -15 -42l-195 -242c-4 -6 -16 -18 -32 -18h-252v-368h-97v1224zM190 830v-612h231l167 208v220l-157 184h-241z" />
    <glyph glyph-name="afii10083" unicode="&#x441;" vert-adv-y="0" 
d="M684 950v-118h-329l-167 -208v-198l172 -208h324v-116h-344c-6 0 -22 2 -34 16l-199 242c-4 6 -14 22 -14 42v246c0 10 2 28 14 42l195 242c4 6 16 18 32 18h350z" />
    <glyph glyph-name="afii10084" unicode="&#x442;" vert-adv-y="0" 
d="M87 954h597v-122h-250v-734h-98v734h-249v122z" />
    <glyph glyph-name="afii10085" unicode="&#x443;" vert-adv-y="0" 
d="M368 156l-261 326c-10 12 -14 26 -14 42v428h97v-404l247 -306l148 182v528h97v-552c0 -16 -4 -30 -14 -42l-498 -614l-68 84z" />
    <glyph glyph-name="afii10087" unicode="&#x445;" vert-adv-y="0" 
d="M434 440l-250 -306v-38h-97v64c0 16 4 30 14 42l263 322l-263 324c-10 12 -14 28 -14 44v60h97v-40l250 -302l250 302v40h97v-60c0 -16 -5 -32 -15 -44l-264 -322l264 -324c10 -12 15 -26 15 -42v-64h-97v38z" />
    <glyph glyph-name="afii10088" unicode="&#x446;" vert-adv-y="0" 
d="M91 948h97v-732h358v732h97v-734h47v-346h-94v228h-505v852z" />
    <glyph glyph-name="afii10089" unicode="&#x447;" vert-adv-y="0" 
d="M684 954v-858h-97v384l-117 -144c-10 -10 -21 -10 -34 -10h-193c-13 0 -24 6 -34 16l-102 120c-10 12 -14 26 -14 44v448h97v-422l73 -88h154l170 202v308h97z" />
    <glyph glyph-name="afii10090" unicode="&#x448;" vert-adv-y="0" 
d="M91 954h97v-738h146v388h99v-388h155v738h97v-858h-594v858z" />
    <glyph glyph-name="afii10094" unicode="&#x44c;" vert-adv-y="0" 
d="M93 104v836h97v-224h284c16 0 30 -12 34 -18l161 -202c10 -16 15 -32 15 -42v-92c0 -20 -11 -36 -15 -42l-167 -202c-13 -12 -28 -14 -34 -14h-375zM190 218h259l139 168v44l-133 168h-265v-380z" />
    <glyph glyph-name="afii10096" unicode="&#x44e;" vert-adv-y="0" 
d="M295 814l92 126c12 16 26 16 36 16h115c16 0 31 -8 35 -16l97 -126c12 -14 14 -32 14 -42v-492c0 -20 -9 -36 -15 -42l-98 -120c-12 -14 -27 -18 -35 -18h-113c-16 0 -30 10 -34 16l-96 114c-12 14 -13 34 -13 44v176h-95v-350h-99v856h99v-390h95v208c0 18 9 32 15 40z
M379 750v-450l63 -80h75l70 86v442l-70 88h-73z" />
    <glyph glyph-name="afii10097" unicode="&#x44f;" vert-adv-y="0" 
d="M312 464h-81c-13 0 -23 6 -33 18l-96 120c-10 12 -15 26 -15 42v130c0 16 5 30 15 42l99 124c10 12 21 14 34 14h449v-856h-97v366h-135l-266 -330v-36h-99v60c0 16 7 30 17 42zM587 584v250h-332l-71 -86v-80l69 -84h334z" />
    <glyph glyph-name="afii10086" unicode="&#x444;" vert-adv-y="0" 
d="M104 696l98 126c12 14 27 14 33 14h101v118h98v-118h110c16 0 30 -12 36 -20l90 -126c10 -12 14 -28 14 -38v-256c0 -20 -11 -36 -15 -42l-94 -118c-9 -13 -20 -14 -28 -14h-6h-107v-124h-98v124h-101c-14 0 -27 8 -33 14l-100 116c-13 14 -15 32 -15 44v260
c0 20 13 34 17 40zM184 630v-210l71 -84h81v382h-81zM434 336h88l65 84v210l-64 88h-89v-382z" />
    <glyph glyph-name="NameMe.955" vert-adv-y="0" 
d="M1017 950l68 -84l-289 -366v-500h-98v524c0 14 5 32 15 42zM992 -80c0 36 22 64 51 64s55 -28 55 -64s-26 -68 -55 -68s-51 32 -51 68zM1186 162c0 36 23 66 52 66s54 -30 54 -66s-25 -66 -54 -66s-52 30 -52 66zM1283 528c0 36 23 66 52 66s55 -30 55 -66
s-26 -66 -55 -66s-52 30 -52 66zM1187 896c0 36 25 68 54 68s53 -32 53 -68s-24 -64 -53 -64s-54 28 -54 64zM988 1134c0 36 24 66 53 66s54 -30 54 -66s-25 -66 -54 -66s-53 30 -53 66zM687 -208c0 38 24 68 55 68c29 0 52 -30 52 -68c0 -36 -23 -64 -52 -64
c-31 0 -55 28 -55 64zM392 -84c0 36 23 66 52 66c31 0 55 -30 55 -66s-24 -66 -55 -66c-29 0 -52 30 -52 66zM194 160c0 36 25 64 54 64s53 -28 53 -64c0 -38 -24 -68 -53 -68s-54 30 -54 68zM94 524c0 38 24 68 55 68c29 0 52 -30 52 -68c0 -36 -23 -64 -52 -64
c-31 0 -55 28 -55 64zM194 894c0 36 25 66 54 66s53 -30 53 -66s-24 -66 -53 -66s-54 30 -54 66zM393 1134c0 36 25 66 54 66s53 -30 53 -66s-24 -66 -53 -66s-54 30 -54 66zM685 1254c0 36 25 66 54 66s53 -30 53 -66s-24 -66 -53 -66s-54 30 -54 66z" />
    <glyph glyph-name="Zcaron" unicode="&#x17d;" vert-adv-y="0" 
d="M769 1012c0 -16 -4 -30 -14 -42l-561 -712v-38h577v-122h-674v184c0 16 5 30 15 42l560 712v38h-575v120h672v-182zM658 1548l34 -42l-222 -274c-10 -12 -21 -16 -33 -16c-14 0 -28 6 -36 16l-221 274l34 42l34 42l188 -232l188 232z" />
    <glyph glyph-name="zcaron" unicode="&#x17e;" vert-adv-y="0" 
d="M93 952h686l-487 -734h487v-120h-686l488 732h-488v122zM658 1360l34 -42l-222 -274c-10 -12 -21 -16 -33 -16c-14 0 -28 6 -36 16l-221 274l34 42l34 42l188 -232l188 232z" />
    <glyph glyph-name="Ohorn" unicode="&#x1a0;" vert-adv-y="0" 
d="M680 940h98v-108c0 -16 -7 -34 -15 -42l-36 -44c-10 -12 -22 -18 -34 -18h-84v-448c0 -20 -8 -36 -14 -42l-99 -120c-12 -14 -26 -18 -34 -18h-231c-16 0 -29 10 -33 16l-96 114c-12 14 -15 34 -15 44v738c0 18 11 32 17 40l92 124c12 16 25 18 35 18h233
c16 0 31 -10 35 -18l97 -124c12 -14 13 -32 13 -42v-162h65l6 8v84zM188 988v-688l63 -80h191l70 86v680l-70 90h-189z" />
    <glyph glyph-name="Uhorn" unicode="&#x1af;" vert-adv-y="0" 
d="M680 940h98v-108c0 -16 -7 -34 -15 -42l-36 -44c-10 -12 -22 -18 -34 -18h-84v-446c0 -8 -1 -26 -13 -40l-94 -122c-6 -8 -20 -20 -36 -20h-233c-8 0 -22 4 -34 18l-95 118c-4 6 -13 22 -13 42v916h94v-890l70 -84h191l66 86v888h97v-346h65l6 8v84z" />
    <glyph glyph-name="ohorn" unicode="&#x1a1;" vert-adv-y="0" 
d="M109 814l98 126c12 14 26 14 32 14h208c16 0 31 -12 35 -20l91 -146c4 -6 8 -12 10 -18h91l6 8v162h98v-186c0 -16 -7 -34 -15 -42l-36 -44c-10 -12 -22 -18 -34 -18h-106v-370c0 -20 -11 -36 -15 -42l-94 -118c-9 -13 -20 -14 -28 -14h-6h-205c-14 0 -26 8 -32 14
l-100 116c-13 14 -14 32 -14 44v494c0 20 12 34 16 40zM190 748v-444l69 -84h166l65 84v444l-64 88h-167z" />
    <glyph glyph-name="uhorn" unicode="&#x1b0;" vert-adv-y="0" 
d="M506 168l-40 -48c-4 -6 -17 -18 -33 -18h-196c-8 0 -21 2 -33 16l-95 116c-4 6 -15 22 -15 42v676h94v-652l68 -82h157l69 88v646h95v-182h97l6 8v162h98v-186c0 -16 -7 -34 -15 -42l-36 -44c-10 -12 -22 -18 -34 -18h-116v-368c0 -6 -1 -14 -5 -24l29 -40h79v-116h-99
c-16 0 -30 8 -34 16z" />
    </font>
</defs>
</svg>
